<svg width="166" height="48" viewBox="0 0 166 48" fill="none" xmlns="http://www.w3.org/2000/svg">
<path fill-rule="evenodd" clip-rule="evenodd" d="M31.1602 22.0492H29.8343V4.27313L33.1491 0.170959H51.7125L55.0274 4.27313V22.0492H53.7014L49.7236 18.6307V13.1612H39.7789V8.37531H49.7236V4.27313H35.1381V18.6307L31.1602 22.0492ZM0 0.171006V4.81185H20.5523V9.1212H0V18.0714L3.97786 22.0493H22.5412L26.5191 18.0714V12.7676L23.8672 9.1212L26.5191 6.1378V4.14887L22.5412 0.171006H0ZM5.63534 12.7676V17.4084H20.5523V12.7676H5.63534ZM58.3415 0.170959L61.6564 4.27313H67.6232V17.2633L71.6011 22.0492H73.59V4.27313H78.8938L82.2087 0.170959H58.3415ZM88.8393 4.27313L85.5244 0.170959H109.392L106.077 4.27313H100.773V22.0492H98.7839L94.8061 17.2633V4.27313H88.8393ZM112.706 0.170959H114.032L118.01 4.27313V17.947H132.595L136.573 22.0492H116.684L112.706 17.947V0.170959ZM143.866 0.170959L139.888 4.27313H160.44L164.418 0.170959H143.866ZM139.888 8.37531H156.462L152.484 12.4775H145.192V17.2633H161.103L165.081 22.0492H143.203L139.888 17.947V8.37531ZM51.7117 29.3419L55.6896 25.3641H74.9159L78.8938 29.3419V43.2644L74.9159 47.2423H55.6896L51.7117 43.2644V29.3419ZM57.0165 29.3419V42.6014H72.928V29.3419H57.0165ZM23.8667 29.4662L20.5519 25.3641H43.0931L47.071 29.4662V34.9358L42.4301 38.3543H39.7782L48.3969 47.2423H42.4301L33.1484 38.3543H26.5187V47.2423H23.8667L20.5519 43.1402V38.3543L25.1927 34.2521H41.1042V29.4662H23.8667ZM86.1865 25.3641L82.2086 29.3419V43.2644L86.1865 47.2423H105.413L109.391 43.2644V29.3419L105.413 25.3641H86.1865ZM87.5122 42.6014V29.3419H103.424V42.6014H87.5122ZM116.021 47.2423L112.706 43.8238V25.3641H118.673L127.623 41.9385H129.28L138.562 25.3641H144.529V43.8238L141.214 47.2423H139.225V34.9358H138.562L130.606 47.2423H125.966L118.673 34.2521H118.01V47.2423H116.021Z" fill="black"/>
</svg>
