<svg width="219" height="45" viewBox="0 0 219 45" fill="none" xmlns="http://www.w3.org/2000/svg">
<path fill-rule="evenodd" clip-rule="evenodd" d="M84.8169 44.3064H94.1947V41.3064H86.898L97.5046 9.48683L108.769 43.2807L111.615 42.332L98.9276 4.26907L97.5046 0L96.0815 4.26907L83.3939 42.332L82.7358 44.3064H84.8169ZM107.986 42.2548C107.681 42.2548 107.434 42.5017 107.434 42.8064C107.434 43.111 107.681 43.358 107.986 43.358C108.29 43.358 108.537 43.111 108.537 42.8064C108.537 42.5017 108.29 42.2548 107.986 42.2548ZM105.228 42.8064C105.228 42.5017 105.475 42.2548 105.779 42.2548C106.084 42.2548 106.331 42.5017 106.331 42.8064C106.331 43.111 106.084 43.358 105.779 43.358C105.475 43.358 105.228 43.111 105.228 42.8064ZM103.573 42.2548C103.268 42.2548 103.021 42.5017 103.021 42.8064C103.021 43.111 103.268 43.358 103.573 43.358C103.877 43.358 104.124 43.111 104.124 42.8064C104.124 42.5017 103.877 42.2548 103.573 42.2548ZM100.814 42.8064C100.814 42.5017 101.061 42.2548 101.366 42.2548C101.671 42.2548 101.918 42.5017 101.918 42.8064C101.918 43.111 101.671 43.358 101.366 43.358C101.061 43.358 100.814 43.111 100.814 42.8064ZM99.1595 42.2548C98.8548 42.2548 98.6078 42.5017 98.6078 42.8064C98.6078 43.111 98.8548 43.358 99.1595 43.358C99.4641 43.358 99.7111 43.111 99.7111 42.8064C99.7111 42.5017 99.4641 42.2548 99.1595 42.2548ZM96.4013 42.8064C96.4013 42.5017 96.6482 42.2548 96.9529 42.2548C97.2576 42.2548 97.5045 42.5017 97.5045 42.8064C97.5045 43.111 97.2576 43.358 96.9529 43.358C96.6482 43.358 96.4013 43.111 96.4013 42.8064ZM94.7465 42.2548C94.4418 42.2548 94.1949 42.5017 94.1949 42.8064C94.1949 43.111 94.4418 43.358 94.7465 43.358C95.0512 43.358 95.2981 43.111 95.2981 42.8064C95.2981 42.5017 95.0512 42.2548 94.7465 42.2548ZM102.155 8.52582L108.223 26.7298L107.748 26.888L101.68 8.68393L102.155 8.52582ZM84.0281 35.556L95.0608 2.45781L95.5352 2.61592L84.5024 35.7142L84.0281 35.556Z" fill="url(#paint0_linear_497_2107)"/>
<path fill-rule="evenodd" clip-rule="evenodd" d="M4.4131 7.8791H0V38.2191H13.7909V34.3577H4.4131V7.8791ZM20.9623 7.8791H17.1008V38.2192H20.9623V7.8791ZM40.8266 7.8791V11.8121H33.6553C30.0697 12.3739 28.1389 14.6213 28.1389 21.0826C28.1389 21.0826 29.2367 32.6006 39.1717 33.1625V14.0595H43.0331V38.2192H39.1717C39.1717 38.2192 24.0017 33.4434 24.2775 19.9589C24.2775 19.9589 23.7258 9.84558 33.6553 7.8791H40.8266ZM46.3375 7.8791H50.199V13.4976H59.0252V7.8791H62.8867V38.2192H59.0252V20.8017H50.199V38.2192H46.3375V7.8791ZM50.1988 16.3069V18.5543H59.025V16.3069H50.1988ZM66.1965 7.8791V12.3739H73.3678V38.2192H76.6776V12.3739H83.8489V7.8791H66.1965Z" fill="black"/>
<path fill-rule="evenodd" clip-rule="evenodd" d="M120.256 38.2191H116.395V7.8791H126.324C126.324 7.8791 132.944 9.03491 132.944 13.9471C132.944 18.8593 126.324 20.3041 126.324 20.3041L135.15 37.6412V38.2191H131.289L121.911 20.3041H120.256V38.2191ZM119.704 16.2587V11.0576C119.704 11.0576 128.53 10.5645 128.53 13.6582C128.53 16.7518 119.704 16.2587 119.704 16.2587ZM150.872 31.7191C155.66 31.7191 159.542 27.8374 159.542 23.0491C159.542 18.2608 155.66 14.3791 150.872 14.3791C146.084 14.3791 142.202 18.2608 142.202 23.0491C142.202 27.8374 146.084 31.7191 150.872 31.7191ZM150.872 38.2191C159.25 38.2191 166.042 31.4273 166.042 23.0491C166.042 14.6709 159.25 7.8791 150.872 7.8791C142.494 7.8791 135.702 14.6709 135.702 23.0491C135.702 31.4273 142.494 38.2191 150.872 38.2191ZM154.664 23.0491C154.664 25.1437 152.966 26.8416 150.872 26.8416C148.777 26.8416 147.079 25.1437 147.079 23.0491C147.079 20.9546 148.777 19.2566 150.872 19.2566C152.966 19.2566 154.664 20.9546 154.664 23.0491ZM191.537 23.0491C191.537 27.8374 187.655 31.7191 182.867 31.7191C178.078 31.7191 174.197 27.8374 174.197 23.0491C174.197 18.2608 178.078 14.3791 182.867 14.3791C187.655 14.3791 191.537 18.2608 191.537 23.0491ZM198.037 23.0491C198.037 31.4273 191.245 38.2191 182.867 38.2191C174.489 38.2191 167.697 31.4273 167.697 23.0491C167.697 14.6709 174.489 7.8791 182.867 7.8791C191.245 7.8791 198.037 14.6709 198.037 23.0491ZM182.867 26.8416C184.961 26.8416 186.659 25.1437 186.659 23.0491C186.659 20.9546 184.961 19.2566 182.867 19.2566C180.772 19.2566 179.074 20.9546 179.074 23.0491C179.074 25.1437 180.772 26.8416 182.867 26.8416ZM203.553 38.2191H199.692V7.8791H203.002L209.621 16.2077L216.241 7.8791H218.999V38.2191H215.138V15.0179H214.586L209.621 21.5619L204.105 15.0179H203.553V38.2191ZM208.518 30.4854V27.5109H211.276V30.4854H208.518ZM208.518 38.2191V35.2446H211.276V38.2191H208.518Z" fill="black"/>
<defs>
<linearGradient id="paint0_linear_497_2107" x1="97.1755" y1="44.3064" x2="97.1755" y2="0" gradientUnits="userSpaceOnUse">
<stop/>
<stop offset="1" stop-color="white"/>
</linearGradient>
</defs>
</svg>
