<svg width="107" height="31" viewBox="0 0 107 31" fill="none" xmlns="http://www.w3.org/2000/svg">
<path fill-rule="evenodd" clip-rule="evenodd" d="M1.00195 0.572266V3.5269H14.0868V6.27049H1.00195V11.9687L3.5345 14.5013H15.353L17.8856 11.9687V8.59199L16.1972 6.27049L17.8856 4.37108V3.10481L15.353 0.572266H1.00195ZM4.58927 8.59229V11.5469H14.0863V8.59229H4.58927ZM20.8404 14.5013H19.9962V3.18395L22.1066 0.572266H33.9252L36.0356 3.18395V14.5013H35.1915L32.6589 12.3249V8.8426H26.3276V5.79564H32.6589V3.18395H23.3729V12.3249L20.8404 14.5013ZM38.1453 0.572266L40.2558 3.18395H44.0546V11.4543L46.5872 14.5013H47.8534V3.18395H51.2301L53.3406 0.572266H38.1453ZM57.5611 3.18395L55.4507 0.572266H70.6459L68.5355 3.18395H65.1588V14.5013H63.8925L61.3599 11.4543V3.18395H57.5611ZM72.756 0.572266H73.6002L76.1327 3.18395V11.8896H85.4187L87.9513 14.5013H75.2886L72.756 11.8896V0.572266ZM92.5968 0.572266L90.0643 3.18395H103.149L105.682 0.572266H92.5968ZM90.0643 11.8896V5.79564H100.617L98.084 8.40732H93.441V11.4543H103.571L106.104 14.5013H92.1747L90.0643 11.8896ZM16.1953 19.2235L14.0849 16.6118H28.436L30.9685 19.2235V22.7057L28.0139 24.8822H26.3255L31.8127 30.5408H28.0139L22.1046 24.8822H17.8837V30.5408H16.1953L14.0849 27.9291V24.8822L17.0395 22.2705H27.1697V19.2235H16.1953ZM33.9245 19.1444L36.457 16.6118H48.6976L51.2302 19.1444V28.0083L48.6976 30.5408H36.457L33.9245 28.0083V19.1444ZM37.3012 19.1445V27.5863H47.4314V19.1445H37.3012ZM55.8727 16.6118L53.3402 19.1444V28.0083L55.8727 30.5408H68.1134L70.6459 28.0083V19.1444L68.1134 16.6118H55.8727ZM56.7154 27.5863V19.1445H66.8456V27.5863H56.7154ZM74.8663 30.5408L72.7558 28.3644V16.6118H76.5546L82.2528 27.1641H83.3081L89.2173 16.6118H93.0162V28.3644L90.9057 30.5408H89.6394V22.7057H89.2173L84.1523 30.5408H81.1976L76.5546 22.2705H76.1325V30.5408H74.8663Z" fill="white"/>
<path d="M1.00195 3.5269H0.751953V3.7769H1.00195V3.5269ZM1.00195 0.572266V0.322266H0.751953V0.572266H1.00195ZM14.0868 3.5269H14.3368V3.2769H14.0868V3.5269ZM14.0868 6.27049V6.52049H14.3368V6.27049H14.0868ZM1.00195 6.27049V6.02049H0.751953V6.27049H1.00195ZM1.00195 11.9687H0.751953V12.0723L0.825176 12.1455L1.00195 11.9687ZM3.5345 14.5013L3.35772 14.678L3.43094 14.7513H3.5345V14.5013ZM15.353 14.5013V14.7513H15.4566L15.5298 14.678L15.353 14.5013ZM17.8856 11.9687L18.0624 12.1455L18.1356 12.0723V11.9687H17.8856ZM17.8856 8.59199H18.1356V8.51069L18.0878 8.44494L17.8856 8.59199ZM16.1972 6.27049L16.0104 6.1044L15.8767 6.2548L15.995 6.41753L16.1972 6.27049ZM17.8856 4.37108L18.0724 4.53717L18.1356 4.46613V4.37108H17.8856ZM17.8856 3.10481H18.1356V3.00126L18.0624 2.92803L17.8856 3.10481ZM15.353 0.572266L15.5298 0.395489L15.4566 0.322266H15.353V0.572266ZM4.58927 11.5469H4.33927V11.7969H4.58927V11.5469ZM4.58927 8.59229V8.34229H4.33927V8.59229H4.58927ZM14.0863 11.5469V11.7969H14.3363V11.5469H14.0863ZM14.0863 8.59229H14.3363V8.34229H14.0863V8.59229ZM19.9962 14.5013H19.7462V14.7513H19.9962V14.5013ZM20.8404 14.5013V14.7513H20.933L21.0033 14.6909L20.8404 14.5013ZM19.9962 3.18395L19.8017 3.02682L19.7462 3.09557V3.18395H19.9962ZM22.1066 0.572266V0.322266H21.9872L21.9122 0.415136L22.1066 0.572266ZM33.9252 0.572266L34.1196 0.415136L34.0446 0.322266H33.9252V0.572266ZM36.0356 3.18395H36.2856V3.09557L36.2301 3.02682L36.0356 3.18395ZM36.0356 14.5013V14.7513H36.2856V14.5013H36.0356ZM35.1915 14.5013L35.0285 14.6909L35.0988 14.7513H35.1915V14.5013ZM32.6589 12.3249H32.4089V12.4396L32.496 12.5145L32.6589 12.3249ZM32.6589 8.8426H32.9089V8.5926H32.6589V8.8426ZM26.3276 8.8426H26.0776V9.0926H26.3276V8.8426ZM26.3276 5.79564V5.54564H26.0776V5.79564H26.3276ZM32.6589 5.79564V6.04564H32.9089V5.79564H32.6589ZM32.6589 3.18395H32.9089V2.93395H32.6589V3.18395ZM23.3729 3.18395V2.93395H23.1229V3.18395H23.3729ZM23.3729 12.3249L23.5359 12.5145L23.6229 12.4396V12.3249H23.3729ZM40.2558 3.18395L40.0613 3.34108L40.1364 3.43395H40.2558V3.18395ZM38.1453 0.572266V0.322266H37.6219L37.9509 0.729396L38.1453 0.572266ZM44.0546 3.18395H44.3046V2.93395H44.0546V3.18395ZM44.0546 11.4543H43.8046V11.5446L43.8623 11.6141L44.0546 11.4543ZM46.5872 14.5013L46.3949 14.6611L46.4699 14.7513H46.5872V14.5013ZM47.8534 14.5013V14.7513H48.1034V14.5013H47.8534ZM47.8534 3.18395V2.93395H47.6034V3.18395H47.8534ZM51.2301 3.18395V3.43395H51.3495L51.4246 3.34108L51.2301 3.18395ZM53.3406 0.572266L53.535 0.729396L53.864 0.322266H53.3406V0.572266ZM55.4507 0.572266V0.322266H54.9272L55.2562 0.729396L55.4507 0.572266ZM57.5611 3.18395L57.3667 3.34108L57.4417 3.43395H57.5611V3.18395ZM70.6459 0.572266L70.8404 0.729396L71.1694 0.322266H70.6459V0.572266ZM68.5355 3.18395V3.43395H68.6549L68.7299 3.34108L68.5355 3.18395ZM65.1588 3.18395V2.93395H64.9088V3.18395H65.1588ZM65.1588 14.5013V14.7513H65.4088V14.5013H65.1588ZM63.8925 14.5013L63.7002 14.6611L63.7752 14.7513H63.8925V14.5013ZM61.3599 11.4543H61.1099V11.5446L61.1677 11.6141L61.3599 11.4543ZM61.3599 3.18395H61.6099V2.93395H61.3599V3.18395ZM73.6002 0.572266L73.7797 0.398229L73.706 0.322266H73.6002V0.572266ZM72.756 0.572266V0.322266H72.506V0.572266H72.756ZM76.1327 3.18395H76.3827V3.08264L76.3122 3.00992L76.1327 3.18395ZM76.1327 11.8896H75.8827V12.1396H76.1327V11.8896ZM85.4187 11.8896L85.5982 11.7155L85.5245 11.6396H85.4187V11.8896ZM87.9513 14.5013V14.7513H88.5419L88.1307 14.3272L87.9513 14.5013ZM75.2886 14.5013L75.1091 14.6753L75.1827 14.7513H75.2886V14.5013ZM72.756 11.8896H72.506V11.9909L72.5765 12.0636L72.756 11.8896ZM90.0643 3.18395L89.8848 3.00991L89.4736 3.43395H90.0643V3.18395ZM92.5968 0.572266V0.322266H92.491L92.4173 0.398229L92.5968 0.572266ZM103.149 3.18395V3.43395H103.255L103.329 3.35799L103.149 3.18395ZM105.682 0.572266L105.861 0.746302L106.272 0.322266H105.682V0.572266ZM90.0643 5.79564V5.54564H89.8143V5.79564H90.0643ZM90.0643 11.8896H89.8143V11.978L89.8698 12.0467L90.0643 11.8896ZM100.617 5.79564L100.796 5.96967L101.207 5.54564H100.617V5.79564ZM98.084 8.40732V8.65732H98.1898L98.2635 8.58136L98.084 8.40732ZM93.441 8.40732V8.15732H93.191V8.40732H93.441ZM93.441 11.4543H93.191V11.7043H93.441V11.4543ZM103.571 11.4543L103.763 11.2945L103.688 11.2043H103.571V11.4543ZM106.104 14.5013V14.7513H106.637L106.296 14.3415L106.104 14.5013ZM92.1747 14.5013L91.9803 14.6584L92.0553 14.7513H92.1747V14.5013ZM14.0849 16.6118V16.3618H13.5614L13.8904 16.7689L14.0849 16.6118ZM16.1953 19.2235L16.0009 19.3806L16.0759 19.4735H16.1953V19.2235ZM28.436 16.6118L28.6154 16.4378L28.5418 16.3618H28.436V16.6118ZM30.9685 19.2235H31.2185V19.1222L31.148 19.0495L30.9685 19.2235ZM30.9685 22.7057L31.1168 22.907L31.2185 22.8321V22.7057H30.9685ZM28.0139 24.8822V25.1322H28.096L28.1621 25.0834L28.0139 24.8822ZM26.3255 24.8822V24.6322H25.7349L26.146 25.0562L26.3255 24.8822ZM31.8127 30.5408V30.7908H32.4034L31.9922 30.3668L31.8127 30.5408ZM28.0139 30.5408L27.841 30.7214L27.9135 30.7908H28.0139V30.5408ZM22.1046 24.8822L22.2775 24.7016L22.205 24.6322H22.1046V24.8822ZM17.8837 24.8822V24.6322H17.6337V24.8822H17.8837ZM17.8837 30.5408V30.7908H18.1337V30.5408H17.8837ZM16.1953 30.5408L16.0009 30.6979L16.0759 30.7908H16.1953V30.5408ZM14.0849 27.9291H13.8349V28.0175L13.8904 28.0863L14.0849 27.9291ZM14.0849 24.8822L13.9193 24.6948L13.8349 24.7695V24.8822H14.0849ZM17.0395 22.2705V22.0205H16.9449L16.8739 22.0832L17.0395 22.2705ZM27.1697 22.2705V22.5205H27.4197V22.2705H27.1697ZM27.1697 19.2235H27.4197V18.9735H27.1697V19.2235ZM36.457 16.6118V16.3618H36.3535L36.2802 16.435L36.457 16.6118ZM33.9245 19.1444L33.7477 18.9676L33.6745 19.0408V19.1444H33.9245ZM48.6976 16.6118L48.8744 16.435L48.8012 16.3618H48.6976V16.6118ZM51.2302 19.1444H51.4802V19.0408L51.407 18.9676L51.2302 19.1444ZM51.2302 28.0083L51.407 28.185L51.4802 28.1118V28.0083H51.2302ZM48.6976 30.5408V30.7908H48.8012L48.8744 30.7176L48.6976 30.5408ZM36.457 30.5408L36.2802 30.7176L36.3535 30.7908H36.457V30.5408ZM33.9245 28.0083H33.6745V28.1118L33.7477 28.185L33.9245 28.0083ZM37.3012 27.5863H37.0512V27.8363H37.3012V27.5863ZM37.3012 19.1445V18.8945H37.0512V19.1445H37.3012ZM47.4314 27.5863V27.8363H47.6814V27.5863H47.4314ZM47.4314 19.1445H47.6814V18.8945H47.4314V19.1445ZM53.3402 19.1444L53.1634 18.9676L53.0902 19.0408V19.1444H53.3402ZM55.8727 16.6118V16.3618H55.7692L55.696 16.435L55.8727 16.6118ZM53.3402 28.0083H53.0902V28.1118L53.1634 28.185L53.3402 28.0083ZM55.8727 30.5408L55.696 30.7176L55.7692 30.7908H55.8727V30.5408ZM68.1134 30.5408V30.7908H68.2169L68.2902 30.7176L68.1134 30.5408ZM70.6459 28.0083L70.8227 28.185L70.8959 28.1118V28.0083H70.6459ZM70.6459 19.1444H70.8959V19.0408L70.8227 18.9676L70.6459 19.1444ZM68.1134 16.6118L68.2902 16.435L68.2169 16.3618H68.1134V16.6118ZM56.7154 19.1445V18.8945H56.4654V19.1445H56.7154ZM56.7154 27.5863H56.4654V27.8363H56.7154V27.5863ZM66.8456 19.1445H67.0956V18.8945H66.8456V19.1445ZM66.8456 27.5863V27.8363H67.0956V27.5863H66.8456ZM72.7558 28.3644H72.5058V28.4657L72.5763 28.5384L72.7558 28.3644ZM74.8663 30.5408L74.6868 30.7148L74.7605 30.7908H74.8663V30.5408ZM72.7558 16.6118V16.3618H72.5058V16.6118H72.7558ZM76.5546 16.6118L76.7746 16.493L76.7038 16.3618H76.5546V16.6118ZM82.2528 27.1641L82.0329 27.2829L82.1037 27.4141H82.2528V27.1641ZM83.3081 27.1641V27.4141H83.4546L83.5262 27.2862L83.3081 27.1641ZM89.2173 16.6118V16.3618H89.0708L88.9992 16.4897L89.2173 16.6118ZM93.0162 16.6118H93.2662V16.3618H93.0162V16.6118ZM93.0162 28.3644L93.1956 28.5384L93.2662 28.4657V28.3644H93.0162ZM90.9057 30.5408V30.7908H91.0115L91.0852 30.7148L90.9057 30.5408ZM89.6394 30.5408H89.3894V30.7908H89.6394V30.5408ZM89.6394 22.7057H89.8894V22.4557H89.6394V22.7057ZM89.2173 22.7057V22.4557H89.0813L89.0074 22.57L89.2173 22.7057ZM84.1523 30.5408V30.7908H84.2883L84.3622 30.6765L84.1523 30.5408ZM81.1976 30.5408L80.9796 30.6632L81.0513 30.7908H81.1976V30.5408ZM76.5546 22.2705L76.7726 22.1481L76.701 22.0205H76.5546V22.2705ZM76.1325 22.2705V22.0205H75.8825V22.2705H76.1325ZM76.1325 30.5408V30.7908H76.3825V30.5408H76.1325ZM1.25195 3.5269V0.572266H0.751953V3.5269H1.25195ZM14.0868 3.2769H1.00195V3.7769H14.0868V3.2769ZM14.3368 6.27049V3.5269H13.8368V6.27049H14.3368ZM1.00195 6.52049H14.0868V6.02049H1.00195V6.52049ZM1.25195 11.9687V6.27049H0.751953V11.9687H1.25195ZM3.71127 14.3245L1.17873 11.7919L0.825176 12.1455L3.35772 14.678L3.71127 14.3245ZM15.353 14.2513H3.5345V14.7513H15.353V14.2513ZM17.7088 11.7919L15.1763 14.3245L15.5298 14.678L18.0624 12.1455L17.7088 11.7919ZM17.6356 8.59199V11.9687H18.1356V8.59199H17.6356ZM15.995 6.41753L17.6834 8.73903L18.0878 8.44494L16.3994 6.12345L15.995 6.41753ZM17.6987 4.20499L16.0104 6.1044L16.3841 6.43658L18.0724 4.53717L17.6987 4.20499ZM17.6356 3.10481V4.37108H18.1356V3.10481H17.6356ZM15.1763 0.749042L17.7088 3.28159L18.0624 2.92803L15.5298 0.395489L15.1763 0.749042ZM1.00195 0.822266H15.353V0.322266H1.00195V0.822266ZM4.83927 11.5469V8.59229H4.33927V11.5469H4.83927ZM14.0863 11.2969H4.58927V11.7969H14.0863V11.2969ZM13.8363 8.59229V11.5469H14.3363V8.59229H13.8363ZM4.58927 8.84229H14.0863V8.34229H4.58927V8.84229ZM19.9962 14.7513H20.8404V14.2513H19.9962V14.7513ZM19.7462 3.18395V14.5013H20.2462V3.18395H19.7462ZM21.9122 0.415136L19.8017 3.02682L20.1906 3.34108L22.3011 0.729396L21.9122 0.415136ZM33.9252 0.322266H22.1066V0.822266H33.9252V0.322266ZM36.2301 3.02682L34.1196 0.415136L33.7307 0.729396L35.8412 3.34108L36.2301 3.02682ZM36.2856 14.5013V3.18395H35.7856V14.5013H36.2856ZM35.1915 14.7513H36.0356V14.2513H35.1915V14.7513ZM32.496 12.5145L35.0285 14.6909L35.3544 14.3117L32.8219 12.1352L32.496 12.5145ZM32.4089 8.8426V12.3249H32.9089V8.8426H32.4089ZM26.3276 9.0926H32.6589V8.5926H26.3276V9.0926ZM26.0776 5.79564V8.8426H26.5776V5.79564H26.0776ZM32.6589 5.54564H26.3276V6.04564H32.6589V5.54564ZM32.4089 3.18395V5.79564H32.9089V3.18395H32.4089ZM23.3729 3.43395H32.6589V2.93395H23.3729V3.43395ZM23.6229 12.3249V3.18395H23.1229V12.3249H23.6229ZM21.0033 14.6909L23.5359 12.5145L23.21 12.1352L20.6774 14.3117L21.0033 14.6909ZM40.4502 3.02682L38.3398 0.415136L37.9509 0.729396L40.0613 3.34108L40.4502 3.02682ZM44.0546 2.93395H40.2558V3.43395H44.0546V2.93395ZM44.3046 11.4543V3.18395H43.8046V11.4543H44.3046ZM46.7794 14.3415L44.2469 11.2945L43.8623 11.6141L46.3949 14.6611L46.7794 14.3415ZM47.8534 14.2513H46.5872V14.7513H47.8534V14.2513ZM47.6034 3.18395V14.5013H48.1034V3.18395H47.6034ZM51.2301 2.93395H47.8534V3.43395H51.2301V2.93395ZM53.1461 0.415136L51.0357 3.02682L51.4246 3.34108L53.535 0.729396L53.1461 0.415136ZM38.1453 0.822266H53.3406V0.322266H38.1453V0.822266ZM55.2562 0.729396L57.3667 3.34108L57.7556 3.02682L55.6451 0.415136L55.2562 0.729396ZM70.6459 0.322266H55.4507V0.822266H70.6459V0.322266ZM68.7299 3.34108L70.8404 0.729396L70.4515 0.415136L68.341 3.02682L68.7299 3.34108ZM65.1588 3.43395H68.5355V2.93395H65.1588V3.43395ZM65.4088 14.5013V3.18395H64.9088V14.5013H65.4088ZM63.8925 14.7513H65.1588V14.2513H63.8925V14.7513ZM61.1677 11.6141L63.7002 14.6611L64.0847 14.3415L61.5522 11.2945L61.1677 11.6141ZM61.1099 3.18395V11.4543H61.6099V3.18395H61.1099ZM57.5611 3.43395H61.3599V2.93395H57.5611V3.43395ZM73.6002 0.322266H72.756V0.822266H73.6002V0.322266ZM76.3122 3.00992L73.7797 0.398229L73.4207 0.746302L75.9533 3.35799L76.3122 3.00992ZM76.3827 11.8896V3.18395H75.8827V11.8896H76.3827ZM85.4187 11.6396H76.1327V12.1396H85.4187V11.6396ZM88.1307 14.3272L85.5982 11.7155L85.2393 12.0636L87.7718 14.6753L88.1307 14.3272ZM75.2886 14.7513H87.9513V14.2513H75.2886V14.7513ZM72.5765 12.0636L75.1091 14.6753L75.468 14.3272L72.9355 11.7155L72.5765 12.0636ZM72.506 0.572266V11.8896H73.006V0.572266H72.506ZM90.2437 3.35799L92.7763 0.746302L92.4173 0.398229L89.8848 3.00991L90.2437 3.35799ZM103.149 2.93395H90.0643V3.43395H103.149V2.93395ZM105.502 0.398229L102.97 3.00992L103.329 3.35799L105.861 0.746302L105.502 0.398229ZM92.5968 0.822266H105.682V0.322266H92.5968V0.822266ZM89.8143 5.79564V11.8896H90.3143V5.79564H89.8143ZM100.617 5.54564H90.0643V6.04564H100.617V5.54564ZM98.2635 8.58136L100.796 5.96967L100.437 5.6216L97.9045 8.23329L98.2635 8.58136ZM93.441 8.65732H98.084V8.15732H93.441V8.65732ZM93.691 11.4543V8.40732H93.191V11.4543H93.691ZM103.571 11.2043H93.441V11.7043H103.571V11.2043ZM106.296 14.3415L103.763 11.2945L103.379 11.6141L105.911 14.6611L106.296 14.3415ZM92.1747 14.7513H106.104V14.2513H92.1747V14.7513ZM89.8698 12.0467L91.9803 14.6584L92.3692 14.3441L90.2587 11.7324L89.8698 12.0467ZM13.8904 16.7689L16.0009 19.3806L16.3898 19.0664L14.2793 16.4547L13.8904 16.7689ZM28.436 16.3618H14.0849V16.8618H28.436V16.3618ZM31.148 19.0495L28.6154 16.4378L28.2565 16.7859L30.789 19.3975L31.148 19.0495ZM31.2185 22.7057V19.2235H30.7185V22.7057H31.2185ZM28.1621 25.0834L31.1168 22.907L30.8202 22.5045L27.8656 24.6809L28.1621 25.0834ZM26.3255 25.1322H28.0139V24.6322H26.3255V25.1322ZM31.9922 30.3668L26.505 24.7081L26.146 25.0562L31.6332 30.7148L31.9922 30.3668ZM28.0139 30.7908H31.8127V30.2908H28.0139V30.7908ZM21.9317 25.0627L27.841 30.7214L28.1868 30.3602L22.2775 24.7016L21.9317 25.0627ZM17.8837 25.1322H22.1046V24.6322H17.8837V25.1322ZM18.1337 30.5408V24.8822H17.6337V30.5408H18.1337ZM16.1953 30.7908H17.8837V30.2908H16.1953V30.7908ZM13.8904 28.0863L16.0009 30.6979L16.3898 30.3837L14.2793 27.772L13.8904 28.0863ZM13.8349 24.8822V27.9291H14.3349V24.8822H13.8349ZM16.8739 22.0832L13.9193 24.6948L14.2505 25.0695L17.2051 22.4578L16.8739 22.0832ZM27.1697 22.0205H17.0395V22.5205H27.1697V22.0205ZM26.9197 19.2235V22.2705H27.4197V19.2235H26.9197ZM16.1953 19.4735H27.1697V18.9735H16.1953V19.4735ZM36.2802 16.435L33.7477 18.9676L34.1013 19.3211L36.6338 16.7886L36.2802 16.435ZM48.6976 16.3618H36.457V16.8618H48.6976V16.3618ZM51.407 18.9676L48.8744 16.435L48.5209 16.7886L51.0534 19.3211L51.407 18.9676ZM51.4802 28.0083V19.1444H50.9802V28.0083H51.4802ZM48.8744 30.7176L51.407 28.185L51.0534 27.8315L48.5209 30.364L48.8744 30.7176ZM36.457 30.7908H48.6976V30.2908H36.457V30.7908ZM33.7477 28.185L36.2802 30.7176L36.6338 30.364L34.1013 27.8315L33.7477 28.185ZM33.6745 19.1444V28.0083H34.1745V19.1444H33.6745ZM37.5512 27.5863V19.1445H37.0512V27.5863H37.5512ZM47.4314 27.3363H37.3012V27.8363H47.4314V27.3363ZM47.1814 19.1445V27.5863H47.6814V19.1445H47.1814ZM37.3012 19.3945H47.4314V18.8945H37.3012V19.3945ZM53.517 19.3211L56.0495 16.7886L55.696 16.435L53.1634 18.9676L53.517 19.3211ZM53.5902 28.0083V19.1444H53.0902V28.0083H53.5902ZM56.0495 30.364L53.517 27.8315L53.1634 28.185L55.696 30.7176L56.0495 30.364ZM68.1134 30.2908H55.8727V30.7908H68.1134V30.2908ZM70.4691 27.8315L67.9366 30.364L68.2902 30.7176L70.8227 28.185L70.4691 27.8315ZM70.3959 19.1444V28.0083H70.8959V19.1444H70.3959ZM67.9366 16.7886L70.4691 19.3211L70.8227 18.9676L68.2902 16.435L67.9366 16.7886ZM55.8727 16.8618H68.1134V16.3618H55.8727V16.8618ZM56.4654 19.1445V27.5863H56.9654V19.1445H56.4654ZM66.8456 18.8945H56.7154V19.3945H66.8456V18.8945ZM67.0956 27.5863V19.1445H66.5956V27.5863H67.0956ZM56.7154 27.8363H66.8456V27.3363H56.7154V27.8363ZM72.5763 28.5384L74.6868 30.7148L75.0457 30.3668L72.9353 28.1904L72.5763 28.5384ZM72.5058 16.6118V28.3644H73.0058V16.6118H72.5058ZM76.5546 16.3618H72.7558V16.8618H76.5546V16.3618ZM82.4728 27.0453L76.7746 16.493L76.3346 16.7306L82.0329 27.2829L82.4728 27.0453ZM83.3081 26.9141H82.2528V27.4141H83.3081V26.9141ZM88.9992 16.4897L83.09 27.0419L83.5262 27.2862L89.4355 16.734L88.9992 16.4897ZM93.0162 16.3618H89.2173V16.8618H93.0162V16.3618ZM93.2662 28.3644V16.6118H92.7662V28.3644H93.2662ZM91.0852 30.7148L93.1956 28.5384L92.8367 28.1904L90.7262 30.3668L91.0852 30.7148ZM89.6394 30.7908H90.9057V30.2908H89.6394V30.7908ZM89.3894 22.7057V30.5408H89.8894V22.7057H89.3894ZM89.2173 22.9557H89.6394V22.4557H89.2173V22.9557ZM84.3622 30.6765L89.4273 22.8415L89.0074 22.57L83.9423 30.4051L84.3622 30.6765ZM81.1976 30.7908H84.1523V30.2908H81.1976V30.7908ZM76.3366 22.3929L80.9796 30.6632L81.4156 30.4184L76.7726 22.1481L76.3366 22.3929ZM76.1325 22.5205H76.5546V22.0205H76.1325V22.5205ZM76.3825 30.5408V22.2705H75.8825V30.5408H76.3825ZM74.8663 30.7908H76.1325V30.2908H74.8663V30.7908Z" fill="black"/>
</svg>
