<svg width="51" height="50" viewBox="0 0 51 50" fill="none" xmlns="http://www.w3.org/2000/svg">
<path d="M49.6142 25C49.6142 38.5338 38.7086 49.5 25.2622 49.5C11.8157 49.5 0.910156 38.5338 0.910156 25C0.910156 11.4662 11.8157 0.5 25.2622 0.5C38.7086 0.5 49.6142 11.4662 49.6142 25Z" stroke="#646363"/>
<path d="M29.0508 36.3389C29.2251 36.3388 29.3954 36.2842 29.5403 36.182C29.6851 36.0798 29.798 35.9345 29.8647 35.7646C29.9313 35.5947 29.9487 35.4077 29.9147 35.2273C29.8806 35.0469 29.7967 34.8813 29.6734 34.7513L19.4366 23.9468L29.6734 13.1423C29.8339 12.9669 29.9227 12.732 29.9207 12.4882C29.9187 12.2444 29.826 12.0112 29.6627 11.8388C29.4993 11.6664 29.2783 11.5686 29.0473 11.5664C28.8163 11.5643 28.5938 11.658 28.4276 11.8274L17.5676 23.2897C17.4025 23.464 17.3097 23.7005 17.3097 23.9471C17.3097 24.1936 17.4025 24.4301 17.5676 24.6045L28.4276 36.0667C28.5095 36.1531 28.6067 36.2215 28.7136 36.2682C28.8205 36.3149 28.9351 36.3389 29.0508 36.3389Z" fill="#646363"/>
</svg>
