<svg width="50" height="50" viewBox="0 0 50 50" fill="none" xmlns="http://www.w3.org/2000/svg">
<path d="M49.1996 25C49.1996 38.5338 38.2941 49.5 24.8476 49.5C11.4012 49.5 0.495605 38.5338 0.495605 25C0.495605 11.4662 11.4012 0.5 24.8476 0.5C38.2941 0.5 49.1996 11.4662 49.1996 25Z" stroke="#646363"/>
<path d="M21.7519 35.3389C21.5777 35.3388 21.4073 35.2887 21.2625 35.1947C21.1176 35.1007 21.0047 34.9672 20.9381 34.811C20.8714 34.6548 20.854 34.4829 20.8881 34.3171C20.9221 34.1512 21.0061 33.999 21.1293 33.8794L31.3662 23.9472L21.1293 14.015C20.9689 13.8538 20.8801 13.6379 20.8821 13.4138C20.8841 13.1897 20.9767 12.9753 21.1401 12.8168C21.3034 12.6583 21.5244 12.5684 21.7554 12.5664C21.9864 12.5645 22.2089 12.6506 22.3751 12.8064L33.2351 23.3432C33.4003 23.5035 33.493 23.7209 33.493 23.9475C33.493 24.1742 33.4003 24.3916 33.2351 24.5519L22.3751 35.0887C22.2932 35.1681 22.1961 35.231 22.0892 35.2739C21.9822 35.3169 21.8676 35.3389 21.7519 35.3389Z" fill="#646363"/>
</svg>
