<svg width="190" height="22" viewBox="0 0 190 22" fill="none" xmlns="http://www.w3.org/2000/svg">
<path fill-rule="evenodd" clip-rule="evenodd" d="M15.5561 20.8247V7.47928C15.5561 5.11328 16.133 3.27524 17.2866 1.96514C18.4599 0.655048 20.1219 0 22.2728 0C24.4433 0 26.1053 0.527949 27.259 1.58385C28.4322 2.63974 29.0188 4.12582 29.0188 6.04208C29.0188 7.27396 28.7255 8.28098 28.1389 9.06312C27.5523 9.84527 26.5551 10.4612 25.1472 10.9109V11.0283C26.6137 11.5953 27.5914 12.4068 28.0803 13.4627C28.5886 14.499 28.8428 16.2198 28.8428 18.6249V20.8247H26.0858V17.0703C26.0858 15.5843 25.6654 14.4306 24.8246 13.6094C23.9838 12.7685 22.7714 12.3481 21.1876 12.3481H19.6037V9.76706H21.2756C23.1527 9.76706 24.453 9.38576 25.1765 8.62317C25.9 7.86057 26.2618 6.95133 26.2618 5.89543C26.2618 4.89819 25.9 4.09649 25.1765 3.49033C24.4726 2.88417 23.534 2.58108 22.3608 2.58108C21.0116 2.58108 19.9948 2.96238 19.3104 3.72497C18.6456 4.48757 18.3132 5.739 18.3132 7.47928V20.8247H15.5561ZM-0.000488281 10.559C0.0190654 7.29352 0.918534 4.77109 2.69792 2.99171C4.49686 1.19277 6.97039 0.293305 10.1185 0.293305H12.025V2.87439H9.76657C7.59611 2.87439 5.92427 3.59787 4.75105 5.04484C3.59739 6.47226 3.001 8.31031 2.96189 10.559C3.001 12.8076 3.59739 14.6555 4.75105 16.1024C5.92427 17.5299 7.59611 18.2436 9.76657 18.2436H12.025V20.8247H10.1185C6.97039 20.8247 4.49686 19.935 2.69792 18.1556C0.918534 16.3566 0.0190654 13.8244 -0.000488281 10.559ZM32.3983 20.8247H44.0718V18.2436H35.1553V11.4976H41.9307V8.91647H35.1553V5.57279C35.1553 3.77386 36.2308 2.87439 38.3817 2.87439H44.0718V0.293305H38.763C37.6289 0.293305 36.6707 0.381296 35.8886 0.557279C35.1064 0.733262 34.4025 1.11456 33.7768 1.70117C32.8578 2.58108 32.3983 3.74453 32.3983 5.1915V20.8247ZM49.7564 20.8247H47.146V7.91923C47.146 5.80744 47.8206 4.0085 49.1698 2.52242C50.5386 1.03634 52.2984 0.293305 54.4493 0.293305H61.166V20.8247H58.4089V2.87439H54.4493C53.0219 2.87439 51.878 3.29479 51.0176 4.1356C50.1768 4.97641 49.7564 6.31583 49.7564 8.15388V10.647C50.8514 9.4933 52.4157 8.91647 54.4493 8.91647H57.1184V11.4976H54.4493C53.3152 11.4976 52.3864 11.6344 51.6629 11.9082C50.959 12.1819 50.3235 12.6512 49.7564 13.316V20.8247ZM63.9641 0.293305V2.87439H69.0382V20.8247H71.7953V2.87439H76.8695V0.293305H63.9641ZM82.4198 20.8247H79.6627V0.293305H82.4198V20.8247ZM88.0765 0.293499H85.1434L93.4109 21.5581L101.275 0.293499H98.3421L93.2093 13.4922L88.0765 0.293499ZM115.247 20.8248H103.573V18.2437H112.489V11.4977H105.714V8.91662H112.489V5.57295C112.489 3.77401 111.414 2.87454 109.263 2.87454H103.573V0.293457H108.882C110.016 0.293457 110.974 0.381449 111.756 0.557432C112.538 0.733415 113.242 1.11471 113.868 1.70132C114.787 2.58124 115.247 3.74468 115.247 5.19165V20.8248ZM152.606 0.293457H120.342V21.5581H142.34H143.806H190.002V0.293457H154.072H152.606ZM150.315 5.0375C149.653 4.81402 148.943 4.69287 148.205 4.69287C144.56 4.69287 141.606 7.64751 141.606 11.2922C141.606 13.6154 142.806 15.6582 144.62 16.8341L150.315 5.0375ZM145.796 17.4379C146.542 17.7308 147.355 17.8916 148.205 17.8916C151.85 17.8916 154.804 14.937 154.804 11.2922C154.804 8.85514 153.483 6.72659 151.518 5.58361L145.796 17.4379ZM131.033 17.8916H128.409V4.69287H137.594C137.594 4.69287 139.099 5.85173 139.562 6.89266C140.165 8.24752 140.348 9.39814 139.562 10.6637C139.051 11.4874 137.594 12.235 137.594 12.235L140.874 17.8916H138.25L134.642 12.235V10.6637H136.938C138.381 9.72096 138.381 8.14968 136.938 7.20691H131.033V17.8916ZM162.14 17.8916C165.784 17.8916 168.739 14.937 168.739 11.2922C168.739 7.64751 165.784 4.69287 162.14 4.69287C158.495 4.69287 155.54 7.64751 155.54 11.2922C155.54 14.937 158.495 17.8916 162.14 17.8916ZM171.986 17.8916H169.472V4.69287H172.614L175.757 12.6121H176.385L179.528 4.69287H182.67V17.8916H180.156V9.31242H179.528L176.385 17.8916H175.757L172.614 9.31242H171.986V17.8916Z" fill="white"/>
</svg>
