<svg width="89" height="47" viewBox="0 0 89 47" fill="none" xmlns="http://www.w3.org/2000/svg">
<path fill-rule="evenodd" clip-rule="evenodd" d="M6.91526 10.7271H10.9379V17.8784H14.9606C14.9606 17.8784 15.9983 17.6047 16.3014 17.4315C16.6403 17.2378 16.9719 16.9845 16.9719 16.9845L4.68046 0H14.9606C14.9606 0 24.5702 1.1174 24.7937 10.7271C25.0172 20.3367 14.9606 21.4541 14.9606 21.4541H6.91526V10.7271ZM12.2787 3.57553L20.324 14.3026C20.324 14.3026 21.5269 9.92374 20.324 7.59818C19.5302 6.06338 18.7104 5.3003 17.1953 4.46945C15.4842 3.5311 12.2787 3.57553 12.2787 3.57553ZM29.6102 21.4541H24.794L35.3021 0H36.1778L46.2481 21.4541H35.7399V17.9514H40.1183L35.7399 8.75679L29.6102 21.4541ZM52.0583 21.4541H48.0357V12.9619H53.8462L46.2479 0H56.528C56.528 0 61.8915 0.446961 63.4558 6.25745C65.0202 12.0679 60.1036 15.1967 60.1036 15.1967L64.1263 21.4541H59.2097L56.081 16.5376H52.0583V21.4541ZM57.8685 12.0678L52.952 4.02246H56.0807C56.0807 4.02246 58.539 4.02246 59.6564 7.15119C60.7738 10.2799 57.8685 12.0678 57.8685 12.0678ZM71.1177 0H67.256V21.4541L73.6922 13.3016L78.8412 20.596H83.5611L76.2667 10.0834L83.5611 0H78.8412L71.1177 10.7271V0ZM7.36278 44.6963H11.3854V39.7797H15.4081L18.5368 44.6963H23.4534L19.4307 38.4389C19.4307 38.4389 24.3473 35.3101 22.7829 29.4996C21.2186 23.6891 15.855 23.2422 15.855 23.2422H5.57494L13.1733 36.2041H7.36278V44.6963ZM12.278 27.2646L17.1946 35.3099C17.1946 35.3099 20.0998 33.5221 18.9824 30.3934C17.865 27.2646 15.4067 27.2646 15.4067 27.2646H12.278ZM37.8233 41.2303C36.8724 41.745 35.7835 42.0371 34.6263 42.0371C30.911 42.0371 27.8992 39.0253 27.8992 35.3101C27.8992 33.9051 28.3299 32.6007 29.0665 31.5217L37.8233 41.2303ZM40.0784 39.2514L31.266 29.4811C32.2547 28.9099 33.4023 28.583 34.6263 28.583C38.1983 28.583 41.1201 31.3671 41.34 34.8837C41.3345 35.0251 41.3317 35.1673 41.3317 35.3101C41.3317 35.4529 41.3345 35.595 41.34 35.7365C41.2582 37.0447 40.8025 38.2515 40.0784 39.2514ZM43.3425 41.5642C41.3955 44.273 38.2169 46.0371 34.6263 46.0371C28.7019 46.0371 23.8992 41.2345 23.8992 35.3101C23.8992 29.3857 28.7019 24.583 34.6263 24.583C38.2169 24.583 41.3955 26.3471 43.3425 29.0559C45.2896 26.3471 48.4682 24.583 52.0588 24.583C57.9832 24.583 62.7859 29.3857 62.7859 35.3101C62.7859 41.2345 57.9832 46.0371 52.0588 46.0371C48.4682 46.0371 45.2896 44.273 43.3425 41.5642ZM45.345 35.7365C45.4268 37.0445 45.8825 38.2513 46.6064 39.2511L55.4187 29.4809C54.4301 28.9098 53.2826 28.583 52.0588 28.583C48.4867 28.583 45.565 31.3671 45.345 34.8837C45.3505 35.0251 45.3533 35.1673 45.3533 35.3101C45.3533 35.4529 45.3505 35.595 45.345 35.7365ZM52.0588 42.0371C50.9015 42.0371 49.8124 41.7449 48.8614 41.2302L57.6183 31.5214C58.355 32.6004 58.7859 33.9049 58.7859 35.3101C58.7859 39.0253 55.774 42.0371 52.0588 42.0371ZM64.808 24.583L68.5785 23.6528L73.7068 33.413L78.6576 23.6765L82.4403 24.583V46.0371H78.4403V32.929L75.5187 38.6749L73.765 42.1237L71.9654 38.6986L68.808 32.6894V46.0371H64.808V24.583ZM0 45.5898V0.446777H4V45.5898H0ZM84.4755 0.446777V45.5898H88.4755V0.446777H84.4755Z" fill="white"/>
</svg>
