<svg width="169" height="23" viewBox="0 0 169 23" fill="none" xmlns="http://www.w3.org/2000/svg">
<path d="M6.1 0.879998C9.74 0.879998 12.51 1.8 14.41 3.64C16.31 5.48 17.26 8.08 17.26 11.44C17.26 14.8 16.31 17.4 14.41 19.24C12.51 21.08 9.74 22 6.1 22H0.55V0.879998H6.1ZM6.1 21.46C9.58 21.46 12.21 20.58 13.99 18.82C15.77 17.06 16.66 14.6 16.66 11.44C16.66 8.28 15.77 5.82 13.99 4.06C12.21 2.3 9.58 1.42 6.1 1.42H1.15V21.46H6.1ZM34.2145 16.18H23.7745L21.5545 22H20.8645L28.6945 1.51H29.2945L37.0945 22H36.4045L34.2145 16.18ZM34.0045 15.64L28.9945 2.47L23.9845 15.64H34.0045ZM52.982 22L47.342 12.79H46.772H42.032V22H41.432V0.879998H46.712C49.032 0.879998 50.752 1.41 51.872 2.47C53.012 3.53 53.582 4.98 53.582 6.82C53.582 8.52 53.102 9.88 52.142 10.9C51.182 11.92 49.812 12.53 48.032 12.73L53.732 22H52.982ZM46.772 12.22C48.832 12.22 50.372 11.73 51.392 10.75C52.432 9.77 52.952 8.46 52.952 6.82C52.952 3.26 50.872 1.48 46.712 1.48H42.032V12.22H46.772ZM59.3467 11.44L70.0567 22H69.2467L58.9867 11.92V22H58.3867V0.879998H58.9867V11.02L69.2467 0.879998H70.0567L59.3467 11.44ZM95.2621 22L89.6221 12.79H89.0521H84.3121V22H83.7121V0.879998H88.9921C91.3121 0.879998 93.0321 1.41 94.1521 2.47C95.2921 3.53 95.8621 4.98 95.8621 6.82C95.8621 8.52 95.3821 9.88 94.4221 10.9C93.4621 11.92 92.0921 12.53 90.3121 12.73L96.0121 22H95.2621ZM89.0521 12.22C91.1121 12.22 92.6521 11.73 93.6721 10.75C94.7121 9.77 95.2321 8.46 95.2321 6.82C95.2321 3.26 93.1521 1.48 88.9921 1.48H84.3121V12.22H89.0521ZM109.997 22.24C108.057 22.24 106.317 21.79 104.777 20.89C103.257 19.97 102.067 18.69 101.207 17.05C100.347 15.41 99.9168 13.55 99.9168 11.47C99.9168 9.39 100.347 7.53 101.207 5.89C102.067 4.25 103.257 2.98 104.777 2.08C106.317 1.16 108.057 0.699999 109.997 0.699999C111.937 0.699999 113.667 1.16 115.187 2.08C116.727 2.98 117.927 4.25 118.787 5.89C119.647 7.53 120.077 9.39 120.077 11.47C120.077 13.55 119.647 15.41 118.787 17.05C117.927 18.69 116.727 19.97 115.187 20.89C113.667 21.79 111.937 22.24 109.997 22.24ZM109.997 21.7C111.757 21.7 113.357 21.29 114.797 20.47C116.237 19.63 117.367 18.44 118.187 16.9C119.027 15.34 119.447 13.53 119.447 11.47C119.447 9.41 119.027 7.61 118.187 6.07C117.367 4.51 116.237 3.32 114.797 2.5C113.357 1.66 111.757 1.24 109.997 1.24C108.237 1.24 106.637 1.66 105.197 2.5C103.757 3.32 102.617 4.51 101.777 6.07C100.957 7.61 100.547 9.41 100.547 11.47C100.547 13.53 100.957 15.34 101.777 16.9C102.617 18.44 103.757 19.63 105.197 20.47C106.637 21.29 108.237 21.7 109.997 21.7ZM134.657 22.24C132.717 22.24 130.977 21.79 129.437 20.89C127.917 19.97 126.727 18.69 125.867 17.05C125.007 15.41 124.577 13.55 124.577 11.47C124.577 9.39 125.007 7.53 125.867 5.89C126.727 4.25 127.917 2.98 129.437 2.08C130.977 1.16 132.717 0.699999 134.657 0.699999C136.597 0.699999 138.327 1.16 139.847 2.08C141.387 2.98 142.587 4.25 143.447 5.89C144.307 7.53 144.737 9.39 144.737 11.47C144.737 13.55 144.307 15.41 143.447 17.05C142.587 18.69 141.387 19.97 139.847 20.89C138.327 21.79 136.597 22.24 134.657 22.24ZM134.657 21.7C136.417 21.7 138.017 21.29 139.457 20.47C140.897 19.63 142.027 18.44 142.847 16.9C143.687 15.34 144.107 13.53 144.107 11.47C144.107 9.41 143.687 7.61 142.847 6.07C142.027 4.51 140.897 3.32 139.457 2.5C138.017 1.66 136.417 1.24 134.657 1.24C132.897 1.24 131.297 1.66 129.857 2.5C128.417 3.32 127.277 4.51 126.437 6.07C125.617 7.61 125.207 9.41 125.207 11.47C125.207 13.53 125.617 15.34 126.437 16.9C127.277 18.44 128.417 19.63 129.857 20.47C131.297 21.29 132.897 21.7 134.657 21.7ZM168.796 1.48V22H168.196V2.95L159.706 22H159.106L150.586 2.95V22H149.986V1.48H150.586L159.406 21.22L168.196 1.48H168.796Z" fill="#646363"/>
</svg>
