<svg width="194" height="15" viewBox="0 0 194 15" fill="none" xmlns="http://www.w3.org/2000/svg">
<path d="M3.65229 3.47C5.43229 3.47 6.80229 3.935 7.76229 4.865C8.73229 5.795 9.21729 7.09 9.21729 8.75C9.21729 10.41 8.73229 11.7 7.76229 12.62C6.80229 13.54 5.43229 14 3.65229 14H0.697285V3.47H3.65229ZM3.65229 13.43C5.24229 13.43 6.45229 13.02 7.28229 12.2C8.11229 11.37 8.52729 10.22 8.52729 8.75C8.52729 7.27 8.11229 6.115 7.28229 5.285C6.45229 4.455 5.24229 4.04 3.65229 4.04H1.37229V13.43H3.65229ZM11.9338 4.04V8.435H16.1338V9.005H11.9338V13.43H16.5838V14H11.2588V3.47H16.5838V4.04H11.9338ZM14.9338 1.175L11.9938 3.035V2.48L14.9338 0.514999V1.175ZM18.207 8.75C18.207 7.71 18.422 6.785 18.852 5.975C19.292 5.155 19.892 4.515 20.652 4.055C21.422 3.595 22.282 3.365 23.232 3.365C24.432 3.365 25.442 3.645 26.262 4.205C27.082 4.765 27.682 5.55 28.062 6.56H27.282C26.982 5.76 26.482 5.13 25.782 4.67C25.092 4.2 24.242 3.965 23.232 3.965C22.422 3.965 21.687 4.16 21.027 4.55C20.367 4.93 19.847 5.485 19.467 6.215C19.087 6.935 18.897 7.78 18.897 8.75C18.897 9.71 19.087 10.55 19.467 11.27C19.847 11.98 20.367 12.53 21.027 12.92C21.687 13.31 22.422 13.505 23.232 13.505C24.242 13.505 25.092 13.275 25.782 12.815C26.482 12.345 26.982 11.71 27.282 10.91H28.062C27.682 11.92 27.082 12.705 26.262 13.265C25.442 13.825 24.432 14.105 23.232 14.105C22.282 14.105 21.422 13.88 20.652 13.43C19.892 12.97 19.292 12.335 18.852 11.525C18.422 10.705 18.207 9.78 18.207 8.75ZM34.8649 14.12C33.8949 14.12 33.0199 13.895 32.2399 13.445C31.4599 12.985 30.8499 12.345 30.4099 11.525C29.9699 10.705 29.7499 9.78 29.7499 8.75C29.7499 7.71 29.9699 6.785 30.4099 5.975C30.8499 5.155 31.4599 4.52 32.2399 4.07C33.0199 3.61 33.8949 3.38 34.8649 3.38C35.8349 3.38 36.7099 3.61 37.4899 4.07C38.2699 4.52 38.8799 5.155 39.3199 5.975C39.7599 6.785 39.9799 7.71 39.9799 8.75C39.9799 9.78 39.7599 10.705 39.3199 11.525C38.8799 12.345 38.2699 12.985 37.4899 13.445C36.7099 13.895 35.8349 14.12 34.8649 14.12ZM34.8649 13.52C35.6949 13.52 36.4449 13.325 37.1149 12.935C37.7849 12.545 38.3099 11.99 38.6899 11.27C39.0799 10.55 39.2749 9.71 39.2749 8.75C39.2749 7.78 39.0799 6.935 38.6899 6.215C38.3099 5.495 37.7849 4.94 37.1149 4.55C36.4449 4.16 35.6949 3.965 34.8649 3.965C34.0349 3.965 33.2849 4.16 32.6149 4.55C31.9449 4.94 31.4149 5.495 31.0249 6.215C30.6349 6.935 30.4399 7.78 30.4399 8.75C30.4399 9.71 30.6349 10.55 31.0249 11.27C31.4149 11.99 31.9449 12.545 32.6149 12.935C33.2849 13.325 34.0349 13.52 34.8649 13.52ZM42.6355 3.47V10.055C42.6355 11.245 42.9055 12.12 43.4455 12.68C43.9855 13.23 44.7205 13.505 45.6505 13.505C46.5705 13.505 47.2955 13.23 47.8255 12.68C48.3555 12.13 48.6205 11.255 48.6205 10.055V3.47H49.2955V10.04C49.2955 11.41 48.9655 12.43 48.3055 13.1C47.6455 13.77 46.7605 14.105 45.6505 14.105C44.5405 14.105 43.6455 13.77 42.9655 13.1C42.2955 12.42 41.9605 11.4 41.9605 10.04V3.47H42.6355ZM59.6385 3.47L55.6185 14H54.8685L50.8635 3.47H51.5985L55.2435 13.205L58.9185 3.47H59.6385ZM66.9536 14L64.2536 9.515H64.1936H61.9436V14H61.2686V3.47H64.1636C65.3336 3.47 66.2086 3.745 66.7886 4.295C67.3786 4.845 67.6736 5.575 67.6736 6.485C67.6736 7.295 67.4436 7.965 66.9836 8.495C66.5336 9.015 65.8736 9.335 65.0036 9.455L67.7636 14H66.9536ZM61.9436 8.945H64.1936C65.1236 8.945 65.8186 8.72 66.2786 8.27C66.7386 7.82 66.9686 7.225 66.9686 6.485C66.9686 4.875 66.0336 4.07 64.1636 4.07H61.9436V8.945ZM70.3518 4.04V8.435H74.5518V9.005H70.3518V13.43H75.0018V14H69.6768V3.47H75.0018V4.04H70.3518ZM77.1799 13.4H82.8199V14H76.3999V13.43L81.9349 4.085H76.5499V3.47H82.7149V4.055L77.1799 13.4ZM89.5412 13.43H93.4562V14H88.8662V3.47H89.5412V13.43ZM100.959 11.3H95.9643L94.9593 14H94.2243L98.0943 3.71H98.8443L102.699 14H101.964L100.959 11.3ZM100.749 10.73L98.4693 4.595L96.1743 10.73H100.749ZM109.302 13.43H113.217V14H108.627V3.47H109.302V13.43ZM115.425 3.47V14H114.75V3.47H115.425ZM126.554 6.575C126.254 5.785 125.754 5.155 125.054 4.685C124.364 4.215 123.544 3.98 122.594 3.98C121.764 3.98 121.014 4.175 120.344 4.565C119.674 4.955 119.144 5.51 118.754 6.23C118.364 6.95 118.169 7.79 118.169 8.75C118.169 9.71 118.364 10.55 118.754 11.27C119.144 11.99 119.674 12.545 120.344 12.935C121.014 13.315 121.764 13.505 122.594 13.505C123.394 13.505 124.119 13.325 124.769 12.965C125.419 12.605 125.939 12.095 126.329 11.435C126.719 10.765 126.934 9.985 126.974 9.095H122.279V8.525H127.664V8.975C127.634 9.955 127.399 10.835 126.959 11.615C126.519 12.395 125.919 13.005 125.159 13.445C124.399 13.885 123.544 14.105 122.594 14.105C121.624 14.105 120.749 13.88 119.969 13.43C119.189 12.97 118.579 12.335 118.139 11.525C117.699 10.705 117.479 9.78 117.479 8.75C117.479 7.71 117.699 6.785 118.139 5.975C118.579 5.155 119.189 4.52 119.969 4.07C120.749 3.61 121.624 3.38 122.594 3.38C123.724 3.38 124.699 3.665 125.519 4.235C126.349 4.795 126.954 5.575 127.334 6.575H126.554ZM137.206 3.47V14H136.531V8.9H130.381V14H129.706V3.47H130.381V8.33H136.531V3.47H137.206ZM145.502 3.47V4.04H142.502V14H141.827V4.04H138.827V3.47H145.502ZM157.027 14L154.327 9.515H154.267H152.017V14H151.342V3.47H154.237C155.407 3.47 156.282 3.745 156.862 4.295C157.452 4.845 157.747 5.575 157.747 6.485C157.747 7.295 157.517 7.965 157.057 8.495C156.607 9.015 155.947 9.335 155.077 9.455L157.837 14H157.027ZM152.017 8.945H154.267C155.197 8.945 155.892 8.72 156.352 8.27C156.812 7.82 157.042 7.225 157.042 6.485C157.042 4.875 156.107 4.07 154.237 4.07H152.017V8.945ZM164.445 14.12C163.475 14.12 162.6 13.895 161.82 13.445C161.04 12.985 160.43 12.345 159.99 11.525C159.55 10.705 159.33 9.78 159.33 8.75C159.33 7.71 159.55 6.785 159.99 5.975C160.43 5.155 161.04 4.52 161.82 4.07C162.6 3.61 163.475 3.38 164.445 3.38C165.415 3.38 166.29 3.61 167.07 4.07C167.85 4.52 168.46 5.155 168.9 5.975C169.34 6.785 169.56 7.71 169.56 8.75C169.56 9.78 169.34 10.705 168.9 11.525C168.46 12.345 167.85 12.985 167.07 13.445C166.29 13.895 165.415 14.12 164.445 14.12ZM164.445 13.52C165.275 13.52 166.025 13.325 166.695 12.935C167.365 12.545 167.89 11.99 168.27 11.27C168.66 10.55 168.855 9.71 168.855 8.75C168.855 7.78 168.66 6.935 168.27 6.215C167.89 5.495 167.365 4.94 166.695 4.55C166.025 4.16 165.275 3.965 164.445 3.965C163.615 3.965 162.865 4.16 162.195 4.55C161.525 4.94 160.995 5.495 160.605 6.215C160.215 6.935 160.02 7.78 160.02 8.75C160.02 9.71 160.215 10.55 160.605 11.27C160.995 11.99 161.525 12.545 162.195 12.935C162.865 13.325 163.615 13.52 164.445 13.52ZM176.296 14.12C175.326 14.12 174.451 13.895 173.671 13.445C172.891 12.985 172.281 12.345 171.841 11.525C171.401 10.705 171.181 9.78 171.181 8.75C171.181 7.71 171.401 6.785 171.841 5.975C172.281 5.155 172.891 4.52 173.671 4.07C174.451 3.61 175.326 3.38 176.296 3.38C177.266 3.38 178.141 3.61 178.921 4.07C179.701 4.52 180.311 5.155 180.751 5.975C181.191 6.785 181.411 7.71 181.411 8.75C181.411 9.78 181.191 10.705 180.751 11.525C180.311 12.345 179.701 12.985 178.921 13.445C178.141 13.895 177.266 14.12 176.296 14.12ZM176.296 13.52C177.126 13.52 177.876 13.325 178.546 12.935C179.216 12.545 179.741 11.99 180.121 11.27C180.511 10.55 180.706 9.71 180.706 8.75C180.706 7.78 180.511 6.935 180.121 6.215C179.741 5.495 179.216 4.94 178.546 4.55C177.876 4.16 177.126 3.965 176.296 3.965C175.466 3.965 174.716 4.16 174.046 4.55C173.376 4.94 172.846 5.495 172.456 6.215C172.066 6.935 171.871 7.78 171.871 8.75C171.871 9.71 172.066 10.55 172.456 11.27C172.846 11.99 173.376 12.545 174.046 12.935C174.716 13.325 175.466 13.52 176.296 13.52ZM193.276 3.695V14H192.601V5.105L188.641 14H188.101L184.126 5.105V14H183.451V3.695H184.171L188.371 13.115L192.571 3.695H193.276Z" fill="#9D9D9D"/>
</svg>
