<svg width="21" height="26" viewBox="0 0 21 26" fill="none" xmlns="http://www.w3.org/2000/svg">
<path d="M9.54545 12.1873L19.1402 0.417122C19.326 0.221755 19.5649 0.119668 19.8093 0.13126C20.0537 0.142853 20.2856 0.267272 20.4585 0.479654C20.6315 0.692036 20.7328 0.976739 20.7423 1.27687C20.7517 1.577 20.6686 1.87045 20.5095 2.09858L11.7111 12.9029L20.257 23.3971C20.4378 23.6205 20.5394 23.9228 20.5394 24.2378C20.5394 24.5528 20.4378 24.8551 20.257 25.0785C20.1667 25.1903 20.0593 25.279 19.9409 25.3396C19.8226 25.4001 19.6957 25.4313 19.5675 25.4313C19.4393 25.4313 19.3123 25.4001 19.194 25.3396C19.0757 25.279 18.9683 25.1903 18.878 25.0785L9.54545 13.6184C9.39126 13.4284 9.30469 13.1711 9.30469 12.9029C9.30469 12.6346 9.39126 12.3773 9.54545 12.1873Z" fill="white"/>
<path d="M0.240762 12.187L9.83551 0.416838C9.92257 0.292003 10.0297 0.190614 10.1502 0.119035C10.2707 0.0474561 10.4019 0.00723224 10.5356 0.000888641C10.6694 -0.00545496 10.8027 0.0222186 10.9274 0.082172C11.052 0.142125 11.1652 0.233064 11.2598 0.349281C11.3545 0.465498 11.4285 0.604483 11.4773 0.757514C11.5262 0.910544 11.5487 1.07431 11.5435 1.23855C11.5384 1.40278 11.5056 1.56393 11.4473 1.71188C11.389 1.85983 11.3065 1.99139 11.2048 2.09829L2.40638 12.9025L10.9523 23.3967C11.1332 23.6201 11.2347 23.9224 11.2347 24.2374C11.2347 24.5525 11.1332 24.8547 10.9523 25.0782C10.7704 25.3003 10.5242 25.4249 10.2677 25.4249C10.0111 25.4249 9.76497 25.3003 9.58302 25.0782L0.240762 13.618C0.0865759 13.428 0 13.1707 0 12.9025C0 12.6343 0.0865759 12.377 0.240762 12.187Z" fill="white"/>
</svg>
