<svg width="21" height="26" viewBox="0 0 21 26" fill="none" xmlns="http://www.w3.org/2000/svg">
<path d="M11.1967 13.2442L1.60201 25.0145C1.41623 25.2099 1.17726 25.312 0.932853 25.3004C0.688443 25.2888 0.456596 25.1644 0.283645 24.952C0.110692 24.7396 0.00937176 24.4549 -6.86646e-05 24.1548C-0.00950909 23.8546 0.0736256 23.5612 0.232721 23.333L9.03113 12.5287L0.485214 2.03446C0.304341 1.81102 0.202819 1.50877 0.202819 1.19372C0.202819 0.878674 0.304341 0.576426 0.485214 0.352991C0.575494 0.241217 0.6829 0.152498 0.801241 0.0919552C0.919581 0.0314121 1.04651 0.000242233 1.17471 0.000242233C1.30291 0.000242233 1.42985 0.0314121 1.54819 0.0919552C1.66653 0.152498 1.77394 0.241217 1.86421 0.352991L11.1967 11.8132C11.3509 12.0032 11.4375 12.2605 11.4375 12.5287C11.4375 12.797 11.3509 13.0542 11.1967 13.2442Z" fill="white"/>
<path d="M20.5014 13.2446L10.9067 25.0148C10.8196 25.1396 10.7125 25.241 10.592 25.3126C10.4715 25.3842 10.3403 25.4244 10.2065 25.4308C10.0728 25.4371 9.93944 25.4094 9.81482 25.3495C9.6902 25.2895 9.57701 25.1986 9.48237 25.0824C9.38773 24.9661 9.31368 24.8272 9.26485 24.6741C9.21603 24.5211 9.19349 24.3573 9.19866 24.1931C9.20383 24.0289 9.23658 23.8677 9.29487 23.7198C9.35316 23.5718 9.43573 23.4403 9.53739 23.3333L18.3358 12.5291L9.78988 2.03494C9.60901 1.81151 9.50749 1.50926 9.50749 1.19422C9.50749 0.879169 9.60901 0.576923 9.78988 0.353489C9.97184 0.131382 10.218 0.00671387 10.4745 0.00671387C10.7311 0.00671387 10.9772 0.131382 11.1592 0.353489L20.5014 11.8136C20.6556 12.0036 20.7422 12.2609 20.7422 12.5291C20.7422 12.7973 20.6556 13.0546 20.5014 13.2446Z" fill="white"/>
</svg>
