<svg width="176" height="30" viewBox="0 0 176 30" fill="none" xmlns="http://www.w3.org/2000/svg">
<path fill-rule="evenodd" clip-rule="evenodd" d="M87.9864 29.0464H80.5829V27.5464H86.8855L77.9699 4.87908L68.6513 28.5709L67.2554 28.0219L77.2719 2.55554L77.9699 0.78105L78.6678 2.55554L88.6844 28.0219L89.0873 29.0464H87.9864ZM69.6948 27.9274C69.935 27.9274 70.1297 28.0926 70.1297 28.2965C70.1297 28.5003 69.935 28.6655 69.6948 28.6655C69.4546 28.6655 69.2598 28.5003 69.2598 28.2965C69.2598 28.0926 69.4546 27.9274 69.6948 27.9274ZM71.8726 28.2965C71.8726 28.0926 71.6778 27.9274 71.4376 27.9274C71.1974 27.9274 71.0027 28.0926 71.0027 28.2965C71.0027 28.5003 71.1974 28.6655 71.4376 28.6655C71.6778 28.6655 71.8726 28.5003 71.8726 28.2965ZM73.18 27.9274C73.4202 27.9274 73.6149 28.0926 73.6149 28.2965C73.6149 28.5003 73.4202 28.6655 73.18 28.6655C72.9398 28.6655 72.745 28.5003 72.745 28.2965C72.745 28.0926 72.9398 27.9274 73.18 27.9274ZM75.3563 28.2965C75.3563 28.0926 75.1616 27.9274 74.9214 27.9274C74.6812 27.9274 74.4864 28.0926 74.4864 28.2965C74.4864 28.5003 74.6812 28.6655 74.9214 28.6655C75.1616 28.6655 75.3563 28.5003 75.3563 28.2965ZM76.6647 27.9274C76.9049 27.9274 77.0996 28.0926 77.0996 28.2965C77.0996 28.5003 76.9049 28.6655 76.6647 28.6655C76.4245 28.6655 76.2298 28.5003 76.2298 28.2965C76.2298 28.0926 76.4245 27.9274 76.6647 27.9274ZM78.8415 28.2965C78.8415 28.0926 78.6468 27.9274 78.4066 27.9274C78.1664 27.9274 77.9716 28.0926 77.9716 28.2965C77.9716 28.5003 78.1664 28.6655 78.4066 28.6655C78.6468 28.6655 78.8415 28.5003 78.8415 28.2965ZM80.1479 27.9274C80.3881 27.9274 80.5829 28.0926 80.5829 28.2965C80.5829 28.5003 80.3881 28.6655 80.1479 28.6655C79.9077 28.6655 79.713 28.5003 79.713 28.2965C79.713 28.0926 79.9077 27.9274 80.1479 27.9274ZM74.255 5.32221L69.4645 17.5018L69.9298 17.6848L74.7203 5.50522L74.255 5.32221ZM88.656 23.407L79.9459 1.2624L79.4806 1.44541L88.1907 23.59L88.656 23.407Z" fill="white"/>
<path fill-rule="evenodd" clip-rule="evenodd" d="M3.5456 4.34521H-0.000976562V28.7279H11.0821V25.6247H3.5456V4.34521ZM16.8457 4.34521H13.7424V28.7279H16.8457V4.34521ZM32.8081 4.34521V7.50594H27.0449C24.1633 7.95747 22.6117 9.7636 22.6117 14.9562C22.6117 14.9562 23.4939 24.2126 31.4782 24.6641V9.31206H34.5814V28.7279H31.4782C31.4782 28.7279 19.2869 24.8899 19.5085 14.0531C19.5085 14.0531 19.0651 5.92558 27.0449 4.34521H32.8081ZM37.2389 4.34521H40.3421V8.86053H47.4353V4.34521H50.5385V28.7279H47.4353V14.7304H40.3421V28.7279H37.2389V4.34521ZM40.341 11.1182V12.9243H47.4341V11.1182H40.341ZM53.1976 4.34521V7.95747H58.9608V28.7279H61.6207V7.95747H67.3839V4.34521H53.1976Z" fill="white"/>
<path fill-rule="evenodd" clip-rule="evenodd" d="M96.6433 28.7279H93.54V4.34521H101.52C101.52 4.34521 106.84 5.27408 106.84 9.22176C106.84 13.1694 101.52 14.3305 101.52 14.3305L108.613 28.2635V28.7279H105.51L97.9733 14.3305H96.6433V28.7279ZM96.2 11.0795V6.89962C96.2 6.89962 103.293 6.50333 103.293 8.98956C103.293 11.4758 96.2 11.0795 96.2 11.0795ZM121.191 26.2279C126.543 26.2279 130.882 21.889 130.882 16.5366C130.882 11.1842 126.543 6.84521 121.191 6.84521C115.838 6.84521 111.499 11.1842 111.499 16.5366C111.499 21.889 115.838 26.2279 121.191 26.2279ZM121.191 28.7279C127.924 28.7279 133.382 23.2697 133.382 16.5366C133.382 9.80347 127.924 4.34521 121.191 4.34521C114.458 4.34521 108.999 9.80347 108.999 16.5366C108.999 23.2697 114.458 28.7279 121.191 28.7279ZM121.144 23.5932C125.091 23.5932 128.289 20.3943 128.289 16.4482C128.289 12.5021 125.091 9.30322 121.144 9.30322C117.198 9.30322 113.999 12.5021 113.999 16.4482C113.999 20.3943 117.198 23.5932 121.144 23.5932ZM121.144 24.0932C125.367 24.0932 128.789 20.6704 128.789 16.4482C128.789 12.226 125.367 8.80322 121.144 8.80322C116.922 8.80322 113.499 12.226 113.499 16.4482C113.499 20.6704 116.922 24.0932 121.144 24.0932ZM156.653 16.5366C156.653 21.889 152.314 26.2279 146.962 26.2279C141.61 26.2279 137.271 21.889 137.271 16.5366C137.271 11.1842 141.61 6.84521 146.962 6.84521C152.314 6.84521 156.653 11.1842 156.653 16.5366ZM159.153 16.5366C159.153 23.2697 153.695 28.7279 146.962 28.7279C140.229 28.7279 134.771 23.2697 134.771 16.5366C134.771 9.80347 140.229 4.34521 146.962 4.34521C153.695 4.34521 159.153 9.80347 159.153 16.5366ZM154.289 16.6455C154.289 20.5916 151.09 23.7905 147.144 23.7905C143.198 23.7905 139.999 20.5916 139.999 16.6455C139.999 12.6994 143.198 9.50049 147.144 9.50049C151.09 9.50049 154.289 12.6994 154.289 16.6455ZM154.789 16.6455C154.789 20.8677 151.366 24.2905 147.144 24.2905C142.922 24.2905 139.499 20.8677 139.499 16.6455C139.499 12.4233 142.922 9.00049 147.144 9.00049C151.366 9.00049 154.789 12.4233 154.789 16.6455ZM163.586 28.7279H160.483V4.34521H163.143L168.462 11.0385L173.782 4.34521H175.999V28.7279H172.896V10.0823H172.452L168.462 15.3413L164.029 10.0823H163.586V28.7279ZM167.576 22.5125V20.1221H169.792V22.5125H167.576ZM167.576 28.7277V26.3373H169.792V28.7277H167.576Z" fill="white"/>
</svg>
