<svg width="204" height="37" viewBox="0 0 204 37" fill="none" xmlns="http://www.w3.org/2000/svg">
<path d="M18.0459 36L3.44629 10.5117L3.15332 8.99805V36H0.00390625V0.990234H1.63965L16.2393 26.5029L16.5566 27.9922V0.990234H19.7061V36H18.0459ZM45.4277 27.8945C45.4277 29.0827 45.1999 30.1976 44.7441 31.2393C44.3047 32.2809 43.6943 33.1924 42.9131 33.9736C42.1318 34.7549 41.2204 35.3734 40.1787 35.8291C39.137 36.2686 38.0221 36.4883 36.834 36.4883H34.3438C33.1556 36.4883 32.0326 36.2686 30.9746 35.8291C29.9329 35.3734 29.0215 34.7549 28.2402 33.9736C27.459 33.1924 26.8405 32.2809 26.3848 31.2393C25.9453 30.1976 25.7256 29.0827 25.7256 27.8945V9.0957C25.7256 7.90755 25.9453 6.79264 26.3848 5.75098C26.8405 4.70931 27.459 3.79785 28.2402 3.0166C29.0215 2.23535 29.9329 1.625 30.9746 1.18555C32.0326 0.729818 33.1556 0.501953 34.3438 0.501953H36.834C38.0221 0.501953 39.137 0.729818 40.1787 1.18555C41.2204 1.625 42.1318 2.23535 42.9131 3.0166C43.6943 3.79785 44.3047 4.70931 44.7441 5.75098C45.1999 6.79264 45.4277 7.90755 45.4277 9.0957V27.8945ZM42.2783 9.0957C42.2783 8.31445 42.1318 7.59017 41.8389 6.92285C41.5459 6.23926 41.1471 5.64518 40.6426 5.14062C40.138 4.63607 39.5439 4.2373 38.8604 3.94434C38.193 3.65137 37.4688 3.50488 36.6875 3.50488H34.4902C33.709 3.50488 32.9766 3.65137 32.293 3.94434C31.6257 4.2373 31.0316 4.63607 30.5107 5.14062C30.0062 5.64518 29.6074 6.23926 29.3145 6.92285C29.0215 7.59017 28.875 8.31445 28.875 9.0957V27.8945C28.875 28.6758 29.0215 29.4082 29.3145 30.0918C29.6074 30.7591 30.0062 31.3532 30.5107 31.874C31.0316 32.3786 31.6257 32.7773 32.293 33.0703C32.9766 33.3633 33.709 33.5098 34.4902 33.5098H36.6875C37.4688 33.5098 38.193 33.3633 38.8604 33.0703C39.5439 32.7773 40.138 32.3786 40.6426 31.874C41.1471 31.3532 41.5459 30.7591 41.8389 30.0918C42.1318 29.4082 42.2783 28.6758 42.2783 27.8945V9.0957ZM70.6367 27.8945C70.6367 29.0827 70.3926 30.1976 69.9043 31.2393C69.4323 32.2809 68.7894 33.1924 67.9756 33.9736C67.1781 34.7549 66.2422 35.3734 65.168 35.8291C64.11 36.2686 62.987 36.4883 61.7988 36.4883H59.2842C58.096 36.4883 56.9648 36.2686 55.8906 35.8291C54.8327 35.3734 53.8968 34.7549 53.083 33.9736C52.2855 33.1924 51.6426 32.2809 51.1543 31.2393C50.6823 30.1976 50.4463 29.0827 50.4463 27.8945V26.5029L53.5957 25.9902V27.8945C53.5957 28.6758 53.7503 29.4082 54.0596 30.0918C54.3851 30.7591 54.8164 31.3532 55.3535 31.874C55.8906 32.3786 56.5091 32.7773 57.209 33.0703C57.9251 33.3633 58.6738 33.5098 59.4551 33.5098H61.6523C62.4336 33.5098 63.1742 33.3633 63.874 33.0703C64.5739 32.7773 65.1924 32.3786 65.7295 31.874C66.2666 31.3532 66.6898 30.7591 66.999 30.0918C67.3245 29.4082 67.4873 28.6758 67.4873 27.8945V26.8447C67.4873 25.6403 67.2513 24.6393 66.7793 23.8418C66.3073 23.0443 65.6807 22.3688 64.8994 21.8154C64.1182 21.2458 63.2311 20.7656 62.2383 20.375C61.2617 19.9844 60.2526 19.5938 59.2109 19.2031C58.1693 18.8125 57.152 18.3812 56.1592 17.9092C55.1826 17.4372 54.3037 16.8512 53.5225 16.1514C52.7412 15.4352 52.1146 14.5645 51.6426 13.5391C51.1706 12.5137 50.9346 11.2523 50.9346 9.75488V9.0957C50.9346 7.90755 51.1543 6.79264 51.5938 5.75098C52.0495 4.70931 52.668 3.79785 53.4492 3.0166C54.2305 2.23535 55.1419 1.625 56.1836 1.18555C57.2415 0.729818 58.3646 0.501953 59.5527 0.501953H61.7988C62.987 0.501953 64.1019 0.729818 65.1436 1.18555C66.1852 1.625 67.0967 2.23535 67.8779 3.0166C68.6592 3.79785 69.2695 4.70931 69.709 5.75098C70.1647 6.79264 70.3926 7.90755 70.3926 9.0957V9.99902L67.2432 10.5117V9.0957C67.2432 8.31445 67.0967 7.59017 66.8037 6.92285C66.5107 6.23926 66.112 5.64518 65.6074 5.14062C65.1029 4.63607 64.5088 4.2373 63.8252 3.94434C63.1579 3.65137 62.4336 3.50488 61.6523 3.50488H59.6992C58.918 3.50488 58.1855 3.65137 57.502 3.94434C56.8346 4.2373 56.2406 4.63607 55.7197 5.14062C55.2152 5.64518 54.8164 6.23926 54.5234 6.92285C54.2305 7.59017 54.084 8.31445 54.084 9.0957V9.75488C54.084 10.8779 54.32 11.8219 54.792 12.5869C55.264 13.3519 55.8906 14.0111 56.6719 14.5645C57.4531 15.1016 58.332 15.5736 59.3086 15.9805C60.3014 16.3711 61.3187 16.778 62.3604 17.2012C63.402 17.6081 64.4111 18.0638 65.3877 18.5684C66.3805 19.0566 67.2676 19.667 68.0488 20.3994C68.8301 21.1156 69.4567 21.9945 69.9287 23.0361C70.4007 24.0778 70.6367 25.3473 70.6367 26.8447V27.8945ZM94.4434 3.99316V36H91.2939V3.99316H82.9443V0.990234H102.793V3.99316H94.4434ZM117.943 27.8457H106.859L104.564 36H101.293L111.547 0.990234H113.207L123.51 36H120.263L117.943 27.8457ZM107.714 24.8428H117.113L112.499 8.70508L112.401 7.41113L112.304 8.70508L107.714 24.8428ZM142.957 36L133.46 21.0586H129.139V36H125.989V0.990234H137.098C138.286 0.990234 139.401 1.2181 140.442 1.67383C141.484 2.11328 142.396 2.72363 143.177 3.50488C143.958 4.28613 144.568 5.20573 145.008 6.26367C145.464 7.30534 145.691 8.42025 145.691 9.6084V12.4404C145.691 13.6286 145.464 14.7516 145.008 15.8096C144.568 16.8512 143.958 17.7627 143.177 18.5439C142.396 19.3252 141.484 19.9437 140.442 20.3994C139.401 20.8389 138.286 21.0586 137.098 21.0586L146.595 36H142.957ZM142.542 9.6084C142.542 8.82715 142.396 8.10286 142.103 7.43555C141.81 6.75195 141.411 6.15788 140.906 5.65332C140.402 5.13249 139.808 4.72559 139.124 4.43262C138.457 4.13965 137.732 3.99316 136.951 3.99316H129.139V18.0557H136.951C137.732 18.0557 138.457 17.9092 139.124 17.6162C139.808 17.3232 140.402 16.9245 140.906 16.4199C141.411 15.8991 141.81 15.305 142.103 14.6377C142.396 13.9541 142.542 13.2217 142.542 12.4404V9.6084ZM151.125 36V0.990234H154.274V36H151.125ZM163.956 3.99316V17.0059H177.359V20.0088H163.956V36H160.807V0.990234H180.509V3.99316H163.956ZM203.203 27.8945C203.203 29.0827 202.959 30.1976 202.471 31.2393C201.999 32.2809 201.356 33.1924 200.542 33.9736C199.744 34.7549 198.809 35.3734 197.734 35.8291C196.676 36.2686 195.553 36.4883 194.365 36.4883H191.851C190.662 36.4883 189.531 36.2686 188.457 35.8291C187.399 35.3734 186.463 34.7549 185.649 33.9736C184.852 33.1924 184.209 32.2809 183.721 31.2393C183.249 30.1976 183.013 29.0827 183.013 27.8945V26.5029L186.162 25.9902V27.8945C186.162 28.6758 186.317 29.4082 186.626 30.0918C186.951 30.7591 187.383 31.3532 187.92 31.874C188.457 32.3786 189.076 32.7773 189.775 33.0703C190.492 33.3633 191.24 33.5098 192.021 33.5098H194.219C195 33.5098 195.741 33.3633 196.44 33.0703C197.14 32.7773 197.759 32.3786 198.296 31.874C198.833 31.3532 199.256 30.7591 199.565 30.0918C199.891 29.4082 200.054 28.6758 200.054 27.8945V26.8447C200.054 25.6403 199.818 24.6393 199.346 23.8418C198.874 23.0443 198.247 22.3688 197.466 21.8154C196.685 21.2458 195.798 20.7656 194.805 20.375C193.828 19.9844 192.819 19.5938 191.777 19.2031C190.736 18.8125 189.718 18.3812 188.726 17.9092C187.749 17.4372 186.87 16.8512 186.089 16.1514C185.308 15.4352 184.681 14.5645 184.209 13.5391C183.737 12.5137 183.501 11.2523 183.501 9.75488V9.0957C183.501 7.90755 183.721 6.79264 184.16 5.75098C184.616 4.70931 185.234 3.79785 186.016 3.0166C186.797 2.23535 187.708 1.625 188.75 1.18555C189.808 0.729818 190.931 0.501953 192.119 0.501953H194.365C195.553 0.501953 196.668 0.729818 197.71 1.18555C198.752 1.625 199.663 2.23535 200.444 3.0166C201.226 3.79785 201.836 4.70931 202.275 5.75098C202.731 6.79264 202.959 7.90755 202.959 9.0957V9.99902L199.81 10.5117V9.0957C199.81 8.31445 199.663 7.59017 199.37 6.92285C199.077 6.23926 198.678 5.64518 198.174 5.14062C197.669 4.63607 197.075 4.2373 196.392 3.94434C195.724 3.65137 195 3.50488 194.219 3.50488H192.266C191.484 3.50488 190.752 3.65137 190.068 3.94434C189.401 4.2373 188.807 4.63607 188.286 5.14062C187.782 5.64518 187.383 6.23926 187.09 6.92285C186.797 7.59017 186.65 8.31445 186.65 9.0957V9.75488C186.65 10.8779 186.886 11.8219 187.358 12.5869C187.83 13.3519 188.457 14.0111 189.238 14.5645C190.02 15.1016 190.898 15.5736 191.875 15.9805C192.868 16.3711 193.885 16.778 194.927 17.2012C195.968 17.6081 196.978 18.0638 197.954 18.5684C198.947 19.0566 199.834 19.667 200.615 20.3994C201.396 21.1156 202.023 21.9945 202.495 23.0361C202.967 24.0778 203.203 25.3473 203.203 26.8447V27.8945Z" fill="url(#paint0_linear_1842_2660)"/>
<defs>
<linearGradient id="paint0_linear_1842_2660" x1="101" y1="-13" x2="101" y2="51" gradientUnits="userSpaceOnUse">
<stop stop-color="#0DE4BD"/>
<stop offset="0.604167" stop-color="white"/>
</linearGradient>
</defs>
</svg>
