<svg width="1520" height="3514" viewBox="0 0 1520 3514" fill="none" xmlns="http://www.w3.org/2000/svg">
<path opacity="0.2" d="M0 3454.47H573.129M1520 3454.47H1210.01M713.393 3059.38L856.5 3323.18M713.393 3059.38H999.248M713.393 3059.38L642.551 2929.01L785.478 2666.95L927.508 2927.68M959.477 3513L856.5 3323.18M115.585 3513L183.75 3389.29M201.341 3357.36L183.941 3325.29M201.341 3357.36L183.75 3389.29M201.341 3357.36L285.854 3513M201.341 3357.36L217.621 3321.44M0 3398.6L111.856 3192.41L183.941 3325.29M82.0278 3513L183.941 3325.29M0 3389.29H183.75M222.469 3513L395.225 3191.08M395.225 3191.08H146.656L217.621 3321.44M395.225 3191.08H430.025M321.897 3513L217.621 3321.44M217.621 3321.44H502.11M502.11 3321.44L430.025 3191.08M502.11 3321.44L400.196 3513M502.11 3321.44L573.129 3454.47M430.025 3191.08L257.269 3513M604.023 3512.33L573.129 3454.47M538.152 3321.44L434.996 3513M538.152 3321.44L608.994 3454.47M538.152 3321.44H820.278M573.129 3454.47L540.638 3513M573.129 3454.47H608.994M608.994 3454.47L576.68 3513M608.994 3454.47L640.065 3513M608.994 3454.47H891.12M820.278 3321.44L719.607 3513M820.278 3321.44L953.9 3075.34M1520 3075.34H1378.94M754.407 3513L856.5 3323.18M971.905 3108.6L953.9 3075.34M971.905 3108.6L857.432 3321.44M971.905 3108.6L1095.34 3338.07M953.9 3075.34L1096.19 2813.28H953.36M953.9 3075.34H1237.25M953.9 3075.34H811.578M1113.59 3371.99H971.356M1113.59 3371.99H1520L1493.84 3323.44M1113.59 3371.99L1140.93 3321.44M1113.59 3371.99L1095.34 3338.07M688.573 3371.99L546.852 3108.6H830.221M688.573 3371.99L830.221 3108.6M688.573 3371.99H971.356M830.221 3108.6L953.262 3337.41M830.221 3108.6L811.578 3075.34M830.221 3108.6L927.508 2927.68M953.262 3337.41L1236.63 2813.28L1378.94 3075.34M953.262 3337.41L891.12 3454.47M860.049 3513L891.12 3454.47M1378.94 3075.34L1236.63 3336.08M1378.94 3075.34H1237.25M1236.63 3336.08L1112.66 3107.27M1236.63 3336.08L1331.71 3513M934.62 2778.69H794.178M934.62 2778.69L953.36 2813.28M934.62 2778.69L794.178 3039.43L652.494 2778.69M934.62 2516.63L794.178 2778.69M934.62 2516.63H792.935M934.62 2516.63L917.22 2484.71M794.178 2778.69L775.536 2746.77M794.178 2778.69H652.494M896.092 3513L971.356 3371.99M1112.66 3107.27L971.356 3371.99M1112.66 3107.27L953.36 2813.28M856.5 3323.18L857.432 3321.44M857.432 3321.44H1140.93M1140.93 3321.44L1254.03 3109.93L1414.13 3404.95M1472.77 3513L1414.13 3404.95M891.12 3454.47L923.434 3513M891.12 3454.47H1210.01M971.356 3371.99L988.927 3403.92M1048.96 3513L988.927 3403.92M988.927 3403.92L928.406 3513M1520 3059.38H1351.59L1422.54 3191.08M1095.34 3338.07L1237.25 3075.34M1384.6 3190.41L1317.42 3059.38H1033.61M1384.6 3190.41H1353.46M1384.6 3190.41L1386.31 3193.74M1104.89 3190.41L1246.57 2929.01L1175.73 2797.98M1104.89 3190.41L1033.61 3059.38M1104.89 3190.41H1353.46M961.962 2927.68L1104.89 2666.95L1175.73 2797.98M961.962 2927.68L1033.61 3059.38M961.962 2927.68L820.278 2666.95M1175.73 2797.98L1033.61 3059.38M1033.61 3059.38H999.248M1178.22 3513L1210.01 3454.47M1353.46 3190.41L1210.01 3454.47M1386.31 3193.74L1213.02 3513M1386.31 3193.74L1457.24 3321.44M1210.01 3454.47L1242.85 3513M1279.51 3513L1174.49 3321.44H1457.24M1457.24 3321.44L1520 3436.51M1422.54 3191.08H1520M1422.54 3191.08L1493.84 3323.44M1319.9 3513L1520 3143.19M1355.94 3513L1414.13 3404.95M1520 3208.37L1414.13 3404.95M1414.13 3404.95H1520L1460.34 3513M1497.63 3513L1520 3472.43M1393.85 3513L1493.84 3323.44M1493.84 3323.44H1520M999.248 3059.38L927.508 2927.68M811.578 3075.34H528.209L386.525 2813.28H953.36M811.578 3075.34L953.36 2813.28M820.278 2666.95L775.536 2746.77M820.278 2666.95L917.22 2484.71M775.536 2746.77L474.581 2189.39M652.494 2778.69L792.935 2516.63M652.494 2778.69H510.809M792.935 2516.63H509.567L367.882 2778.69H510.809M917.22 2484.71L776.778 2221.31M776.778 2221.31L492.788 2745.42M776.778 2221.31H633.65M0 2221.31H67.7351M510.809 2778.69L492.788 2745.42M49.7138 1927.33H0M49.7138 1927.33H123.903M49.7138 1927.33L332.855 2450.12M403.925 2189.39L262.24 1927.33H189.534M403.925 2189.39H334.325M403.925 2189.39H474.581M0 2189.39H50.3352M616.451 2189.39L474.767 2448.79L351.611 2221.31M616.451 2189.39L633.65 2221.31M616.451 2189.39H474.581M334.325 2189.39L351.611 2221.31M334.325 2189.39H264.726M268.455 1491L526.507 1968.56M988.062 2301.13L846.378 2560.53L686.275 2264.24M988.062 2301.13L846.378 2037.74M988.062 2301.13H1130.99L986.819 2037.74M988.062 2301.13H845.04M846.378 2037.74H986.819M846.378 2037.74L563.009 2559.2L505.838 2455.44M846.378 2037.74H703.442M986.819 2037.74L845.04 2301.13M136.713 2301.13L333.083 1927.33L474.581 2189.39M136.713 2301.13L0 2044.39M136.713 2301.13H279.33M0 2037.74H421.226M505.838 2455.44L492.167 2484.71L635.094 2744.11L775.536 2484.71M505.838 2455.44L421.946 2301.13M505.838 2455.44L633.65 2221.31M775.536 2484.71H351.587M775.536 2484.71L633.65 2221.31M367.882 2070.99L261.17 2267.21M367.882 2070.99L510.91 2334.39M367.882 2070.99L626.485 1592.1M681.079 1491L626.485 1592.1M367.882 2334.39L510.809 2074.99M367.882 2334.39L651.251 2333.5M367.882 2334.39L510.809 2597.78L651.251 2333.5M510.809 2074.99L651.251 2333.5M510.809 2074.99L687.294 1742.42M651.251 2333.5L794.178 2333.06L652.494 2595.12L510.91 2334.39M421.946 2301.13L563.885 2037.74M421.946 2301.13H279.33M421.946 2301.13H563.679M563.885 2037.74L686.275 2264.24M563.885 2037.74H421.226M563.885 2037.74H703.442M563.885 2037.74L526.507 1968.56M351.587 2484.71L492.788 2745.42M351.587 2484.71H209.351M351.587 2484.71L492.63 2221.31M351.587 2484.71L332.855 2450.12M0 2359.66L67.1137 2484.71H209.351M125.527 1491L225.576 1675.99M845.04 2301.13L704.693 2561.86L563.679 2301.13M845.04 2301.13H563.679M845.04 2301.13L703.442 2037.74M409.518 1491L685.563 2004.48M686.275 2264.24L828.978 2004.48L687.294 1742.42M687.294 1742.42H403.925M687.294 1742.42H828.356M120.556 1742.42L243.598 1968.56L500.867 1491L555.502 1593.43M120.556 1742.42H261.505M120.556 1742.42L102.535 1709.16M409.518 1856.82H695.993L555.502 1593.43M409.518 1856.82L555.502 1593.43M409.518 1856.82L339.272 1725.13M555.502 1593.43H306.983M555.502 1593.43L589.69 1593.31M306.983 1593.43L361.668 1491M306.983 1593.43L123.903 1927.33M101.292 1968.56L0 1782.33M101.292 1968.56L123.903 1927.33M101.292 1968.56L120.52 2004.48M279.33 2301.13L421.226 2037.74M279.33 2301.13L261.17 2267.21M421.226 2037.74L563.679 2301.13M421.226 2037.74L385.253 1971.23M351.611 2221.31L209.351 2484.71M351.611 2221.31H67.7351M351.611 2221.31H492.63M209.351 2484.71L67.7351 2221.31M50.3352 2189.39L0 2094.94M50.3352 2189.39L189.534 1927.33M50.3352 2189.39H264.726M189.534 1927.33H123.903M123.903 1927.33L264.726 2189.39M261.17 2267.21L120.52 2004.48M405.789 2269.2L262.24 2004.48L403.925 1742.42M403.925 1742.42H261.505M120.52 2004.48H685.563M120.52 2004.48L261.505 1742.42M633.65 2221.31H492.63M332.855 2450.12L474.581 2189.39M510.91 2334.39L685.563 2004.48M685.563 2004.48L703.442 2037.74M685.563 2004.48H969.419M685.563 2004.48L828.356 1742.42M563.679 2301.13L703.442 2037.74M703.442 2037.74L846.378 1775.68M846.378 1775.68L828.356 1742.42M846.378 1775.68L969.419 2004.48M828.356 1742.42H1111.1M969.419 2004.48H1111.1L1251.55 1742.42H1111.1M969.419 2004.48L1049.97 1855.49M1111.1 1742.42L1049.97 1855.49M1049.97 1855.49H1332.95L1262.72 1725.13M1049.97 1855.49L979.376 1725.13M1136.58 1491L1262.72 1725.13M852.592 1491L907.339 1592.1M732.036 1856.82H1014.78L871.856 1592.1M732.036 1856.82L589.69 1593.31M732.036 1856.82L811.578 1709.16M534.424 1491L589.69 1593.31M871.856 1592.1H907.339M871.856 1592.1H626.485M907.339 1592.1L979.376 1725.13M907.339 1592.1L965.691 1491M692.265 1491L811.578 1709.16M811.578 1709.16L927.163 1491M811.578 1709.16H951.398L1067.6 1491M811.578 1709.16H667.849M0 1709.16H102.535M0 1725.13H22.5242M1262.72 1725.13H979.376M526.507 1968.56L667.849 1709.16M786.721 1491L667.849 1709.16M667.849 1709.16L552.445 1491M667.849 1709.16H102.535M645.037 1491L589.69 1593.31M385.253 1971.23L589.69 1593.31M385.253 1971.23L261.505 1742.42M467.931 1491L339.272 1725.13M339.272 1725.13H22.5242M339.272 1725.13L269.002 1593.38M339.272 1725.13H979.376M94.4563 1856.82H377.204L234.898 1593.38M94.4563 1856.82L22.5242 1725.13M94.4563 1856.82L234.898 1593.38M0 1683.89L22.5242 1725.13M22.5242 1725.13L148.52 1491M234.898 1593.38L179.591 1491L84.5135 1673.25L0 1517.61M234.898 1593.38H0M234.898 1593.38H269.002M269.002 1593.38L214.391 1491L102.535 1709.16M269.002 1593.38L225.576 1675.99M269.002 1593.38L325.625 1491M225.576 1675.99L261.505 1742.42M979.376 1725.13L1104.89 1491M1369.62 1855.49H1520M1369.62 1855.49L1512.54 1594.76M1369.62 1855.49L1298.94 1725.13M1172 1491L1226.82 1592.1M1512.54 1594.76L1455.99 1491M1512.54 1594.76L1520 1612.05M1298.94 1725.13H1520M1298.94 1725.13L1425.54 1491M1298.94 1725.13L1226.82 1592.1M1226.82 1592.1L1282.62 1491M1226.82 1592.1H945.805L1000.49 1491M0 1634.67L78.2993 1491M0 1570.82L43.4996 1491M0 1506.96L8.69992 1491M1520 1544.21L1511.42 1528.25M1491.41 1491L1511.42 1528.25M1511.42 1528.25H1520M1511.42 1528.25L1520 1510.95" stroke="url(#paint0_linear_497_1924)" stroke-width="3"/>
<path d="M0 -6.10352e-05V415.837H27.771V383.314M27.771 -6.10352e-05V383.314M27.771 383.314H49.9878V-6.10352e-05V457.653H64.799M64.799 457.653L66.6504 -6.10352e-05M64.799 457.653V499.469H85.1644V-6.10352e-05M151.815 -6.10352e-05V555.628L212.911 634.21M212.911 634.21V-6.10352e-05M212.911 634.21V719.004M212.911 850.259V719.004M244.385 -6.10352e-05V678.349L212.911 719.004M301.778 -6.10352e-05V453.007H327.698V-6.10352e-05M390.646 -6.10352e-05V594.717L468.404 692.288M468.404 692.288V938.538M468.404 692.288V-6.10352e-05M468.404 985V938.538M468.404 938.538L494.324 906.014V-6.10352e-05M570.231 -6.10352e-05V176.557L599.854 211.403M599.854 211.403V-6.10352e-05M599.854 211.403V318.266L622.071 346.144M622.071 346.144V414.676L659.099 369.375M622.071 346.144V-6.10352e-05M659.099 369.375V676.026L692.424 717.842M659.099 369.375V-6.10352e-05M692.424 717.842V741.073M692.424 717.842V313.62M692.424 -6.10352e-05V313.62M692.424 313.62L722.046 350.79V-6.10352e-05M751.669 -6.10352e-05V882.783H773.885V645.825M773.885 -6.10352e-05V645.825M773.885 645.825H788.697V473.915M788.697 -6.10352e-05V473.915M788.697 473.915H803.508V446.038M803.508 -6.10352e-05V446.038M803.508 446.038L868.307 362.406V-6.10352e-05M907.186 436.745V415.837M907.186 -6.10352e-05V415.837M907.186 415.837L953.471 357.759M953.471 357.759V367.052L1020.12 450.684M953.471 357.759V-6.10352e-05M1020.12 450.684V-6.10352e-05M1020.12 450.684V666.733M1020.12 691.126V666.733M1020.12 666.733L1075.66 594.717V-6.10352e-05M1160.83 -6.10352e-05V466.946L1207.11 525.024M1207.11 525.024V782.889L1247.84 831.675M1207.11 525.024V-6.10352e-05M1247.84 831.675V964.092M1247.84 831.675V796.828M1247.84 -6.10352e-05V204.434M1247.84 204.434L1281.17 162.618V-6.10352e-05M1247.84 204.434V796.828M1247.84 796.828L1345.97 671.38V434.422M1345.97 -6.10352e-05V434.422M1345.97 434.422L1407.06 511.085V-6.10352e-05M1455.2 -6.10352e-05V383.314H1481.12M1481.12 383.314V-6.10352e-05M1481.12 383.314V420.483M1481.12 473.915V420.483M1481.12 420.483L1501.49 394.929M1520 -6.10352e-05V371.698L1501.49 394.929M1501.49 -6.10352e-05V394.929" stroke="url(#paint1_linear_497_1924)" stroke-opacity="0.8" stroke-width="2"/>
<defs>
<linearGradient id="paint0_linear_497_1924" x1="760.502" y1="1491" x2="760.502" y2="3513" gradientUnits="userSpaceOnUse">
<stop offset="0.276127" stop-color="#FF5ED2"/>
<stop offset="1" stop-color="#141414"/>
</linearGradient>
<linearGradient id="paint1_linear_497_1924" x1="760" y1="985" x2="760" y2="5.6386e-05" gradientUnits="userSpaceOnUse">
<stop offset="0.157525" stop-color="#771261"/>
<stop offset="1" stop-color="#9C9C9C"/>
</linearGradient>
</defs>
</svg>
