<svg width="293" height="36" viewBox="0 0 293 36" fill="none" xmlns="http://www.w3.org/2000/svg">
<path fill-rule="evenodd" clip-rule="evenodd" d="M23.9899 34.6568V12.4472C23.9899 8.50963 24.8794 5.45072 26.6585 3.27043C28.4677 1.09014 31.0308 0 34.3477 0C37.6948 0 40.2579 0.878624 42.0369 2.63587C43.8462 4.39312 44.7508 6.86628 44.7508 10.0554C44.7508 12.1055 44.2985 13.7814 43.3939 15.083C42.4892 16.3847 40.9514 17.4098 38.7803 18.1582V18.3535C41.0419 19.2972 42.5495 20.6477 43.3034 22.4049C44.0874 24.1296 44.4794 26.9933 44.4794 30.9959V34.6568H40.2277V28.4088C40.2277 25.9357 39.5794 24.0157 38.2828 22.649C36.9862 21.2497 35.1166 20.55 32.6742 20.55H30.2317V16.2545H32.8099C35.7046 16.2545 37.7099 15.62 38.8256 14.3509C39.9412 13.0817 40.4991 11.5685 40.4991 9.8113C40.4991 8.15167 39.9412 6.81747 38.8256 5.80868C37.74 4.79989 36.2926 4.29549 34.4834 4.29549C32.4028 4.29549 30.8348 4.93005 29.7794 6.19918C28.7542 7.4683 28.2416 9.55096 28.2416 12.4472V34.6568H23.9899ZM0 17.5725C0.0301538 12.138 1.41723 7.94015 4.16122 4.97887C6.93537 1.98504 10.7498 0.488124 15.6046 0.488124H18.5446V4.78362H15.0618C11.7147 4.78362 9.13659 5.98766 7.32736 8.39573C5.54829 10.7713 4.6286 13.8302 4.5683 17.5725C4.6286 21.3148 5.54829 24.3899 7.32736 26.798C9.13659 29.1736 11.7147 30.3613 15.0618 30.3613H18.5446V34.6568H15.6046C10.7498 34.6568 6.93537 33.1762 4.16122 30.2149C1.41723 27.2211 0.0301538 23.0069 0 17.5725ZM49.9622 34.6568H67.964V30.3613H54.2139V19.1345H64.6621V14.839H54.2139V9.27436C54.2139 6.28053 55.8723 4.78362 59.1892 4.78362H67.964V0.488124H59.7772C58.0283 0.488124 56.5508 0.634561 55.3446 0.927436C54.1385 1.22031 53.053 1.85487 52.088 2.83112C50.6708 4.29549 49.9622 6.23172 49.9622 8.6398V34.6568ZM76.7302 34.6568H72.7047V13.1794C72.7047 9.66486 73.745 6.67103 75.8256 4.19787C77.9364 1.72471 80.6502 0.488124 83.9671 0.488124H94.325V34.6568H90.0733V4.78362H83.9671C81.7659 4.78362 80.0019 5.48326 78.6752 6.88255C77.3786 8.28184 76.7302 10.5109 76.7302 13.5699V17.7189C78.4189 15.799 80.8312 14.839 83.9671 14.839H88.0831V19.1345H83.9671C82.2182 19.1345 80.7859 19.3623 79.6702 19.8178C78.5847 20.2734 77.6047 21.0544 76.7302 22.1608V34.6568ZM98.6399 0.488124V4.78362H106.465V34.6568H110.716V4.78362H118.541V0.488124H98.6399ZM127.101 34.6568H122.849V0.488124H127.101V34.6568ZM135.822 0.488136H131.299L144.048 35.8771L156.176 0.488136H151.652L143.737 22.4537L135.822 0.488136ZM177.724 34.6568H159.722V30.3613H173.472V19.1345H163.024V14.839H173.472V9.27438C173.472 6.28055 171.814 4.78364 168.497 4.78364H159.722V0.488145H167.909C169.658 0.488145 171.135 0.634582 172.342 0.927457C173.548 1.22033 174.633 1.85489 175.598 2.83114C177.015 4.29551 177.724 6.23174 177.724 8.63982V34.6568ZM235.33 0.488145H185.577V35.8771H293V0.488145H237.591V0.48813H235.33V0.488145ZM231.798 8.38239C230.778 8.01117 229.684 7.80997 228.547 7.80997C222.927 7.80997 218.37 12.7271 218.37 18.7928C218.37 22.6577 220.22 26.0564 223.017 28.0138L231.798 8.38239ZM224.828 29.0192C225.98 29.5075 227.235 29.7756 228.547 29.7756C234.168 29.7756 238.724 24.8584 238.724 18.7928C238.724 14.7356 236.686 11.1923 233.654 9.29059L224.828 29.0192ZM202.063 29.7756H198.016V7.80998H212.18C212.18 7.80998 214.501 9.73857 215.215 11.4709C216.144 13.7257 216.427 15.6406 215.215 17.7468C214.426 19.1176 212.18 20.3617 212.18 20.3617L217.239 29.7756H213.192L207.627 20.3617V17.7468H211.168C213.394 16.1778 213.394 13.5629 211.168 11.9939H202.063V29.7756ZM250.032 29.7756C255.652 29.7756 260.209 24.8584 260.209 18.7928C260.209 12.7271 255.652 7.80997 250.032 7.80997C244.411 7.80997 239.855 12.7271 239.855 18.7928C239.855 24.8584 244.411 29.7756 250.032 29.7756ZM265.215 29.7756H261.338V7.80997H266.184L271.031 20.9893H272L276.846 7.80997H281.692V29.7756H277.815V15.4979H276.846L272 29.7756H271.031L266.184 15.4979H265.215V29.7756Z" fill="black"/>
</svg>
