<svg width="137" height="40" viewBox="0 0 137 40" fill="none" xmlns="http://www.w3.org/2000/svg">
<path fill-rule="evenodd" clip-rule="evenodd" d="M0 0.208836V4.06024H17.0562V7.63655H0V15.0643L3.3012 18.3655H18.7068L22.008 15.0643V10.6627L19.8072 7.63655L22.008 5.16064V3.51004L18.7068 0.208836H0ZM4.67676 10.6626V14.5141H17.0563V10.6626H4.67676ZM25.8595 18.3655H24.7591V3.6132L27.5101 0.208836H42.9157L45.6667 3.6132V18.3655H44.5663L41.2651 15.5285V10.9893H33.0121V7.01757H41.2651V3.6132H29.1607V15.5285L25.8595 18.3655ZM48.4177 0.208836L51.1687 3.6132H56.1205V14.3937L59.4217 18.3655H61.0723V3.6132H65.4739L68.2249 0.208836H48.4177ZM73.727 3.6132L70.976 0.208836H90.7832L88.0322 3.6132H83.6306V18.3655H81.98L78.6788 14.3937V3.6132H73.727ZM93.5341 0.208836H94.6345L97.9357 3.6132V14.9611H110.04L113.341 18.3655H96.8353L93.5341 14.9611V0.208836ZM119.394 0.208836L116.092 3.6132H133.149L136.45 0.208836H119.394ZM116.092 7.01757H129.847L126.546 10.4219H120.494V14.3937H133.699L137 18.3655H118.843L116.092 14.9611V7.01757ZM19.8072 24.5208L17.0562 21.1165H35.763L39.0642 24.5208V29.06L35.2128 31.897H33.012L40.1646 39.2731H35.2128L27.51 31.897H22.008V39.2731H19.8072L17.0562 35.8687V31.897L20.9076 28.4926H34.1124V24.5208H19.8072ZM42.9157 24.4177L46.2169 21.1165H62.1727L65.4739 24.4177V35.9719L62.1727 39.2731H46.2169L42.9157 35.9719V24.4177ZM47.3173 24.4177V35.4217H60.5221V24.4177H47.3173ZM71.5261 21.1165L68.2249 24.4177V35.9719L71.5261 39.2731H87.4819L90.7831 35.9719V24.4177L87.4819 21.1165H71.5261ZM72.6265 35.4217V24.4177H85.8313V35.4217H72.6265ZM96.2851 39.2731L93.5341 36.4361V21.1165H98.4859L105.914 34.8715H107.289L114.992 21.1165H119.944V36.4361L117.193 39.2731H115.542V29.06H114.992L108.39 39.2731H104.538L98.4859 28.4926H97.9357V39.2731H96.2851Z" fill="black"/>
</svg>
