<svg width="50" height="50" viewBox="0 0 50 50" fill="none" xmlns="http://www.w3.org/2000/svg">
<circle cx="25" cy="25" r="23.5" stroke="white" stroke-width="3"/>
<path d="M21.8861 35.3384C21.7108 35.3383 21.5394 35.2882 21.3937 35.1942C21.248 35.1002 21.1344 34.9667 21.0674 34.8105C21.0003 34.6543 20.9828 34.4824 21.0171 34.3166C21.0513 34.1508 21.1358 33.9985 21.2598 33.879L31.5576 23.9468L21.2598 14.0146C21.0983 13.8533 21.009 13.6374 21.011 13.4133C21.013 13.1892 21.1063 12.9748 21.2706 12.8163C21.4349 12.6578 21.6572 12.5679 21.8896 12.566C22.1219 12.564 22.3458 12.6502 22.513 12.8059L33.4376 23.3427C33.6038 23.503 33.6971 23.7204 33.6971 23.947C33.6971 24.1737 33.6038 24.3911 33.4376 24.5514L22.513 35.0882C22.4306 35.1676 22.3329 35.2305 22.2253 35.2734C22.1178 35.3164 22.0025 35.3384 21.8861 35.3384Z" fill="white"/>
</svg>
