<svg width="38" height="38" viewBox="0 0 38 38" fill="none" xmlns="http://www.w3.org/2000/svg">
<circle cx="19" cy="19" r="19" fill="#82FFE1"/>
<path d="M24.022 8H13.978C10.6816 8 8 10.6816 8 13.978V24.022C8 27.3184 10.6816 30 13.978 30H24.022C27.3184 30 30 27.3184 30 24.022V13.978C30 10.6816 27.3184 8 24.022 8ZM28 24.022C28 26.2153 26.2153 28 24.022 28H13.978C11.7847 28 10 26.2153 10 24.022V13.978C10 11.7847 11.7847 10 13.978 10H24.022C26.2153 10 28 11.7847 28 13.978V24.022ZM19 13C15.6914 13 13 15.6914 13 19C13 22.3086 15.6914 25 19 25C22.3086 25 25 22.3086 25 19C25 15.6914 22.3086 13 19 13ZM19 23C16.7944 23 15 21.2056 15 19C15 16.7944 16.7944 15 19 15C21.2056 15 23 16.7944 23 19C23 21.2056 21.2056 23 19 23ZM25 12C24.4487 12 24 12.4487 24 13C24 13.5513 24.4487 14 25 14C25.5513 14 26 13.5513 26 13C26 12.4487 25.5513 12 25 12Z" fill="#3B4040"/>
</svg>
