<svg width="175" height="23" viewBox="0 0 175 23" fill="none" xmlns="http://www.w3.org/2000/svg">
<path d="M1.15 21.46H9.25V22H0.55V0.879998H1.15V21.46ZM13.8859 0.879998V22H13.2859V0.879998H13.8859ZM38.0188 7.15C37.3788 5.39 36.2788 3.97 34.7188 2.89C33.1788 1.79 31.3488 1.24 29.2288 1.24C27.4688 1.24 25.8688 1.66 24.4288 2.5C22.9888 3.32 21.8488 4.51 21.0088 6.07C20.1888 7.61 19.7788 9.41 19.7788 11.47C19.7788 13.53 20.1888 15.34 21.0088 16.9C21.8488 18.44 22.9888 19.63 24.4288 20.47C25.8688 21.29 27.4688 21.7 29.2288 21.7C30.9488 21.7 32.5188 21.3 33.9388 20.5C35.3788 19.7 36.5288 18.55 37.3888 17.05C38.2488 15.53 38.6988 13.77 38.7388 11.77H28.7788V11.23H39.3088V11.47C39.3088 13.55 38.8788 15.41 38.0188 17.05C37.1588 18.69 35.9588 19.97 34.4188 20.89C32.8988 21.79 31.1688 22.24 29.2288 22.24C27.2888 22.24 25.5488 21.79 24.0088 20.89C22.4888 19.97 21.2988 18.69 20.4388 17.05C19.5788 15.41 19.1488 13.55 19.1488 11.47C19.1488 9.39 19.5788 7.53 20.4388 5.89C21.2988 4.25 22.4888 2.98 24.0088 2.08C25.5488 1.16 27.2888 0.699999 29.2288 0.699999C31.5088 0.699999 33.4588 1.28 35.0788 2.44C36.6988 3.6 37.8788 5.17 38.6188 7.15H38.0188ZM58.9286 0.879998V22H58.3286V11.41H45.1586V22H44.5586V0.879998H45.1586V10.87H58.3286V0.879998H58.9286ZM75.9203 0.879998V1.42H69.7703V22H69.1703V1.42H63.0203V0.879998H75.9203ZM101.113 22L95.4733 12.79H94.9033H90.1633V22H89.5633V0.879998H94.8433C97.1633 0.879998 98.8833 1.41 100.003 2.47C101.143 3.53 101.713 4.98 101.713 6.82C101.713 8.52 101.233 9.88 100.273 10.9C99.3133 11.92 97.9433 12.53 96.1633 12.73L101.863 22H101.113ZM94.9033 12.22C96.9633 12.22 98.5033 11.73 99.5233 10.75C100.563 9.77 101.083 8.46 101.083 6.82C101.083 3.26 99.0033 1.48 94.8433 1.48H90.1633V12.22H94.9033ZM115.848 22.24C113.908 22.24 112.168 21.79 110.628 20.89C109.108 19.97 107.918 18.69 107.058 17.05C106.198 15.41 105.768 13.55 105.768 11.47C105.768 9.39 106.198 7.53 107.058 5.89C107.918 4.25 109.108 2.98 110.628 2.08C112.168 1.16 113.908 0.699999 115.848 0.699999C117.788 0.699999 119.518 1.16 121.038 2.08C122.578 2.98 123.778 4.25 124.638 5.89C125.498 7.53 125.928 9.39 125.928 11.47C125.928 13.55 125.498 15.41 124.638 17.05C123.778 18.69 122.578 19.97 121.038 20.89C119.518 21.79 117.788 22.24 115.848 22.24ZM115.848 21.7C117.608 21.7 119.208 21.29 120.648 20.47C122.088 19.63 123.218 18.44 124.038 16.9C124.878 15.34 125.298 13.53 125.298 11.47C125.298 9.41 124.878 7.61 124.038 6.07C123.218 4.51 122.088 3.32 120.648 2.5C119.208 1.66 117.608 1.24 115.848 1.24C114.088 1.24 112.488 1.66 111.048 2.5C109.608 3.32 108.468 4.51 107.628 6.07C106.808 7.61 106.398 9.41 106.398 11.47C106.398 13.53 106.808 15.34 107.628 16.9C108.468 18.44 109.608 19.63 111.048 20.47C112.488 21.29 114.088 21.7 115.848 21.7ZM140.508 22.24C138.568 22.24 136.828 21.79 135.288 20.89C133.768 19.97 132.578 18.69 131.718 17.05C130.858 15.41 130.428 13.55 130.428 11.47C130.428 9.39 130.858 7.53 131.718 5.89C132.578 4.25 133.768 2.98 135.288 2.08C136.828 1.16 138.568 0.699999 140.508 0.699999C142.448 0.699999 144.178 1.16 145.698 2.08C147.238 2.98 148.438 4.25 149.298 5.89C150.158 7.53 150.588 9.39 150.588 11.47C150.588 13.55 150.158 15.41 149.298 17.05C148.438 18.69 147.238 19.97 145.698 20.89C144.178 21.79 142.448 22.24 140.508 22.24ZM140.508 21.7C142.268 21.7 143.868 21.29 145.308 20.47C146.748 19.63 147.878 18.44 148.698 16.9C149.538 15.34 149.958 13.53 149.958 11.47C149.958 9.41 149.538 7.61 148.698 6.07C147.878 4.51 146.748 3.32 145.308 2.5C143.868 1.66 142.268 1.24 140.508 1.24C138.748 1.24 137.148 1.66 135.708 2.5C134.268 3.32 133.128 4.51 132.288 6.07C131.468 7.61 131.058 9.41 131.058 11.47C131.058 13.53 131.468 15.34 132.288 16.9C133.128 18.44 134.268 19.63 135.708 20.47C137.148 21.29 138.748 21.7 140.508 21.7ZM174.648 1.48V22H174.048V2.95L165.558 22H164.958L156.438 2.95V22H155.838V1.48H156.438L165.258 21.22L174.048 1.48H174.648Z" fill="#3B4040"/>
</svg>
