<svg width="298" height="50" viewBox="0 0 298 50" fill="none" xmlns="http://www.w3.org/2000/svg">
<path fill-rule="evenodd" clip-rule="evenodd" d="M149.851 49.1663H137.324V47.6834C137.313 48.0204 136.987 48.2907 136.587 48.2907C136.18 48.2907 135.85 48.0112 135.85 47.6663C135.85 47.3214 136.18 47.0418 136.587 47.0418C136.987 47.0418 137.313 47.3121 137.324 47.6491V46.1663H147.649L132.903 8.6752L117.35 48.2153L114.559 47.1172L131.507 4.02813L132.903 0.479145L134.298 4.02813L151.246 47.1172L152.052 49.1663H149.851ZM118.902 47.0418C119.309 47.0418 119.639 47.3214 119.639 47.6663C119.639 48.0112 119.309 48.2907 118.902 48.2907C118.495 48.2907 118.166 48.0112 118.166 47.6663C118.166 47.3214 118.495 47.0418 118.902 47.0418ZM122.587 47.6663C122.587 47.3214 122.257 47.0418 121.85 47.0418C121.443 47.0418 121.113 47.3214 121.113 47.6663C121.113 48.0112 121.443 48.2907 121.85 48.2907C122.257 48.2907 122.587 48.0112 122.587 47.6663ZM124.798 47.0418C125.205 47.0418 125.534 47.3214 125.534 47.6663C125.534 48.0112 125.205 48.2907 124.798 48.2907C124.391 48.2907 124.061 48.0112 124.061 47.6663C124.061 47.3214 124.391 47.0418 124.798 47.0418ZM128.482 47.6663C128.482 47.3214 128.152 47.0418 127.745 47.0418C127.338 47.0418 127.009 47.3214 127.009 47.6663C127.009 48.0112 127.338 48.2907 127.745 48.2907C128.152 48.2907 128.482 48.0112 128.482 47.6663ZM130.693 47.0418C131.1 47.0418 131.43 47.3214 131.43 47.6663C131.43 48.0112 131.1 48.2907 130.693 48.2907C130.286 48.2907 129.956 48.0112 129.956 47.6663C129.956 47.3214 130.286 47.0418 130.693 47.0418ZM134.377 47.6663C134.377 47.3214 134.047 47.0418 133.64 47.0418C133.233 47.0418 132.903 47.3214 132.903 47.6663C132.903 48.0112 133.233 48.2907 133.64 48.2907C134.047 48.2907 134.377 48.0112 134.377 47.6663ZM126.543 8.76548L118.437 29.3733L119.368 29.7393L127.473 9.13152L126.543 8.76548ZM151.053 39.3649L136.316 1.89617L135.385 2.2622L150.123 39.731L151.053 39.3649Z" fill="url(#paint0_linear_497_857)"/>
<path fill-rule="evenodd" clip-rule="evenodd" d="M28.5039 7.14038H23.2532V48.396H28.5039V7.14038ZM6.00082 7.14039H0V48.396H18.7526V43.1453H6.00082V7.14039ZM55.5149 7.14038V12.4883H45.7635C40.8879 13.2523 38.2625 16.3083 38.2625 25.0942C38.2625 25.0942 39.7552 40.7561 53.2646 41.5201V15.5443H58.5153V48.396H53.2646C53.2646 48.396 32.6368 41.9021 33.0118 23.5662C33.0118 23.5662 32.2617 9.81436 45.7635 7.14038H55.5149ZM63.0086 7.14038H68.2593V14.7803H80.2609V7.14038H85.5116V48.396H80.2609V24.7122H68.2593V48.396H63.0086V7.14038ZM68.2589 18.6003V21.6562H80.2605V18.6003H68.2589ZM90.0119 7.14038V13.2523H99.7632V48.396H104.264V13.2523H114.015V7.14038H90.0119Z" fill="black"/>
<path fill-rule="evenodd" clip-rule="evenodd" d="M205.153 44.396C214.336 44.396 221.781 36.9515 221.781 27.7682C221.781 18.5849 214.336 11.1404 205.153 11.1404C195.97 11.1404 188.525 18.5849 188.525 27.7682C188.525 36.9515 195.97 44.396 205.153 44.396ZM205.153 48.396C216.545 48.396 225.781 39.1606 225.781 27.7682C225.781 16.3758 216.545 7.14038 205.153 7.14038C193.76 7.14038 184.525 16.3758 184.525 27.7682C184.525 39.1606 193.76 48.396 205.153 48.396ZM204.933 41.2478C212.46 41.2478 218.561 35.1462 218.561 27.6195C218.561 20.0928 212.46 13.9912 204.933 13.9912C197.406 13.9912 191.305 20.0928 191.305 27.6195C191.305 35.1462 197.406 41.2478 204.933 41.2478ZM204.933 42.2478C213.012 42.2478 219.561 35.6985 219.561 27.6195C219.561 19.5405 213.012 12.9912 204.933 12.9912C196.854 12.9912 190.305 19.5405 190.305 27.6195C190.305 35.6985 196.854 42.2478 204.933 42.2478ZM163.523 48.396H158.272V7.14039H171.774C171.774 7.14039 180.775 8.71204 180.775 15.3915C180.775 22.071 171.774 24.0356 171.774 24.0356L183.775 47.6102V48.396H178.525L165.773 24.0356H163.523V48.396ZM162.772 18.5348V11.4624C162.772 11.4624 174.773 10.7919 174.773 14.9986C174.773 19.2053 162.772 18.5348 162.772 18.5348ZM265.287 27.7682C265.287 36.9515 257.842 44.396 248.659 44.396C239.476 44.396 232.031 36.9515 232.031 27.7682C232.031 18.5849 239.476 11.1404 248.659 11.1404C257.842 11.1404 265.287 18.5849 265.287 27.7682ZM269.287 27.7682C269.287 39.1606 260.051 48.396 248.659 48.396C237.266 48.396 228.031 39.1606 228.031 27.7682C228.031 16.3758 237.266 7.14038 248.659 7.14038C260.051 7.14038 269.287 16.3758 269.287 27.7682ZM262.31 27.6195C262.31 35.1462 256.208 41.2478 248.682 41.2478C241.155 41.2478 235.053 35.1462 235.053 27.6195C235.053 20.0928 241.155 13.9912 248.682 13.9912C256.208 13.9912 262.31 20.0928 262.31 27.6195ZM263.31 27.6195C263.31 35.6985 256.761 42.2478 248.682 42.2478C240.603 42.2478 234.053 35.6985 234.053 27.6195C234.053 19.5405 240.603 12.9912 248.682 12.9912C256.761 12.9912 263.31 19.5405 263.31 27.6195ZM276.788 48.396H271.537V7.14038H276.038L285.039 18.4655L294.04 7.14038H297.791V48.396H292.54V16.8476H291.79L285.039 25.7459L277.538 16.8476H276.788V48.396ZM283.539 37.8799V33.8352H287.289V37.8799H283.539ZM283.539 48.396V44.3513H287.289V48.396H283.539Z" fill="black"/>
<defs>
<linearGradient id="paint0_linear_497_857" x1="133.306" y1="49.1663" x2="133.306" y2="0.479145" gradientUnits="userSpaceOnUse">
<stop/>
<stop offset="1" stop-color="white"/>
</linearGradient>
</defs>
</svg>
