<svg width="148" height="125" viewBox="0 0 148 125" fill="none" xmlns="http://www.w3.org/2000/svg">
<path fill-rule="evenodd" clip-rule="evenodd" d="M14.4665 43.0119C22.5607 18.6054 45.5712 1 72.6937 1C99.7508 1 122.716 18.5207 130.862 42.8355H123.386V51.1912H133.017C133.418 53.381 133.704 55.6114 133.867 57.8759H123.386V66.2316H140.097V57.8759H134.869C134.709 55.6122 134.428 53.3818 134.033 51.1912H147.339V42.8355H131.916C123.731 17.9592 100.31 0 72.6937 0C45.0456 0 21.6019 18.0008 13.443 42.922C13.0896 42.9015 12.7308 42.8913 12.3664 42.8913C9.934 42.8913 7.85436 43.3369 6.12752 44.2282C4.40067 45.1195 3.09161 46.3636 2.20034 47.9604C1.32763 49.5387 0.891275 51.3584 0.891275 53.4195C0.891275 55.5363 1.32763 57.3467 2.20034 58.8507C3.09161 60.3362 4.14072 61.5431 5.34765 62.4715C6.55459 63.3813 8.22573 64.4862 10.3611 65.7859L10.4588 65.8454C10.6696 69.6387 11.2195 73.3415 12.0788 76.924C11.778 76.963 11.4654 76.9826 11.1409 76.9826C10.0268 76.9826 8.90347 76.7598 7.77081 76.3141C6.65671 75.8685 5.66331 75.33 4.7906 74.6987C3.9179 74.0674 3.26801 73.4732 2.84094 72.9161L0 78.7651C0.668456 79.4707 1.5783 80.1485 2.72953 80.7983C3.88076 81.4482 5.21767 81.9774 6.74027 82.3859C8.28143 82.7944 9.91544 82.9987 11.6423 82.9987C12.4014 82.9987 13.1294 82.9577 13.8262 82.8758C18.7765 97.0617 28.7095 108.911 41.5272 116.325L42.028 115.46C29.4682 108.194 19.7246 96.6035 14.8332 82.7249C15.9896 82.5125 17.052 82.1768 18.0205 81.7175C19.8216 80.8448 21.2049 79.5914 22.1705 77.9574C23.136 76.3234 23.6188 74.383 23.6188 72.1363C23.6188 70.0195 23.1917 68.2369 22.3376 66.7886C21.502 65.3217 20.4622 64.1148 19.2181 63.1678C17.974 62.2208 16.1729 61.051 13.8148 59.6584C12.9195 59.1213 12.1476 58.6326 11.499 58.1923C11.7126 54.9876 12.1724 51.8503 12.8595 48.7991C13.7656 48.8255 14.6318 49.0194 15.4581 49.3809C16.3493 49.7523 17.1106 50.2072 17.7419 50.7457C18.3733 51.2656 18.8468 51.7483 19.1624 52.194L22.2819 46.5121C20.1111 44.5387 17.506 43.3719 14.4665 43.0119ZM11.8243 48.8462C10.7818 48.98 9.94128 49.3811 9.30268 50.0494C8.52282 50.8664 8.13289 51.8969 8.13289 53.141C8.13289 54.0879 8.36499 54.9328 8.82919 55.6755C9.27987 56.3515 9.85191 56.9628 10.5453 57.5094C10.771 54.5595 11.2021 51.667 11.8243 48.8462ZM11.5001 66.4883C11.7341 69.9858 12.2613 73.403 13.0574 76.7156C13.7113 76.5166 14.298 76.2064 14.8175 75.7849C15.8201 74.9679 16.3215 73.826 16.3215 72.3591C16.3215 71.4121 16.0894 70.5951 15.6252 69.9081C15.1795 69.2025 14.5761 68.5804 13.8148 68.042C13.2661 67.6305 12.4946 67.1126 11.5001 66.4883ZM85.8836 43.5598V82.3859H85.3265L66.7212 61.9423L64.9943 59.7141L65.2729 65.1175V82.3859H58.4212V43.5598H59.0339L77.3608 64.2819L79.3104 66.8165L79.0319 61.4967V43.5598H85.8836ZM99.8172 82.3859C101.358 82.7944 102.992 82.9987 104.719 82.9987C107.17 82.9987 109.296 82.5716 111.097 81.7175C112.898 80.8448 114.282 79.5914 115.247 77.9574C116.213 76.3234 116.696 74.383 116.696 72.1363C116.696 70.0195 116.269 68.2369 115.414 66.7886C114.579 65.3217 113.539 64.1148 112.295 63.1678C111.051 62.2208 109.25 61.051 106.892 59.6584C105.592 58.8785 104.552 58.2008 103.772 57.6252C103.011 57.0496 102.389 56.3997 101.906 55.6755C101.442 54.9328 101.21 54.0879 101.21 53.141C101.21 51.8969 101.6 50.8664 102.38 50.0494C103.178 49.2138 104.292 48.796 105.722 48.796C106.706 48.796 107.644 48.991 108.535 49.3809C109.426 49.7523 110.188 50.2072 110.819 50.7457C111.45 51.2656 111.924 51.7483 112.239 52.194L115.359 46.5121C112.704 44.0982 109.398 42.8913 105.443 42.8913C103.011 42.8913 100.931 43.3369 99.2044 44.2282C97.4776 45.1195 96.1685 46.3636 95.2772 47.9604C94.4045 49.5387 93.9682 51.3584 93.9682 53.4195C93.9682 55.5363 94.4045 57.3467 95.2772 58.8507C96.1685 60.3362 97.2176 61.5431 98.4245 62.4715C99.6315 63.3813 101.303 64.4862 103.438 65.7859C104.998 66.7329 106.149 67.4849 106.892 68.042C107.653 68.5804 108.256 69.2025 108.702 69.9081C109.166 70.5951 109.398 71.4121 109.398 72.3591C109.398 73.826 108.897 74.9679 107.894 75.7849C106.91 76.5834 105.685 76.9826 104.218 76.9826C103.104 76.9826 101.98 76.7598 100.848 76.3141C99.7336 75.8685 98.7402 75.33 97.8675 74.6987C96.9948 74.0674 96.3449 73.4732 95.9178 72.9161L93.0769 78.7651C93.7453 79.4707 94.6552 80.1485 95.8064 80.7983C96.9576 81.4482 98.2946 81.9774 99.8172 82.3859ZM53.198 42.8355H29.245V51.1912H53.198V42.8355ZM29.2448 57.8759H45.9562V66.2316H29.2448V57.8759ZM29.2448 74.0303H53.1978V82.386H29.2448V74.0303ZM147.339 74.0303H123.386V82.386H147.339V74.0303ZM81.3297 31.9731H77.4304V33.0872H81.3297V31.9731ZM80.2156 34.4798H77.4304V35.5939H80.2156V34.4798ZM77.4304 36.9865H81.3297V38.1006H77.4304V36.9865ZM71.302 31.9732H66.8456V33.0872H71.302V31.9732ZM68.5176 38.1006V33.6443H69.6317V38.1006H68.5176ZM71.8599 31.9731V38.1006H72.974V31.9731H71.8599ZM75.2022 38.1006V31.9731H76.3163V38.1006H75.2022ZM74.6451 34.2013H73.5311V35.3154H74.6451V34.2013ZM135.083 68.4598C135.083 68.7674 134.833 69.0168 134.526 69.0168C134.218 69.0168 133.969 68.7674 133.969 68.4598C133.969 68.1521 134.218 67.9027 134.526 67.9027C134.833 67.9027 135.083 68.1521 135.083 68.4598ZM133.969 72.9162C134.276 72.9162 134.526 72.6668 134.526 72.3591C134.526 72.0515 134.276 71.8021 133.969 71.8021C133.661 71.8021 133.412 72.0515 133.412 72.3591C133.412 72.6668 133.661 72.9162 133.969 72.9162ZM130.626 84.0571C130.626 84.3647 130.377 84.6141 130.069 84.6141C129.762 84.6141 129.512 84.3647 129.512 84.0571C129.512 83.7495 129.762 83.5 130.069 83.5C130.377 83.5 130.626 83.7495 130.626 84.0571ZM128.398 88.5135C128.706 88.5135 128.955 88.2641 128.955 87.9564C128.955 87.6488 128.706 87.3994 128.398 87.3994C128.091 87.3994 127.841 87.6488 127.841 87.9564C127.841 88.2641 128.091 88.5135 128.398 88.5135ZM122.271 99.0974C122.578 99.0974 122.828 98.848 122.828 98.5403C122.828 98.2327 122.578 97.9833 122.271 97.9833C121.963 97.9833 121.714 98.2327 121.714 98.5403C121.714 98.848 121.963 99.0974 122.271 99.0974ZM96.0895 119.708C96.3971 119.708 96.6465 119.459 96.6465 119.151C96.6465 118.843 96.3971 118.594 96.0895 118.594C95.7818 118.594 95.5324 118.843 95.5324 119.151C95.5324 119.459 95.7818 119.708 96.0895 119.708ZM117.257 105.225C117.257 105.533 117.008 105.782 116.7 105.782C116.393 105.782 116.143 105.533 116.143 105.225C116.143 104.917 116.393 104.668 116.7 104.668C117.008 104.668 117.257 104.917 117.257 105.225ZM127.284 91.8558C127.284 92.1634 127.035 92.4128 126.727 92.4128C126.419 92.4128 126.17 92.1634 126.17 91.8558C126.17 91.5481 126.419 91.2987 126.727 91.2987C127.035 91.2987 127.284 91.5481 127.284 91.8558ZM113.915 108.567C114.223 108.567 114.472 108.318 114.472 108.01C114.472 107.702 114.223 107.453 113.915 107.453C113.607 107.453 113.358 107.702 113.358 108.01C113.358 108.318 113.607 108.567 113.915 108.567ZM111.13 110.795C111.13 111.103 110.88 111.352 110.573 111.352C110.265 111.352 110.016 111.103 110.016 110.795C110.016 110.488 110.265 110.238 110.573 110.238C110.88 110.238 111.13 110.488 111.13 110.795ZM103.888 115.809C104.196 115.809 104.445 115.559 104.445 115.252C104.445 114.944 104.196 114.695 103.888 114.695C103.58 114.695 103.331 114.944 103.331 115.252C103.331 115.559 103.58 115.809 103.888 115.809ZM87.1767 122.493C87.4844 122.493 87.7338 122.244 87.7338 121.936C87.7338 121.629 87.4844 121.379 87.1767 121.379C86.8691 121.379 86.6197 121.629 86.6197 121.936C86.6197 122.244 86.8691 122.493 87.1767 122.493ZM83.2774 123.05C83.2774 123.358 83.028 123.607 82.7203 123.607C82.4127 123.607 82.1633 123.358 82.1633 123.05C82.1633 122.743 82.4127 122.493 82.7203 122.493C83.028 122.493 83.2774 122.743 83.2774 123.05ZM78.264 124.164C78.5716 124.164 78.821 123.915 78.821 123.607C78.821 123.3 78.5716 123.05 78.264 123.05C77.9563 123.05 77.7069 123.3 77.7069 123.607C77.7069 123.915 77.9563 124.164 78.264 124.164ZM74.3646 124.164C74.3646 124.472 74.1152 124.722 73.8076 124.722C73.4999 124.722 73.2505 124.472 73.2505 124.164C73.2505 123.857 73.4999 123.607 73.8076 123.607C74.1152 123.607 74.3646 123.857 74.3646 124.164ZM69.3512 124.722C69.6589 124.722 69.9083 124.472 69.9083 124.164C69.9083 123.857 69.6589 123.607 69.3512 123.607C69.0436 123.607 68.7942 123.857 68.7942 124.164C68.7942 124.472 69.0436 124.722 69.3512 124.722ZM65.4519 123.607C65.4519 123.915 65.2025 124.164 64.8948 124.164C64.5872 124.164 64.3378 123.915 64.3378 123.607C64.3378 123.3 64.5872 123.05 64.8948 123.05C65.2025 123.05 65.4519 123.3 65.4519 123.607ZM60.4385 123.05C60.7461 123.05 60.9955 122.801 60.9955 122.493C60.9955 122.186 60.7461 121.936 60.4385 121.936C60.1308 121.936 59.8814 122.186 59.8814 122.493C59.8814 122.801 60.1308 123.05 60.4385 123.05ZM55.9821 121.379C55.9821 121.687 55.7327 121.936 55.425 121.936C55.1174 121.936 54.868 121.687 54.868 121.379C54.868 121.072 55.1174 120.822 55.425 120.822C55.7327 120.822 55.9821 121.072 55.9821 121.379ZM50.9687 120.265C51.2763 120.265 51.5257 120.016 51.5257 119.708C51.5257 119.4 51.2763 119.151 50.9687 119.151C50.661 119.151 50.4116 119.4 50.4116 119.708C50.4116 120.016 50.661 120.265 50.9687 120.265ZM47.6264 118.037C47.6264 118.345 47.377 118.594 47.0693 118.594C46.7617 118.594 46.5123 118.345 46.5123 118.037C46.5123 117.729 46.7617 117.48 47.0693 117.48C47.377 117.48 47.6264 117.729 47.6264 118.037ZM43.17 116.923C43.4777 116.923 43.7271 116.673 43.7271 116.366C43.7271 116.058 43.4777 115.809 43.17 115.809C42.8624 115.809 42.613 116.058 42.613 116.366C42.613 116.673 42.8624 116.923 43.17 116.923ZM92.1901 120.822C92.1901 121.13 91.9407 121.379 91.6331 121.379C91.3254 121.379 91.076 121.13 91.076 120.822C91.076 120.515 91.3254 120.265 91.6331 120.265C91.9407 120.265 92.1901 120.515 92.1901 120.822ZM124.499 95.7551C124.807 95.7551 125.056 95.5057 125.056 95.198C125.056 94.8904 124.807 94.641 124.499 94.641C124.191 94.641 123.942 94.8904 123.942 95.198C123.942 95.5057 124.191 95.7551 124.499 95.7551ZM100.546 117.48C100.546 117.788 100.296 118.037 99.9888 118.037C99.6811 118.037 99.4317 117.788 99.4317 117.48C99.4317 117.172 99.6811 116.923 99.9888 116.923C100.296 116.923 100.546 117.172 100.546 117.48ZM107.23 113.581C107.538 113.581 107.787 113.331 107.787 113.024C107.787 112.716 107.538 112.466 107.23 112.466C106.923 112.466 106.673 112.716 106.673 113.024C106.673 113.331 106.923 113.581 107.23 113.581ZM120.042 101.883C120.042 102.19 119.793 102.44 119.485 102.44C119.178 102.44 118.928 102.19 118.928 101.883C118.928 101.575 119.178 101.326 119.485 101.326C119.793 101.326 120.042 101.575 120.042 101.883Z" fill="white"/>
</svg>
