<svg width="13" height="13" viewBox="0 0 13 13" fill="none" xmlns="http://www.w3.org/2000/svg">
<path d="M6.5 0C2.90875 0 0 2.90875 0 6.5C0 10.0912 2.90875 13 6.5 13C10.0912 13 13 10.0912 13 6.5C13 2.90875 10.0912 0 6.5 0ZM6.5 11.7C3.6335 11.7 1.3 9.3665 1.3 6.5C1.3 3.6335 3.6335 1.3 6.5 1.3C9.3665 1.3 11.7 3.6335 11.7 6.5C11.7 9.3665 9.3665 11.7 6.5 11.7ZM5.252 5.76225C5.28775 5.551 5.35275 5.3625 5.447 5.19675C5.54125 5.031 5.67125 4.89775 5.8305 4.797C5.98325 4.70275 6.175 4.65075 6.41225 4.6475C6.56825 4.65075 6.71125 4.67675 6.83475 4.732C6.968 4.7905 7.0785 4.8685 7.17275 4.966C7.267 5.0635 7.3385 5.1805 7.3905 5.3105C7.4425 5.4405 7.47175 5.58025 7.47825 5.7265H8.64175C8.632 5.421 8.57025 5.1415 8.463 4.888C8.35575 4.6345 8.19975 4.41675 8.00475 4.2315C7.80975 4.04625 7.57575 3.9065 7.30275 3.80575C7.02975 3.705 6.7275 3.653 6.396 3.653C5.9735 3.653 5.60625 3.7245 5.29425 3.87075C4.98225 4.017 4.72225 4.21525 4.51425 4.46875C4.30625 4.72225 4.15025 5.01475 4.0495 5.3495C3.94875 5.68425 3.9 6.0385 3.9 6.41225V6.591C3.9 6.968 3.952 7.32225 4.05275 7.657C4.1535 7.99175 4.3095 8.28425 4.5175 8.5345C4.7255 8.78475 4.9855 8.983 5.30075 9.12925C5.616 9.2755 5.98325 9.347 6.40575 9.347C6.71125 9.347 6.99725 9.29825 7.26375 9.1975C7.53025 9.09675 7.76425 8.96025 7.96575 8.78475C8.16725 8.60925 8.32975 8.40775 8.44675 8.17375C8.56375 7.93975 8.632 7.69275 8.64175 7.42625H7.47825C7.47175 7.56275 7.43925 7.68625 7.38075 7.80325C7.32225 7.92025 7.24425 8.01775 7.14675 8.099C7.04925 8.18025 6.9355 8.24525 6.8055 8.29075C6.682 8.333 6.552 8.35575 6.41225 8.35575C6.17825 8.34925 5.9865 8.3005 5.8305 8.203C5.668 8.099 5.538 7.96575 5.44375 7.8C5.3495 7.63425 5.2845 7.44575 5.24875 7.23125C5.213 7.01675 5.2 6.80875 5.2 6.591V6.41225C5.2 6.19125 5.21625 5.9735 5.252 5.76225Z" fill="#82FFE1"/>
</svg>
