<svg width="1520" height="3651" viewBox="0 0 1520 3651" fill="none" xmlns="http://www.w3.org/2000/svg">
<path d="M0 -6.10352e-05V415.837H27.771V383.314M27.771 -6.10352e-05V383.314M27.771 383.314H49.9878V-6.10352e-05V457.653H64.799M64.799 457.653L66.6504 -6.10352e-05M64.799 457.653V499.469H85.1644V-6.10352e-05M151.815 -6.10352e-05V555.628L212.911 634.21M212.911 634.21V-6.10352e-05M212.911 634.21V719.004M212.911 850.259V719.004M244.385 -6.10352e-05V678.349L212.911 719.004M301.778 -6.10352e-05V453.007H327.698V-6.10352e-05M390.646 -6.10352e-05V594.717L468.404 692.288M468.404 692.288V938.538M468.404 692.288V-6.10352e-05M468.404 985V938.538M468.404 938.538L494.324 906.014V-6.10352e-05M570.231 -6.10352e-05V176.557L599.854 211.403M599.854 211.403V-6.10352e-05M599.854 211.403V318.266L622.071 346.144M622.071 346.144V414.676L659.099 369.375M622.071 346.144V-6.10352e-05M659.099 369.375V676.026L692.424 717.842M659.099 369.375V-6.10352e-05M692.424 717.842V741.073M692.424 717.842V313.62M692.424 -6.10352e-05V313.62M692.424 313.62L722.046 350.79V-6.10352e-05M751.669 -6.10352e-05V882.783H773.885V645.825M773.885 -6.10352e-05V645.825M773.885 645.825H788.697V473.915M788.697 -6.10352e-05V473.915M788.697 473.915H803.508V446.038M803.508 -6.10352e-05V446.038M803.508 446.038L868.307 362.406V-6.10352e-05M907.186 436.745V415.837M907.186 -6.10352e-05V415.837M907.186 415.837L953.471 357.759M953.471 357.759V367.052L1020.12 450.684M953.471 357.759V-6.10352e-05M1020.12 450.684V-6.10352e-05M1020.12 450.684V666.733M1020.12 691.126V666.733M1020.12 666.733L1075.66 594.717V-6.10352e-05M1160.83 -6.10352e-05V466.946L1207.11 525.024M1207.11 525.024V782.889L1247.84 831.675M1207.11 525.024V-6.10352e-05M1247.84 831.675V964.092M1247.84 831.675V796.828M1247.84 -6.10352e-05V204.434M1247.84 204.434L1281.17 162.618V-6.10352e-05M1247.84 204.434V796.828M1247.84 796.828L1345.97 671.38V434.422M1345.97 -6.10352e-05V434.422M1345.97 434.422L1407.06 511.085V-6.10352e-05M1455.2 -6.10352e-05V383.314H1481.12M1481.12 383.314V-6.10352e-05M1481.12 383.314V420.483M1481.12 473.915V420.483M1481.12 420.483L1501.49 394.929M1520 -6.10352e-05V371.698L1501.49 394.929M1501.49 -6.10352e-05V394.929" stroke="url(#paint0_linear_497_1522)" stroke-opacity="0.8" stroke-width="2"/>
<path opacity="0.3" d="M0 3587.63H573.129M1520 3587.63H1210.01M713.393 3166.67L856.5 3447.74M713.393 3166.67H999.248M713.393 3166.67L642.551 3027.76L785.478 2748.53L927.508 3026.34M959.477 3650L856.5 3447.74M115.585 3650L183.75 3518.18M201.341 3484.16L183.941 3449.99M201.341 3484.16L183.75 3518.18M201.341 3484.16L285.854 3650M201.341 3484.16L217.621 3445.89M0 3528.1L111.856 3308.41L183.941 3449.99M82.0278 3650L183.941 3449.99M0 3518.18H183.75M222.469 3650L395.225 3306.99M395.225 3306.99H146.656L217.621 3445.89M395.225 3306.99H430.025M321.897 3650L217.621 3445.89M217.621 3445.89H502.11M502.11 3445.89L430.025 3306.99M502.11 3445.89L400.196 3650M502.11 3445.89L573.129 3587.63M430.025 3306.99L257.269 3650M604.023 3649.29L573.129 3587.63M538.152 3445.89L434.996 3650M538.152 3445.89L608.994 3587.63M538.152 3445.89H820.278M573.129 3587.63L540.638 3650M573.129 3587.63H608.994M608.994 3587.63L576.68 3650M608.994 3587.63L640.065 3650M608.994 3587.63H891.12M820.278 3445.89L719.607 3650M820.278 3445.89L953.9 3183.68M1520 3183.68H1378.94M754.407 3650L856.5 3447.74M971.905 3219.11L953.9 3183.68M971.905 3219.11L857.432 3445.89M971.905 3219.11L1095.34 3463.61M953.9 3183.68L1096.19 2904.45H953.36M953.9 3183.68H1237.25M953.9 3183.68H811.578M1113.59 3499.76H971.356M1113.59 3499.76H1520L1493.84 3448.02M1113.59 3499.76L1140.93 3445.89M1113.59 3499.76L1095.34 3463.61M688.573 3499.76L546.852 3219.11H830.221M688.573 3499.76L830.221 3219.11M688.573 3499.76H971.356M830.221 3219.11L953.262 3462.9M830.221 3219.11L811.578 3183.68M830.221 3219.11L927.508 3026.34M953.262 3462.9L1236.63 2904.45L1378.94 3183.68M953.262 3462.9L891.12 3587.63M860.049 3650L891.12 3587.63M1378.94 3183.68L1236.63 3461.49M1378.94 3183.68H1237.25M1236.63 3461.49L1112.66 3217.69M1236.63 3461.49L1331.71 3650M934.62 2867.6H794.178M934.62 2867.6L953.36 2904.45M934.62 2867.6L794.178 3145.41L652.494 2867.6M934.62 2588.37L794.178 2867.6M934.62 2588.37H792.935M934.62 2588.37L917.22 2554.35M794.178 2867.6L775.536 2833.58M794.178 2867.6H652.494M896.092 3650L971.356 3499.76M1112.66 3217.69L971.356 3499.76M1112.66 3217.69L953.36 2904.45M856.5 3447.74L857.432 3445.89M857.432 3445.89H1140.93M1140.93 3445.89L1254.03 3220.53L1414.13 3534.87M1472.77 3650L1414.13 3534.87M891.12 3587.63L923.434 3650M891.12 3587.63H1210.01M971.356 3499.76L988.927 3533.77M1048.96 3650L988.927 3533.77M988.927 3533.77L928.406 3650M1520 3166.67H1351.59L1422.54 3306.99M1095.34 3463.61L1237.25 3183.68M1384.6 3306.28L1317.42 3166.67H1033.61M1384.6 3306.28H1353.46M1384.6 3306.28L1386.31 3309.82M1104.89 3306.28L1246.57 3027.76L1175.73 2888.15M1104.89 3306.28L1033.61 3166.67M1104.89 3306.28H1353.46M961.962 3026.34L1104.89 2748.53L1175.73 2888.15M961.962 3026.34L1033.61 3166.67M961.962 3026.34L820.278 2748.53M1175.73 2888.15L1033.61 3166.67M1033.61 3166.67H999.248M1178.22 3650L1210.01 3587.63M1353.46 3306.28L1210.01 3587.63M1386.31 3309.82L1213.02 3650M1386.31 3309.82L1457.24 3445.89M1210.01 3587.63L1242.85 3650M1279.51 3650L1174.49 3445.89H1457.24M1457.24 3445.89L1520 3568.5M1422.54 3306.99H1520M1422.54 3306.99L1493.84 3448.02M1319.9 3650L1520 3255.96M1355.94 3650L1414.13 3534.87M1520 3325.42L1414.13 3534.87M1414.13 3534.87H1520L1460.34 3650M1497.63 3650L1520 3606.77M1393.85 3650L1493.84 3448.02M1493.84 3448.02H1520M999.248 3166.67L927.508 3026.34M811.578 3183.68H528.209L386.525 2904.45H953.36M811.578 3183.68L953.36 2904.45M820.278 2748.53L775.536 2833.58M820.278 2748.53L917.22 2554.35M775.536 2833.58L474.581 2239.69M652.494 2867.6L792.935 2588.37M652.494 2867.6H510.809M792.935 2588.37H509.567L367.882 2867.6H510.809M917.22 2554.35L776.778 2273.71M776.778 2273.71L492.788 2832.14M776.778 2273.71H633.65M0 2273.71H67.7351M510.809 2867.6L492.788 2832.14M49.7138 1960.46H0M49.7138 1960.46H123.903M49.7138 1960.46L332.855 2517.5M403.925 2239.69L262.24 1960.46H189.534M403.925 2239.69H334.325M403.925 2239.69H474.581M0 2239.69H50.3352M616.451 2239.69L474.767 2516.08L351.611 2273.71M616.451 2239.69L633.65 2273.71M616.451 2239.69H474.581M334.325 2239.69L351.611 2273.71M334.325 2239.69H264.726M268.455 1495.55L526.507 2004.4M988.062 2358.75L846.378 2635.14L686.275 2319.44M988.062 2358.75L846.378 2078.1M988.062 2358.75H1130.99L986.819 2078.1M988.062 2358.75H845.04M846.378 2078.1H986.819M846.378 2078.1L563.009 2633.72L505.838 2523.17M846.378 2078.1H703.442M986.819 2078.1L845.04 2358.75M136.713 2358.75L333.083 1960.46L474.581 2239.69M136.713 2358.75L0 2085.19M136.713 2358.75H279.329M0 2078.1H421.226M505.838 2523.17L492.167 2554.35L635.094 2830.74L775.536 2554.35M505.838 2523.17L421.946 2358.75M505.838 2523.17L633.65 2273.71M775.536 2554.35H351.587M775.536 2554.35L633.65 2273.71M367.882 2113.54L261.17 2322.61M367.882 2113.54L510.91 2394.18M367.882 2113.54L626.485 1603.28M681.079 1495.55L626.485 1603.28M367.882 2394.18L510.809 2117.79M367.882 2394.18L651.251 2393.24M367.882 2394.18L510.809 2674.83L651.251 2393.24M510.809 2117.79L651.251 2393.24M510.809 2117.79L687.294 1763.44M651.251 2393.24L794.178 2392.77L652.494 2671.99L510.91 2394.18M421.946 2358.75L563.885 2078.1M421.946 2358.75H279.329M421.946 2358.75H563.679M563.885 2078.1L686.275 2319.44M563.885 2078.1H421.226M563.885 2078.1H703.442M563.885 2078.1L526.507 2004.4M351.587 2554.35L492.788 2832.14M351.587 2554.35H209.351M351.587 2554.35L492.63 2273.71M351.587 2554.35L332.855 2517.5M0 2421.11L67.1137 2554.35H209.351M125.527 1495.55L225.576 1692.66M845.04 2358.75L704.693 2636.56L563.679 2358.75M845.04 2358.75H563.679M845.04 2358.75L703.442 2078.1M409.518 1495.55L685.563 2042.67M686.275 2319.44L828.978 2042.67L687.294 1763.44M687.294 1763.44H403.925M687.294 1763.44H828.356M120.556 1763.44L243.598 2004.4L500.867 1495.55L555.502 1604.69M120.556 1763.44H261.505M120.556 1763.44L102.535 1728.01M409.518 1885.34H695.993L555.502 1604.69M409.518 1885.34L555.502 1604.69M409.518 1885.34L339.272 1745.02M555.502 1604.69H306.983M555.502 1604.69L589.69 1604.57M306.983 1604.69L361.668 1495.55M306.983 1604.69L123.903 1960.46M101.292 2004.4L0 1805.96M101.292 2004.4L123.903 1960.46M101.292 2004.4L120.52 2042.67M279.329 2358.75L421.226 2078.1M279.329 2358.75L261.17 2322.61M421.226 2078.1L563.679 2358.75M421.226 2078.1L385.253 2007.23M351.611 2273.71L209.351 2554.35M351.611 2273.71H67.7351M351.611 2273.71H492.63M209.351 2554.35L67.7351 2273.71M50.3352 2239.69L0 2139.05M50.3352 2239.69L189.534 1960.46M50.3352 2239.69H264.726M189.534 1960.46H123.903M123.903 1960.46L264.726 2239.69M261.17 2322.61L120.52 2042.67M405.789 2324.73L262.24 2042.67L403.925 1763.44M403.925 1763.44H261.505M120.52 2042.67H685.563M120.52 2042.67L261.505 1763.44M633.65 2273.71H492.63M332.855 2517.5L474.581 2239.69M510.91 2394.18L685.563 2042.67M685.563 2042.67L703.442 2078.1M685.563 2042.67H969.419M685.563 2042.67L828.356 1763.44M563.679 2358.75L703.442 2078.1M703.442 2078.1L846.378 1798.88M846.378 1798.88L828.356 1763.44M846.378 1798.88L969.419 2042.67M828.356 1763.44H1111.1M969.419 2042.67H1111.1L1251.55 1763.44H1111.1M969.419 2042.67L1049.97 1883.92M1111.1 1763.44L1049.97 1883.92M1049.97 1883.92H1332.95L1262.72 1745.02M1049.97 1883.92L979.376 1745.02M1136.58 1495.55L1262.72 1745.02M852.592 1495.55L907.339 1603.28M732.036 1885.34H1014.78L871.856 1603.28M732.036 1885.34L589.69 1604.57M732.036 1885.34L811.578 1728.01M534.424 1495.55L589.69 1604.57M871.856 1603.28H907.339M871.856 1603.28H626.485M907.339 1603.28L979.376 1745.02M907.339 1603.28L965.691 1495.55M692.265 1495.55L811.578 1728.01M811.578 1728.01L927.163 1495.55M811.578 1728.01H951.398L1067.6 1495.55M811.578 1728.01H667.849M0 1728.01H102.535M0 1745.02H22.5242M1262.72 1745.02H979.376M526.507 2004.4L667.849 1728.01M786.721 1495.55L667.849 1728.01M667.849 1728.01L552.445 1495.55M667.849 1728.01H102.535M645.037 1495.55L589.69 1604.57M385.253 2007.23L589.69 1604.57M385.253 2007.23L261.505 1763.44M467.931 1495.55L339.272 1745.02M339.272 1745.02H22.5242M339.272 1745.02L269.002 1604.64M339.272 1745.02H979.376M94.4563 1885.34H377.204L234.898 1604.64M94.4563 1885.34L22.5242 1745.02M94.4563 1885.34L234.898 1604.64M0 1701.08L22.5242 1745.02M22.5242 1745.02L148.52 1495.55M234.898 1604.64L179.591 1495.55L84.5135 1689.74L0 1523.9M234.898 1604.64H0M234.898 1604.64H269.002M269.002 1604.64L214.391 1495.55L102.535 1728.01M269.002 1604.64L225.576 1692.66M269.002 1604.64L325.625 1495.55M225.576 1692.66L261.505 1763.44M979.376 1745.02L1104.89 1495.55M1369.62 1883.92H1520M1369.62 1883.92L1512.54 1606.11M1369.62 1883.92L1298.94 1745.02M1172 1495.55L1226.82 1603.28M1512.54 1606.11L1455.99 1495.55M1512.54 1606.11L1520 1624.54M1298.94 1745.02H1520M1298.94 1745.02L1425.54 1495.55M1298.94 1745.02L1226.82 1603.28M1226.82 1603.28L1282.62 1495.55M1226.82 1603.28H945.805L1000.49 1495.55M0 1648.63L78.2993 1495.55M0 1580.6L43.4996 1495.55M0 1512.56L8.69992 1495.55M1520 1552.25L1511.42 1535.24M1491.41 1495.55L1511.42 1535.24M1511.42 1535.24H1520M1511.42 1535.24L1520 1516.81" stroke="url(#paint1_linear_497_1522)" stroke-opacity="0.6" stroke-width="3"/>
<defs>
<linearGradient id="paint0_linear_497_1522" x1="760" y1="985" x2="760" y2="5.6386e-05" gradientUnits="userSpaceOnUse">
<stop offset="0.157525" stop-color="#82FFE1"/>
<stop offset="1" stop-color="#9C9C9C"/>
</linearGradient>
<linearGradient id="paint1_linear_497_1522" x1="760.502" y1="1495.55" x2="760.502" y2="3650" gradientUnits="userSpaceOnUse">
<stop offset="0.276127" stop-color="#16AF8B"/>
<stop offset="1"/>
</linearGradient>
</defs>
</svg>
