<svg width="151" height="80" viewBox="0 0 151 80" fill="none" xmlns="http://www.w3.org/2000/svg">
<path fill-rule="evenodd" clip-rule="evenodd" d="M10.5181 18.5845H17.4873V30.9741H24.4565C24.4565 30.9741 26.2544 30.4999 26.7796 30.1998C27.3667 29.8643 27.9411 29.4254 27.9411 29.4254L6.64637 0H24.4565C24.4565 0 41.1051 1.93588 41.4923 18.5845C41.8795 35.2331 24.4565 37.169 24.4565 37.169H10.5181V18.5845ZM19.8093 6.19483L33.7477 24.7793C33.7477 24.7793 35.8316 17.193 33.7477 13.164C32.3723 10.505 30.9521 9.18298 28.3272 7.74354C25.3627 6.11785 19.8093 6.19483 19.8093 6.19483ZM49.8353 37.169H41.4913L59.6965 0H61.2136L78.6603 37.169H60.455V31.1006H68.0405L60.455 15.171L49.8353 37.169ZM88.7272 37.169H81.758V22.4563H91.8246L78.6606 0H96.4707C96.4707 0 105.763 0.774354 108.473 10.841C111.183 20.9076 102.666 26.328 102.666 26.328L109.635 37.169H101.117L95.6964 28.6511H88.7272V37.169ZM98.7939 20.9075L90.276 6.96918H95.6965C95.6965 6.96918 99.9554 6.96918 101.891 12.3897C103.827 17.8101 98.7939 20.9075 98.7939 20.9075ZM121.745 0H115.055V37.169L126.206 23.0448L135.126 35.6822H143.303L130.666 17.4694L143.303 0H135.126L121.745 18.5845V0ZM11.2919 77.4354H18.2611V68.9175H25.2303L30.6507 77.4354H39.1686L32.1995 66.5944C32.1995 66.5944 40.7173 61.174 38.0071 51.1074C35.2969 41.0408 26.0046 40.2664 26.0046 40.2664H8.19449L21.3585 62.7227H11.2919V77.4354ZM19.8091 47.2356L28.327 61.1739C28.327 61.1739 33.3603 58.0765 31.4244 52.656C29.4885 47.2356 25.2296 47.2356 25.2296 47.2356H19.8091ZM61.2253 70.3735C60.3695 70.624 59.4641 70.7584 58.5273 70.7584C53.2339 70.7584 48.9428 66.4673 48.9428 61.1739C48.9428 59.8894 49.1955 58.6638 49.6539 57.5443L61.2253 70.3735ZM67.263 65.123L55.4972 52.0783C56.4496 51.7612 57.4684 51.5895 58.5273 51.5895C63.8207 51.5895 68.1118 55.8806 68.1118 61.1739C68.1118 62.5818 67.8082 63.9188 67.263 65.123ZM73.6271 72.0106C70.2537 76.7027 64.7474 79.7584 58.5273 79.7584C48.2634 79.7584 39.9428 71.4379 39.9428 61.1739C39.9428 50.91 48.2634 42.5895 58.5273 42.5895C64.7474 42.5895 70.2537 45.6452 73.6271 50.3373C77.0004 45.6452 82.5068 42.5895 88.7268 42.5895C98.9908 42.5895 107.311 50.91 107.311 61.1739C107.311 71.4379 98.9908 79.7584 88.7268 79.7584C82.5068 79.7584 77.0004 76.7027 73.6271 72.0106ZM88.7268 70.7584C87.7902 70.7584 86.8849 70.6241 86.0292 70.3736L97.6003 57.5447C98.0587 58.6641 98.3113 59.8895 98.3113 61.1739C98.3113 66.4673 94.0202 70.7584 88.7268 70.7584ZM91.7573 52.0784L79.9913 65.1233C79.446 63.919 79.1423 62.5819 79.1423 61.1739C79.1423 55.8806 83.4335 51.5895 88.7268 51.5895C89.7859 51.5895 90.8048 51.7612 91.7573 52.0784ZM110.281 42.5895L117.822 40.7289L126.225 56.7222L134.333 40.7765L141.899 42.5895V79.7584H133.899V59.2813L129.849 67.2459L126.342 74.1435L122.742 67.2934L118.281 58.8021V79.7584H110.281V42.5895ZM0 78.9841V0.774344H4V78.9841H0ZM146.353 0.774345V78.9841H150.353V0.774345H146.353Z" fill="url(#paint0_linear_497_2968)"/>
<defs>
<linearGradient id="paint0_linear_497_2968" x1="75.1765" y1="0" x2="75.1765" y2="79.7584" gradientUnits="userSpaceOnUse">
<stop/>
<stop offset="1" stop-color="#630000"/>
</linearGradient>
</defs>
</svg>
