<svg width="257" height="30" viewBox="0 0 257 30" fill="none" xmlns="http://www.w3.org/2000/svg">
<path fill-rule="evenodd" clip-rule="evenodd" d="M21.0407 28.4351V10.3851C21.0407 7.18508 21.8208 4.69909 23.3812 2.92716C24.968 1.15522 27.216 0.269257 30.1251 0.269257C33.0607 0.269257 35.3087 0.983319 36.869 2.41144C38.4559 3.83957 39.2493 5.84952 39.2493 8.44131C39.2493 10.1075 38.8526 11.4695 38.0592 12.5273C37.2657 13.5852 35.917 14.4183 34.0128 15.0265V15.1852C35.9963 15.9522 37.3186 17.0497 37.9798 18.4778C38.6674 19.8795 39.0112 22.2068 39.0112 25.4598V28.4351H35.2822V23.3573C35.2822 21.3473 34.7136 19.787 33.5764 18.6762C32.4392 17.539 30.7995 16.9704 28.6573 16.9704H26.5151V13.4794H28.7763C31.3152 13.4794 33.0739 12.9637 34.0525 11.9323C35.031 10.9009 35.5203 9.67108 35.5203 8.24295C35.5203 6.89417 35.031 5.80985 34.0525 4.99C33.1004 4.17015 31.8309 3.76023 30.2441 3.76023C28.4193 3.76023 27.0441 4.27594 26.1184 5.30736C25.2193 6.33879 24.7697 8.03138 24.7697 10.3851V28.4351H21.0407ZM0 14.5505C0.0264468 10.1339 1.243 6.72227 3.64965 4.31561C6.08275 1.88251 9.42827 0.665958 13.6862 0.665958H16.2648V4.15693H13.2102C10.2746 4.15693 8.01337 5.13546 6.42656 7.09252C4.8662 9.02313 4.05958 11.5091 4.00668 14.5505C4.05958 17.5919 4.8662 20.0911 6.42656 22.0482C8.01337 23.9788 10.2746 24.9441 13.2102 24.9441H16.2648V28.4351H13.6862C9.42827 28.4351 6.08275 27.2317 3.64965 24.8251C1.243 22.392 0.0264468 18.9671 0 14.5505ZM43.82 28.4351H59.6087V24.9441H47.549V15.8199H56.7128V12.329H47.549V7.80658C47.549 5.37348 49.0036 4.15693 51.9127 4.15693H59.6087V0.665958H52.4284C50.8945 0.665958 49.5986 0.784968 48.5407 1.02299C47.4829 1.26101 46.5308 1.77672 45.6845 2.57013C44.4415 3.76023 43.82 5.33381 43.82 7.29087V28.4351ZM67.2973 28.4351H63.7666V10.9802C63.7666 8.12394 64.679 5.69084 66.5039 3.68089C68.3551 1.67093 70.7354 0.665958 73.6445 0.665958H82.729V28.4351H79V4.15693H73.6445C71.7139 4.15693 70.1667 4.72553 69.0031 5.86275C67.8659 6.99996 67.2973 8.81156 67.2973 11.2976V14.6695C68.7783 13.1092 70.894 12.329 73.6445 12.329H77.2545V15.8199H73.6445C72.1106 15.8199 70.8544 16.0051 69.8758 16.3753C68.9238 16.7456 68.0642 17.3803 67.2973 18.2795V28.4351ZM86.5134 0.665958V4.15693H93.3764V28.4351H97.1053V4.15693H103.968V0.665958H86.5134ZM111.475 28.4351H107.746V0.665958H111.475V28.4351ZM119.125 0.665945H115.158L126.34 29.4268L136.977 0.665945H133.01L126.067 18.5175L119.125 0.665945ZM155.876 28.435H140.087V24.9441H152.147V15.8199H142.983V12.329H152.147V7.80657C152.147 5.37347 150.692 4.15692 147.783 4.15692H140.087V0.665947H147.267C148.801 0.665947 150.097 0.784958 151.155 1.02298C152.213 1.261 153.165 1.77671 154.011 2.57012C155.254 3.76022 155.876 5.3338 155.876 7.29086V28.435ZM256.979 0.665947H162.762V29.4268H192.515H194.499H256.979V0.665947ZM197.189 23.854C198.199 24.2504 199.298 24.468 200.449 24.468C205.378 24.468 209.375 20.4718 209.375 15.5422C209.375 12.2457 207.588 9.36646 204.929 7.82069L197.189 23.854ZM203.302 7.08225C202.406 6.7802 201.447 6.61647 200.449 6.61647C195.519 6.61647 191.523 10.6127 191.523 15.5422C191.523 18.684 193.146 21.4466 195.6 23.0372L203.302 7.08225ZM177.221 24.468H173.671V6.61647H186.094C186.094 6.61647 188.13 8.18385 188.756 9.59173C189.571 11.4242 189.82 12.9804 188.756 14.6922C188.064 15.8063 186.094 16.8174 186.094 16.8174L190.531 24.468H186.982L182.101 16.8174V14.6922H185.207C187.159 13.4171 187.159 11.2919 185.207 10.0168H177.221V24.468ZM219.292 24.468C224.222 24.468 228.218 20.4718 228.218 15.5422C228.218 10.6127 224.222 6.61647 219.292 6.61647C214.363 6.61647 210.367 10.6127 210.367 15.5422C210.367 20.4718 214.363 24.468 219.292 24.468ZM232.61 24.468H229.209V6.61647H233.46L237.71 17.3274H238.56L242.811 6.61647H247.061V24.468H243.661V12.8645H242.811L238.56 24.468H237.71L233.46 12.8645H232.61V24.468Z" fill="black"/>
</svg>
