<svg width="1525" height="3651" viewBox="0 0 1525 3651" fill="none" xmlns="http://www.w3.org/2000/svg">
<path d="M2 0V415.837H29.771V383.314M29.771 0V383.314M29.771 383.314H51.9878V0V457.653H66.799M66.799 457.653L68.6504 0M66.799 457.653V499.469H87.1644V0M153.815 0V555.628L214.911 634.21M214.911 634.21V0M214.911 634.21V719.004M214.911 850.259V719.004M246.385 0V678.349L214.911 719.004M303.778 0V453.007H329.698V0M392.646 0V594.717L470.404 692.288M470.404 692.288V938.538M470.404 692.288V0M470.404 985V938.538M470.404 938.538L496.324 906.014V0M572.231 0V176.557L601.854 211.403M601.854 211.403V0M601.854 211.403V318.267L624.071 346.144M624.071 346.144V414.676L661.099 369.375M624.071 346.144V0M661.099 369.375V676.026L694.424 717.842M661.099 369.375V0M694.424 717.842V741.073M694.424 717.842V313.62M694.424 0V313.62M694.424 313.62L724.046 350.79V0M753.669 0V882.783H775.885V645.825M775.885 0V645.825M775.885 645.825H790.697V473.915M790.697 0V473.915M790.697 473.915H805.508V446.038M805.508 0V446.038M805.508 446.038L870.307 362.406V0M909.186 436.745V415.837M909.186 0V415.837M909.186 415.837L955.471 357.759M955.471 357.759V367.052L1022.12 450.684M955.471 357.759V0M1022.12 450.684V0M1022.12 450.684V666.733M1022.12 691.126V666.733M1022.12 666.733L1077.66 594.717V0M1162.83 0V466.946L1209.11 525.024M1209.11 525.024V782.889L1249.84 831.675M1209.11 525.024V0M1249.84 831.675V964.092M1249.84 831.675V796.828M1249.84 0V204.434M1249.84 204.434L1283.17 162.618V0M1249.84 204.434V796.828M1249.84 796.828L1347.97 671.38V434.422M1347.97 0V434.422M1347.97 434.422L1409.06 511.085V0M1457.2 0V383.314H1483.12M1483.12 383.314V0M1483.12 383.314V420.484M1483.12 473.915V420.484M1483.12 420.484L1503.49 394.929M1522 0V371.698L1503.49 394.929M1503.49 0V394.929" stroke="url(#paint0_linear_1_47)" stroke-opacity="0.8" stroke-width="2"/>
<path opacity="0.4" d="M2 3587.5H575.129M1522 3587.5H1212.01M715.393 3165.65L858.5 3447.32M715.393 3165.65H1001.25M715.393 3165.65L644.551 3026.45L787.478 2746.63L929.508 3025.03M961.477 3650L858.5 3447.32M117.585 3650L185.75 3517.9M203.341 3483.81L185.941 3449.57M203.341 3483.81L185.75 3517.9M203.341 3483.81L287.854 3650M203.341 3483.81L219.621 3445.46M2 3527.85L113.856 3307.68L185.941 3449.57M84.0278 3650L185.941 3449.57M2 3517.9H185.75M224.469 3650L397.225 3306.26M397.225 3306.26H148.656L219.621 3445.46M397.225 3306.26H432.025M323.897 3650L219.621 3445.46M219.621 3445.46H504.11M504.11 3445.46L432.025 3306.26M504.11 3445.46L402.196 3650M504.11 3445.46L575.129 3587.5M432.025 3306.26L259.269 3650M606.023 3649.29L575.129 3587.5M540.152 3445.46L436.996 3650M540.152 3445.46L610.994 3587.5M540.152 3445.46H822.278M575.129 3587.5L542.638 3650M575.129 3587.5H610.994M610.994 3587.5L578.68 3650M610.994 3587.5L642.065 3650M610.994 3587.5H893.12M822.278 3445.46L721.607 3650M822.278 3445.46L955.9 3182.69M1522 3182.69H1380.94M756.407 3650L858.5 3447.32M973.905 3218.2L955.9 3182.69M973.905 3218.2L859.432 3445.46M973.905 3218.2L1097.34 3463.22M955.9 3182.69L1098.19 2902.87H955.36M955.9 3182.69H1239.25M955.9 3182.69H813.578M1115.59 3499.44H973.356M1115.59 3499.44H1522L1495.84 3447.59M1115.59 3499.44L1142.93 3445.46M1115.59 3499.44L1097.34 3463.22M690.573 3499.44L548.852 3218.2H832.221M690.573 3499.44L832.221 3218.2M690.573 3499.44H973.356M832.221 3218.2L955.262 3462.51M832.221 3218.2L813.578 3182.69M832.221 3218.2L929.508 3025.03M955.262 3462.51L1238.63 2902.87L1380.94 3182.69M955.262 3462.51L893.12 3587.5M862.049 3650L893.12 3587.5M1380.94 3182.69L1238.63 3461.09M1380.94 3182.69H1239.25M1238.63 3461.09L1114.66 3216.78M1238.63 3461.09L1333.71 3650M936.62 2865.94H796.178M936.62 2865.94L955.36 2902.87M936.62 2865.94L796.178 3144.34L654.494 2865.94M936.62 2586.12L796.178 2865.94M936.62 2586.12H794.935M936.62 2586.12L919.22 2552.03M796.178 2865.94L777.536 2831.85M796.178 2865.94H654.494M898.092 3650L973.356 3499.44M1114.66 3216.78L973.356 3499.44M1114.66 3216.78L955.36 2902.87M858.5 3447.32L859.432 3445.46M859.432 3445.46H1142.93M1142.93 3445.46L1256.03 3219.62L1416.13 3534.63M1474.77 3650L1416.13 3534.63M893.12 3587.5L925.434 3650M893.12 3587.5H1212.01M973.356 3499.44L990.927 3533.53M1050.96 3650L990.927 3533.53M990.927 3533.53L930.406 3650M1522 3165.65H1353.59L1424.54 3306.26M1097.34 3463.22L1239.25 3182.69M1386.6 3305.55L1319.42 3165.65H1035.61M1386.6 3305.55H1355.46M1386.6 3305.55L1388.31 3309.11M1106.89 3305.55L1248.57 3026.45L1177.73 2886.54M1106.89 3305.55L1035.61 3165.65M1106.89 3305.55H1355.46M963.962 3025.03L1106.89 2746.63L1177.73 2886.54M963.962 3025.03L1035.61 3165.65M963.962 3025.03L822.278 2746.63M1177.73 2886.54L1035.61 3165.65M1035.61 3165.65H1001.25M1180.22 3650L1212.01 3587.5M1355.46 3305.55L1212.01 3587.5M1388.31 3309.11L1215.02 3650M1388.31 3309.11L1459.24 3445.46M1212.01 3587.5L1244.85 3650M1281.51 3650L1176.49 3445.46H1459.24M1459.24 3445.46L1522 3568.33M1424.54 3306.26H1522M1424.54 3306.26L1495.84 3447.59M1321.9 3650L1522 3255.13M1357.94 3650L1416.13 3534.63M1522 3324.73L1416.13 3534.63M1416.13 3534.63H1522L1462.34 3650M1499.63 3650L1522 3606.68M1395.85 3650L1495.84 3447.59M1495.84 3447.59H1522M1001.25 3165.65L929.508 3025.03M813.578 3182.69H530.209L388.525 2902.87H955.36M813.578 3182.69L955.36 2902.87M822.278 2746.63L777.536 2831.85M822.278 2746.63L919.22 2552.03M777.536 2831.85L476.581 2236.71M654.494 2865.94L794.935 2586.12M654.494 2865.94H512.809M794.935 2586.12H511.567L369.882 2865.94H512.809M919.22 2552.03L778.778 2270.8M778.778 2270.8L494.788 2830.41M778.778 2270.8H635.65M2 2270.8H69.7351M512.809 2865.94L494.788 2830.41M51.7138 1956.89H2M51.7138 1956.89H125.903M51.7138 1956.89L334.855 2515.1M405.925 2236.71L264.24 1956.89H191.534M405.925 2236.71H336.325M405.925 2236.71H476.581M2 2236.71H52.3352M618.451 2236.71L476.767 2513.68L353.611 2270.8M618.451 2236.71L635.65 2270.8M618.451 2236.71H476.581M336.325 2236.71L353.611 2270.8M336.325 2236.71H266.726M270.455 1491L528.507 2000.92M990.062 2356.02L848.378 2633L688.275 2316.63M990.062 2356.02L848.378 2074.78M990.062 2356.02H1132.99L988.819 2074.78M990.062 2356.02H847.04M848.378 2074.78H988.819M848.378 2074.78L565.009 2631.58L507.838 2520.79M848.378 2074.78H705.442M988.819 2074.78L847.04 2356.02M138.713 2356.02L335.083 1956.89L476.581 2236.71M138.713 2356.02L2 2081.88M138.713 2356.02H281.33M2 2074.78H423.226M507.838 2520.79L494.167 2552.03L637.094 2829.01L777.536 2552.03M507.838 2520.79L423.946 2356.02M507.838 2520.79L635.65 2270.8M777.536 2552.03H353.587M777.536 2552.03L635.65 2270.8M369.882 2110.29L263.17 2319.8M369.882 2110.29L512.91 2391.53M369.882 2110.29L628.485 1598.95M683.079 1491L628.485 1598.95M369.882 2391.53L512.809 2114.55M369.882 2391.53L653.251 2390.59M369.882 2391.53L512.809 2672.77L653.251 2390.59M512.809 2114.55L653.251 2390.59M512.809 2114.55L689.294 1759.45M653.251 2390.59L796.178 2390.11L654.494 2669.93L512.91 2391.53M423.946 2356.02L565.885 2074.78M423.946 2356.02H281.33M423.946 2356.02H565.679M565.885 2074.78L688.275 2316.63M565.885 2074.78H423.226M565.885 2074.78H705.442M565.885 2074.78L528.507 2000.92M353.587 2552.03L494.788 2830.41M353.587 2552.03H211.351M353.587 2552.03L494.63 2270.8M353.587 2552.03L334.855 2515.1M2 2418.52L69.1137 2552.03H211.351M127.527 1491L227.576 1688.52M847.04 2356.02L706.693 2634.42L565.679 2356.02M847.04 2356.02H565.679M847.04 2356.02L705.442 2074.78M411.518 1491L687.563 2039.27M688.275 2316.63L830.978 2039.27L689.294 1759.45M689.294 1759.45H405.925M689.294 1759.45H830.356M122.556 1759.45L245.598 2000.92L502.867 1491L557.502 1600.37M122.556 1759.45H263.505M122.556 1759.45L104.535 1723.94M411.518 1881.61H697.993L557.502 1600.37M411.518 1881.61L557.502 1600.37M411.518 1881.61L341.272 1740.99M557.502 1600.37H308.983M557.502 1600.37L591.69 1600.24M308.983 1600.37L363.668 1491M308.983 1600.37L125.903 1956.89M103.292 2000.92L2 1802.07M103.292 2000.92L125.903 1956.89M103.292 2000.92L122.52 2039.27M281.33 2356.02L423.226 2074.78M281.33 2356.02L263.17 2319.8M423.226 2074.78L565.679 2356.02M423.226 2074.78L387.253 2003.76M353.611 2270.8L211.351 2552.03M353.611 2270.8H69.7351M353.611 2270.8H494.63M211.351 2552.03L69.7351 2270.8M52.3352 2236.71L2 2135.86M52.3352 2236.71L191.534 1956.89M52.3352 2236.71H266.726M191.534 1956.89H125.903M125.903 1956.89L266.726 2236.71M263.17 2319.8L122.52 2039.27M407.789 2321.93L264.24 2039.27L405.925 1759.45M405.925 1759.45H263.505M122.52 2039.27H687.563M122.52 2039.27L263.505 1759.45M635.65 2270.8H494.63M334.855 2515.1L476.581 2236.71M512.91 2391.53L687.563 2039.27M687.563 2039.27L705.442 2074.78M687.563 2039.27H971.419M687.563 2039.27L830.356 1759.45M565.679 2356.02L705.442 2074.78M705.442 2074.78L848.378 1794.96M848.378 1794.96L830.356 1759.45M848.378 1794.96L971.419 2039.27M830.356 1759.45H1113.1M971.419 2039.27H1113.1L1253.55 1759.45H1113.1M971.419 2039.27L1051.97 1880.19M1113.1 1759.45L1051.97 1880.19M1051.97 1880.19H1334.95L1264.72 1740.99M1051.97 1880.19L981.376 1740.99M1138.58 1491L1264.72 1740.99M854.592 1491L909.339 1598.95M734.036 1881.61H1016.78L873.856 1598.95M734.036 1881.61L591.69 1600.24M734.036 1881.61L813.578 1723.94M536.424 1491L591.69 1600.24M873.856 1598.95H909.339M873.856 1598.95H628.485M909.339 1598.95L981.376 1740.99M909.339 1598.95L967.691 1491M694.265 1491L813.578 1723.94M813.578 1723.94L929.163 1491M813.578 1723.94H953.398L1069.6 1491M813.578 1723.94H669.849M2 1723.94H104.535M2 1740.99H24.5242M1264.72 1740.99H981.376M528.507 2000.92L669.849 1723.94M788.721 1491L669.849 1723.94M669.849 1723.94L554.445 1491M669.849 1723.94H104.535M647.037 1491L591.69 1600.24M387.253 2003.76L591.69 1600.24M387.253 2003.76L263.505 1759.45M469.931 1491L341.272 1740.99M341.272 1740.99H24.5242M341.272 1740.99L271.002 1600.32M341.272 1740.99H981.376M96.4563 1881.61H379.204L236.898 1600.32M96.4563 1881.61L24.5242 1740.99M96.4563 1881.61L236.898 1600.32M2 1696.96L24.5242 1740.99M24.5242 1740.99L150.52 1491M236.898 1600.32L181.591 1491L86.5135 1685.59L2 1519.41M236.898 1600.32H2M236.898 1600.32H271.002M271.002 1600.32L216.391 1491L104.535 1723.94M271.002 1600.32L227.576 1688.52M271.002 1600.32L327.625 1491M227.576 1688.52L263.505 1759.45M981.376 1740.99L1106.89 1491M1371.62 1880.19H1522M1371.62 1880.19L1514.54 1601.79M1371.62 1880.19L1300.94 1740.99M1174 1491L1228.82 1598.95M1514.54 1601.79L1457.99 1491M1514.54 1601.79L1522 1620.26M1300.94 1740.99H1522M1300.94 1740.99L1427.54 1491M1300.94 1740.99L1228.82 1598.95M1228.82 1598.95L1284.62 1491M1228.82 1598.95H947.805L1002.49 1491M2 1644.4L80.2993 1491M2 1576.22L45.4996 1491M2 1508.04L10.6999 1491M1522 1547.82L1513.42 1530.77M1493.41 1491L1513.42 1530.77M1513.42 1530.77H1522M1513.42 1530.77L1522 1512.31" stroke="url(#paint1_linear_1_47)" stroke-width="3"/>
<defs>
<linearGradient id="paint0_linear_1_47" x1="762" y1="985" x2="762" y2="0" gradientUnits="userSpaceOnUse">
<stop offset="0.283474" stop-color="#6AFFF6"/>
<stop offset="1" stop-color="#646363"/>
</linearGradient>
<linearGradient id="paint1_linear_1_47" x1="762.502" y1="1491" x2="762.502" y2="3650" gradientUnits="userSpaceOnUse">
<stop offset="0.276127" stop-color="#09B4AA" stop-opacity="0.6"/>
<stop offset="1" stop-color="#656565" stop-opacity="0.6"/>
</linearGradient>
</defs>
</svg>
