<svg width="264" height="30" viewBox="0 0 264 30" fill="none" xmlns="http://www.w3.org/2000/svg">
<path fill-rule="evenodd" clip-rule="evenodd" d="M21.614 28.4259V10.2093C21.614 6.97969 22.4155 4.47074 24.0183 2.68244C25.6483 0.894148 27.9576 0 30.9459 0C33.9615 0 36.2707 0.720657 37.8736 2.16197C39.5036 3.60328 40.3186 5.6318 40.3186 8.24751C40.3186 9.92904 39.9111 11.3036 39.0961 12.3713C38.2811 13.4389 36.8955 14.2797 34.9395 14.8936V15.0537C36.977 15.8278 38.3354 16.9354 39.0146 18.3767C39.7209 19.7914 40.0741 22.1402 40.0741 25.4232V28.4259H36.2435V23.3012C36.2435 21.2727 35.6594 19.6979 34.4912 18.5769C33.3231 17.4292 31.6387 16.8554 29.4382 16.8554H27.2376V13.3321H29.5604C32.1685 13.3321 33.9751 12.8117 34.9803 11.7707C35.9854 10.7298 36.488 9.48864 36.488 8.04733C36.488 6.68609 35.9854 5.59176 34.9803 4.76434C34.0022 3.93692 32.6982 3.52321 31.0682 3.52321C29.1937 3.52321 27.781 4.04368 26.8301 5.08463C25.9064 6.12558 25.4446 7.8338 25.4446 10.2093V28.4259H21.614ZM0.000244141 14.4131C0.0274113 9.95573 1.2771 6.5126 3.74931 4.08372C6.24868 1.62815 9.68533 0.400364 14.0592 0.400364H16.708V3.92357H13.5702C10.5547 3.92357 8.23188 4.91114 6.60186 6.88627C4.999 8.83471 4.1704 11.3437 4.11606 14.4131C4.1704 17.4826 4.999 20.0049 6.60186 21.98C8.23188 23.9285 10.5547 24.9027 13.5702 24.9027H16.708V28.4259H14.0592C9.68533 28.4259 6.24868 27.2115 3.74931 24.7826C1.2771 22.327 0.0274113 18.8705 0.000244141 14.4131ZM45.0138 28.4259H61.2326V24.9027H48.8444V15.6943H58.2578V12.1711H48.8444V7.60693C48.8444 5.15136 50.3386 3.92357 53.327 3.92357H61.2326V0.400364H53.8567C52.281 0.400364 50.9499 0.520474 49.8632 0.760693C48.7765 1.00091 47.7985 1.52139 46.9291 2.32212C45.6523 3.52321 45.0138 5.11132 45.0138 7.08645V28.4259ZM69.1306 28.4259H65.5038V10.8098C65.5038 7.92722 66.4411 5.47165 68.3156 3.44314C70.2173 1.41462 72.6623 0.400364 75.6507 0.400364H84.9826V28.4259H81.1521V3.92357H75.6507C73.6675 3.92357 72.0782 4.49743 70.8829 5.64514C69.7147 6.79285 69.1306 8.62119 69.1306 11.1301V14.5332C70.652 12.9585 72.8253 12.1711 75.6507 12.1711H79.359V15.6943H75.6507C74.075 15.6943 72.7846 15.8811 71.7794 16.2548C70.8014 16.6285 69.9184 17.2691 69.1306 18.1766V28.4259ZM88.8702 0.400364V3.92357H95.9201V28.4259H99.7506V3.92357H106.8V0.400364H88.8702ZM114.512 28.4259H110.681V0.400364H114.512V28.4259ZM122.37 0.400354H118.295L129.782 29.4268L140.708 0.400354H136.633L129.502 18.4168L122.37 0.400354ZM160.122 28.4259H143.903V24.9027H156.291V15.6943H146.878V12.1711H156.291V7.60692C156.291 5.15135 154.797 3.92356 151.809 3.92356H143.903V0.400354H151.279C152.854 0.400354 154.186 0.520464 155.272 0.760683C156.359 1.0009 157.337 1.52138 158.206 2.32211C159.483 3.5232 160.122 5.11131 160.122 7.08644V28.4259ZM263.979 0.400354H167.196V29.4268H197.759H199.796H263.979V0.400354ZM202.56 23.8024C203.598 24.2025 204.727 24.4222 205.909 24.4222C210.973 24.4222 215.078 20.3891 215.078 15.414C215.078 12.0868 213.242 9.18096 210.511 7.62096L202.56 23.8024ZM208.84 6.87578C207.92 6.57102 206.934 6.40583 205.909 6.40583C200.845 6.40583 196.74 10.4389 196.74 15.414C196.74 18.5846 198.408 21.3726 200.928 22.978L208.84 6.87578ZM182.048 24.4222H178.402V6.40583H191.164C191.164 6.40583 193.255 7.98768 193.898 9.40856C194.735 11.258 194.991 12.8286 193.898 14.5561C193.187 15.6805 191.164 16.7009 191.164 16.7009L195.721 24.4222H192.075L187.062 16.7009V14.5561H190.252C192.258 13.2692 192.258 11.1244 190.252 9.83752H182.048V24.4222ZM225.266 24.4222C230.33 24.4222 234.435 20.3891 234.435 15.414C234.435 10.4389 230.33 6.40583 225.266 6.40583C220.202 6.40583 216.097 10.4389 216.097 15.414C216.097 20.3891 220.202 24.4222 225.266 24.4222ZM238.946 24.4222H235.453V6.40583H239.82L244.186 17.2157H245.059L249.425 6.40583H253.791V24.4222H250.298V12.7116H249.425L245.059 24.4222H244.186L239.82 12.7116H238.946V24.4222Z" fill="black"/>
</svg>
