<svg width="314" height="36" viewBox="0 0 314 36" fill="none" xmlns="http://www.w3.org/2000/svg">
<path fill-rule="evenodd" clip-rule="evenodd" d="M25.6869 34.3854V12.3497C25.6869 8.44299 26.6394 5.40803 28.5443 3.24482C30.4815 1.08161 33.2259 0 36.7774 0C40.3612 0 43.1056 0.871743 45.0105 2.61523C46.9477 4.35871 47.9163 6.81251 47.9163 9.97661C47.9163 12.0107 47.432 13.6734 46.4634 14.9649C45.4948 16.2564 43.8482 17.2734 41.5236 18.016V18.2097C43.9451 19.1461 45.5594 20.486 46.3666 22.2294C47.206 23.9406 47.6258 26.7819 47.6258 30.7531V34.3854H43.0733V28.1863C43.0733 25.7326 42.3792 23.8276 40.9908 22.4716C39.6025 21.0833 37.6007 20.3891 34.9855 20.3891H32.3703V16.1272H35.1308C38.2303 16.1272 40.3774 15.4976 41.572 14.2385C42.7666 12.9793 43.3639 11.4779 43.3639 9.73446C43.3639 8.08784 42.7666 6.76408 41.572 5.76319C40.4097 4.7623 38.8599 4.26185 36.9227 4.26185C34.6949 4.26185 33.016 4.89145 31.886 6.15063C30.7882 7.40981 30.2393 9.47617 30.2393 12.3497V34.3854H25.6869ZM0 17.4349C0.0322868 12.043 1.51748 7.87797 4.45557 4.93988C7.42596 1.96949 11.5102 0.484301 16.7084 0.484301H19.8564V4.74615H16.1272C12.5434 4.74615 9.78289 5.94076 7.84569 8.32998C5.94077 10.6869 4.95602 13.7219 4.89145 17.4349C4.95602 21.1478 5.94077 24.1989 7.84569 26.5882C9.78289 28.9451 12.5434 30.1236 16.1272 30.1236H19.8564V34.3854H16.7084C11.5102 34.3854 7.42596 32.9164 4.45557 29.9783C1.51748 27.0079 0.0322868 22.8267 0 17.4349ZM53.4964 34.3854H72.7716V30.1236H58.0488V18.9846H69.2362V14.7228H58.0488V9.20173C58.0488 6.23135 59.8246 4.74615 63.3762 4.74615H72.7716V0.484301H64.0057C62.1331 0.484301 60.5511 0.629592 59.2596 0.920173C57.9681 1.21075 56.8058 1.84035 55.7726 2.80895C54.2551 4.26185 53.4964 6.18291 53.4964 8.57214V34.3854ZM82.158 34.3854H77.8477V13.0761C77.8477 9.58917 78.9616 6.61879 81.1894 4.16499C83.4494 1.7112 86.3552 0.484301 89.9068 0.484301H100.997V34.3854H96.4449V4.74615H89.9068C87.5499 4.74615 85.6611 5.44032 84.2405 6.82865C82.8521 8.21698 82.158 10.4286 82.158 13.4636V17.5801C83.966 15.6752 86.549 14.7228 89.9068 14.7228H94.3139V18.9846H89.9068C88.0342 18.9846 86.5005 19.2106 85.3059 19.6626C84.1436 20.1147 83.0943 20.8895 82.158 21.9873V34.3854ZM105.617 0.484301V4.74615H113.996V34.3854H118.548V4.74615H126.927V0.484301H105.617ZM136.091 34.3854H131.539V0.484301H136.091V34.3854ZM145.43 0.484263H140.587L154.239 35.5961L167.224 0.484263H162.381L153.906 22.2778L145.43 0.484263ZM190.295 34.3854H171.02V30.1236H185.743V18.9846H174.556V14.7228H185.743V9.20175C185.743 6.23136 183.967 4.74617 180.416 4.74617H171.02V0.484317H179.786C181.659 0.484317 183.241 0.629607 184.532 0.920189C185.824 1.21077 186.986 1.84036 188.019 2.80897C189.537 4.26187 190.295 6.18293 190.295 8.57215V34.3854ZM251.976 0.484918H198.705V35.5968H313.726V0.484918H254.397L254.397 0.484162H251.976L251.976 0.484918ZM248.195 8.31677C247.101 7.94835 245.93 7.74866 244.713 7.74866C238.695 7.74866 233.816 12.6273 233.816 18.6454C233.816 22.4803 235.797 25.8526 238.792 27.7946L248.195 8.31677ZM240.732 28.792C241.965 29.2763 243.308 29.5422 244.713 29.5422C250.731 29.5422 255.61 24.6636 255.61 18.6454C255.61 14.6203 253.427 11.1049 250.181 9.21797L240.732 28.792ZM216.355 29.5422H212.021V7.74862H227.188C227.188 7.74862 229.673 9.66211 230.438 11.3809C231.432 13.618 231.736 15.5179 230.438 17.6076C229.593 18.9677 227.188 20.2021 227.188 20.2021L232.604 29.5422H228.271L222.313 20.2021V17.6076H226.104C228.488 16.0509 228.488 13.4565 226.104 11.8998H216.355V29.5422ZM267.717 29.5422C273.735 29.5422 278.614 24.6636 278.614 18.6454C278.614 12.6273 273.735 7.74866 267.717 7.74866C261.699 7.74866 256.82 12.6273 256.82 18.6454C256.82 24.6636 261.699 29.5422 267.717 29.5422ZM283.975 29.5422H279.824V7.74866H285.013L290.202 20.8248H291.24L296.429 7.74866H301.618V29.5422H297.467V15.3764H296.429L291.24 29.5422H290.202L285.013 15.3764H283.975V29.5422Z" fill="white"/>
</svg>
