<svg width="131" height="40" viewBox="0 0 131 40" fill="none" xmlns="http://www.w3.org/2000/svg">
<path fill-rule="evenodd" clip-rule="evenodd" d="M0.254883 0.208839V4.06025H16.4364V7.63655H0.254883V15.0643L3.3868 18.3655H18.0024L21.1343 15.0643V10.6627L19.0464 7.63655L21.1343 5.16065V3.51004L18.0024 0.208839H0.254883ZM4.69181 10.6627V14.5141H16.4365V10.6627H4.69181ZM24.7884 18.3655H23.7444V3.61321L26.3543 0.208839H40.9699L43.5799 3.61321V18.3655H42.5359L39.404 15.5285V10.9893H31.5742V7.01757H39.404V3.61321H27.9203V15.5285L24.7884 18.3655ZM46.1903 0.208839L48.8002 3.61321H53.4981V14.3937L56.63 18.3655H58.196V3.61321H62.3719L64.9818 0.208839H46.1903ZM70.201 3.61321L67.5911 0.208839H86.3826L83.7727 3.61321H79.5968V18.3655H78.0308L74.8989 14.3937V3.61321H70.201ZM88.9929 0.208839H90.0368L93.1687 3.61321V14.9611H104.652L107.784 18.3655H92.1248L88.9929 14.9611V0.208839ZM113.527 0.208839L110.395 3.61321H126.576L129.708 0.208839H113.527ZM110.395 7.01757H123.444L120.312 10.4219H114.57V14.3937H127.098L130.23 18.3655H113.005L110.395 14.9611V7.01757ZM19.0476 24.5208L16.4377 21.1165H34.1852L37.3171 24.5208V29.06L33.6632 31.897H31.5753L38.3611 39.2731H33.6632L26.3554 31.897H21.1355V39.2731H19.0476L16.4377 35.8687V31.897L20.0916 28.4926H32.6192V24.5208H19.0476ZM40.9708 24.4177L44.1027 21.1165H59.2403L62.3722 24.4177V35.9719L59.2403 39.2731H44.1027L40.9708 35.9719V24.4177ZM45.1464 24.4177V35.4217H57.674V24.4177H45.1464ZM68.1144 21.1165L64.9824 24.4177V35.9719L68.1144 39.2731H83.2519L86.3838 35.9719V24.4177L83.2519 21.1165H68.1144ZM69.158 35.4217V24.4177H81.6856V35.4217H69.158ZM91.6031 39.2731L88.9932 36.4361V21.1165H93.691L100.738 34.8715H102.043L109.351 21.1165H114.048V36.4361L111.439 39.2731H109.873V29.06H109.351L103.087 39.2731H99.4329L93.691 28.4926H93.169V39.2731H91.6031Z" fill="white"/>
</svg>
