<svg width="50" height="50" viewBox="0 0 50 50" fill="none" xmlns="http://www.w3.org/2000/svg">
<circle cx="25" cy="25" r="23.5" stroke="white" stroke-width="3"/>
<path d="M28.8112 36.3384C28.9865 36.3383 29.1578 36.2838 29.3036 36.1815C29.4493 36.0793 29.5629 35.9341 29.6299 35.7641C29.6969 35.5942 29.7144 35.4072 29.6802 35.2268C29.6459 35.0465 29.5615 34.8808 29.4375 34.7508L19.1397 23.9463L29.4375 13.1418C29.5989 12.9664 29.6883 12.7315 29.6862 12.4877C29.6842 12.2439 29.591 12.0107 29.4267 11.8383C29.2624 11.6659 29.0401 11.5681 28.8077 11.566C28.5753 11.5638 28.3515 11.6576 28.1843 11.8269L17.2596 23.2892C17.0935 23.4635 17.0001 23.7 17.0001 23.9466C17.0001 24.1932 17.0935 24.4296 17.2596 24.604L28.1843 36.0662C28.2666 36.1526 28.3644 36.221 28.4719 36.2677C28.5795 36.3144 28.6948 36.3384 28.8112 36.3384Z" fill="white"/>
</svg>
