<svg width="251" height="30" viewBox="0 0 251 30" fill="none" xmlns="http://www.w3.org/2000/svg">
<path fill-rule="evenodd" clip-rule="evenodd" d="M20.6851 28.4259V10.2093C20.6851 6.97969 21.4454 4.47074 22.9661 2.68245C24.5125 0.894152 26.7033 3.8147e-06 29.5384 3.8147e-06C32.3993 3.8147e-06 34.5901 0.72066 36.1108 2.16197C37.6572 3.60329 38.4304 5.6318 38.4304 8.24752C38.4304 9.92905 38.0438 11.3036 37.2706 12.3713C36.4974 13.4389 35.1829 14.2797 33.3272 14.8936V15.0537C35.2602 15.8278 36.5489 16.9354 37.1933 18.3767C37.8634 19.7914 38.1985 22.1402 38.1985 25.4232V28.4259H34.5643V23.3012C34.5643 21.2727 34.0102 19.6979 32.9019 18.5769C31.7936 17.4292 30.1957 16.8554 28.108 16.8554H26.0203V13.3321H28.224C30.6982 13.3321 32.4122 12.8117 33.3659 11.7707C34.3195 10.7298 34.7963 9.48865 34.7963 8.04733C34.7963 6.68609 34.3195 5.59176 33.3659 4.76434C32.438 3.93692 31.2008 3.52321 29.6544 3.52321C27.876 3.52321 26.5358 4.04369 25.6337 5.08464C24.7574 6.12558 24.3192 7.83381 24.3192 10.2093V28.4259H20.6851ZM0.179688 14.4131C0.205461 9.95574 1.39106 6.5126 3.73649 4.08372C6.10769 1.62815 9.3681 0.400368 13.5177 0.400368H16.0307V3.92358H13.0538C10.1929 3.92358 7.98919 4.91114 6.44276 6.88628C4.92209 8.83472 4.13599 11.3437 4.08444 14.4131C4.13599 17.4826 4.92209 20.0049 6.44276 21.98C7.98919 23.9285 10.1929 24.9027 13.0538 24.9027H16.0307V28.4259H13.5177C9.3681 28.4259 6.10769 27.2115 3.73649 24.7826C1.39106 22.327 0.205461 18.8705 0.179688 14.4131ZM42.8849 28.4259H58.2719V24.9027H46.519V15.6943H55.4497V12.1711H46.519V7.60693C46.519 5.15136 47.9366 3.92358 50.7717 3.92358H58.2719V0.400368H51.2743C49.7794 0.400368 48.5165 0.520478 47.4855 0.760696C46.4546 1.00092 45.5267 1.52139 44.702 2.32212C43.4906 3.52321 42.8849 5.11133 42.8849 7.08646V28.4259ZM65.7649 28.4259H62.3241V10.8098C62.3241 7.92722 63.2133 5.47165 64.9917 3.44314C66.7959 1.41463 69.1155 0.400368 71.9507 0.400368H80.804V28.4259H77.1699V3.92358H71.9507C70.0692 3.92358 68.5614 4.49743 67.4273 5.64515C66.319 6.79286 65.7649 8.62119 65.7649 11.1301V14.5332C67.2082 12.9585 69.2702 12.1711 71.9507 12.1711H75.4688V15.6943H71.9507C70.4558 15.6943 69.2315 15.8811 68.2779 16.2548C67.35 16.6285 66.5123 17.2691 65.7649 18.1766V28.4259ZM84.4922 0.400368V3.92358H91.1805V28.4259H94.8147V3.92358H101.503V0.400368H84.4922ZM108.819 28.4259H105.185V0.400368H108.819V28.4259ZM116.274 0.400358H112.408L123.306 29.4268L133.672 0.400358H129.805L123.04 18.4168L116.274 0.400358ZM152.089 28.4259H136.702V24.9027H148.455V15.6943H139.524V12.1711H148.455V7.60692C148.455 5.15135 147.038 3.92357 144.202 3.92357H136.702V0.40036H143.7C145.195 0.40036 146.458 0.52047 147.489 0.760688C148.52 1.00091 149.447 1.52138 150.272 2.32211C151.484 3.5232 152.089 5.11132 152.089 7.08645V28.4259ZM250.62 0.40036H158.801V29.4268L187.796 29.4268H189.729L250.62 29.4268V0.40036ZM192.351 23.8022C193.335 24.2025 194.407 24.4222 195.529 24.4222C200.333 24.4222 204.227 20.3891 204.227 15.414C204.227 12.0867 202.485 9.18068 199.894 7.62074L192.351 23.8022ZM198.308 6.87564C197.436 6.57097 196.501 6.40583 195.529 6.40583C190.724 6.40583 186.83 10.4389 186.83 15.414C186.83 18.5845 188.411 21.3724 190.802 22.9778L198.308 6.87564ZM172.892 24.4222H169.432V6.40583H181.539C181.539 6.40583 183.524 7.98769 184.134 9.40857C184.928 11.258 185.17 12.8286 184.134 14.5561C183.459 15.6805 181.539 16.7009 181.539 16.7009L185.863 24.4222H182.404L177.648 16.7009V14.5561H180.675C182.577 13.2692 182.577 11.1244 180.675 9.83753H172.892V24.4222ZM213.892 24.4222C218.697 24.4222 222.591 20.3891 222.591 15.414C222.591 10.4389 218.697 6.40583 213.892 6.40583C209.088 6.40583 205.194 10.4389 205.194 15.414C205.194 20.3891 209.088 24.4222 213.892 24.4222ZM226.871 24.4222H223.557V6.40583H227.7L231.842 17.2157H232.67L236.813 6.40583H240.955V24.4222H237.641V12.7116H236.813L232.67 24.4222H231.842L227.7 12.7116H226.871V24.4222Z" fill="white"/>
</svg>
