<svg width="87" height="68" viewBox="0 0 87 68" fill="none" xmlns="http://www.w3.org/2000/svg">
<path d="M6.48477 0.879998C10.1248 0.879998 12.8948 1.8 14.7948 3.64C16.6948 5.48 17.6448 8.08 17.6448 11.44C17.6448 14.8 16.6948 17.4 14.7948 19.24C12.8948 21.08 10.1248 22 6.48477 22H0.934766V0.879998H6.48477ZM6.48477 21.46C9.96477 21.46 12.5948 20.58 14.3748 18.82C16.1548 17.06 17.0448 14.6 17.0448 11.44C17.0448 8.28 16.1548 5.82 14.3748 4.06C12.5948 2.3 9.96477 1.42 6.48477 1.42H1.53477V21.46H6.48477ZM34.5992 16.18H24.1592L21.9392 22H21.2492L29.0792 1.51H29.6792L37.4792 22H36.7892L34.5992 16.18ZM34.3892 15.64L29.3792 2.47L24.3692 15.64H34.3892ZM53.3668 22L47.7268 12.79H47.1568H42.4168V22H41.8168V0.879998H47.0968C49.4168 0.879998 51.1368 1.41 52.2568 2.47C53.3968 3.53 53.9668 4.98 53.9668 6.82C53.9668 8.52 53.4868 9.88 52.5268 10.9C51.5668 11.92 50.1968 12.53 48.4168 12.73L54.1168 22H53.3668ZM47.1568 12.22C49.2168 12.22 50.7568 11.73 51.7768 10.75C52.8168 9.77 53.3368 8.46 53.3368 6.82C53.3368 3.26 51.2568 1.48 47.0968 1.48H42.4168V12.22H47.1568ZM59.7315 11.44L70.4415 22H69.6315L59.3715 11.92V22H58.7715V0.879998H59.3715V11.02L69.6315 0.879998H70.4415L59.7315 11.44ZM12.4848 67L6.84477 57.79H6.27477H1.53477V67H0.934766V45.88H6.21477C8.53477 45.88 10.2548 46.41 11.3748 47.47C12.5148 48.53 13.0848 49.98 13.0848 51.82C13.0848 53.52 12.6048 54.88 11.6448 55.9C10.6848 56.92 9.31477 57.53 7.53477 57.73L13.2348 67H12.4848ZM6.27477 57.22C8.33477 57.22 9.87477 56.73 10.8948 55.75C11.9348 54.77 12.4548 53.46 12.4548 51.82C12.4548 48.26 10.3748 46.48 6.21477 46.48H1.53477V57.22H6.27477ZM27.2195 67.24C25.2795 67.24 23.5395 66.79 21.9995 65.89C20.4795 64.97 19.2895 63.69 18.4295 62.05C17.5695 60.41 17.1395 58.55 17.1395 56.47C17.1395 54.39 17.5695 52.53 18.4295 50.89C19.2895 49.25 20.4795 47.98 21.9995 47.08C23.5395 46.16 25.2795 45.7 27.2195 45.7C29.1595 45.7 30.8895 46.16 32.4095 47.08C33.9495 47.98 35.1495 49.25 36.0095 50.89C36.8695 52.53 37.2995 54.39 37.2995 56.47C37.2995 58.55 36.8695 60.41 36.0095 62.05C35.1495 63.69 33.9495 64.97 32.4095 65.89C30.8895 66.79 29.1595 67.24 27.2195 67.24ZM27.2195 66.7C28.9795 66.7 30.5795 66.29 32.0195 65.47C33.4595 64.63 34.5895 63.44 35.4095 61.9C36.2495 60.34 36.6695 58.53 36.6695 56.47C36.6695 54.41 36.2495 52.61 35.4095 51.07C34.5895 49.51 33.4595 48.32 32.0195 47.5C30.5795 46.66 28.9795 46.24 27.2195 46.24C25.4595 46.24 23.8595 46.66 22.4195 47.5C20.9795 48.32 19.8395 49.51 18.9995 51.07C18.1795 52.61 17.7695 54.41 17.7695 56.47C17.7695 58.53 18.1795 60.34 18.9995 61.9C19.8395 63.44 20.9795 64.63 22.4195 65.47C23.8595 66.29 25.4595 66.7 27.2195 66.7ZM51.8792 67.24C49.9392 67.24 48.1992 66.79 46.6592 65.89C45.1392 64.97 43.9492 63.69 43.0892 62.05C42.2292 60.41 41.7992 58.55 41.7992 56.47C41.7992 54.39 42.2292 52.53 43.0892 50.89C43.9492 49.25 45.1392 47.98 46.6592 47.08C48.1992 46.16 49.9392 45.7 51.8792 45.7C53.8192 45.7 55.5492 46.16 57.0692 47.08C58.6092 47.98 59.8092 49.25 60.6692 50.89C61.5292 52.53 61.9592 54.39 61.9592 56.47C61.9592 58.55 61.5292 60.41 60.6692 62.05C59.8092 63.69 58.6092 64.97 57.0692 65.89C55.5492 66.79 53.8192 67.24 51.8792 67.24ZM51.8792 66.7C53.6392 66.7 55.2392 66.29 56.6792 65.47C58.1192 64.63 59.2492 63.44 60.0692 61.9C60.9092 60.34 61.3292 58.53 61.3292 56.47C61.3292 54.41 60.9092 52.61 60.0692 51.07C59.2492 49.51 58.1192 48.32 56.6792 47.5C55.2392 46.66 53.6392 46.24 51.8792 46.24C50.1192 46.24 48.5192 46.66 47.0792 47.5C45.6392 48.32 44.4992 49.51 43.6592 51.07C42.8392 52.61 42.4292 54.41 42.4292 56.47C42.4292 58.53 42.8392 60.34 43.6592 61.9C44.4992 63.44 45.6392 64.63 47.0792 65.47C48.5192 66.29 50.1192 66.7 51.8792 66.7ZM86.019 46.48V67H85.419V47.95L76.929 67H76.329L67.809 47.95V67H67.209V46.48H67.809L76.629 66.22L85.419 46.48H86.019Z" fill="white"/>
</svg>
