<svg width="151" height="84" viewBox="0 0 151 84" fill="none" xmlns="http://www.w3.org/2000/svg">
<path fill-rule="evenodd" clip-rule="evenodd" d="M10.9421 19.5078H17.8823V32.513H24.8226C24.8226 32.513 26.6131 32.0151 27.136 31.7002C27.7207 31.348 28.2927 30.8873 28.2927 30.8873L7.08636 0H24.8226C24.8226 0 41.4021 2.03206 41.7877 19.5078C42.1733 36.9835 24.8226 39.0156 24.8226 39.0156H10.9421V19.5078ZM20.1952 6.50262L34.0757 26.0104C34.0757 26.0104 36.151 18.0472 34.0757 13.818C32.7061 11.0269 31.2917 9.63922 28.6777 8.12827C25.7255 6.42182 20.1952 6.50262 20.1952 6.50262ZM50.0977 39.0156H41.7882L59.9179 0H61.4287L78.803 39.0156H60.6733V32.6457H68.2274L60.6733 15.9247L50.0977 39.0156ZM88.8279 39.0156H81.8876V23.5719H91.9125L78.8031 0H96.5393C96.5393 0 105.793 0.812825 108.492 11.3795C111.191 21.9463 102.708 27.636 102.708 27.636L109.649 39.0156H101.166L95.7682 30.0745H88.8279V39.0156ZM98.8527 21.9463L90.3701 7.31543H95.7681C95.7681 7.31543 100.009 7.31543 101.937 13.0052C103.865 18.695 98.8527 21.9463 98.8527 21.9463ZM121.709 0H115.046V39.0156L126.151 24.1897L135.034 37.455H143.177L130.592 18.3373L143.177 0H135.034L121.709 19.5078V0ZM11.7145 81.2825H18.6547V72.3414H25.595L30.993 81.2825H39.4756L32.5353 69.9029C32.5353 69.9029 41.0178 64.2132 38.3188 53.6465C35.6198 43.0797 26.3662 42.2669 26.3662 42.2669H8.62991L21.7393 65.8388H11.7145V81.2825ZM20.1972 49.5823L28.6797 64.2131C28.6797 64.2131 33.6921 60.9618 31.7643 55.272C29.8364 49.5823 25.5952 49.5823 25.5952 49.5823H20.1972ZM61.7873 74.1569C60.8117 74.5256 59.7857 74.721 58.7546 74.721C53.9443 74.721 49.2472 70.4688 49.2472 64.2132C49.2472 62.7929 49.4893 61.4758 49.9199 60.2884L61.7873 74.1569ZM67.4586 68.4799L55.4064 54.3954C56.4751 53.9454 57.6116 53.7054 58.7546 53.7054C63.5648 53.7054 68.2619 57.9576 68.2619 64.2132C68.2619 65.7713 67.9706 67.2051 67.4586 68.4799ZM73.7916 75.5882C70.4323 80.5135 64.9488 83.721 58.7546 83.721C48.5332 83.721 40.2472 74.987 40.2472 64.2132C40.2472 53.4393 48.5332 44.7054 58.7546 44.7054C64.9488 44.7054 70.4323 47.9129 73.7916 52.8381C77.151 47.9129 82.6345 44.7054 88.8287 44.7054C99.0501 44.7054 107.336 53.4393 107.336 64.2132C107.336 74.987 99.0501 83.721 88.8287 83.721C82.6345 83.721 77.151 80.5135 73.7916 75.5882ZM88.8287 74.721C87.7976 74.721 86.7716 74.5256 85.796 74.1569L97.6634 60.2884C98.094 61.4759 98.3361 62.7929 98.3361 64.2132C98.3361 70.4688 93.639 74.721 88.8287 74.721ZM92.1769 54.3954L80.1247 68.4799C79.6128 67.2051 79.3214 65.7713 79.3214 64.2132C79.3214 57.9576 84.0185 53.7054 88.8287 53.7054C89.9717 53.7054 91.1082 53.9454 92.1769 54.3954ZM110.277 44.7054L117.857 42.9209L126.171 59.5995L134.194 42.9674L141.797 44.7054V83.721H133.797V62.2036L129.832 70.4217L126.288 77.7679L122.65 70.4682L118.277 61.6959V83.721H110.277V44.7054ZM0.460938 82.9081V0.812805H4.46094V82.9081H0.460938ZM146.207 0.812805V82.9081H150.207V0.812805H146.207Z" fill="white"/>
</svg>
