<svg width="528" height="301" viewBox="0 0 528 301" fill="none" xmlns="http://www.w3.org/2000/svg">
<path fill-rule="evenodd" clip-rule="evenodd" d="M32.6021 70.0796H57.5343V116.799H82.4665C82.4665 116.799 88.8986 115.011 90.7772 113.879C92.8776 112.614 94.9326 110.959 94.9326 110.959L18.7509 0H82.4665C82.4665 0 142.027 7.29996 143.412 70.0796C144.797 132.859 82.4665 140.159 82.4665 140.159H32.6021V70.0796ZM65.8443 23.3599L115.709 93.4395C115.709 93.4395 123.164 64.8326 115.709 49.6397C110.788 39.613 105.707 34.6278 96.3169 29.1998C85.7115 23.0696 65.8443 23.3599 65.8443 23.3599ZM173.263 140.159H143.412L208.541 0H213.969L276.384 140.159H211.255V117.276H238.392L211.255 57.2079L173.263 140.159ZM312.396 140.159H287.464V84.6796H323.477L276.383 0H340.098C340.098 0 373.341 2.91999 383.037 40.8798C392.733 78.8396 362.26 99.2795 362.26 99.2795L387.192 140.159H356.72L337.328 108.039H312.396V140.159ZM348.41 78.8396L317.937 26.2798H337.329C337.329 26.2798 352.565 26.2798 359.491 46.7197C366.417 67.1596 348.41 78.8396 348.41 78.8396ZM430.52 0H406.585V140.159L446.476 86.8988L478.39 134.553H507.643L462.433 65.8749L507.643 0H478.39L430.52 70.0796V0ZM35.3716 291.999H60.3038V259.879H85.236L104.628 291.999H135.1L110.168 251.119C110.168 251.119 140.641 230.679 130.945 192.719C121.249 154.759 88.0062 151.839 88.0062 151.839H24.2907L71.3848 236.519H35.3716V291.999ZM65.8434 178.119L96.3161 230.679C96.3161 230.679 114.323 218.999 107.397 198.559C100.471 178.119 85.2351 178.119 85.2351 178.119H65.8434ZM230.907 271.75C223.26 277.472 214.031 280.758 204.357 280.758C179.663 280.758 157.871 259.342 157.871 230.679C157.871 219.199 161.367 208.882 167.144 200.637L230.907 271.75ZM241.392 260.973L177.565 189.79C185.259 183.956 194.581 180.599 204.357 180.599C223.716 180.599 241.291 193.761 247.981 213.257C246.629 218.827 245.911 224.665 245.911 230.679C245.911 236.693 246.629 242.53 247.981 248.1C246.372 252.789 244.133 257.112 241.392 260.973ZM258.377 271.541C246.309 289.235 226.609 300.758 204.357 300.758C167.638 300.758 137.871 269.383 137.871 230.679C137.871 191.975 167.638 160.599 204.357 160.599C226.609 160.599 246.309 172.122 258.377 189.816C270.445 172.122 290.144 160.599 312.397 160.599C349.116 160.599 378.882 191.975 378.882 230.679C378.882 269.383 349.116 300.758 312.397 300.758C290.144 300.758 270.445 289.235 258.377 271.541ZM268.772 248.1C270.73 253.805 273.619 258.967 277.212 263.416L338.399 189.204C330.86 183.732 321.841 180.599 312.397 180.599C293.038 180.599 275.463 193.761 268.772 213.257C270.124 218.827 270.843 224.665 270.843 230.679C270.843 236.693 270.124 242.53 268.772 248.1ZM312.397 280.758C303.753 280.758 295.465 278.135 288.343 273.495L349.054 199.86C355.162 208.229 358.882 218.835 358.882 230.679C358.882 259.342 337.091 280.758 312.397 280.758ZM393.814 160.599L412.764 156.138L446.606 224.028L479.3 156.254L498.307 160.599V300.758H478.307V204.345L455.76 251.084L446.9 269.449L437.803 251.2L413.814 203.075V300.758H393.814V160.599ZM0.128906 297.838V2.91994H4.12891V297.838H0.128906ZM523.705 2.91994V297.838H527.705V2.91994H523.705Z" fill="url(#paint0_linear_1849_6621)"/>
<defs>
<linearGradient id="paint0_linear_1849_6621" x1="263.917" y1="0" x2="263.917" y2="300.758" gradientUnits="userSpaceOnUse">
<stop stop-color="white"/>
<stop offset="1" stop-color="white"/>
</linearGradient>
</defs>
</svg>
