<svg width="209" height="46" viewBox="0 0 209 46" fill="none" xmlns="http://www.w3.org/2000/svg">
<path fill-rule="evenodd" clip-rule="evenodd" d="M82.2878 45.3064H91.1847V43.8255C91.1942 44.1213 91.4248 44.358 91.7077 44.358C91.9968 44.358 92.2311 44.1111 92.2311 43.8064C92.2311 43.5017 91.9968 43.2548 91.7077 43.2548C91.4248 43.2548 91.1942 43.4915 91.1847 43.7873V42.3064H84.3354L94.3248 10.7182L104.682 43.4684C104.586 43.3384 104.436 43.2548 104.268 43.2548C103.979 43.2548 103.745 43.5017 103.745 43.8064C103.745 44.1111 103.979 44.358 104.268 44.358C104.554 44.358 104.787 44.1158 104.791 43.8151L104.932 44.2587L107.792 43.3541L95.755 5.29114L94.3248 0.76865L92.8946 5.29114L80.8576 43.3541L80.2402 45.3064L82.2878 45.3064ZM101.652 43.8064C101.652 43.5017 101.886 43.2548 102.175 43.2548C102.464 43.2548 102.698 43.5017 102.698 43.8064C102.698 44.1111 102.464 44.358 102.175 44.358C101.886 44.358 101.652 44.1111 101.652 43.8064ZM100.081 43.2548C99.7923 43.2548 99.5579 43.5017 99.5579 43.8064C99.5579 44.1111 99.7923 44.358 100.081 44.358C100.37 44.358 100.605 44.1111 100.605 43.8064C100.605 43.5017 100.37 43.2548 100.081 43.2548ZM97.465 43.8064C97.465 43.5017 97.6993 43.2548 97.9884 43.2548C98.2774 43.2548 98.5117 43.5017 98.5117 43.8064C98.5117 44.1111 98.2774 44.358 97.9884 44.358C97.6993 44.358 97.465 44.1111 97.465 43.8064ZM95.8945 43.2548C95.6055 43.2548 95.3712 43.5017 95.3712 43.8064C95.3712 44.1111 95.6055 44.358 95.8945 44.358C96.1836 44.358 96.4179 44.1111 96.4179 43.8064C96.4179 43.5017 96.1836 43.2548 95.8945 43.2548ZM93.2782 43.8064C93.2782 43.5017 93.5126 43.2548 93.8016 43.2548C94.0906 43.2548 94.3249 43.5017 94.3249 43.8064C94.3249 44.1111 94.0906 44.358 93.8016 44.358C93.5126 44.358 93.2782 44.1111 93.2782 43.8064ZM98.7495 9.5295L104.506 27.7335L104.03 27.8843L98.2728 9.68026L98.7495 9.5295ZM81.5263 36.5597L91.9932 3.46149L92.47 3.61225L82.003 36.7105L81.5263 36.5597Z" fill="url(#paint0_linear_1849_6645)"/>
<path fill-rule="evenodd" clip-rule="evenodd" d="M5.05788 8.8791H0.871094V39.2192H13.9548V35.3577H5.05788V8.8791ZM20.7582 8.8791H17.0947V39.2192H20.7582V8.8791ZM39.6036 8.8791V12.8121H32.8C29.3983 13.3739 27.5665 15.6213 27.5665 22.0826C27.5665 22.0826 28.608 33.6006 38.0335 34.1625V15.0595H41.6969V39.2192H38.0335C38.0335 39.2192 23.6415 34.4434 23.9031 20.9589C23.9031 20.9589 23.3798 10.8456 32.8 8.8791H39.6036ZM44.8331 8.8791H48.4965V14.4976H56.8701V8.8791H60.5335V39.2192H56.8701V21.8017H48.4965V39.2192H44.8331V8.8791ZM48.4964 17.3069V19.5543H56.8699V17.3069H48.4964ZM63.6727 8.8791V13.3739H70.4762V39.2192H73.6163V13.3739H80.4198V8.8791H63.6727Z" fill="white"/>
<path fill-rule="evenodd" clip-rule="evenodd" d="M114.962 39.2192H111.299V8.8791H120.719C120.719 8.8791 126.999 10.0349 126.999 14.9471C126.999 19.8593 120.719 21.3041 120.719 21.3041L129.093 38.6412V39.2192H125.429L116.532 21.3041H114.962V39.2192ZM114.439 17.2587V12.0576C114.439 12.0576 122.812 11.5645 122.812 14.6582C122.812 17.7518 114.439 17.2587 114.439 17.2587ZM144.008 32.7192C148.048 32.7192 151.9 29.1641 151.9 24.0491C151.9 18.9341 148.048 15.3791 144.008 15.3791C139.967 15.3791 136.115 18.9341 136.115 24.0491C136.115 29.1641 139.967 32.7192 144.008 32.7192ZM144.008 39.2192C151.956 39.2192 158.4 32.4273 158.4 24.0491C158.4 15.671 151.956 8.8791 144.008 8.8791C136.059 8.8791 129.615 15.671 129.615 24.0491C129.615 32.4273 136.059 39.2192 144.008 39.2192ZM147.605 24.0491C147.605 26.1437 145.994 27.8416 144.007 27.8416C142.02 27.8416 140.409 26.1437 140.409 24.0491C140.409 21.9546 142.02 20.2566 144.007 20.2566C145.994 20.2566 147.605 21.9546 147.605 24.0491ZM182.254 24.0491C182.254 29.1641 178.402 32.7192 174.362 32.7192C170.321 32.7192 166.47 29.1641 166.47 24.0491C166.47 18.9341 170.321 15.3791 174.362 15.3791C178.402 15.3791 182.254 18.9341 182.254 24.0491ZM188.754 24.0491C188.754 32.4273 182.31 39.2192 174.362 39.2192C166.413 39.2192 159.97 32.4273 159.97 24.0491C159.97 15.671 166.413 8.8791 174.362 8.8791C182.31 8.8791 188.754 15.671 188.754 24.0491ZM174.362 27.8416C176.349 27.8416 177.96 26.1437 177.96 24.0491C177.96 21.9546 176.349 20.2566 174.362 20.2566C172.375 20.2566 170.764 21.9546 170.764 24.0491C170.764 26.1437 172.375 27.8416 174.362 27.8416ZM193.987 39.2192H190.324V8.8791H193.464L199.744 17.2077L206.024 8.8791H208.641V39.2192H204.978V16.0179H204.454L199.744 22.5619L194.511 16.0179H193.987V39.2192ZM198.697 31.4854V28.5109H201.314V31.4854H198.697ZM198.697 39.2191V36.2446H201.314V39.2191H198.697Z" fill="white"/>
<defs>
<linearGradient id="paint0_linear_1849_6645" x1="94.0161" y1="45.3064" x2="94.0161" y2="0.76865" gradientUnits="userSpaceOnUse">
<stop/>
<stop offset="1" stop-color="white"/>
</linearGradient>
</defs>
</svg>
