<svg width="64" height="56" viewBox="0 0 64 56" fill="none" xmlns="http://www.w3.org/2000/svg">
<path fill-rule="evenodd" clip-rule="evenodd" d="M7.1386 19.5348C10.5431 8.75171 20.1814 0.998245 31.5058 0.998245C42.7878 0.998245 52.3963 8.69368 55.8345 19.4137H52.9695V23.147H56.7555C56.9271 24.1249 57.0491 25.1215 57.1185 26.1336H52.9695V29.8669H60.0453V26.1336H58.1207C58.0536 25.1225 57.9357 24.126 57.7697 23.147H63.1115V19.4137H56.8816C53.4056 8.15562 43.3737 -0.00175476 31.5058 -0.00175476C19.6287 -0.00175476 9.59036 8.16844 6.12189 19.4402C6.06895 19.4391 6.01573 19.4385 5.96222 19.4385C4.93229 19.4385 4.05174 19.6377 3.32056 20.0359C2.58939 20.4341 2.03511 20.9899 1.65773 21.7034C1.28821 22.4086 1.10345 23.2216 1.10345 24.1425C1.10345 25.0883 1.28821 25.8972 1.65773 26.5691C2.03511 27.2328 2.47932 27.7721 2.99035 28.1869C3.45201 28.5541 4.07407 28.9925 4.85653 29.5019C4.93749 31.2717 5.17367 32.9989 5.55109 34.6686C5.51552 34.6698 5.4796 34.6704 5.44333 34.6704C4.9716 34.6704 4.49594 34.5709 4.01636 34.3717C3.54463 34.1726 3.12401 33.932 2.75449 33.65C2.38497 33.3679 2.1098 33.1024 1.92897 32.8535L0.726074 35.4669C1.00911 35.7821 1.39435 36.0849 1.8818 36.3753C2.36925 36.6657 2.93532 36.9021 3.58001 37.0846C4.23256 37.2671 4.92443 37.3584 5.6556 37.3584C5.87241 37.3584 6.08322 37.3501 6.28802 37.3334C8.39762 43.7546 12.6525 49.1232 18.155 52.482L18.676 51.6284C13.424 48.4226 9.34258 43.3062 7.28877 37.1742C7.67036 37.0805 8.02618 36.9511 8.35623 36.7859C9.11885 36.396 9.70458 35.836 10.1134 35.106C10.5222 34.3759 10.7266 33.5089 10.7266 32.5051C10.7266 31.5593 10.5458 30.7629 10.1842 30.1158C9.83037 29.4604 9.39009 28.9211 8.86333 28.498C8.33657 28.0749 7.57395 27.5523 6.57547 26.93C6.31667 26.7662 6.08222 26.6124 5.87211 26.4688C5.95707 24.977 6.15605 23.5181 6.45992 22.1016C6.73977 22.1387 7.01022 22.2176 7.27126 22.3381C7.64864 22.504 7.97099 22.7073 8.2383 22.9478C8.50561 23.1801 8.70609 23.3958 8.83975 23.595L10.1606 21.0563C9.31055 20.2409 8.30322 19.7337 7.1386 19.5348ZM5.42586 22.164C5.12326 22.2532 4.86963 22.4107 4.66498 22.6367C4.33477 23.0018 4.16967 23.4622 4.16967 24.0181C4.16967 24.4412 4.26794 24.8186 4.4645 25.1505C4.5933 25.3544 4.74551 25.5451 4.92113 25.7226C5.01825 24.5132 5.18802 23.3253 5.42586 22.164ZM5.89804 30.185C6.00146 31.6399 6.21349 33.0625 6.52555 34.444C6.6962 34.3629 6.85435 34.26 7.00002 34.1353C7.42457 33.7703 7.63685 33.2601 7.63685 32.6047C7.63685 32.1815 7.53857 31.8165 7.34202 31.5096C7.15333 31.1943 6.89781 30.9164 6.57547 30.6758C6.40218 30.5386 6.17637 30.375 5.89804 30.185ZM37.0905 19.7372V37.0846H36.8547L28.9769 27.9505L28.2457 26.9549L28.3636 29.3691V37.0846H25.4625V19.7372H25.722L33.4819 28.9958L34.3074 30.1282L34.1894 27.7514V19.7372H37.0905ZM42.9902 37.0846C43.6428 37.2671 44.3347 37.3584 45.0658 37.3584C46.1036 37.3584 47.0038 37.1676 47.7665 36.7859C48.5291 36.396 49.1148 35.836 49.5236 35.106C49.9325 34.3759 50.1369 33.5089 50.1369 32.5051C50.1369 31.5593 49.9561 30.7629 49.5944 30.1158C49.2406 29.4604 48.8003 28.9211 48.2736 28.498C47.7468 28.0749 46.9842 27.5523 45.9857 26.93C45.4354 26.5816 44.9951 26.2788 44.6649 26.0216C44.3425 25.7644 44.0791 25.4741 43.8747 25.1505C43.6782 24.8186 43.5799 24.4412 43.5799 24.0181C43.5799 23.4622 43.745 23.0018 44.0752 22.6367C44.4133 22.2634 44.885 22.0767 45.4904 22.0767C45.9071 22.0767 46.3041 22.1639 46.6815 22.3381C47.0589 22.504 47.3812 22.7073 47.6485 22.9478C47.9158 23.1801 48.1163 23.3958 48.25 23.595L49.5708 21.0563C48.4465 19.9778 47.0471 19.4385 45.3725 19.4385C44.3425 19.4385 43.462 19.6377 42.7308 20.0359C41.9996 20.4341 41.4453 20.9899 41.068 21.7034C40.6984 22.4086 40.5137 23.2216 40.5137 24.1425C40.5137 25.0883 40.6984 25.8972 41.068 26.5691C41.4453 27.2328 41.8896 27.7721 42.4006 28.1869C42.9116 28.5934 43.6192 29.0871 44.5234 29.6678C45.1838 30.0909 45.6712 30.4269 45.9857 30.6758C46.308 30.9164 46.5636 31.1943 46.7523 31.5096C46.9488 31.8165 47.0471 32.1815 47.0471 32.6047C47.0471 33.2601 46.8348 33.7703 46.4103 34.1353C45.9936 34.492 45.4747 34.6704 44.8536 34.6704C44.3818 34.6704 43.9062 34.5709 43.4266 34.3717C42.9549 34.1726 42.5342 33.932 42.1647 33.65C41.7952 33.3679 41.52 33.1024 41.3392 32.8535L40.1363 35.4669C40.4193 35.7821 40.8046 36.0849 41.292 36.3753C41.7795 36.6657 42.3456 36.9021 42.9902 37.0846ZM23.251 19.4137H13.1089V23.147H23.251V19.4137ZM13.1089 26.1336H20.1848V29.8669H13.1089V26.1336ZM13.1089 33.3513H23.251V37.0846H13.1089V33.3513ZM63.1115 33.3513H52.9695V37.0846H63.1115V33.3513ZM30.9165 14.5604H29.0296V15.0581H30.9165V14.5604ZM35.1619 14.5604H33.5108V15.0581H35.1619V14.5604ZM34.6956 15.6803H33.5108V16.1781H34.6956V15.6803ZM33.5108 16.8003H35.1619V17.2981H33.5108V16.8003ZM29.7373 17.2981V15.307H30.2112V17.2981H29.7373ZM31.1525 14.5604V17.2981H31.6264V14.5604H31.1525ZM32.5672 17.2981V14.5604H33.0411V17.2981H32.5672ZM32.3333 15.5559H31.8594V16.0537H32.3333V15.5559ZM57.9245 30.8624C57.9245 30.9999 57.8184 31.1113 57.6876 31.1113C57.5567 31.1113 57.4506 30.9999 57.4506 30.8624C57.4506 30.725 57.5567 30.6135 57.6876 30.6135C57.8184 30.6135 57.9245 30.725 57.9245 30.8624ZM57.4518 32.8535C57.5826 32.8535 57.6887 32.7421 57.6887 32.6046C57.6887 32.4672 57.5826 32.3558 57.4518 32.3558C57.3209 32.3558 57.2148 32.4672 57.2148 32.6046C57.2148 32.7421 57.3209 32.8535 57.4518 32.8535ZM56.0378 37.8313C56.0378 37.9687 55.9317 38.0801 55.8008 38.0801C55.6699 38.0801 55.5638 37.9687 55.5638 37.8313C55.5638 37.6938 55.6699 37.5824 55.8008 37.5824C55.9317 37.5824 56.0378 37.6938 56.0378 37.8313ZM55.0934 39.8224C55.2243 39.8224 55.3304 39.7109 55.3304 39.5735C55.3304 39.436 55.2243 39.3246 55.0934 39.3246C54.9626 39.3246 54.8565 39.436 54.8565 39.5735C54.8565 39.7109 54.9626 39.8224 55.0934 39.8224ZM52.4988 44.5512C52.6297 44.5512 52.7358 44.4398 52.7358 44.3023C52.7358 44.1649 52.6297 44.0534 52.4988 44.0534C52.3679 44.0534 52.2619 44.1649 52.2619 44.3023C52.2619 44.4398 52.3679 44.5512 52.4988 44.5512ZM41.4134 53.76C41.5443 53.76 41.6504 53.6486 41.6504 53.5111C41.6504 53.3737 41.5443 53.2622 41.4134 53.2622C41.2826 53.2622 41.1765 53.3737 41.1765 53.5111C41.1765 53.6486 41.2826 53.76 41.4134 53.76ZM50.3774 47.289C50.3774 47.4264 50.2713 47.5378 50.1404 47.5378C50.0096 47.5378 49.9035 47.4264 49.9035 47.289C49.9035 47.1515 50.0096 47.0401 50.1404 47.0401C50.2713 47.0401 50.3774 47.1515 50.3774 47.289ZM54.6225 41.3157C54.6225 41.4531 54.5165 41.5646 54.3856 41.5646C54.2547 41.5646 54.1486 41.4531 54.1486 41.3157C54.1486 41.1782 54.2547 41.0668 54.3856 41.0668C54.5165 41.0668 54.6225 41.1782 54.6225 41.3157ZM48.961 48.7823C49.0919 48.7823 49.198 48.6709 49.198 48.5334C49.198 48.3959 49.0919 48.2845 48.961 48.2845C48.8302 48.2845 48.7241 48.3959 48.7241 48.5334C48.7241 48.6709 48.8302 48.7823 48.961 48.7823ZM47.7828 49.7778C47.7828 49.9153 47.6767 50.0267 47.5458 50.0267C47.415 50.0267 47.3089 49.9153 47.3089 49.7778C47.3089 49.6404 47.415 49.5289 47.5458 49.5289C47.6767 49.5289 47.7828 49.6404 47.7828 49.7778ZM44.7154 52.0178C44.8463 52.0178 44.9524 51.9064 44.9524 51.7689C44.9524 51.6315 44.8463 51.52 44.7154 51.52C44.5846 51.52 44.4785 51.6315 44.4785 51.7689C44.4785 51.9064 44.5846 52.0178 44.7154 52.0178ZM37.6394 55.0044C37.7703 55.0044 37.8764 54.893 37.8764 54.7556C37.8764 54.6181 37.7703 54.5067 37.6394 54.5067C37.5086 54.5067 37.4025 54.6181 37.4025 54.7556C37.4025 54.893 37.5086 55.0044 37.6394 55.0044ZM35.9896 55.2533C35.9896 55.3908 35.8835 55.5022 35.7526 55.5022C35.6218 55.5022 35.5157 55.3908 35.5157 55.2533C35.5157 55.1159 35.6218 55.0045 35.7526 55.0045C35.8835 55.0045 35.9896 55.1159 35.9896 55.2533ZM33.8659 55.7511C33.9967 55.7511 34.1028 55.6397 34.1028 55.5022C34.1028 55.3648 33.9967 55.2533 33.8659 55.2533C33.735 55.2533 33.6289 55.3648 33.6289 55.5022C33.6289 55.6397 33.735 55.7511 33.8659 55.7511ZM32.216 55.7511C32.216 55.8886 32.1099 56 31.9791 56C31.8482 56 31.7421 55.8886 31.7421 55.7511C31.7421 55.6137 31.8482 55.5022 31.9791 55.5022C32.1099 55.5022 32.216 55.6137 32.216 55.7511ZM30.0918 56C30.2227 56 30.3288 55.8886 30.3288 55.7511C30.3288 55.6137 30.2227 55.5022 30.0918 55.5022C29.961 55.5022 29.8549 55.6137 29.8549 55.7511C29.8549 55.8886 29.961 56 30.0918 56ZM28.442 55.5022C28.442 55.6397 28.3359 55.7511 28.2051 55.7511C28.0742 55.7511 27.9681 55.6397 27.9681 55.5022C27.9681 55.3648 28.0742 55.2533 28.2051 55.2533C28.3359 55.2533 28.442 55.3648 28.442 55.5022ZM26.3178 55.2533C26.4487 55.2533 26.5548 55.1419 26.5548 55.0045C26.5548 54.867 26.4487 54.7556 26.3178 54.7556C26.1869 54.7556 26.0809 54.867 26.0809 55.0045C26.0809 55.1419 26.1869 55.2533 26.3178 55.2533ZM24.4327 54.5067C24.4327 54.6441 24.3266 54.7556 24.1957 54.7556C24.0648 54.7556 23.9587 54.6441 23.9587 54.5067C23.9587 54.3692 24.0648 54.2578 24.1957 54.2578C24.3266 54.2578 24.4327 54.3692 24.4327 54.5067ZM22.3085 54.0089C22.4393 54.0089 22.5454 53.8975 22.5454 53.76C22.5454 53.6226 22.4393 53.5111 22.3085 53.5111C22.1776 53.5111 22.0715 53.6226 22.0715 53.76C22.0715 53.8975 22.1776 54.0089 22.3085 54.0089ZM20.8944 53.0134C20.8944 53.1508 20.7883 53.2622 20.6575 53.2622C20.5266 53.2622 20.4205 53.1508 20.4205 53.0134C20.4205 52.8759 20.5266 52.7645 20.6575 52.7645C20.7883 52.7645 20.8944 52.8759 20.8944 53.0134ZM19.0062 52.5156C19.1371 52.5156 19.2432 52.4042 19.2432 52.2667C19.2432 52.1292 19.1371 52.0178 19.0062 52.0178C18.8754 52.0178 18.7693 52.1292 18.7693 52.2667C18.7693 52.4042 18.8754 52.5156 19.0062 52.5156ZM39.7636 54.2578C39.7636 54.3952 39.6575 54.5067 39.5267 54.5067C39.3958 54.5067 39.2897 54.3952 39.2897 54.2578C39.2897 54.1203 39.3958 54.0089 39.5267 54.0089C39.6575 54.0089 39.7636 54.1203 39.7636 54.2578ZM53.4424 43.0579C53.5733 43.0579 53.6794 42.9465 53.6794 42.809C53.6794 42.6715 53.5733 42.5601 53.4424 42.5601C53.3116 42.5601 53.2055 42.6715 53.2055 42.809C53.2055 42.9465 53.3116 43.0579 53.4424 43.0579ZM43.3014 52.7645C43.3014 52.9019 43.1953 53.0134 43.0644 53.0134C42.9336 53.0134 42.8275 52.9019 42.8275 52.7645C42.8275 52.627 42.9336 52.5156 43.0644 52.5156C43.1953 52.5156 43.3014 52.627 43.3014 52.7645ZM46.1306 51.0223C46.2615 51.0223 46.3676 50.9108 46.3676 50.7734C46.3676 50.6359 46.2615 50.5245 46.1306 50.5245C45.9998 50.5245 45.8937 50.6359 45.8937 50.7734C45.8937 50.9108 45.9998 51.0223 46.1306 51.0223ZM51.5564 45.7956C51.5564 45.9331 51.4503 46.0445 51.3194 46.0445C51.1885 46.0445 51.0824 45.9331 51.0824 45.7956C51.0824 45.6582 51.1885 45.5468 51.3194 45.5468C51.4503 45.5468 51.5564 45.6582 51.5564 45.7956Z" fill="white"/>
</svg>
