<svg width="67" height="56" viewBox="0 0 67 56" fill="none" xmlns="http://www.w3.org/2000/svg">
<path fill-rule="evenodd" clip-rule="evenodd" d="M7.55495 19.531C11.1453 8.76134 21.2989 0.998245 33.263 0.998245C45.1836 0.998245 55.3068 8.70498 58.9316 19.4137H55.8867V23.147H59.9037C60.0849 24.1251 60.2137 25.1216 60.287 26.1336H55.8867V29.8669H63.345V26.1336H61.2896C61.219 25.1224 61.0949 24.1259 60.9203 23.147H66.577V19.4137H59.9854C56.3221 8.14397 45.7431 -0.00175476 33.263 -0.00175476C20.7729 -0.00175476 10.1869 8.15702 6.53177 19.4407C6.46774 19.4393 6.40333 19.4385 6.33852 19.4385C5.25292 19.4385 4.32476 19.6377 3.55407 20.0359C2.78337 20.4341 2.19913 20.9899 1.80135 21.7034C1.41186 22.4086 1.21712 23.2216 1.21712 24.1425C1.21712 25.0883 1.41186 25.8972 1.80135 26.5691C2.19913 27.2328 2.66735 27.7721 3.20601 28.1869C3.6981 28.5583 4.3631 29.0024 5.201 29.5191C5.28703 31.2829 5.53534 33.0039 5.9313 34.6676C5.88528 34.6695 5.83871 34.6704 5.79157 34.6704C5.29435 34.6704 4.79298 34.5709 4.28747 34.3717C3.79025 34.1726 3.34689 33.932 2.9574 33.65C2.56791 33.3679 2.27786 33.1024 2.08726 32.8535L0.819336 35.4669C1.11767 35.7821 1.52374 36.0849 2.03753 36.3753C2.55133 36.6657 3.148 36.9021 3.82754 37.0846C4.51537 37.2671 5.24463 37.3584 6.01533 37.3584C6.25267 37.3584 6.48319 37.3494 6.70688 37.3314C8.9307 43.7606 13.4184 49.1313 19.2145 52.4879L19.7156 51.6225C14.1771 48.4151 9.87836 43.3022 7.71335 37.1796C8.12444 37.0855 8.5073 36.9543 8.86193 36.7859C9.66578 36.396 10.2832 35.836 10.7141 35.106C11.145 34.3759 11.3605 33.5089 11.3605 32.5051C11.3605 31.5593 11.1699 30.7629 10.7887 30.1158C10.4158 29.4604 9.95168 28.9211 9.39645 28.498C8.84121 28.0749 8.03737 27.5523 6.98491 26.93C6.7015 26.7598 6.44577 26.6005 6.21774 26.452C6.30808 24.9653 6.51802 23.511 6.83805 22.0985C7.14195 22.1343 7.43538 22.2142 7.71832 22.3381C8.1161 22.504 8.45586 22.7073 8.73763 22.9478C9.01939 23.1801 9.23071 23.3958 9.37159 23.595L10.7638 21.0563C9.86212 20.2357 8.79249 19.7273 7.55495 19.531ZM5.80088 22.1564C5.46966 22.2441 5.19309 22.4042 4.97115 22.6367C4.6231 23.0018 4.44907 23.4622 4.44907 24.0181C4.44907 24.4412 4.55266 24.8186 4.75983 25.1505C4.90166 25.3635 5.07042 25.5621 5.26611 25.7463C5.36819 24.5259 5.54811 23.3276 5.80088 22.1564ZM6.2427 30.1668C6.35158 31.6315 6.57664 33.0638 6.90869 34.4545C7.0976 34.3719 7.27218 34.2655 7.43241 34.1353C7.87991 33.7703 8.10367 33.2601 8.10367 32.6047C8.10367 32.1815 8.00008 31.8165 7.7929 31.5096C7.59401 31.1943 7.32468 30.9164 6.98491 30.6758C6.79644 30.5343 6.54904 30.3646 6.2427 30.1668ZM39.1495 19.7372V37.0846H38.9009L30.5972 27.9505L29.8265 26.9549L29.9508 29.3691V37.0846H26.8929V19.7372H27.1664L35.3457 28.9958L36.2158 30.1282L36.0915 27.7514V19.7372H39.1495ZM45.3681 37.0846C46.0559 37.2671 46.7851 37.3584 47.5558 37.3584C48.6497 37.3584 49.5986 37.1676 50.4025 36.7859C51.2063 36.396 51.8237 35.836 52.2546 35.106C52.6855 34.3759 52.901 33.5089 52.901 32.5051C52.901 31.5593 52.7104 30.7629 52.3292 30.1158C51.9563 29.4604 51.4922 28.9211 50.937 28.498C50.3817 28.0749 49.5779 27.5523 48.5254 26.93C47.9453 26.5816 47.4813 26.2788 47.1332 26.0216C46.7934 25.7644 46.5158 25.4741 46.3004 25.1505C46.0932 24.8186 45.9896 24.4412 45.9896 24.0181C45.9896 23.4622 46.1636 23.0018 46.5117 22.6367C46.868 22.2634 47.3652 22.0767 48.0033 22.0767C48.4426 22.0767 48.8611 22.1639 49.2588 22.3381C49.6566 22.504 49.9964 22.7073 50.2781 22.9478C50.5599 23.1801 50.7712 23.3958 50.9121 23.595L52.3043 21.0563C51.1193 19.9778 49.6442 19.4385 47.879 19.4385C46.7934 19.4385 45.8653 19.6377 45.0946 20.0359C44.3239 20.4341 43.7397 20.9899 43.3419 21.7034C42.9524 22.4086 42.7576 23.2216 42.7576 24.1425C42.7576 25.0883 42.9524 25.8972 43.3419 26.5691C43.7397 27.2328 44.2079 27.7721 44.7465 28.1869C45.2852 28.5934 46.031 29.0871 46.984 29.6678C47.6802 30.0909 48.194 30.4269 48.5254 30.6758C48.8652 30.9164 49.1345 31.1943 49.3334 31.5096C49.5406 31.8165 49.6442 32.1815 49.6442 32.6047C49.6442 33.2601 49.4204 33.7703 48.9729 34.1353C48.5337 34.492 47.9868 34.6704 47.3321 34.6704C46.8349 34.6704 46.3335 34.5709 45.828 34.3717C45.3308 34.1726 44.8874 33.932 44.4979 33.65C44.1084 33.3679 43.8184 33.1024 43.6278 32.8535L42.3599 35.4669C42.6582 35.7821 43.0643 36.0849 43.5781 36.3753C44.0919 36.6657 44.6885 36.9021 45.3681 37.0846ZM24.5618 19.4137H13.8715V23.147H24.5618V19.4137ZM13.8715 26.1336H21.3298V29.8669H13.8715V26.1336ZM13.8715 33.3513H24.5618V37.0846H13.8715V33.3513ZM66.577 33.3513H55.8867V37.0846H66.577V33.3513ZM32.6417 14.5604H30.6528V15.0581H32.6417V14.5604ZM37.1167 14.5604H35.3764V15.0581H37.1167V14.5604ZM36.6252 15.6803H35.3764V16.1781H36.6252V15.6803ZM35.3764 16.8003H37.1167V17.2981H35.3764V16.8003ZM31.3987 17.2981V15.307H31.8982V17.2981H31.3987ZM32.8904 14.5604V17.2981H33.3899V14.5604H32.8904ZM34.3817 17.2981V14.5604H34.8812V17.2981H34.3817ZM34.1354 15.5559H33.6359V16.0537H34.1354V15.5559ZM61.1098 30.8624C61.1098 30.9999 60.998 31.1113 60.8601 31.1113C60.7221 31.1113 60.6103 30.9999 60.6103 30.8624C60.6103 30.725 60.7221 30.6135 60.8601 30.6135C60.998 30.6135 61.1098 30.725 61.1098 30.8624ZM60.6115 32.8535C60.7495 32.8535 60.8613 32.7421 60.8613 32.6046C60.8613 32.4672 60.7495 32.3558 60.6115 32.3558C60.4736 32.3558 60.3618 32.4672 60.3618 32.6046C60.3618 32.7421 60.4736 32.8535 60.6115 32.8535ZM59.1211 37.8313C59.1211 37.9687 59.0093 38.0801 58.8713 38.0801C58.7334 38.0801 58.6216 37.9687 58.6216 37.8313C58.6216 37.6938 58.7334 37.5824 58.8713 37.5824C59.0093 37.5824 59.1211 37.6938 59.1211 37.8313ZM58.1254 39.8224C58.2634 39.8224 58.3752 39.7109 58.3752 39.5735C58.3752 39.436 58.2634 39.3246 58.1254 39.3246C57.9875 39.3246 57.8757 39.436 57.8757 39.5735C57.8757 39.7109 57.9875 39.8224 58.1254 39.8224ZM55.3908 44.5512C55.5288 44.5512 55.6406 44.4398 55.6406 44.3023C55.6406 44.1649 55.5288 44.0534 55.3908 44.0534C55.2529 44.0534 55.1411 44.1649 55.1411 44.3023C55.1411 44.4398 55.2529 44.5512 55.3908 44.5512ZM43.7059 53.76C43.8439 53.76 43.9557 53.6486 43.9557 53.5111C43.9557 53.3737 43.8439 53.2622 43.7059 53.2622C43.568 53.2622 43.4562 53.3737 43.4562 53.5111C43.4562 53.6486 43.568 53.76 43.7059 53.76ZM53.1545 47.289C53.1545 47.4264 53.0426 47.5378 52.9047 47.5378C52.7668 47.5378 52.6549 47.4264 52.6549 47.289C52.6549 47.1515 52.7668 47.0401 52.9047 47.0401C53.0426 47.0401 53.1545 47.1515 53.1545 47.289ZM57.6293 41.3157C57.6293 41.4531 57.5175 41.5646 57.3796 41.5646C57.2416 41.5646 57.1298 41.4531 57.1298 41.3157C57.1298 41.1782 57.2416 41.0668 57.3796 41.0668C57.5175 41.0668 57.6293 41.1782 57.6293 41.3157ZM51.6616 48.7823C51.7995 48.7823 51.9113 48.6709 51.9113 48.5334C51.9113 48.3959 51.7995 48.2845 51.6616 48.2845C51.5236 48.2845 51.4118 48.3959 51.4118 48.5334C51.4118 48.6709 51.5236 48.7823 51.6616 48.7823ZM50.4196 49.7778C50.4196 49.9153 50.3077 50.0267 50.1698 50.0267C50.0319 50.0267 49.92 49.9153 49.92 49.7778C49.92 49.6404 50.0319 49.5289 50.1698 49.5289C50.3077 49.5289 50.4196 49.6404 50.4196 49.7778ZM47.1864 52.0178C47.3243 52.0178 47.4361 51.9064 47.4361 51.7689C47.4361 51.6315 47.3243 51.52 47.1864 51.52C47.0484 51.52 46.9366 51.6315 46.9366 51.7689C46.9366 51.9064 47.0484 52.0178 47.1864 52.0178ZM39.7281 55.0044C39.866 55.0044 39.9779 54.893 39.9779 54.7556C39.9779 54.6181 39.866 54.5067 39.7281 54.5067C39.5902 54.5067 39.4783 54.6181 39.4783 54.7556C39.4783 54.893 39.5902 55.0044 39.7281 55.0044ZM37.9891 55.2533C37.9891 55.3908 37.8773 55.5022 37.7394 55.5022C37.6014 55.5022 37.4896 55.3908 37.4896 55.2533C37.4896 55.1159 37.6014 55.0045 37.7394 55.0045C37.8773 55.0045 37.9891 55.1159 37.9891 55.2533ZM35.7503 55.7511C35.8883 55.7511 36.0001 55.6397 36.0001 55.5022C36.0001 55.3648 35.8883 55.2533 35.7503 55.2533C35.6124 55.2533 35.5006 55.3648 35.5006 55.5022C35.5006 55.6397 35.6124 55.7511 35.7503 55.7511ZM34.0113 55.7511C34.0113 55.8886 33.8995 56 33.7615 56C33.6236 56 33.5118 55.8886 33.5118 55.7511C33.5118 55.6137 33.6236 55.5022 33.7615 55.5022C33.8995 55.5022 34.0113 55.6137 34.0113 55.7511ZM31.7725 56C31.9104 56 32.0222 55.8886 32.0222 55.7511C32.0222 55.6137 31.9104 55.5022 31.7725 55.5022C31.6345 55.5022 31.5227 55.6137 31.5227 55.7511C31.5227 55.8886 31.6345 56 31.7725 56ZM30.0335 55.5022C30.0335 55.6397 29.9217 55.7511 29.7837 55.7511C29.6458 55.7511 29.534 55.6397 29.534 55.5022C29.534 55.3648 29.6458 55.2533 29.7837 55.2533C29.9217 55.2533 30.0335 55.3648 30.0335 55.5022ZM27.7946 55.2533C27.9326 55.2533 28.0444 55.1419 28.0444 55.0045C28.0444 54.867 27.9326 54.7556 27.7946 54.7556C27.6567 54.7556 27.5449 54.867 27.5449 55.0045C27.5449 55.1419 27.6567 55.2533 27.7946 55.2533ZM25.8072 54.5067C25.8072 54.6441 25.6954 54.7556 25.5574 54.7556C25.4195 54.7556 25.3077 54.6441 25.3077 54.5067C25.3077 54.3692 25.4195 54.2578 25.5574 54.2578C25.6954 54.2578 25.8072 54.3692 25.8072 54.5067ZM23.5684 54.0089C23.7063 54.0089 23.8181 53.8975 23.8181 53.76C23.8181 53.6226 23.7063 53.5111 23.5684 53.5111C23.4304 53.5111 23.3186 53.6226 23.3186 53.76C23.3186 53.8975 23.4304 54.0089 23.5684 54.0089ZM22.0779 53.0134C22.0779 53.1508 21.9661 53.2622 21.8281 53.2622C21.6902 53.2622 21.5784 53.1508 21.5784 53.0134C21.5784 52.8759 21.6902 52.7645 21.8281 52.7645C21.9661 52.7645 22.0779 52.8759 22.0779 53.0134ZM20.0879 52.5156C20.2258 52.5156 20.3377 52.4042 20.3377 52.2667C20.3377 52.1292 20.2258 52.0178 20.0879 52.0178C19.95 52.0178 19.8381 52.1292 19.8381 52.2667C19.8381 52.4042 19.95 52.5156 20.0879 52.5156ZM41.967 54.2578C41.967 54.3952 41.8551 54.5067 41.7172 54.5067C41.5793 54.5067 41.4674 54.3952 41.4674 54.2578C41.4674 54.1203 41.5793 54.0089 41.7172 54.0089C41.8551 54.0089 41.967 54.1203 41.967 54.2578ZM56.3852 43.0579C56.5232 43.0579 56.635 42.9465 56.635 42.809C56.635 42.6715 56.5232 42.5601 56.3852 42.5601C56.2473 42.5601 56.1355 42.6715 56.1355 42.809C56.1355 42.9465 56.2473 43.0579 56.3852 43.0579ZM45.6959 52.7645C45.6959 52.9019 45.5841 53.0134 45.4462 53.0134C45.3082 53.0134 45.1964 52.9019 45.1964 52.7645C45.1964 52.627 45.3082 52.5156 45.4462 52.5156C45.5841 52.5156 45.6959 52.627 45.6959 52.7645ZM48.6781 51.0223C48.8161 51.0223 48.9279 50.9108 48.9279 50.7734C48.9279 50.6359 48.8161 50.5245 48.6781 50.5245C48.5402 50.5245 48.4284 50.6359 48.4284 50.7734C48.4284 50.9108 48.5402 51.0223 48.6781 51.0223ZM54.3974 45.7956C54.3974 45.9331 54.2856 46.0445 54.1477 46.0445C54.0097 46.0445 53.8979 45.9331 53.8979 45.7956C53.8979 45.6582 54.0097 45.5468 54.1477 45.5468C54.2856 45.5468 54.3974 45.6582 54.3974 45.7956Z" fill="black"/>
</svg>
