<svg width="30" height="33" viewBox="0 0 30 33" fill="none" xmlns="http://www.w3.org/2000/svg">
<path d="M25.5502 2.47233C23.9364 0.752449 20.9394 0 17.1931 0H6.18475C5.43549 0 4.74387 0.537463 4.6286 1.23617L0.0177818 28.3243C-0.0974886 28.8618 0.363593 29.3455 0.939945 29.3455H7.7409L9.46995 19.2412L9.41232 19.5637C9.52759 18.865 10.1616 18.3275 10.9685 18.3275H14.196C20.5359 18.3275 25.4925 15.9089 26.9334 8.97564C26.9911 8.76065 26.9911 8.54567 27.0487 8.38443C26.8758 8.27693 26.8758 8.27693 27.0487 8.38443C27.4521 5.8046 27.0487 4.08472 25.5502 2.47233Z" fill="#263B80"/>
<path d="M27.0486 8.38428C26.991 8.59926 26.991 8.7605 26.9333 8.97548C25.4925 15.9087 20.5358 18.3273 14.1959 18.3273H10.9684C10.2191 18.3273 9.52748 18.8647 9.41221 19.5634L7.2797 32.0862C7.22206 32.5699 7.56788 32.9999 8.08659 32.9999H13.7925C14.4841 32.9999 15.0605 32.5162 15.1757 31.925L15.2334 31.6562L16.3284 25.3142L16.3861 24.938C16.5013 24.2931 17.0777 23.8631 17.7693 23.8631H18.6339C24.1668 23.8631 28.4895 21.767 29.7575 15.6937C30.2762 13.1677 29.988 11.0178 28.6048 9.56669C28.1437 9.08297 27.625 8.70675 27.0486 8.38428Z" fill="#139AD6"/>
<path d="M25.4924 7.84676C25.2618 7.79301 25.0313 7.73927 24.8008 7.68552C24.5702 7.63177 24.3397 7.57802 24.0515 7.57802C23.187 7.41678 22.2072 7.36304 21.2274 7.36304H12.6397C12.4091 7.36304 12.2362 7.41678 12.0633 7.47053C11.6599 7.63177 11.3717 8.008 11.3141 8.43797L9.46974 19.2411L9.41211 19.5636C9.52738 18.8649 10.1614 18.3274 10.9683 18.3274H14.1958C20.5357 18.3274 25.4924 15.9088 26.9333 8.97544C26.9909 8.76045 26.9909 8.54547 27.0485 8.38423C26.7027 8.22299 26.2993 8.06175 25.8382 7.90051C25.7229 7.90051 25.6077 7.84676 25.4924 7.84676Z" fill="#232C65"/>
<path d="M17.1346 0H6.18393C5.43468 0 4.74305 0.537457 4.62778 1.23615L1.97656 16.7149L19.7282 0.161237C18.9213 0.0537457 18.0568 0 17.1346 0Z" fill="#2A4DAD"/>
<path d="M29.122 10.3191C28.9491 10.0504 28.8338 9.78167 28.6033 9.51294C28.1998 9.08297 27.6235 8.70675 27.0471 8.38428C26.9895 8.59926 26.9895 8.7605 26.9318 8.97548C25.491 15.9087 20.5343 18.3272 14.1945 18.3272H10.9669C10.2176 18.3272 9.526 18.8647 9.41073 19.5634L7.56641 30.42L29.122 10.3191Z" fill="#0D7DBC"/>
<path d="M0.939359 29.3453H7.74032L9.41175 19.5635C9.41175 19.4022 9.46938 19.2947 9.52702 19.1873L0.0748298 28.0016L0.0171946 28.3241C-0.0404407 28.8616 0.363006 29.3453 0.939359 29.3453Z" fill="#232C65"/>
<path d="M15.0614 0H6.18559C5.95505 0 5.78215 0.0537461 5.60924 0.107492L4.74471 0.913683C4.68708 1.02118 4.62944 1.12867 4.62944 1.23616L2.90039 11.3404L15.0614 0Z" fill="#436BC4"/>
<path d="M29.7583 15.6401C29.9312 14.834 29.9889 14.0815 29.9889 13.3291L18.75 23.8094C24.2254 23.7557 28.4904 21.6596 29.7583 15.6401Z" fill="#0CB2ED"/>
<path d="M15.2354 31.6562L16.1575 26.2817L8.95312 32.9998H13.8521C14.5437 32.9998 15.1201 32.5161 15.2354 31.9249V31.6562Z" fill="#0CB2ED"/>
<g opacity="0.6">
<g opacity="0.6">
<path opacity="0.6" d="M26.7012 9.83519L29.9864 12.8987C29.9864 12.5224 29.8711 12.1462 29.8135 11.77L26.9317 9.08276C26.8164 9.35149 26.7588 9.56647 26.7012 9.83519Z" fill="#33E2FF"/>
</g>
<g opacity="0.6">
<path opacity="0.6" d="M25.8966 12.0928C25.7813 12.3078 25.6661 12.5227 25.5508 12.7377L29.5276 16.4462C29.5852 16.1775 29.6429 15.9088 29.7005 15.64L25.8966 12.0928Z" fill="#33E2FF"/>
</g>
<g opacity="0.6">
<path opacity="0.6" d="M28.3725 19.2948C28.4878 19.0798 28.603 18.8649 28.7183 18.6499L24.338 14.5652C24.1651 14.7264 24.0499 14.9414 23.877 15.1026L28.3725 19.2948Z" fill="#33E2FF"/>
</g>
<g opacity="0.6">
<path opacity="0.6" d="M21.457 16.8225L26.4713 21.498C26.6442 21.3368 26.8171 21.1755 26.99 21.0143L22.091 16.4463C21.8605 16.5538 21.6876 16.6613 21.457 16.8225Z" fill="#33E2FF"/>
</g>
<g opacity="0.6">
<path opacity="0.6" d="M18.4023 17.8973L23.8777 23.003C24.1082 22.8955 24.3387 22.788 24.5693 22.6805L19.2092 17.6824C18.9211 17.7361 18.6905 17.8436 18.4023 17.8973Z" fill="#33E2FF"/>
</g>
<g opacity="0.6">
<path opacity="0.6" d="M20.4188 23.7554C20.707 23.7017 21.0528 23.7017 21.341 23.6479L15.5775 18.2734C15.2316 18.2734 14.9435 18.3272 14.5977 18.3272L20.4188 23.7554Z" fill="#33E2FF"/>
</g>
<g opacity="0.6">
<path opacity="0.6" d="M11.43 18.3274H10.9689C10.796 18.3274 10.6231 18.3811 10.5078 18.3811L16.7324 24.239C16.9053 24.0777 17.1359 23.9165 17.3664 23.8628L11.43 18.3274Z" fill="#33E2FF"/>
</g>
<g opacity="0.6">
<path opacity="0.6" d="M9.12305 21.1219L15.924 27.4639L16.0969 26.604L9.29595 20.262L9.12305 21.1219Z" fill="#33E2FF"/>
</g>
<g opacity="0.6">
<path opacity="0.6" d="M8.54688 24.5079L15.3479 30.85L15.5208 30.0438L8.71978 23.7017L8.54688 24.5079Z" fill="#33E2FF"/>
</g>
<g opacity="0.6">
<path opacity="0.6" d="M8.14261 27.0876L8.02734 27.9475L13.4451 32.9995H13.8485C14.0214 32.9995 14.1943 32.9457 14.3672 32.892L8.14261 27.0876Z" fill="#33E2FF"/>
</g>
<g opacity="0.6">
<path opacity="0.6" d="M7.39453 31.3335L9.18126 32.9994H10.2187L7.56744 30.5273L7.39453 31.3335Z" fill="#33E2FF"/>
</g>
</g>
</svg>
