<svg width="38" height="38" viewBox="0 0 38 38" fill="none" xmlns="http://www.w3.org/2000/svg">
<circle cx="19" cy="19" r="19" fill="#82FFE1"/>
<path d="M30 12.1302C29.1906 12.4923 28.3214 12.7367 27.4075 12.8454C28.3393 12.2832 29.0551 11.3929 29.3928 10.3323C28.5201 10.8522 27.5546 11.2316 26.5266 11.4345C25.7027 10.5518 24.5296 10 23.2306 10C20.7377 10 18.7181 12.034 18.7181 14.5436C18.7181 14.8995 18.7573 15.247 18.8343 15.5793C15.083 15.3896 11.7574 13.5806 9.53076 10.8315C9.14291 11.503 8.9201 12.2832 8.9201 13.1161C8.9201 14.6932 9.71712 16.0833 10.9274 16.8988C10.1882 16.8746 9.49225 16.6711 8.88366 16.3305C8.88297 16.3492 8.88297 16.3692 8.88297 16.3872C8.88297 18.5895 10.4385 20.4262 12.5036 20.8436C12.1253 20.9468 11.7265 21.0028 11.3146 21.0028C11.023 21.0028 10.7411 20.9745 10.466 20.9218C11.0395 22.726 12.7071 24.04 14.6814 24.0774C13.1376 25.2958 11.1915 26.0235 9.07689 26.0235C8.71243 26.0235 8.35278 26.002 8 25.9598C9.997 27.2475 12.3695 28 14.9187 28C23.2202 28 27.7609 21.0762 27.7609 15.0712C27.7609 14.8745 27.7554 14.6779 27.7472 14.4827C28.6295 13.8423 29.3942 13.0427 30 12.1302Z" fill="#3B4040"/>
</svg>
