<svg width="1520" height="3651" viewBox="0 0 1520 3651" fill="none" xmlns="http://www.w3.org/2000/svg">
<path opacity="0.4" d="M0 3587.5H573.129M1520 3587.5H1210.01M713.393 3165.65L856.5 3447.32M713.393 3165.65H999.248M713.393 3165.65L642.551 3026.45L785.478 2746.63L927.508 3025.03M959.477 3650L856.5 3447.32M115.585 3650L183.75 3517.9M201.341 3483.81L183.941 3449.57M201.341 3483.81L183.75 3517.9M201.341 3483.81L285.854 3650M201.341 3483.81L217.621 3445.46M0 3527.85L111.856 3307.68L183.941 3449.57M82.0278 3650L183.941 3449.57M0 3517.9H183.75M222.469 3650L395.225 3306.26M395.225 3306.26H146.656L217.621 3445.46M395.225 3306.26H430.025M321.897 3650L217.621 3445.46M217.621 3445.46H502.11M502.11 3445.46L430.025 3306.26M502.11 3445.46L400.196 3650M502.11 3445.46L573.129 3587.5M430.025 3306.26L257.269 3650M604.023 3649.29L573.129 3587.5M538.152 3445.46L434.996 3650M538.152 3445.46L608.994 3587.5M538.152 3445.46H820.278M573.129 3587.5L540.638 3650M573.129 3587.5H608.994M608.994 3587.5L576.68 3650M608.994 3587.5L640.065 3650M608.994 3587.5H891.12M820.278 3445.46L719.607 3650M820.278 3445.46L953.9 3182.69M1520 3182.69H1378.94M754.407 3650L856.5 3447.32M971.905 3218.2L953.9 3182.69M971.905 3218.2L857.432 3445.46M971.905 3218.2L1095.34 3463.22M953.9 3182.69L1096.19 2902.87H953.36M953.9 3182.69H1237.25M953.9 3182.69H811.578M1113.59 3499.44H971.356M1113.59 3499.44H1520L1493.84 3447.59M1113.59 3499.44L1140.93 3445.46M1113.59 3499.44L1095.34 3463.22M688.573 3499.44L546.852 3218.2H830.221M688.573 3499.44L830.221 3218.2M688.573 3499.44H971.356M830.221 3218.2L953.262 3462.51M830.221 3218.2L811.578 3182.69M830.221 3218.2L927.508 3025.03M953.262 3462.51L1236.63 2902.87L1378.94 3182.69M953.262 3462.51L891.12 3587.5M860.049 3650L891.12 3587.5M1378.94 3182.69L1236.63 3461.09M1378.94 3182.69H1237.25M1236.63 3461.09L1112.66 3216.78M1236.63 3461.09L1331.71 3650M934.62 2865.94H794.178M934.62 2865.94L953.36 2902.87M934.62 2865.94L794.178 3144.34L652.494 2865.94M934.62 2586.12L794.178 2865.94M934.62 2586.12H792.935M934.62 2586.12L917.22 2552.03M794.178 2865.94L775.536 2831.85M794.178 2865.94H652.494M896.092 3650L971.356 3499.44M1112.66 3216.78L971.356 3499.44M1112.66 3216.78L953.36 2902.87M856.5 3447.32L857.432 3445.46M857.432 3445.46H1140.93M1140.93 3445.46L1254.03 3219.62L1414.13 3534.63M1472.77 3650L1414.13 3534.63M891.12 3587.5L923.434 3650M891.12 3587.5H1210.01M971.356 3499.44L988.927 3533.53M1048.96 3650L988.927 3533.53M988.927 3533.53L928.406 3650M1520 3165.65H1351.59L1422.54 3306.26M1095.34 3463.22L1237.25 3182.69M1384.6 3305.55L1317.42 3165.65H1033.61M1384.6 3305.55H1353.46M1384.6 3305.55L1386.31 3309.11M1104.89 3305.55L1246.57 3026.45L1175.73 2886.54M1104.89 3305.55L1033.61 3165.65M1104.89 3305.55H1353.46M961.962 3025.03L1104.89 2746.63L1175.73 2886.54M961.962 3025.03L1033.61 3165.65M961.962 3025.03L820.278 2746.63M1175.73 2886.54L1033.61 3165.65M1033.61 3165.65H999.248M1178.22 3650L1210.01 3587.5M1353.46 3305.55L1210.01 3587.5M1386.31 3309.11L1213.02 3650M1386.31 3309.11L1457.24 3445.46M1210.01 3587.5L1242.85 3650M1279.51 3650L1174.49 3445.46H1457.24M1457.24 3445.46L1520 3568.33M1422.54 3306.26H1520M1422.54 3306.26L1493.84 3447.59M1319.9 3650L1520 3255.13M1355.94 3650L1414.13 3534.63M1520 3324.73L1414.13 3534.63M1414.13 3534.63H1520L1460.34 3650M1497.63 3650L1520 3606.68M1393.85 3650L1493.84 3447.59M1493.84 3447.59H1520M999.248 3165.65L927.508 3025.03M811.578 3182.69H528.209L386.525 2902.87H953.36M811.578 3182.69L953.36 2902.87M820.278 2746.63L775.536 2831.85M820.278 2746.63L917.22 2552.03M775.536 2831.85L474.581 2236.71M652.494 2865.94L792.935 2586.12M652.494 2865.94H510.809M792.935 2586.12H509.567L367.882 2865.94H510.809M917.22 2552.03L776.778 2270.8M776.778 2270.8L492.788 2830.41M776.778 2270.8H633.65M0 2270.8H67.7351M510.809 2865.94L492.788 2830.41M49.7138 1956.89H0M49.7138 1956.89H123.903M49.7138 1956.89L332.855 2515.1M403.925 2236.71L262.24 1956.89H189.534M403.925 2236.71H334.325M403.925 2236.71H474.581M0 2236.71H50.3352M616.451 2236.71L474.767 2513.68L351.611 2270.8M616.451 2236.71L633.65 2270.8M616.451 2236.71H474.581M334.325 2236.71L351.611 2270.8M334.325 2236.71H264.726M268.455 1491L526.507 2000.92M988.062 2356.02L846.378 2633L686.275 2316.63M988.062 2356.02L846.378 2074.78M988.062 2356.02H1130.99L986.819 2074.78M988.062 2356.02H845.04M846.378 2074.78H986.819M846.378 2074.78L563.009 2631.58L505.838 2520.79M846.378 2074.78H703.442M986.819 2074.78L845.04 2356.02M136.713 2356.02L333.083 1956.89L474.581 2236.71M136.713 2356.02L0 2081.88M136.713 2356.02H279.33M0 2074.78H421.226M505.838 2520.79L492.167 2552.03L635.094 2829.01L775.536 2552.03M505.838 2520.79L421.946 2356.02M505.838 2520.79L633.65 2270.8M775.536 2552.03H351.587M775.536 2552.03L633.65 2270.8M367.882 2110.29L261.17 2319.8M367.882 2110.29L510.91 2391.53M367.882 2110.29L626.485 1598.95M681.079 1491L626.485 1598.95M367.882 2391.53L510.809 2114.55M367.882 2391.53L651.251 2390.59M367.882 2391.53L510.809 2672.77L651.251 2390.59M510.809 2114.55L651.251 2390.59M510.809 2114.55L687.294 1759.45M651.251 2390.59L794.178 2390.11L652.494 2669.93L510.91 2391.53M421.946 2356.02L563.885 2074.78M421.946 2356.02H279.33M421.946 2356.02H563.679M563.885 2074.78L686.275 2316.63M563.885 2074.78H421.226M563.885 2074.78H703.442M563.885 2074.78L526.507 2000.92M351.587 2552.03L492.788 2830.41M351.587 2552.03H209.351M351.587 2552.03L492.63 2270.8M351.587 2552.03L332.855 2515.1M0 2418.52L67.1137 2552.03H209.351M125.527 1491L225.576 1688.52M845.04 2356.02L704.693 2634.42L563.679 2356.02M845.04 2356.02H563.679M845.04 2356.02L703.442 2074.78M409.518 1491L685.563 2039.27M686.275 2316.63L828.978 2039.27L687.294 1759.45M687.294 1759.45H403.925M687.294 1759.45H828.356M120.556 1759.45L243.598 2000.92L500.867 1491L555.502 1600.37M120.556 1759.45H261.505M120.556 1759.45L102.535 1723.94M409.518 1881.61H695.993L555.502 1600.37M409.518 1881.61L555.502 1600.37M409.518 1881.61L339.272 1740.99M555.502 1600.37H306.983M555.502 1600.37L589.69 1600.24M306.983 1600.37L361.668 1491M306.983 1600.37L123.903 1956.89M101.292 2000.92L0 1802.07M101.292 2000.92L123.903 1956.89M101.292 2000.92L120.52 2039.27M279.33 2356.02L421.226 2074.78M279.33 2356.02L261.17 2319.8M421.226 2074.78L563.679 2356.02M421.226 2074.78L385.253 2003.76M351.611 2270.8L209.351 2552.03M351.611 2270.8H67.7351M351.611 2270.8H492.63M209.351 2552.03L67.7351 2270.8M50.3352 2236.71L0 2135.86M50.3352 2236.71L189.534 1956.89M50.3352 2236.71H264.726M189.534 1956.89H123.903M123.903 1956.89L264.726 2236.71M261.17 2319.8L120.52 2039.27M405.789 2321.93L262.24 2039.27L403.925 1759.45M403.925 1759.45H261.505M120.52 2039.27H685.563M120.52 2039.27L261.505 1759.45M633.65 2270.8H492.63M332.855 2515.1L474.581 2236.71M510.91 2391.53L685.563 2039.27M685.563 2039.27L703.442 2074.78M685.563 2039.27H969.419M685.563 2039.27L828.356 1759.45M563.679 2356.02L703.442 2074.78M703.442 2074.78L846.378 1794.96M846.378 1794.96L828.356 1759.45M846.378 1794.96L969.419 2039.27M828.356 1759.45H1111.1M969.419 2039.27H1111.1L1251.55 1759.45H1111.1M969.419 2039.27L1049.97 1880.19M1111.1 1759.45L1049.97 1880.19M1049.97 1880.19H1332.95L1262.72 1740.99M1049.97 1880.19L979.376 1740.99M1136.58 1491L1262.72 1740.99M852.592 1491L907.339 1598.95M732.036 1881.61H1014.78L871.856 1598.95M732.036 1881.61L589.69 1600.24M732.036 1881.61L811.578 1723.94M534.424 1491L589.69 1600.24M871.856 1598.95H907.339M871.856 1598.95H626.485M907.339 1598.95L979.376 1740.99M907.339 1598.95L965.691 1491M692.265 1491L811.578 1723.94M811.578 1723.94L927.163 1491M811.578 1723.94H951.398L1067.6 1491M811.578 1723.94H667.849M0 1723.94H102.535M0 1740.99H22.5242M1262.72 1740.99H979.376M526.507 2000.92L667.849 1723.94M786.721 1491L667.849 1723.94M667.849 1723.94L552.445 1491M667.849 1723.94H102.535M645.037 1491L589.69 1600.24M385.253 2003.76L589.69 1600.24M385.253 2003.76L261.505 1759.45M467.931 1491L339.272 1740.99M339.272 1740.99H22.5242M339.272 1740.99L269.002 1600.32M339.272 1740.99H979.376M94.4563 1881.61H377.204L234.898 1600.32M94.4563 1881.61L22.5242 1740.99M94.4563 1881.61L234.898 1600.32M0 1696.96L22.5242 1740.99M22.5242 1740.99L148.52 1491M234.898 1600.32L179.591 1491L84.5135 1685.59L0 1519.41M234.898 1600.32H0M234.898 1600.32H269.002M269.002 1600.32L214.391 1491L102.535 1723.94M269.002 1600.32L225.576 1688.52M269.002 1600.32L325.625 1491M225.576 1688.52L261.505 1759.45M979.376 1740.99L1104.89 1491M1369.62 1880.19H1520M1369.62 1880.19L1512.54 1601.79M1369.62 1880.19L1298.94 1740.99M1172 1491L1226.82 1598.95M1512.54 1601.79L1455.99 1491M1512.54 1601.79L1520 1620.26M1298.94 1740.99H1520M1298.94 1740.99L1425.54 1491M1298.94 1740.99L1226.82 1598.95M1226.82 1598.95L1282.62 1491M1226.82 1598.95H945.805L1000.49 1491M0 1644.4L78.2993 1491M0 1576.22L43.4996 1491M0 1508.04L8.69992 1491M1520 1547.82L1511.42 1530.77M1491.41 1491L1511.42 1530.77M1511.42 1530.77H1520M1511.42 1530.77L1520 1512.31" stroke="url(#paint0_linear_497_701)" stroke-width="3"/>
<path d="M0 0V415.837H27.771V383.314M27.771 0V383.314M27.771 383.314H49.9878V0V457.653H64.799M64.799 457.653L66.6504 0M64.799 457.653V499.469H85.1644V0M151.815 0V555.628L212.911 634.21M212.911 634.21V0M212.911 634.21V719.004M212.911 850.259V719.004M244.385 0V678.349L212.911 719.004M301.778 0V453.007H327.698V0M390.646 0V594.717L468.404 692.288M468.404 692.288V938.538M468.404 692.288V0M468.404 985V938.538M468.404 938.538L494.324 906.014V0M570.231 0V176.557L599.854 211.403M599.854 211.403V0M599.854 211.403V318.267L622.071 346.144M622.071 346.144V414.676L659.099 369.375M622.071 346.144V0M659.099 369.375V676.026L692.424 717.842M659.099 369.375V0M692.424 717.842V741.073M692.424 717.842V313.62M692.424 0V313.62M692.424 313.62L722.046 350.79V0M751.669 0V882.783H773.885V645.825M773.885 0V645.825M773.885 645.825H788.697V473.915M788.697 0V473.915M788.697 473.915H803.508V446.038M803.508 0V446.038M803.508 446.038L868.307 362.406V0M907.186 436.745V415.837M907.186 0V415.837M907.186 415.837L953.471 357.759M953.471 357.759V367.052L1020.12 450.684M953.471 357.759V0M1020.12 450.684V0M1020.12 450.684V666.733M1020.12 691.126V666.733M1020.12 666.733L1075.66 594.717V0M1160.83 0V466.946L1207.11 525.024M1207.11 525.024V782.889L1247.84 831.675M1207.11 525.024V0M1247.84 831.675V964.092M1247.84 831.675V796.828M1247.84 0V204.434M1247.84 204.434L1281.17 162.618V0M1247.84 204.434V796.828M1247.84 796.828L1345.97 671.38V434.422M1345.97 0V434.422M1345.97 434.422L1407.06 511.085V0M1455.2 0V383.314H1481.12M1481.12 383.314V0M1481.12 383.314V420.484M1481.12 473.915V420.484M1481.12 420.484L1501.49 394.929M1520 0V371.698L1501.49 394.929M1501.49 0V394.929" stroke="url(#paint1_linear_497_701)" stroke-opacity="0.8" stroke-width="2"/>
<defs>
<linearGradient id="paint0_linear_497_701" x1="760.502" y1="1491" x2="760.502" y2="3650" gradientUnits="userSpaceOnUse">
<stop offset="0.276127" stop-color="#09B4AA" stop-opacity="0.6"/>
<stop offset="1" stop-color="#656565" stop-opacity="0.6"/>
</linearGradient>
<linearGradient id="paint1_linear_497_701" x1="760" y1="985" x2="760" y2="0" gradientUnits="userSpaceOnUse">
<stop offset="0.283474" stop-color="#6AFFF6"/>
<stop offset="1" stop-color="#646363"/>
</linearGradient>
</defs>
</svg>
