<svg width="1520" height="3542" viewBox="0 0 1520 3542" fill="none" xmlns="http://www.w3.org/2000/svg">
<path fill-rule="evenodd" clip-rule="evenodd" d="M-140.651 908.338C-144.179 906.384 -148.981 907.951 -151.568 911.981C-154.246 916.153 -153.535 921.385 -149.979 923.667C-146.424 925.949 -141.371 924.417 -138.693 920.245C-136.354 916.602 -136.6 912.151 -139.067 909.561L-40.7434 775.921L39.8881 732.52L119.201 689.829L153.056 930.333C151.395 931.069 149.866 932.35 148.749 934.089C146.071 938.261 146.782 943.493 150.338 945.775C153.893 948.057 158.946 946.525 161.624 942.353C163.243 939.831 163.624 936.921 162.885 934.51L431.059 662.972C434.156 664.433 438.098 663.337 440.689 660.348L721.061 815.712C718.725 819.799 719.512 824.731 722.935 826.928C726.49 829.21 731.543 827.678 734.221 823.506C736.744 819.577 736.259 814.707 733.224 812.247L781.779 745.881L837.449 807.258C837.196 807.568 836.957 807.897 836.734 808.244C834.056 812.416 834.767 817.648 838.323 819.93C841.878 822.212 846.931 820.68 849.609 816.508C852.287 812.336 851.576 807.104 848.021 804.822C847.708 804.621 847.384 804.45 847.051 804.307L893.138 626.736L960.339 589.21L981.893 587.164C981.691 589.995 982.802 592.671 985.081 594.134C988.636 596.416 993.689 594.884 996.367 590.712C997.129 589.525 997.617 588.252 997.843 586.986L1183.79 600.152C1183.1 603.44 1184.17 606.732 1186.8 608.417C1190.35 610.7 1195.41 609.168 1198.08 604.996C1200.27 601.596 1200.2 597.493 1198.17 594.855L1275.21 523.39L1338.32 602.354C1337.71 602.929 1337.15 603.597 1336.66 604.351C1333.99 608.523 1334.7 613.755 1338.25 616.037C1341.81 618.319 1346.86 616.787 1349.54 612.615C1351.98 608.807 1351.6 604.116 1348.82 601.591L1375.71 550.604L1479.5 617.223C1477.93 621.029 1478.88 625.237 1481.96 627.22C1485.52 629.502 1490.57 627.97 1493.25 623.798C1495.93 619.626 1495.22 614.394 1491.66 612.112C1491.03 611.704 1490.34 611.418 1489.64 611.247L1500.08 321.351L1539.45 482.581L1541.39 482.106L1501.97 320.675C1503.81 319.982 1505.53 318.629 1506.75 316.728C1507.53 315.502 1508.03 314.185 1508.24 312.879L1573.42 296.339L1572.93 294.401L1508.35 310.788C1508.2 308.427 1507.11 306.291 1505.16 305.041C1501.6 302.759 1496.55 304.291 1493.87 308.463C1492.29 310.929 1491.89 313.766 1492.56 316.145L1221.79 441.644C1221.42 439.693 1220.38 437.976 1218.72 436.907C1215.16 434.625 1210.11 436.157 1207.43 440.329C1205.75 442.955 1205.4 446.002 1206.27 448.468L911.573 571.45C911.295 569.316 910.226 567.417 908.435 566.268C904.88 563.986 899.827 565.518 897.149 569.69C896.821 570.2 896.544 570.726 896.317 571.261L809.115 545.13C809.501 544.705 809.86 544.239 810.184 543.734C812.862 539.562 812.151 534.33 808.596 532.048C805.04 529.766 799.987 531.298 797.309 535.47C795.682 538.004 795.306 540.93 796.059 543.348L785.13 546.753L620.542 509.452C621.256 506.151 620.183 502.837 617.547 501.145C613.992 498.863 608.939 500.395 606.261 504.567C604.392 507.478 604.173 510.905 605.42 513.486L556.253 554.627L419.1 478.768C420.938 474.845 420.049 470.37 416.834 468.307C413.279 466.024 408.226 467.557 405.548 471.729C404.507 473.35 403.978 475.132 403.929 476.838L351.061 483.392L278.643 337.58C279.189 337.045 279.69 336.435 280.127 335.754C282.805 331.582 282.094 326.35 278.538 324.068C274.983 321.786 269.93 323.318 267.252 327.49C265.525 330.18 265.207 333.311 266.153 335.807L112.752 413.679L109.869 407.429C110.704 406.758 111.459 405.927 112.084 404.953C114.762 400.781 114.051 395.549 110.496 393.267C106.941 390.985 101.888 392.517 99.2096 396.689C97.1447 399.906 97.0947 403.753 98.8098 406.392L23.4751 457.638C22.9583 456.814 22.2727 456.102 21.4258 455.559C18.6691 453.789 15.0119 454.313 12.2596 456.582L-56.2157 357.769C-55.5524 357.17 -54.9496 356.465 -54.4346 355.663C-51.7565 351.491 -52.4677 346.259 -56.023 343.977C-59.5782 341.695 -64.6314 343.227 -67.3094 347.399C-69.9874 351.571 -69.2763 356.803 -65.721 359.085C-63.4124 360.567 -60.4722 360.44 -57.9608 359.027L-7.8795 441.448L-91.5035 367.88C-91.1609 367.49 -90.8414 367.067 -90.55 366.613C-87.872 362.441 -88.5831 357.209 -92.1384 354.927C-95.6937 352.645 -100.747 354.177 -103.425 358.349C-106.103 362.521 -105.392 367.753 -101.836 370.035C-99.1795 371.74 -95.6861 371.316 -92.9725 369.251L-4.4016 447.171L11.2235 472.885L-134.251 819.44L-134.81 820.341C-138.354 818.223 -143.283 819.773 -145.915 823.875C-148.593 828.047 -147.882 833.279 -144.327 835.561L-144.269 835.598L-166.056 870.74C-169.547 869.065 -174.127 870.658 -176.631 874.559C-179.309 878.731 -178.598 883.963 -175.043 886.245C-171.488 888.527 -166.435 886.995 -163.757 882.823C-161.838 879.835 -161.659 876.303 -163.018 873.701L-106.52 811.326L-44.8544 778.133L-140.651 908.338ZM845.115 803.805L890.721 628.086L867.504 641.05C869.129 643.684 869.046 647.453 867.017 650.614C864.339 654.786 859.285 656.318 855.73 654.036C853.995 652.922 852.938 651.106 852.621 649.054L782.984 744.233L838.862 805.839C840.72 804.31 842.989 803.576 845.115 803.805ZM997.983 584.991L1184.42 598.192C1184.64 597.695 1184.9 597.206 1185.21 596.731C1186.78 594.286 1189.16 592.748 1191.58 592.353L1196.83 557.602L1018.29 568.917L997.276 581.938C997.702 582.871 997.94 583.91 997.983 584.991ZM996.197 580.253L1014.06 569.185L993.914 570.462L972.701 582.307L982.871 583.557C983.053 583.181 983.26 582.81 983.492 582.448C986.17 578.276 991.223 576.744 994.779 579.026C995.318 579.372 995.791 579.785 996.197 580.253ZM798.898 547.156C798.266 546.75 797.724 546.252 797.275 545.683L792.313 548.381L877.18 567.614L807.329 546.683C804.684 548.475 801.415 548.772 798.898 547.156ZM895.607 573.841L789.651 549.828L673.562 612.95C673.687 613.206 673.798 613.47 673.895 613.741L895.553 575.754C895.504 575.129 895.522 574.487 895.607 573.841ZM895.946 577.716L691.912 612.683L890.548 593.826L899.388 581.744C899.166 581.635 898.949 581.512 898.737 581.376C897.386 580.509 896.446 579.215 895.946 577.716ZM901.981 582.421L894.926 593.411L899.842 592.944L902.57 582.432C902.373 582.436 902.176 582.433 901.981 582.421ZM904.728 582.079L901.96 592.743L959.732 587.259L966.381 583.546L910.711 576.707C910.513 577.13 910.284 577.547 910.023 577.954C908.688 580.034 906.763 581.457 904.728 582.079ZM911.581 573.675L993.335 568.494L1198.87 453.72L911.588 573.611L911.581 573.675ZM1196.5 593.309C1196.58 593.36 1196.65 593.413 1196.73 593.467L1273.96 521.823L1268.35 514.801L1226.98 550.505C1227.94 553.005 1227.62 556.146 1225.89 558.844C1223.21 563.016 1218.16 564.548 1214.6 562.266C1212.7 561.044 1211.61 558.976 1211.42 556.677L1198.87 557.473L1193.62 592.295C1194.63 592.408 1195.61 592.74 1196.5 593.309ZM1208.09 451.297L1021.89 566.685L1197.13 555.579L1212.6 453.073C1211.34 453.056 1210.11 452.715 1209.02 452.015C1208.69 451.801 1208.38 451.56 1208.09 451.297ZM1215.99 452.355L1220.65 546.1C1221.93 546.104 1223.19 546.445 1224.3 547.158C1224.97 547.584 1225.53 548.112 1225.99 548.717L1267.1 513.238L1217.67 451.392C1217.13 451.777 1216.57 452.099 1215.99 452.355ZM1220.36 448.507L1290.17 493.32L1493.28 318.019L1221.91 443.79C1221.81 445.372 1221.3 447.006 1220.36 448.507ZM1347.14 600.485L1374.02 549.52L1298.97 501.346L1276.68 522.026L1339.92 601.145C1342.2 599.756 1344.89 599.452 1347.14 600.485ZM1480.43 615.448C1482.2 612.756 1484.96 611.186 1487.64 611.062L1498.09 321.13C1497.69 321.071 1497.3 320.978 1496.91 320.848L1376.65 548.829L1480.43 615.448ZM1494.81 319.673L1300.49 499.941L1374.96 547.745L1495.14 319.929C1495.03 319.847 1494.92 319.761 1494.81 319.673ZM606.544 515.154L558.129 555.665L629.616 595.204L650.829 588.595L615.338 516.342C612.888 517.616 610.075 517.682 607.849 516.253C607.36 515.939 606.924 515.569 606.544 515.154ZM617.019 515.227L652.762 587.993L781.32 547.94L619.923 511.363C619.704 511.862 619.442 512.354 619.135 512.831C618.535 513.767 617.814 514.57 617.019 515.227ZM418.083 480.491C417.247 481.644 416.223 482.569 415.106 483.236L435.687 646.418C437.201 646.288 438.705 646.612 440.007 647.448C441.002 648.087 441.774 648.956 442.311 649.968L554.608 556.003L418.083 480.491ZM407.136 483.415C407.027 483.345 406.92 483.272 406.816 483.196L366.97 515.426L432.5 647.369C432.9 647.16 433.309 646.983 433.724 646.84L413.199 484.096C411.13 484.749 408.94 484.573 407.136 483.415ZM405.389 481.778C405.103 481.393 404.858 480.977 404.655 480.538L357.286 495.926L366.059 513.59L405.389 481.778ZM441.856 658.708L722.22 814.067C722.945 813.222 723.778 812.527 724.669 811.995L667.477 626.023C665.42 626.661 663.246 626.48 661.454 625.33C659.208 623.888 658.097 621.269 658.258 618.484L442.844 656.389C442.618 657.176 442.29 657.957 441.856 658.708ZM726.504 811.16L669.32 625.212C669.952 624.845 670.556 624.396 671.114 623.871L780.407 744.369L731.487 811.233C729.922 810.616 728.172 810.619 726.504 811.16ZM781.613 742.721L672.438 622.354C672.542 622.209 672.643 622.06 672.74 621.908C673.46 620.786 673.936 619.587 674.176 618.39L853.783 642.951C853.342 643.748 853.019 644.576 852.81 645.408L781.613 742.721ZM674.362 616.397L855.073 641.109C855.764 640.318 856.55 639.66 857.389 639.149L888.969 595.985L674.361 616.358L674.362 616.397ZM860.754 637.936C861.793 637.799 862.833 637.873 863.814 638.177L886.962 602.115L860.754 637.936ZM865.907 639.266C866.002 639.34 866.096 639.417 866.187 639.495L891.417 625.407L899.307 595.004L893.553 595.55L865.624 639.059C865.721 639.126 865.815 639.195 865.907 639.266ZM786.696 549.159L672.428 611.29C672.055 610.887 671.629 610.528 671.152 610.222C668.92 608.789 666.097 608.86 663.643 610.143L653.654 589.809L785.212 548.822L786.696 549.159ZM651.722 590.412L661.964 611.263C661.542 611.613 661.142 612.004 660.769 612.434L632.039 596.544L651.722 590.412ZM629.395 597.367L659.603 614.075C659.17 614.825 658.842 615.605 658.617 616.39L451.175 652.893L629.395 597.367ZM443.205 653.281L626.973 596.027L556.485 557.041L443.033 651.972C443.123 652.397 443.181 652.835 443.205 653.281ZM430.823 648.487L365.377 516.714L333.525 542.479L430.338 648.916C430.411 648.847 430.485 648.779 430.56 648.712C430.647 648.636 430.734 648.56 430.823 648.487ZM429.016 650.435L331.967 543.738L249.127 610.745L427.499 653.527C427.768 652.62 428.174 651.723 428.721 650.87C428.743 650.836 428.764 650.803 428.786 650.77L428.823 650.714C428.886 650.62 428.95 650.527 429.016 650.435ZM427.117 656.816L221.595 638.861C221.336 639.583 220.988 640.295 220.55 640.978C218.985 643.416 216.609 644.952 214.195 645.353L158.593 929.972C159.093 930.142 159.577 930.373 160.036 930.667C160.826 931.174 161.476 931.827 161.979 932.582L429.375 661.831C428.013 660.561 427.243 658.766 427.117 656.816ZM154.992 929.733C155.537 929.635 156.084 929.594 156.625 929.614L212.145 645.414C211.131 645.302 210.15 644.969 209.263 644.4C208.451 643.878 207.787 643.203 207.278 642.421L121.079 688.818L154.992 929.733ZM104.381 584.549L110.222 626.039L72.2595 622.329L100.916 583.38C100.976 583.421 101.037 583.462 101.099 583.502C102.102 584.146 103.226 584.486 104.381 584.549ZM98.8701 581.12C98.8875 581.151 98.9052 581.182 98.923 581.213L60.3672 621.167L33.899 618.58C34.0257 617.724 34.0326 616.873 33.9237 616.057L98.8701 581.12ZM19.5029 614.325C20.8798 612.179 22.8846 610.732 24.9909 610.143L22.6635 575.758L-82.6992 769.42L58.5952 623.003L33.3979 620.541C33.1415 621.239 32.8022 621.928 32.3777 622.589C29.6996 626.761 24.6466 628.293 21.0913 626.011C17.536 623.729 16.8248 618.497 19.5029 614.325ZM26.9753 609.846C27.1806 609.842 27.3853 609.847 27.5889 609.86L43.6229 538.699C43.3577 538.71 43.0932 538.707 42.8305 538.689L24.4462 572.481L26.9753 609.846ZM30.7893 610.903C31.9899 611.673 32.8662 612.78 33.3971 614.07L98.1344 579.245C97.6973 577.483 97.8355 575.491 98.593 573.594L50.9461 534.185L50.9203 534.225C49.6152 536.259 47.746 537.665 45.761 538.308L29.5449 610.278C29.9748 610.44 30.3914 610.647 30.7893 610.903ZM38.0455 525.961C38.9604 524.536 40.1526 523.418 41.4675 522.656L18.5176 484.888L23.8964 564.358L40.2421 537.994C40.0351 537.89 39.8321 537.775 39.6339 537.647C36.0786 535.365 35.3674 530.133 38.0455 525.961ZM43.314 521.844C45.2327 521.25 47.2515 521.369 48.9681 522.322L53.2681 513.175L19.8921 470.368C19.1632 470.828 18.3917 471.176 17.605 471.404L18.2243 480.554L43.314 521.844ZM50.5852 523.583C50.7909 523.803 50.9807 524.035 51.1546 524.279L57.5934 518.723L54.6468 514.944L50.5852 523.583ZM52.0931 526.111C52.1105 526.161 52.1274 526.212 52.1437 526.262L60.8603 522.913L59.4251 521.072L58.8247 520.302L52.0931 526.111ZM52.5228 528.259C52.6122 529.591 52.4009 530.997 51.873 532.356L97.9146 570.438L62.1457 524.562L52.5228 528.259ZM103.441 568.236C102.37 568.771 101.365 569.535 100.503 570.505L64.0972 523.812L74.9648 519.636L78.0321 519.256L103.763 541.713L103.441 568.236ZM109.58 567.779C108.277 567.283 106.849 567.212 105.45 567.52L105.742 543.441L118.681 554.734L109.58 567.779ZM111.844 569.227C111.681 569.067 111.508 568.915 111.326 568.771L120.197 556.057L123.618 559.043L111.844 569.227ZM113.821 572.912C113.664 572.173 113.407 571.469 113.053 570.826L125.14 560.371L132.542 566.831L113.821 572.912ZM113.35 578.179C113.76 577.113 113.975 576.02 114.004 574.956L134.298 568.363L157.744 588.827L113.35 578.179ZM112.28 580.239C112.316 580.187 112.351 580.133 112.385 580.08L112.398 580.06L112.426 580.015L160.994 591.663L207.225 632.014L112.28 580.239ZM110.993 581.815C109.658 583.155 108.036 584.038 106.378 584.389L112.269 626.239L206.432 635.441C206.56 634.998 206.72 634.557 206.914 634.122L110.993 581.815ZM112.556 628.277L206.077 637.416C205.996 638.524 206.116 639.609 206.429 640.606L120.781 686.707L112.556 628.277ZM422.634 654.417L222.082 636.896C222.276 635.505 222.155 634.132 221.735 632.901L247.166 612.331L422.634 654.417ZM244.713 611.743L220.814 631.074C220.324 630.375 219.705 629.769 218.961 629.292C218.466 628.974 217.942 628.73 217.399 628.557L221.576 606.194L244.713 611.743ZM219.629 605.727L215.425 628.235C214.288 628.213 213.126 628.457 212.021 628.94L199.039 600.788L219.629 605.727ZM196.563 600.194L210.28 629.94C209.858 630.246 209.454 630.59 209.073 630.972L165.188 592.669L196.563 600.194ZM161.938 589.833L136.514 567.643L175.684 554.919L195.496 597.882L161.938 589.833ZM134.758 566.111L174.84 553.09L163.068 527.563L126.668 559.05L134.758 566.111ZM197.973 598.476L177.599 554.297L232.569 536.44L219.996 603.758L197.973 598.476ZM176.756 552.468L232.987 534.202L239.517 499.236L188.505 505.56L164.643 526.201L176.756 552.468ZM221.944 604.225L234.735 535.737L304.172 513.18L330.619 542.256L246.674 610.157L221.944 604.225ZM235.153 533.498L302.696 511.557L286.222 493.446L241.6 498.978L235.153 533.498ZM332.177 540.997L306.259 512.502L355.363 496.551L364.466 514.879L332.177 540.997ZM304.783 510.879L354.464 494.74L349.9 485.552L288.652 493.145L304.783 510.879ZM277.042 338.854C276.199 339.391 275.297 339.779 274.38 340.004L251.75 445.543C254.618 447.533 255.511 451.513 254.114 455.173L287.005 491.334L348.957 483.653L277.042 338.854ZM248.71 460.906C250.419 460.179 251.996 458.879 253.14 457.097L253.148 457.083L284.575 491.635L241.985 496.915L248.71 460.906ZM241.164 460.01C241.38 460.193 241.61 460.362 241.853 460.518C243.268 461.426 244.919 461.731 246.564 461.505L239.902 497.173L191.225 503.208L241.164 460.01ZM238.986 456.615C239.186 457.29 239.474 457.927 239.846 458.506L187.656 503.65L156.05 507.568L155.244 505.821L171.476 482.554L238.986 456.615ZM238.709 453.095C238.648 453.602 238.629 454.106 238.651 454.601L173.518 479.627L190.239 455.659L238.709 453.095ZM249.897 444.647C246.56 443.636 242.549 445.274 240.265 448.832C239.803 449.552 239.441 450.304 239.178 451.067L191.69 453.579L270.896 340.047C271.351 340.155 271.816 340.215 272.286 340.23L249.897 444.647ZM268.84 339.176C268.816 339.16 268.792 339.144 268.768 339.129L132.573 456.66L132.594 456.705L189.158 453.713L268.997 339.273C268.944 339.242 268.892 339.209 268.84 339.176ZM267.275 337.775C267.219 337.705 267.164 337.635 267.111 337.563L113.59 415.497L131.701 454.77L267.275 337.775ZM100.148 407.9L29.5967 455.892L96.0613 422.152L102.215 409.062C101.724 408.893 101.249 408.665 100.798 408.375C100.57 408.229 100.353 408.07 100.148 407.9ZM104.253 409.43L98.9641 420.679L105.268 417.479L105.366 409.38C105.164 409.404 104.962 409.42 104.761 409.428C104.591 409.434 104.422 409.435 104.253 409.43ZM107.373 408.877L107.281 416.457L110.967 414.585L108.172 408.523C107.909 408.655 107.642 408.773 107.373 408.877ZM-142.412 836.398L-164.403 871.869C-164.341 871.928 -164.279 871.987 -164.219 872.048L-111.786 814.16L-131.633 824.843C-131.105 827.139 -131.542 829.805 -133.041 832.14C-135.265 835.605 -139.129 837.249 -142.412 836.398ZM24.5575 460.693C24.6337 461.254 24.6551 461.832 24.6204 462.417L78.4709 459.568L94.6763 425.098L24.5575 460.693ZM23.0142 467.245C22.8294 467.533 22.6333 467.808 22.4272 468.07L59.331 500.279L77.5052 461.622L24.2796 464.437C24.0118 465.396 23.5919 466.345 23.0142 467.245ZM15.0392 471.716C14.8566 471.707 14.6749 471.691 14.4942 471.667L13.8945 473.429L15.9685 476.842L15.6218 471.722C15.5811 471.723 15.5403 471.724 15.4997 471.724C15.4627 471.725 15.4257 471.725 15.3886 471.725C15.2719 471.725 15.1554 471.722 15.0392 471.716ZM8.51993 464.584C8.47748 462.953 8.88002 461.229 9.75614 459.626L0.626746 451.595L8.51993 464.584ZM893.833 624.057L901.426 594.803L955.397 589.679L893.833 624.057ZM980.532 585.284L964.674 586.79L969.743 583.959L980.532 585.284ZM1017.66 566.953L997.963 568.201L1176.78 468.346L1017.66 566.953ZM1214.17 456.075L1218.66 546.356C1216.5 546.917 1214.43 548.382 1213.02 550.58C1212.18 551.88 1211.68 553.284 1211.48 554.67L1199.17 555.45L1214.17 456.075ZM1275.43 520.459L1297.24 500.23L1290.35 495.81L1269.86 513.493L1275.43 520.459ZM1298.75 498.825L1291.93 494.447L1457.75 351.322L1298.75 498.825ZM1219.25 450.171L1288.59 494.683L1268.61 511.93L1219.25 450.171ZM789.358 547.711L790.136 547.288L789.023 547.635L789.358 547.711ZM356.387 494.115L403.022 478.966L352.004 485.291L356.387 494.115ZM989.287 570.755L916.308 575.38L969.339 581.894L989.287 570.755ZM153.918 507.721L153.966 507.827L153.833 507.843L153.918 507.721ZM154.846 509.733L152.294 510.049L121.348 554.407L125.146 557.721L162.196 525.673L154.846 509.733ZM152.947 505.617L151.163 508.174L106.102 513.761L106.176 507.644L146.702 492.073L152.947 505.617ZM149.624 510.38L106.077 515.779L105.774 540.814L119.832 553.084L149.624 510.38ZM104.166 508.416L104.098 514.009L82.7087 516.661L104.166 508.416ZM104.192 506.264L77.8044 516.403L70.6148 510.128L104.5 480.886L104.192 506.264ZM104.532 478.216L69.0929 508.799L60.898 501.647L79.7716 461.502L104.751 460.181L104.532 478.216ZM67.5635 510.119L60.0131 503.529L55.6008 512.915L59.1095 517.415L67.5635 510.119ZM80.7372 459.448L97.5791 423.625L105.241 419.735L104.775 458.177L80.7372 459.448ZM106.776 458.071L107.253 418.714L111.806 416.403L130.126 456.13L129.255 456.882L106.776 458.071ZM10.6118 457.715L-2.85115 445.871L-40.2908 384.258L10.6118 457.715ZM-127.534 808.606L5.85015 490.853L-71.6242 718.427L-127.534 808.606ZM-132.468 820.359L-74.4899 726.844L-92.41 779.483L-97.5724 784.833C-99.8826 785.307 -102.128 786.815 -103.629 789.152C-104.33 790.245 -104.799 791.41 -105.045 792.576L-132.939 821.482L-132.468 820.359ZM-130.756 822.1L-105.185 795.602C-104.919 797.758 -103.846 799.679 -102.04 800.839C-101.523 801.171 -100.974 801.422 -100.406 801.596L-107.771 809.728L-130.756 822.1ZM-83.2434 785.628L-89.1316 792.128C-89.1476 793.889 -89.6764 795.739 -90.7537 797.417C-92.5047 800.145 -95.271 801.744 -97.9701 801.886L-102.505 806.893L-42.0876 774.373L-35.0882 764.859L-83.2434 785.628ZM-89.9104 788.503C-89.748 788.84 -89.6105 789.191 -89.4984 789.554L-87.6719 787.538L-89.9104 788.503ZM-94.7479 784.786C-94.5815 784.816 -94.4163 784.852 -94.2525 784.895L-93.9249 783.933L-94.7479 784.786ZM-86.2913 776.023L-91.7887 786.127C-91.523 786.339 -91.2768 786.57 -91.0499 786.816L-84.4344 783.963L61.1099 623.277L-86.2913 776.023ZM-69.8043 719.287L-89.1456 776.1L-87.9186 774.829L22.4116 572.036L22.3209 570.695L-69.8043 719.287ZM-80.0059 782.053L-32.741 761.669L68.5637 623.977L63.6127 623.494L-80.0059 782.053ZM-37.9766 772.16L-31.4511 763.291L18.6203 741.696L-37.9766 772.16ZM-29.1038 760.101L38.9788 730.738L118.904 687.718L110.508 628.076L70.8801 624.204L-29.1038 760.101ZM91.883 592.282L69.9429 622.103L65.2848 621.648L91.883 592.282ZM104.074 516.027L103.795 539.086L80.6953 518.926L104.074 516.027ZM69.0854 511.447L75.6925 517.214L74.476 517.681L60.6535 519.395L60.3407 518.994L69.0854 511.447ZM62.0863 521.233L66.7321 520.657L62.8117 522.163L62.0863 521.233ZM58.4461 502.162L54.2221 511.146L23.3005 471.487L58.4461 502.162ZM13.0541 475.897L16.2618 481.176L22.0892 567.273L-66.9385 710.869L13.0541 475.897ZM24.1943 568.759L24.1281 567.78L29.0168 559.895L24.1943 568.759ZM133.495 458.66L187.707 455.793L170.186 480.907L147.733 489.534L133.495 458.66ZM148.572 491.354L168.144 483.835L154.273 503.716L148.572 491.354ZM131.345 458.774L145.862 490.253L106.202 505.492L106.521 479.142L130.043 458.843L131.345 458.774ZM126.782 459.015L106.553 476.472L106.752 460.075L126.782 459.015ZM156.929 509.475L163.771 524.311L184.937 506.003L156.929 509.475Z" fill="url(#paint0_linear_497_3599)" fill-opacity="0.6"/>
<path opacity="0.2" d="M1517 3478.53H943.871M-3 3478.53H306.986M803.607 3056.87L660.5 3338.41M803.607 3056.87H517.752M803.607 3056.87L874.449 2917.74L731.522 2638.05L589.492 2916.32M557.523 3541L660.5 3338.41M1401.42 3541L1333.25 3408.96M1315.66 3374.89L1333.06 3340.66M1315.66 3374.89L1333.25 3408.96M1315.66 3374.89L1231.15 3541M1315.66 3374.89L1299.38 3336.56M1517 3418.9L1405.14 3198.84L1333.06 3340.66M1434.97 3541L1333.06 3340.66M1517 3408.96H1333.25M1294.53 3541L1121.78 3197.42M1121.78 3197.42H1370.34L1299.38 3336.56M1121.78 3197.42H1086.98M1195.1 3541L1299.38 3336.56M1299.38 3336.56H1014.89M1014.89 3336.56L1086.98 3197.42M1014.89 3336.56L1116.8 3541M1014.89 3336.56L943.871 3478.53M1086.98 3197.42L1259.73 3541M912.977 3540.29L943.871 3478.53M978.848 3336.56L1082 3541M978.848 3336.56L908.006 3478.53M978.848 3336.56H696.722M943.871 3478.53L976.362 3541M943.871 3478.53H908.006M908.006 3478.53L940.32 3541M908.006 3478.53L876.935 3541M908.006 3478.53H625.88M696.722 3336.56L797.393 3541M696.722 3336.56L563.1 3073.91M-3 3073.91H138.063M762.593 3541L660.5 3338.41M545.095 3109.4L563.1 3073.91M545.095 3109.4L659.568 3336.56M545.095 3109.4L421.658 3354.3M563.1 3073.91L420.81 2794.22H563.64M563.1 3073.91H279.747M563.1 3073.91H705.422M403.411 3390.51H545.644M403.411 3390.51H-3L23.1567 3338.69M403.411 3390.51L376.068 3336.56M403.411 3390.51L421.658 3354.3M828.427 3390.51L970.148 3109.4H686.779M828.427 3390.51L686.779 3109.4M828.427 3390.51H545.644M686.779 3109.4L563.738 3353.59M686.779 3109.4L705.422 3073.91M686.779 3109.4L589.492 2916.32M563.738 3353.59L280.369 2794.22L138.063 3073.91M563.738 3353.59L625.88 3478.53M656.951 3541L625.88 3478.53M138.063 3073.91L280.369 3352.18M138.063 3073.91H279.747M280.369 3352.18L404.345 3107.98M280.369 3352.18L185.291 3541M582.38 2757.31H722.822M582.38 2757.31L563.64 2794.22M582.38 2757.31L722.822 3035.57L864.506 2757.31M582.38 2477.62L722.822 2757.31M582.38 2477.62H724.065M582.38 2477.62L599.78 2443.54M722.822 2757.31L741.464 2723.23M722.822 2757.31H864.506M620.908 3541L545.644 3390.51M404.345 3107.98L545.644 3390.51M404.345 3107.98L563.64 2794.22M660.5 3338.41L659.568 3336.56M659.568 3336.56H376.068M376.068 3336.56L262.969 3110.82L102.866 3425.68M44.2281 3541L102.866 3425.68M625.88 3478.53L593.566 3541M625.88 3478.53H306.986M545.644 3390.51L528.073 3424.58M468.038 3541L528.073 3424.58M528.073 3424.58L588.594 3541M-3 3056.87H165.406L94.4602 3197.42M421.658 3354.3L279.747 3073.91M132.397 3196.71L199.584 3056.87H483.393M132.397 3196.71H163.541M132.397 3196.71L130.692 3200.26M412.11 3196.71L270.426 2917.74L341.268 2777.89M412.11 3196.71L483.393 3056.87M412.11 3196.71H163.541M555.038 2916.32L412.11 2638.05L341.268 2777.89M555.038 2916.32L483.393 3056.87M555.038 2916.32L696.722 2638.05M341.268 2777.89L483.393 3056.87M483.393 3056.87H517.752M338.783 3541L306.986 3478.53M163.541 3196.71L306.986 3478.53M130.692 3200.26L303.983 3541M130.692 3200.26L59.7638 3336.56M306.986 3478.53L274.155 3541M237.491 3541L342.511 3336.56H59.7638M59.7638 3336.56L-3 3459.37M94.4602 3197.42H-3M94.4602 3197.42L23.1567 3338.69M197.098 3541L-3 3146.31M161.056 3541L102.866 3425.68M-3 3215.88L102.866 3425.68M102.866 3425.68H-3L56.6566 3541M19.3712 3541L-3 3497.7M123.149 3541L23.1567 3338.69M23.1567 3338.69H-3M517.752 3056.87L589.492 2916.32M705.422 3073.91H988.791L1130.48 2794.22H563.64M705.422 3073.91L563.64 2794.22M696.722 2638.05L741.464 2723.23M696.722 2638.05L599.78 2443.54M741.464 2723.23L1042.42 2128.36M864.506 2757.31L724.065 2477.62M864.506 2757.31H1006.19M724.065 2477.62H1007.43L1149.12 2757.31H1006.19M599.78 2443.54L740.222 2162.44M740.222 2162.44L1024.21 2721.79M740.222 2162.44H883.35M1517 2162.44H1449.26M1006.19 2757.31L1024.21 2721.79M1467.29 1848.67H1517M1467.29 1848.67H1393.1M1467.29 1848.67L1184.14 2406.63M1113.08 2128.36L1254.76 1848.67H1327.47M1113.08 2128.36H1182.67M1113.08 2128.36H1042.42M1517 2128.36H1466.66M900.549 2128.36L1042.23 2405.21L1165.39 2162.44M900.549 2128.36L883.35 2162.44M900.549 2128.36H1042.42M1182.67 2128.36L1165.39 2162.44M1182.67 2128.36H1252.27M1248.55 1383L990.493 1892.69M528.938 2247.62L670.622 2524.47L830.725 2208.25M528.938 2247.62L670.622 1966.51M528.938 2247.62H386.011L530.181 1966.51M528.938 2247.62H671.96M670.622 1966.51H530.181M670.622 1966.51L953.991 2523.05L1011.16 2412.31M670.622 1966.51H813.558M530.181 1966.51L671.96 2247.62M1380.29 2247.62L1183.92 1848.67L1042.42 2128.36M1380.29 2247.62L1517 1973.61M1380.29 2247.62H1237.67M1517 1966.51H1095.77M1011.16 2412.31L1024.83 2443.54L881.906 2720.39L741.464 2443.54M1011.16 2412.31L1095.05 2247.62M1011.16 2412.31L883.35 2162.44M741.464 2443.54H1165.41M741.464 2443.54L883.35 2162.44M1149.12 2002.01L1255.83 2211.42M1149.12 2002.01L1006.09 2283.11M1149.12 2002.01L890.515 1490.9M835.921 1383L890.515 1490.9M1149.12 2283.11L1006.19 2006.26M1149.12 2283.11L865.749 2282.17M1149.12 2283.11L1006.19 2564.22L865.749 2282.17M1006.19 2006.26L865.749 2282.17M1006.19 2006.26L829.706 1651.33M865.749 2282.17L722.822 2281.69L864.506 2561.38L1006.09 2283.11M1095.05 2247.62L953.115 1966.51M1095.05 2247.62H1237.67M1095.05 2247.62H953.321M953.115 1966.51L830.725 2208.25M953.115 1966.51H1095.77M953.115 1966.51H813.558M953.115 1966.51L990.493 1892.69M1165.41 2443.54L1024.21 2721.79M1165.41 2443.54H1307.65M1165.41 2443.54L1024.37 2162.44M1165.41 2443.54L1184.14 2406.63M1517 2310.09L1449.89 2443.54H1307.65M1391.47 1383L1291.42 1580.43M671.96 2247.62L812.307 2525.89L953.321 2247.62M671.96 2247.62H953.321M671.96 2247.62L813.558 1966.51M1107.48 1383L831.437 1931.02M830.725 2208.25L688.022 1931.02L829.706 1651.33M829.706 1651.33H1113.08M829.706 1651.33H688.644M1396.44 1651.33L1273.4 1892.69L1016.13 1383L961.498 1492.32M1396.44 1651.33H1255.49M1396.44 1651.33L1414.47 1615.84M1107.48 1773.43H821.007L961.498 1492.32M1107.48 1773.43L961.498 1492.32M1107.48 1773.43L1177.73 1632.87M961.498 1492.32H1210.02M961.498 1492.32L927.31 1492.19M1210.02 1492.32L1155.33 1383M1210.02 1492.32L1393.1 1848.67M1415.71 1892.69L1517 1693.92M1415.71 1892.69L1393.1 1848.67M1415.71 1892.69L1396.48 1931.02M1237.67 2247.62L1095.77 1966.51M1237.67 2247.62L1255.83 2211.42M1095.77 1966.51L953.321 2247.62M1095.77 1966.51L1131.75 1895.53M1165.39 2162.44L1307.65 2443.54M1165.39 2162.44H1449.26M1165.39 2162.44H1024.37M1307.65 2443.54L1449.26 2162.44M1466.66 2128.36L1517 2027.56M1466.66 2128.36L1327.47 1848.67M1466.66 2128.36H1252.27M1327.47 1848.67H1393.1M1393.1 1848.67L1252.27 2128.36M1255.83 2211.42L1396.48 1931.02M1111.21 2213.55L1254.76 1931.02L1113.08 1651.33M1113.08 1651.33H1255.49M1396.48 1931.02H831.437M1396.48 1931.02L1255.49 1651.33M883.35 2162.44H1024.37M1184.14 2406.63L1042.42 2128.36M1006.09 2283.11L831.437 1931.02M831.437 1931.02L813.558 1966.51M831.437 1931.02H547.581M831.437 1931.02L688.644 1651.33M953.321 2247.62L813.558 1966.51M813.558 1966.51L670.622 1686.82M670.622 1686.82L688.644 1651.33M670.622 1686.82L547.581 1931.02M688.644 1651.33H405.896M547.581 1931.02H405.896L265.455 1651.33H405.896M547.581 1931.02L467.029 1772.01M405.896 1651.33L467.029 1772.01M467.029 1772.01H184.048L254.283 1632.87M467.029 1772.01L537.624 1632.87M380.418 1383L254.283 1632.87M664.408 1383L609.661 1490.9M784.964 1773.43H502.217L645.144 1490.9M784.964 1773.43L927.31 1492.19M784.964 1773.43L705.422 1615.84M982.576 1383L927.31 1492.19M645.144 1490.9H609.661M645.144 1490.9H890.515M609.661 1490.9L537.624 1632.87M609.661 1490.9L551.309 1383M824.735 1383L705.422 1615.84M705.422 1615.84L589.837 1383M705.422 1615.84H565.602L449.396 1383M705.422 1615.84H849.151M1517 1615.84H1414.47M1517 1632.87H1494.48M254.283 1632.87H537.624M990.493 1892.69L849.151 1615.84M730.279 1383L849.151 1615.84M849.151 1615.84L964.555 1383M849.151 1615.84H1414.47M871.963 1383L927.31 1492.19M1131.75 1895.53L927.31 1492.19M1131.75 1895.53L1255.49 1651.33M1049.07 1383L1177.73 1632.87M1177.73 1632.87H1494.48M1177.73 1632.87L1248 1492.27M1177.73 1632.87H537.624M1422.54 1773.43H1139.8L1282.1 1492.27M1422.54 1773.43L1494.48 1632.87M1422.54 1773.43L1282.1 1492.27M1517 1588.86L1494.48 1632.87M1494.48 1632.87L1368.48 1383M1282.1 1492.27L1337.41 1383L1432.49 1577.5L1517 1411.39M1282.1 1492.27H1517M1282.1 1492.27H1248M1248 1492.27L1302.61 1383L1414.47 1615.84M1248 1492.27L1291.42 1580.43M1248 1492.27L1191.37 1383M1291.42 1580.43L1255.49 1651.33M537.624 1632.87L412.11 1383M147.384 1772.01H-3M147.384 1772.01L4.45715 1493.74M147.384 1772.01L218.063 1632.87M344.997 1383L290.185 1490.9M4.45715 1493.74L61.0066 1383M4.45715 1493.74L-3 1512.2M218.063 1632.87H-3M218.063 1632.87L91.4563 1383M218.063 1632.87L290.185 1490.9M290.185 1490.9L234.384 1383M290.185 1490.9H571.195L516.509 1383M1517 1536.33L1438.7 1383M1517 1468.18L1473.5 1383M1517 1400.04L1508.3 1383M-3 1439.79L5.57568 1422.75M25.5854 1383L5.57568 1422.75M5.57568 1422.75H-3M5.57568 1422.75L-3 1404.3" stroke="#4DD9A6" stroke-width="3"/>
<defs>
<linearGradient id="paint0_linear_497_3599" x1="-374" y1="779.867" x2="1682.52" y2="678.245" gradientUnits="userSpaceOnUse">
<stop offset="0.445135" stop-color="#61E1C2"/>
<stop offset="1"/>
</linearGradient>
</defs>
</svg>
