<svg width="1520" height="3871" viewBox="0 0 1520 3871" fill="none" xmlns="http://www.w3.org/2000/svg">
<path d="M0 -3.43323e-05V418.936H27.771V386.17M27.771 -3.43323e-05V386.17M27.771 386.17H49.9878V-3.43323e-05V461.064H64.799M64.799 461.064L66.6504 -3.43323e-05M64.799 461.064V503.192H85.1644V-3.43323e-05M151.815 -3.43323e-05V559.769L212.911 638.936M212.911 638.936V-3.43323e-05M212.911 638.936V724.362M212.911 856.596V724.362M244.385 -3.43323e-05V683.404L212.911 724.362M301.778 -3.43323e-05V456.383H327.698V-3.43323e-05M390.646 -3.43323e-05V599.149L468.404 697.447M468.404 697.447V945.532M468.404 697.447V-3.43323e-05M468.404 992.341V945.532M468.404 945.532L494.324 912.766V-3.43323e-05M570.231 -3.43323e-05V177.872L599.854 212.979M599.854 212.979V-3.43323e-05M599.854 212.979V320.638L622.071 348.723M622.071 348.723V417.766L659.099 372.128M622.071 348.723V-3.43323e-05M659.099 372.128V681.064L692.424 723.192M659.099 372.128V-3.43323e-05M692.424 723.192V746.596M692.424 723.192V315.957M692.424 -3.43323e-05V315.957M692.424 315.957L722.046 353.404V-3.43323e-05M751.669 -3.43323e-05V889.362H773.886V650.638M773.886 -3.43323e-05V650.638M773.886 650.638H788.697V477.447M788.697 -3.43323e-05V477.447M788.697 477.447H803.508V449.362M803.508 -3.43323e-05V449.362M803.508 449.362L868.307 365.106V-3.43323e-05M907.186 440V418.936M907.186 -3.43323e-05V418.936M907.186 418.936L953.471 360.426M953.471 360.426V369.787L1020.12 454.043M953.471 360.426V-3.43323e-05M1020.12 454.043V-3.43323e-05M1020.12 454.043V671.702M1020.12 696.277V671.702M1020.12 671.702L1075.66 599.149V-3.43323e-05M1160.83 -3.43323e-05V470.426L1207.11 528.936M1207.11 528.936V788.724L1247.84 837.872M1207.11 528.936V-3.43323e-05M1247.84 837.872V971.277M1247.84 837.872V802.766M1247.84 -3.43323e-05V205.957M1247.84 205.957L1281.17 163.83V-3.43323e-05M1247.84 205.957V802.766M1247.84 802.766L1345.97 676.383V437.66M1345.97 -3.43323e-05V437.66M1345.97 437.66L1407.06 514.894V-3.43323e-05M1455.2 -3.43323e-05V386.17H1481.12M1481.12 386.17V-3.43323e-05M1481.12 386.17V423.617M1481.12 477.447V423.617M1481.12 423.617L1501.49 397.872M1520 -3.43323e-05V374.468L1501.49 397.872M1501.49 -3.43323e-05V397.872" stroke="url(#paint0_linear_1849_3348)" stroke-opacity="0.7" stroke-width="2"/>
<path opacity="0.5" d="M0 3801.13H573.129M1520 3801.13H1210.01M713.393 3336.29L856.5 3646.66M713.393 3336.29H999.248M713.393 3336.29L642.551 3182.91L785.478 2874.58L927.508 3181.34M959.477 3870L856.5 3646.66M115.585 3870L183.75 3724.44M201.341 3686.88L183.941 3649.14M201.341 3686.88L183.75 3724.44M201.341 3686.88L285.854 3870M201.341 3686.88L217.621 3644.62M0 3735.4L111.856 3492.8L183.941 3649.14M82.0278 3870L183.941 3649.14M0 3724.44H183.75M222.469 3870L395.225 3491.24M395.225 3491.24H146.656L217.621 3644.62M395.225 3491.24H430.025M321.897 3870L217.621 3644.62M217.621 3644.62H502.11M502.11 3644.62L430.025 3491.24M502.11 3644.62L400.196 3870M502.11 3644.62L573.129 3801.13M430.025 3491.24L257.269 3870M604.023 3869.22L573.129 3801.13M538.152 3644.62L434.996 3870M538.152 3644.62L608.994 3801.13M538.152 3644.62H820.278M573.129 3801.13L540.638 3870M573.129 3801.13H608.994M608.994 3801.13L576.68 3870M608.994 3801.13L640.065 3870M608.994 3801.13H891.12M820.278 3644.62L719.607 3870M820.278 3644.62L953.9 3355.07M1520 3355.07H1378.94M754.407 3870L856.5 3646.66M971.905 3394.2L953.9 3355.07M971.905 3394.2L857.432 3644.62M971.905 3394.2L1095.34 3664.19M953.9 3355.07L1096.19 3046.74H953.36M953.9 3355.07H1237.25M953.9 3355.07H811.578M1113.59 3704.1H971.356M1113.59 3704.1H1520L1493.84 3646.97M1113.59 3704.1L1140.93 3644.62M1113.59 3704.1L1095.34 3664.19M688.573 3704.1L546.852 3394.2H830.221M688.573 3704.1L830.221 3394.2M688.573 3704.1H971.356M830.221 3394.2L953.262 3663.4M830.221 3394.2L811.578 3355.07M830.221 3394.2L927.508 3181.34M953.262 3663.4L1236.63 3046.74L1378.94 3355.07M953.262 3663.4L891.12 3801.13M860.049 3870L891.12 3801.13M1378.94 3355.07L1236.63 3661.84M1378.94 3355.07H1237.25M1236.63 3661.84L1112.66 3392.63M1236.63 3661.84L1331.71 3870M934.62 3006.05H794.178M934.62 3006.05L953.36 3046.74M934.62 3006.05L794.178 3312.81L652.494 3006.05M934.62 2697.72L794.178 3006.05M934.62 2697.72H792.935M934.62 2697.72L917.22 2660.15M794.178 3006.05L775.536 2968.48M794.178 3006.05H652.494M896.092 3870L971.356 3704.1M1112.66 3392.63L971.356 3704.1M1112.66 3392.63L953.36 3046.74M856.5 3646.66L857.432 3644.62M857.432 3644.62H1140.93M1140.93 3644.62L1254.03 3395.77L1414.13 3742.87M1472.77 3870L1414.13 3742.87M891.12 3801.13L923.434 3870M891.12 3801.13H1210.01M971.356 3704.1L988.927 3741.66M1048.96 3870L988.927 3741.66M988.927 3741.66L928.406 3870M1520 3336.29H1351.59L1422.54 3491.24M1095.34 3664.19L1237.25 3355.07M1384.6 3490.46L1317.42 3336.29H1033.61M1384.6 3490.46H1353.46M1384.6 3490.46L1386.31 3494.37M1104.89 3490.46L1246.57 3182.91L1175.73 3028.74M1104.89 3490.46L1033.61 3336.29M1104.89 3490.46H1353.46M961.962 3181.34L1104.89 2874.58L1175.73 3028.74M961.962 3181.34L1033.61 3336.29M961.962 3181.34L820.278 2874.58M1175.73 3028.74L1033.61 3336.29M1033.61 3336.29H999.248M1178.22 3870L1210.01 3801.13M1353.46 3490.46L1210.01 3801.13M1386.31 3494.37L1213.02 3870M1386.31 3494.37L1457.24 3644.62M1210.01 3801.13L1242.85 3870M1279.51 3870L1174.49 3644.62H1457.24M1457.24 3644.62L1520 3780M1422.54 3491.24H1520M1422.54 3491.24L1493.84 3646.97M1319.9 3870L1520 3434.89M1355.94 3870L1414.13 3742.87M1520 3511.58L1414.13 3742.87M1414.13 3742.87H1520L1460.34 3870M1497.63 3870L1520 3822.26M1393.85 3870L1493.84 3646.97M1493.84 3646.97H1520M999.248 3336.29L927.508 3181.34M811.578 3355.07H528.209L386.525 3046.74H953.36M811.578 3355.07L953.36 3046.74M820.278 2874.58L775.536 2968.48M820.278 2874.58L917.22 2660.15M775.536 2968.48L474.581 2312.69M652.494 3006.05L792.935 2697.72M652.494 3006.05H510.809M792.935 2697.72H509.567L367.882 3006.05H510.809M917.22 2660.15L776.778 2350.26M776.778 2350.26L492.788 2966.9M776.778 2350.26H633.65M0 2350.26H67.7351M510.809 3006.05L492.788 2966.9M49.7138 2004.36H0M49.7138 2004.36H123.903M49.7138 2004.36L332.855 2619.46M403.925 2312.69L262.24 2004.36H189.534M403.925 2312.69H334.325M403.925 2312.69H474.581M0 2312.69H50.3352M616.451 2312.69L474.767 2617.89L351.611 2350.26M616.451 2312.69L633.65 2350.26M616.451 2312.69H474.581M334.325 2312.69L351.611 2350.26M334.325 2312.69H264.726M268.455 1491L526.507 2052.88M988.062 2444.17L846.378 2749.37L686.275 2400.76M988.062 2444.17L846.378 2134.27M988.062 2444.17H1130.99L986.819 2134.27M988.062 2444.17H845.04M846.378 2134.27H986.819M846.378 2134.27L563.009 2747.8L505.838 2625.72M846.378 2134.27H703.442M986.819 2134.27L845.04 2444.17M136.713 2444.17L333.083 2004.36L474.581 2312.69M136.713 2444.17L0 2142.09M136.713 2444.17H279.33M0 2134.27H421.226M505.838 2625.72L492.167 2660.15L635.094 2965.35L775.536 2660.15M505.838 2625.72L421.946 2444.17M505.838 2625.72L633.65 2350.26M775.536 2660.15H351.587M775.536 2660.15L633.65 2350.26M367.882 2173.4L261.17 2404.25M367.882 2173.4L510.91 2483.29M367.882 2173.4L626.485 1609.95M681.079 1491L626.485 1609.95M367.882 2483.29L510.809 2178.09M367.882 2483.29L651.251 2482.25M367.882 2483.29L510.809 2793.19L651.251 2482.25M510.809 2178.09L651.251 2482.25M510.809 2178.09L687.294 1786.81M651.251 2482.25L794.178 2481.73L652.494 2790.06L510.91 2483.29M421.946 2444.17L563.885 2134.27M421.946 2444.17H279.33M421.946 2444.17H563.679M563.885 2134.27L686.275 2400.76M563.885 2134.27H421.226M563.885 2134.27H703.442M563.885 2134.27L526.507 2052.88M351.587 2660.15L492.788 2966.9M351.587 2660.15H209.351M351.587 2660.15L492.63 2350.26M351.587 2660.15L332.855 2619.46M0 2513.03L67.1137 2660.15H209.351M125.527 1491L225.576 1708.65M845.04 2444.17L704.693 2750.93L563.679 2444.17M845.04 2444.17H563.679M845.04 2444.17L703.442 2134.27M409.518 1491L685.563 2095.14M686.275 2400.76L828.978 2095.14L687.294 1786.81M687.294 1786.81H403.925M687.294 1786.81H828.356M120.556 1786.81L243.598 2052.88L500.867 1491L555.502 1611.52M120.556 1786.81H261.505M120.556 1786.81L102.535 1747.68M409.518 1921.41H695.993L555.502 1611.52M409.518 1921.41L555.502 1611.52M409.518 1921.41L339.272 1766.46M555.502 1611.52H306.983M555.502 1611.52L589.69 1611.37M306.983 1611.52L361.668 1491M306.983 1611.52L123.903 2004.36M101.292 2052.88L0 1833.76M101.292 2052.88L123.903 2004.36M101.292 2052.88L120.52 2095.14M279.33 2444.17L421.226 2134.27M279.33 2444.17L261.17 2404.25M421.226 2134.27L563.679 2444.17M421.226 2134.27L385.253 2056.01M351.611 2350.26L209.351 2660.15M351.611 2350.26H67.7351M351.611 2350.26H492.63M209.351 2660.15L67.7351 2350.26M50.3352 2312.69L0 2201.57M50.3352 2312.69L189.534 2004.36M50.3352 2312.69H264.726M189.534 2004.36H123.903M123.903 2004.36L264.726 2312.69M261.17 2404.25L120.52 2095.14M405.789 2406.6L262.24 2095.14L403.925 1786.81M403.925 1786.81H261.505M120.52 2095.14H685.563M120.52 2095.14L261.505 1786.81M633.65 2350.26H492.63M332.855 2619.46L474.581 2312.69M510.91 2483.29L685.563 2095.14M685.563 2095.14L703.442 2134.27M685.563 2095.14H969.419M685.563 2095.14L828.356 1786.81M563.679 2444.17L703.442 2134.27M703.442 2134.27L846.378 1825.94M846.378 1825.94L828.356 1786.81M846.378 1825.94L969.419 2095.14M828.356 1786.81H1111.1M969.419 2095.14H1111.1L1251.55 1786.81H1111.1M969.419 2095.14L1049.97 1919.85M1111.1 1786.81L1049.97 1919.85M1049.97 1919.85H1332.95L1262.72 1766.46M1049.97 1919.85L979.376 1766.46M1136.58 1491L1262.72 1766.46M852.592 1491L907.339 1609.95M732.036 1921.41H1014.78L871.856 1609.95M732.036 1921.41L589.69 1611.37M732.036 1921.41L811.578 1747.68M534.424 1491L589.69 1611.37M871.856 1609.95H907.339M871.856 1609.95H626.485M907.339 1609.95L979.376 1766.46M907.339 1609.95L965.691 1491M692.265 1491L811.578 1747.68M811.578 1747.68L927.163 1491M811.578 1747.68H951.398L1067.6 1491M811.578 1747.68H667.849M0 1747.68H102.535M0 1766.46H22.5242M1262.72 1766.46H979.376M526.507 2052.88L667.849 1747.68M786.721 1491L667.849 1747.68M667.849 1747.68L552.445 1491M667.849 1747.68H102.535M645.037 1491L589.69 1611.37M385.253 2056.01L589.69 1611.37M385.253 2056.01L261.505 1786.81M467.931 1491L339.272 1766.46M339.272 1766.46H22.5242M339.272 1766.46L269.002 1611.46M339.272 1766.46H979.376M94.4563 1921.41H377.204L234.898 1611.46M94.4563 1921.41L22.5242 1766.46M94.4563 1921.41L234.898 1611.46M0 1717.94L22.5242 1766.46M22.5242 1766.46L148.52 1491M234.898 1611.46L179.591 1491L84.5135 1705.42L0 1522.3M234.898 1611.46H0M234.898 1611.46H269.002M269.002 1611.46L214.391 1491L102.535 1747.68M269.002 1611.46L225.576 1708.65M269.002 1611.46L325.625 1491M225.576 1708.65L261.505 1786.81M979.376 1766.46L1104.89 1491M1369.62 1919.85H1520M1369.62 1919.85L1512.54 1613.08M1369.62 1919.85L1298.94 1766.46M1172 1491L1226.82 1609.95M1512.54 1613.08L1455.99 1491M1512.54 1613.08L1520 1633.43M1298.94 1766.46H1520M1298.94 1766.46L1425.54 1491M1298.94 1766.46L1226.82 1609.95M1226.82 1609.95L1282.62 1491M1226.82 1609.95H945.805L1000.49 1491M0 1660.03L78.2993 1491M0 1584.91L43.4996 1491M0 1509.78L8.69992 1491M1520 1553.61L1511.42 1534.82M1491.41 1491L1511.42 1534.82M1511.42 1534.82H1520M1511.42 1534.82L1520 1514.48" stroke="url(#paint1_linear_1849_3348)" stroke-opacity="0.6" stroke-width="3"/>
<defs>
<linearGradient id="paint0_linear_1849_3348" x1="760" y1="992.341" x2="760" y2="0" gradientUnits="userSpaceOnUse">
<stop offset="0.157525" stop-color="#FF1515"/>
<stop offset="1" stop-color="#171717"/>
</linearGradient>
<linearGradient id="paint1_linear_1849_3348" x1="760.502" y1="1491" x2="760.502" y2="3870" gradientUnits="userSpaceOnUse">
<stop offset="0.276127" stop-color="#DB0000"/>
<stop offset="1" stop-color="#ADADAD"/>
</linearGradient>
</defs>
</svg>
