<svg width="1520" height="4132" viewBox="0 0 1520 4132" fill="none" xmlns="http://www.w3.org/2000/svg">
<path d="M-299 1842.1L382.268 1225.54L1294.8 1490.59M-299 1842.1L1407.54 1136.65L863.333 1721.39M-299 1842.1L293.235 1559.06M1294.8 1490.59L99.9318 1372.34L-183.5 1392.5L293.235 1559.06M1294.8 1490.59L988.374 1542.79M1294.8 1490.59L1696.62 1372.34L293.235 1559.06M988.374 1542.79L1819 1900L1427.78 914L863.333 1721.39M988.374 1542.79L-29.1911 1116.26L1155.08 1787.45L917.067 1338.09L65.242 1426.98L1094.37 1101.58L852.506 1804.58L863.333 1721.39M863.333 1721.39L964.284 945.806L1499.08 1643.92L1250.47 1101.58L293.235 1559.06" stroke="url(#paint0_linear_488_1055)" stroke-opacity="0.3" stroke-width="3"/>
<path d="M1767 4307.1L1085.73 3690.54L173.2 3955.59M1767 4307.1L60.4586 3601.65L604.667 4186.39M1767 4307.1L1174.77 4024.06M173.2 3955.59L1368.07 3837.34L1651.5 3857.5L1174.77 4024.06M173.2 3955.59L479.626 4007.79M173.2 3955.59L-228.622 3837.34L1174.77 4024.06M479.626 4007.79L-351 4365L40.2229 3379L604.667 4186.39M479.626 4007.79L1497.19 3581.26L312.923 4252.45L550.933 3803.09L1402.76 3891.98L373.63 3566.58L615.494 4269.58L604.667 4186.39M604.667 4186.39L503.716 3410.81L-31.0837 4108.92L217.526 3566.58L1174.77 4024.06" stroke="url(#paint1_linear_488_1055)" stroke-opacity="0.3" stroke-width="3"/>
<path fill-rule="evenodd" clip-rule="evenodd" d="M-22.145 928.569C-27.029 926.935 -32.004 928.573 -33.3454 932.301C-34.7117 936.098 -31.7903 940.626 -26.82 942.414C-21.8498 944.203 -16.7129 942.574 -15.3466 938.777C-14.1312 935.399 -16.3086 931.443 -20.3028 929.352L37.6551 807.188L111.883 764.702L185.332 722.663L321.002 930.81C319.41 931.549 318.187 932.754 317.618 934.335C316.252 938.132 319.173 942.66 324.144 944.449C329.114 946.237 334.251 944.609 335.617 940.812C336.465 938.455 335.661 935.817 333.741 933.727L529.505 681.285C533.619 682.464 537.702 681.355 539.533 678.663L921.619 798.229C920.748 801.889 923.617 806.041 928.325 807.735C933.295 809.524 938.432 807.895 939.799 804.098C941.107 800.461 938.483 796.154 933.893 794.226L962.349 733.609L1050.73 784.123C1050.6 784.363 1050.49 784.614 1050.4 784.876C1049.03 788.673 1051.95 793.201 1056.92 794.989C1061.89 796.778 1067.03 795.149 1068.39 791.352C1069.76 787.555 1066.84 783.027 1061.87 781.239C1061.37 781.059 1060.87 780.915 1060.37 780.803L1041.2 623.124L1102.37 586.627L1126.53 583.545C1127.46 585.999 1129.79 588.237 1132.94 589.371C1137.91 591.16 1143.05 589.531 1144.42 585.734C1144.79 584.695 1144.84 583.6 1144.62 582.523L1361.71 583.326C1362.3 586.192 1364.83 588.943 1368.45 590.245C1373.42 592.033 1378.55 590.405 1379.92 586.607C1381.05 583.461 1379.24 579.814 1375.76 577.638L1434.55 510.924L1538.47 576.359C1538.05 576.866 1537.72 577.44 1537.49 578.073C1536.13 581.871 1539.05 586.399 1544.02 588.187C1548.99 589.975 1554.12 588.347 1555.49 584.55C1556.76 581.022 1554.33 576.864 1549.99 574.858L1560 528.995L1705.35 581.296C1705.23 584.652 1707.97 588.166 1712.21 589.69C1717.18 591.478 1722.32 589.85 1723.68 586.053C1725.05 582.255 1722.13 577.727 1717.16 575.939C1716.24 575.609 1715.32 575.395 1714.42 575.29L1609.29 321.484L1719.53 460.435L1721.1 459.192L1611.33 320.831C1613.12 320.116 1614.51 318.842 1615.13 317.126C1615.52 316.018 1615.56 314.847 1615.28 313.7L1682.43 295.621L1681.91 293.689L1614.55 311.827C1613.42 309.782 1611.31 307.989 1608.6 307.012C1603.63 305.224 1598.49 306.852 1597.13 310.65C1596.31 312.912 1597.02 315.433 1598.78 317.48L1341.03 442.647C1339.83 440.943 1337.94 439.484 1335.58 438.638C1330.61 436.849 1325.48 438.478 1324.11 442.275C1323.25 444.677 1324.1 447.372 1326.1 449.481L1040.09 573.827C1038.91 571.964 1036.92 570.353 1034.4 569.446C1029.43 567.657 1024.29 569.286 1022.93 573.083C1022.78 573.494 1022.68 573.913 1022.63 574.337L912.851 556.546C913.075 556.195 913.261 555.818 913.405 555.418C914.771 551.62 911.85 547.092 906.88 545.304C901.909 543.515 896.773 545.144 895.406 548.941C894.576 551.248 895.329 553.826 897.163 555.894L886.45 559.379L683.552 536.227C682.968 533.361 680.436 530.608 676.819 529.307C671.848 527.519 666.711 529.147 665.345 532.944C664.374 535.642 665.568 538.708 668.122 540.899L628.936 579.448L441.79 520.991C442.177 517.512 439.379 513.762 434.964 512.173C429.994 510.385 424.857 512.013 423.491 515.811C422.967 517.265 423.073 518.826 423.682 520.3L366.225 529.047L224.889 405.873C225.262 405.397 225.561 404.865 225.771 404.283C227.137 400.485 224.215 395.957 219.245 394.169C214.275 392.38 209.138 394.009 207.772 397.806C206.883 400.276 207.809 403.056 209.933 405.189L66.7515 481.958L60.8646 476.591C61.507 475.971 62.004 475.228 62.3108 474.375C63.6772 470.578 60.7556 466.05 55.7853 464.262C50.8151 462.473 45.6784 464.102 44.312 467.899C43.2452 470.864 44.7925 474.274 47.8879 476.478L-17.2342 525.563C-18.1807 524.835 -19.2875 524.223 -20.5204 523.78C-24.3116 522.415 -28.1998 523.039 -30.4374 525.097L-148.315 442.739C-147.849 442.204 -147.482 441.591 -147.236 440.909C-145.87 437.111 -148.791 432.583 -153.762 430.795C-158.732 429.006 -163.868 430.635 -165.235 434.432C-166.601 438.229 -163.68 442.757 -158.709 444.546C-155.542 445.685 -152.308 445.438 -150.024 444.125L-60.8803 512.331L-184.43 453.555C-184.24 453.239 -184.079 452.904 -183.952 452.549C-182.586 448.752 -185.507 444.224 -190.477 442.435C-195.448 440.647 -200.584 442.275 -201.951 446.073C-203.317 449.87 -200.396 454.398 -195.425 456.186C-191.793 457.493 -188.071 456.975 -185.798 455.119L-53.227 518.187L-24.95 539.822L-50.7572 850.642L-51.0077 851.395C-55.9734 849.615 -61.1014 851.244 -62.4664 855.037C-63.8328 858.835 -60.9113 863.363 -55.9411 865.151C-55.8352 865.189 -55.7291 865.226 -55.6231 865.261L-66.2503 897.187C-70.9837 895.802 -75.6935 897.452 -76.9929 901.063C-78.3593 904.86 -75.4378 909.388 -70.4676 911.177C-65.4973 912.965 -60.3605 911.337 -58.9941 907.539C-57.9936 904.759 -59.2924 901.586 -62.0113 899.384L-22.9999 841.904L34.6162 808.927L-22.145 928.569ZM1058.33 780.524L1039.33 624.245L1017.88 637.043C1020.85 639.249 1022.31 642.581 1021.27 645.485C1019.9 649.282 1014.76 650.91 1009.79 649.122C1007.26 648.209 1005.26 646.584 1004.08 644.706L963.201 731.792L1051.98 782.532C1053.51 781.136 1055.81 780.408 1058.33 780.524ZM1143.88 580.52L1361.63 581.326C1361.69 580.922 1361.78 580.523 1361.92 580.131C1362.74 577.87 1364.89 576.378 1367.54 575.918L1359.51 545.367L1160.18 565.572L1141.82 577.938C1142.68 578.714 1143.38 579.592 1143.88 580.52ZM1140.11 576.677L1155.97 565.999L1133.04 568.323L1114.11 579.62L1126.18 580.126C1126.24 579.833 1126.31 579.543 1126.42 579.258C1127.78 575.461 1132.92 573.832 1137.89 575.621C1138.69 575.907 1139.43 576.264 1140.11 576.677ZM901.932 559.055C901.015 558.725 900.168 558.302 899.405 557.807L895.005 560.355L992.506 571.481L911.15 558.296C908.855 559.898 905.354 560.286 901.932 559.055ZM1022.9 576.961L892.1 562.037L785.664 623.656C785.921 623.877 786.164 624.108 786.392 624.346L1023.53 578.423C1023.27 577.947 1023.05 577.458 1022.9 576.961ZM1024.84 580.207L808.533 622.095L1025.48 594.419L1030.59 583.545C1030.21 583.448 1029.83 583.332 1029.45 583.197C1027.59 582.525 1026.01 581.467 1024.84 580.207ZM1033.3 583.921L1029.72 593.878L1035.54 593.135L1034.42 583.886C1034.05 583.916 1033.68 583.928 1033.3 583.921ZM1036.39 583.52L1037.53 592.882L1101.7 584.696L1107.33 581.338L1041.19 578.569C1041.13 578.903 1041.04 579.234 1040.93 579.56C1040.23 581.504 1038.54 582.88 1036.39 583.52ZM1040.95 575.647L1132.4 566.378L1320.74 453.992L1040.94 575.637L1040.95 575.647ZM1373.4 576.494C1373.57 576.558 1373.75 576.626 1373.92 576.697L1432.83 509.844L1423.27 503.82L1390.71 537.229C1392.9 539.375 1393.87 542.2 1392.96 544.706C1391.6 548.504 1386.46 550.132 1381.49 548.344C1378.87 547.399 1376.81 545.692 1375.66 543.731L1361.53 545.163L1369.57 575.77C1370.81 575.797 1372.11 576.031 1373.4 576.494ZM1329.17 451.753L1163.69 563.206L1359 543.409L1335.27 453.1C1333.79 453.177 1332.21 452.953 1330.64 452.389C1330.12 452.204 1329.64 451.991 1329.17 451.753ZM1338.68 452.3L1381.81 533.881C1383.29 533.805 1384.87 534.029 1386.44 534.593C1387.43 534.949 1388.34 535.415 1389.15 535.962L1421.54 502.731L1340.1 451.453C1339.67 451.782 1339.19 452.065 1338.68 452.3ZM1342.19 448.496L1440.07 483.714L1600.51 319.087L1600.46 319.051L1600.43 319.026C1600.39 319.001 1600.36 318.976 1600.33 318.95L1341.98 444.407C1342.5 445.752 1342.6 447.164 1342.19 448.496ZM1548.1 574.159L1558.11 528.312L1452.66 490.37L1435.89 509.404L1540.05 574.992C1542.14 573.688 1545.11 573.321 1548.1 574.159ZM1705.78 579.325C1706.77 576.953 1709.26 575.484 1712.23 575.247L1607.12 321.474C1606.54 321.443 1605.95 321.367 1605.35 321.243L1560.43 527.024L1705.78 579.325ZM1602.53 320.297L1454.08 488.756L1558.54 526.341L1603.43 320.679C1603.12 320.562 1602.82 320.434 1602.53 320.297ZM669.776 542.078L631.101 580.124L728.828 610.651L749.889 603.8L680.327 542.764C678.059 543.965 674.933 544.16 671.871 543.058C671.124 542.789 670.423 542.459 669.776 542.078ZM681.981 541.554L752.102 603.08L881.869 560.869L683.629 538.249C683.577 538.644 683.482 539.036 683.344 539.421C683.051 540.236 682.583 540.951 681.981 541.554ZM441.222 522.909C440.731 523.889 439.97 524.697 439.021 525.309L528.319 666.626C529.991 666.424 531.835 666.621 533.657 667.276C535.11 667.799 536.388 668.557 537.435 669.461L627.319 581.039L441.222 522.909ZM430.016 525.924C429.803 525.847 429.593 525.766 429.387 525.679L397.144 555.993L525.184 667.579C525.523 667.399 525.882 667.241 526.256 667.106L437.199 526.17C435.105 526.859 432.539 526.832 430.016 525.924ZM427.515 524.694C426.975 524.346 426.477 523.962 426.025 523.551L378.413 539.669L395.628 554.672L427.515 524.694ZM540.353 676.824L922.424 796.385C922.887 795.694 923.497 795.105 924.218 794.632L784.014 635.507C781.941 636.16 779.421 636.118 776.943 635.226C773.824 634.104 771.511 631.902 770.559 629.48L540.5 674.972C540.549 675.594 540.503 676.216 540.353 676.824ZM926.095 793.737L785.911 634.635C786.409 634.318 786.856 633.947 787.241 633.526L960.607 732.613L931.979 793.595C929.889 793.088 927.83 793.167 926.095 793.737ZM961.459 730.797L788.319 631.839C788.341 631.787 788.362 631.734 788.382 631.681C788.394 631.651 788.405 631.62 788.416 631.589C788.767 630.613 788.835 629.59 788.658 628.577L1003.07 639.692C1002.89 640.511 1002.89 641.353 1003.06 642.185L961.459 730.797ZM789.065 626.595L1003.92 637.733C1004.46 636.943 1005.19 636.289 1006.06 635.789L1024.47 596.564L789.065 626.595ZM1008.72 634.826C1010.01 634.581 1011.41 634.58 1012.85 634.853L1026.45 597.067L1008.72 634.826ZM1014.78 635.386C1015.18 635.531 1015.57 635.694 1015.94 635.872L1039.06 622.074L1035.79 595.121L1028.96 595.992L1014.78 635.386ZM888.765 561.656L783.866 622.386C783.252 622.034 782.592 621.728 781.891 621.475C778.819 620.37 775.683 620.57 773.414 621.78L753.85 604.614L886.655 561.415L888.765 561.656ZM751.638 605.334L771.765 622.994C771.505 623.256 771.27 623.54 771.064 623.844L732.126 611.681L751.638 605.334ZM728.84 612.75L770.245 625.683C770.097 626.29 770.051 626.911 770.1 627.532L548.973 671.257L728.84 612.75ZM539.653 672.186L725.542 611.72L629.484 581.715L538.817 670.907C539.138 671.319 539.418 671.747 539.653 672.186ZM523.533 668.794L395.679 557.369L369.988 581.523L523.351 668.985C523.41 668.92 523.471 668.856 523.533 668.794ZM522.276 670.674L368.463 582.956L301.37 646.033L521.854 673.142C521.818 672.389 521.923 671.638 522.184 670.914C522.197 670.877 522.21 670.841 522.224 670.805L522.237 670.77C522.25 670.738 522.263 670.706 522.276 670.674ZM522.83 676.329L281.433 672.468C281.417 673.069 281.308 673.666 281.1 674.246C280.286 676.507 278.135 677.999 275.479 678.459L327.009 930.145C327.699 930.265 328.397 930.448 329.091 930.698C330.27 931.122 331.333 931.7 332.251 932.385L527.549 680.544C525.444 679.539 523.801 678.025 522.83 676.329ZM322.973 930.172C323.6 930.046 324.256 929.978 324.932 929.972L273.468 678.607C272.222 678.583 270.919 678.349 269.626 677.883C268.457 677.463 267.401 676.891 266.488 676.212L187.071 721.668L322.973 930.172ZM126.01 631.65L149.319 667.412L104.471 666.352L121.368 630.737C121.528 630.803 121.691 630.865 121.856 630.924C123.257 631.429 124.671 631.661 126.01 631.65ZM118.284 628.913C118.333 628.953 118.382 628.993 118.431 629.032C118.496 629.084 118.561 629.134 118.628 629.185L91.0322 666.035L59.4399 665.289C59.2278 664.553 58.8893 663.83 58.4388 663.143L118.284 628.913ZM41.3628 662.533C42.0681 660.573 43.7781 659.19 45.9514 658.558L29.2302 628.315L-12.9438 804.881L89.56 668.001L59.6934 667.295C59.6709 667.875 59.5628 668.45 59.3616 669.009C57.9953 672.806 52.8584 674.435 47.8882 672.646C42.9179 670.858 39.9965 666.33 41.3628 662.533ZM48.0357 658.194C48.3309 658.174 48.6309 658.166 48.9341 658.17L38.4736 595.091C38.0433 595.134 37.6023 595.151 37.1541 595.141L29.9197 625.429L48.0357 658.194ZM52.8361 658.895C54.5477 659.511 56.0163 660.452 57.1505 661.576L116.819 627.447C115.621 625.976 114.958 624.278 114.997 622.615L44.7687 590.915C44.0582 592.743 42.4612 594.051 40.4349 594.693L50.9973 658.387C51.6079 658.506 52.2232 658.675 52.8361 658.895ZM26.8204 584.304C27.271 583.052 28.1315 582.035 29.2607 581.3L-11.8859 549.818L26.3542 618.98L34.4192 594.751C34.0616 594.657 33.7032 594.546 33.3458 594.417C28.3755 592.629 25.4541 588.101 26.8204 584.304ZM31.3183 580.356C33.2957 579.757 35.6676 579.785 38.0186 580.571L39.1897 572.576L-16.4361 536.898C-17.0533 537.3 -17.7507 537.618 -18.5055 537.845L-14.2991 545.453L31.3183 580.356ZM39.9206 581.385C40.3814 581.63 40.8176 581.899 41.227 582.189L46.2095 577.078L41.0374 573.761L39.9206 581.385ZM42.7509 583.491C42.8427 583.586 42.9322 583.682 43.0193 583.779L51.4226 580.422L49.3064 579.064L47.9279 578.18L42.7509 583.491ZM44.2219 585.452C44.8362 586.555 45.1665 587.733 45.1552 588.895L110.908 618.575L53.4917 581.749L44.2219 585.452ZM118.419 617.43C117.44 617.936 116.617 618.626 116.021 619.479L55.7743 580.837L65.9067 576.789L69.4466 576.25L108.226 594.575L118.419 617.43ZM125.417 616.762C123.623 616.342 121.855 616.352 120.298 616.734L111 595.886L130.424 605.065L125.417 616.762ZM128.506 617.932C128.13 617.73 127.738 617.543 127.33 617.376L132.234 605.92L137.678 608.493L128.506 617.932ZM132.077 620.951C131.563 620.265 130.935 619.623 130.209 619.05L139.589 609.396L150.699 614.646L132.077 620.951ZM133.666 625.413C133.676 624.509 133.48 623.595 133.104 622.714L153.303 615.876L187.488 632.031L133.666 625.413ZM132.318 629.038C131.34 630.201 129.903 631.01 128.231 631.395L151.744 667.469L262.776 670.091C262.758 669.804 262.761 669.517 262.784 669.232L132.318 629.038ZM153.068 669.501L263.229 672.102C263.597 673.052 264.174 673.969 264.927 674.801L185.977 719.989L153.068 669.501ZM513.965 674.187L281.159 670.463C280.793 669.234 280.073 668.042 279.07 666.998L299.475 647.815L513.965 674.187ZM296.893 647.497L277.548 665.684C276.673 665.058 275.674 664.528 274.574 664.132C273.83 663.865 273.082 663.673 272.343 663.555L268.112 643.959L296.893 647.497ZM266.01 643.7L270.266 663.409C268.951 663.438 267.712 663.703 266.634 664.177L240.768 640.597L266.01 643.7ZM237.337 640.175L264.863 665.269C264.588 665.501 264.335 665.753 264.107 666.025L199.58 635.532L237.337 640.175ZM193.816 632.809L156.03 614.953L195.145 601.711L234.782 637.845L193.816 632.809ZM153.427 613.723L193.456 600.172L169.644 578.464L141.062 607.88L153.427 613.723ZM238.213 638.267L197.31 600.978L252.734 582.215L265.563 641.63L238.213 638.267ZM195.621 599.439L252.309 580.248L245.654 549.425L189.563 557.964L171.039 577.029L195.621 599.439ZM267.665 641.889L254.641 581.57L324.539 557.907L366.646 581.92L298.788 645.715L267.665 641.889ZM254.216 579.602L322.216 556.582L296.179 541.733L247.635 549.124L254.216 579.602ZM368.17 580.487L327.073 557.049L376.22 540.411L394.164 556.049L368.17 580.487ZM324.749 555.724L374.475 538.89L365.61 531.164L299.366 541.248L324.749 555.724ZM134.03 627.473L193.252 634.754L259.912 666.254L134.03 627.473ZM150.644 669.443L103.533 668.331L44.4567 792.851L110.932 762.942L184.238 720.984L150.644 669.443ZM116.45 636.436L102.282 666.301L96.2779 666.159L116.45 636.436ZM101.343 668.279L94.9415 668.128L-4.72618 814.98L41.6423 794.117L101.343 668.279ZM97.9503 660.133L93.8989 666.103L93.4874 666.093L97.9503 660.133ZM92.5626 668.072L92.0152 668.059L-14.1139 809.78L-16.2833 818.862C-15.7932 819.065 -15.3252 819.295 -14.8818 819.549L-8.2059 816.545L92.5626 668.072ZM-19.1796 816.545L-19.1527 818.056C-19.513 818 -19.8708 817.962 -20.2247 817.941L-19.1796 816.545ZM-28.3164 822.283C-27.5175 820.063 -25.4299 818.584 -22.8402 818.096L-19.2374 813.286L-20.0971 764.864L-48.7838 851.046L-48.8948 852.383L-48.8594 852.404L-48.7655 852.46C-48.7214 852.487 -48.6776 852.514 -48.634 852.541L-28.4888 825.64C-28.7472 824.515 -28.7072 823.369 -28.3164 822.283ZM-53.6732 865.735C-49.4941 866.393 -45.626 864.733 -44.4677 861.514C-43.694 859.364 -44.295 856.98 -45.8641 854.991L-26.9524 844.167L-63.6693 898.266C-63.8998 898.137 -64.1366 898.015 -64.3795 897.9L-53.6732 865.735ZM223.408 407.235C222.646 407.746 221.757 408.127 220.787 408.363L237.588 501.723C241.675 503.235 244.348 506.606 244.341 509.868L296.566 539.652L363.633 529.441L223.408 407.235ZM240.361 515.437C242.028 514.734 243.325 513.538 243.949 511.947L293.379 540.137L247.212 547.165L240.361 515.437ZM231.362 514.946C231.738 515.126 232.128 515.289 232.531 515.434C234.561 516.165 236.619 516.325 238.437 516.001L245.231 547.467L191.87 555.59L231.362 514.946ZM229.587 513.903L188.598 556.088L153.867 561.375L152.022 559.693L160.958 538.818L227.67 512.168C228.214 512.799 228.858 513.385 229.587 513.903ZM226.51 510.478L162.071 536.22L171.462 514.282L225.983 509.223C226.118 509.648 226.294 510.067 226.51 510.478ZM225.67 507.243L172.357 512.19L216.732 408.529C217.436 408.629 218.131 408.664 218.804 408.637L235.451 501.14C231.181 500.378 227.186 502.04 226.006 505.321C225.781 505.947 225.672 506.593 225.67 507.243ZM214.297 407.92C214.199 407.884 214.101 407.848 214.004 407.81L106.448 518.147L106.607 518.291L170.092 512.4L214.751 408.074C214.698 408.057 214.644 408.039 214.59 408.021C214.552 408.008 214.513 407.995 214.475 407.982L214.394 407.954L214.297 407.92ZM212.112 406.886C211.939 406.781 211.769 406.674 211.604 406.563L68.3189 483.387L104.969 516.799L212.112 406.886ZM49.763 477.569L-12.2722 524.328L51.2451 490.272L52.9589 478.572C52.2558 478.452 51.5449 478.267 50.8374 478.012C50.4676 477.879 50.1092 477.731 49.763 477.569ZM54.9557 478.739L53.4387 489.096L59.6874 485.745L56.5085 478.618C56.0062 478.695 55.4868 478.736 54.9557 478.739ZM58.4663 478.097L61.4547 484.798L64.8822 482.96L59.191 477.772C59.1002 477.818 59.0081 477.863 58.9146 477.906C58.8278 477.946 58.7399 477.985 58.651 478.022L58.6253 478.033L58.5517 478.063L58.4663 478.097ZM-21.791 832.397C-24.407 831.456 -26.4554 829.755 -27.6098 827.802L-46.5299 853.068L-24.3949 840.398L-19.3756 833.003C-20.1739 832.887 -20.9847 832.687 -21.791 832.397ZM-10.3176 828.76C-11.2396 831.322 -13.8786 832.897 -17.0248 833.101L-20.4424 838.136L36.117 805.763L40.3195 796.906L-6.86894 818.137L-10.7177 823.808C-9.92915 825.414 -9.73919 827.152 -10.3176 828.76ZM-12.9938 820.892C-12.5965 821.242 -12.2335 821.612 -11.9077 821.999L-10.3487 819.702L-12.9938 820.892ZM53.7052 579.51L57.1958 578.115L52.6177 578.812L53.7052 579.51ZM65.3783 574.847L65.9731 574.609L56.0022 569.897L49.353 576.718L50.0686 577.177L65.3783 574.847ZM97.2618 569.993L74.0892 573.52L95.0929 565.13L97.2618 569.993ZM68.5098 573.596L94.2777 563.302L84.2807 540.887L57.4785 568.383L68.5098 573.596ZM99.3124 569.681L96.9516 564.387L136.759 548.485L149.624 560.213L148.796 562.147L99.3124 569.681ZM96.1364 562.559L135.116 546.988L105.912 520.364L104.125 520.53L85.7833 539.346L96.1364 562.559ZM150.457 558.267L138.823 547.661L158.334 539.866L150.457 558.267ZM137.181 546.163L159.446 537.268L169.196 514.492L108.606 520.114L137.181 546.163ZM103.573 518.232L66.4496 484.389L62.2715 486.629L77.5935 520.983L103.207 518.607L103.573 518.232ZM-14.9236 528.018C-14.6096 528.496 -14.3496 528.991 -14.1487 529.496L46.3217 523.885L50.8844 492.735L-14.9236 528.018ZM-14.1417 534.26L-14.1543 534.289C-14.1844 534.356 -14.2157 534.423 -14.2483 534.488L40.948 560.571L46.0233 525.921L-13.6787 531.461C-13.6122 532.283 -13.7108 533.104 -13.9949 533.893C-14.0267 533.982 -14.0605 534.069 -14.0964 534.155C-14.1112 534.19 -14.1264 534.225 -14.1417 534.26ZM-20.5805 538.226C-21.0819 538.264 -21.5969 538.267 -22.1202 538.234L-22.0979 539.486L-18.26 542.423L-20.5805 538.226ZM-31.7027 532.137C-32.2835 530.851 -32.4811 529.49 -32.2106 528.185L-44.5248 522.327L-31.7027 532.137ZM-114.26 468.971L-33.681 525.271L-52.1782 516.471L-114.26 468.971ZM-48.0832 842.609L-23.8897 551.225L-20.2038 758.852L-48.0832 842.609ZM-18.198 759.159L-17.2835 810.676L-15.963 808.913L27.7943 625.718L26.8111 623.94L-18.198 759.159ZM39.1558 804.024L43.1339 795.639L93.0203 773.194L39.1558 804.024ZM-17.1332 813.812L-17.2256 813.936L-17.2213 814.181L-17.1332 813.812ZM47.6346 575.616L41.3556 571.589L42.5354 563.533L54.0901 568.994L47.6346 575.616ZM39.5078 570.404L40.645 562.64L-9.65571 538.871L39.5078 570.404ZM55.5664 567.479L42.8385 561.465L48.0725 525.731L76.3508 523.107L83.404 538.922L55.5664 567.479ZM75.4905 521.178L48.3707 523.695L53.0779 491.559L60.5042 487.577L75.4905 521.178ZM-18.3048 753.147L-22.0526 542.039L-15.8468 546.787L25.4954 621.56L-18.3048 753.147ZM27.6699 621.36L31.7964 608.963L28.4837 622.832L27.6699 621.36ZM84.9065 537.38L78.4536 522.912L101.054 520.815L84.9065 537.38ZM1040.94 620.953L1037.77 594.868L1097.4 587.26L1040.94 620.953ZM1122.91 581.99L1106.67 584.062L1110.97 581.491L1122.91 581.99ZM1159.48 563.633L1137.1 565.901L1303.8 466.426L1159.48 563.633ZM1337.83 454.988L1379.72 534.208C1377.47 534.817 1375.69 536.219 1374.97 538.23C1374.55 539.386 1374.53 540.61 1374.85 541.803L1361.01 543.205L1337.83 454.988ZM1434.17 508.324L1450.64 489.642L1440.6 486.032L1424.69 502.356L1434.17 508.324ZM1452.06 488.028L1442.14 484.458L1578.54 344.495L1452.06 488.028ZM1342.98 450.904L1438.54 485.288L1422.96 501.266L1342.98 450.904ZM1128.34 568.799L1048.63 576.879L1110.46 579.468L1128.34 568.799ZM891.67 559.974L892.42 559.54L891.237 559.925L891.67 559.974ZM376.668 538.148L423.194 522.397L368.201 530.769L376.668 538.148ZM155.769 563.109L186.291 558.462L169.56 575.681L155.769 563.109ZM153.225 563.496L168.166 577.116L139.151 606.977L133.021 604.08L150.197 563.957L153.225 563.496ZM131.212 603.225L109.75 593.084L100.157 571.575L147.87 564.312L131.212 603.225ZM72.9871 575.711L98.1067 571.887L106.975 591.772L72.9871 575.711ZM151.324 561.763L151.123 561.793L151.189 561.64L151.324 561.763Z" fill="url(#paint2_linear_488_1055)" fill-opacity="0.4"/>
<path fill-rule="evenodd" clip-rule="evenodd" d="M262.797 1982.84C330.487 1777.65 523.763 1629.56 751.628 1629.56C979.094 1629.56 1172.09 1777.13 1240.1 1981.76H1173.95V2051.37H1257.91C1261.24 2069.62 1263.6 2088.2 1264.94 2107.06H1173.95V2176.67H1313.17V2107.06H1265.94C1264.6 2088.2 1262.25 2069.62 1258.93 2051.37H1373.5V1981.76H1241.16C1173.11 1776.57 979.653 1628.56 751.628 1628.56C523.238 1628.56 329.529 1777.05 261.774 1982.75C257.619 1982.4 253.37 1982.22 249.026 1982.22C228.761 1982.22 211.436 1985.94 197.049 1993.36C182.663 2000.79 171.757 2011.15 164.331 2024.46C157.061 2037.61 153.425 2052.77 153.425 2069.94C153.425 2087.57 157.061 2102.65 164.331 2115.18C171.757 2127.56 180.497 2137.61 190.552 2145.35C200.607 2152.93 214.53 2162.13 232.319 2172.96C233.914 2173.93 235.457 2174.87 236.949 2175.79C238.798 2206.38 243.313 2236.24 250.264 2265.16C246.667 2265.88 242.852 2266.24 238.817 2266.24C229.535 2266.24 220.176 2264.39 210.74 2260.67C201.458 2256.96 193.182 2252.48 185.911 2247.22C178.641 2241.96 173.226 2237.01 169.668 2232.37L146 2281.09C151.569 2286.97 159.149 2292.62 168.74 2298.03C178.331 2303.45 189.469 2307.86 202.154 2311.26C214.994 2314.66 228.607 2316.36 242.993 2316.36C250.682 2316.36 257.987 2315.86 264.908 2314.85C305.941 2431.88 387.99 2529.62 493.812 2590.84L494.312 2589.97C388.749 2528.91 306.889 2431.42 265.915 2314.7C276.979 2313 287.05 2310 296.131 2305.69C311.136 2298.42 322.661 2287.98 330.705 2274.36C338.749 2260.75 342.771 2244.59 342.771 2225.87C342.771 2208.23 339.213 2193.38 332.097 2181.32C325.136 2169.1 316.473 2159.04 306.109 2151.15C295.744 2143.26 280.739 2133.52 261.093 2121.91C251.952 2116.43 244.354 2111.55 238.299 2107.28C240.131 2081.43 243.873 2056.1 249.383 2031.45C250.029 2031.43 250.684 2031.42 251.347 2031.42C259.546 2031.42 267.358 2033.04 274.783 2036.29C282.208 2039.38 288.551 2043.17 293.81 2047.66C299.07 2051.99 303.015 2056.01 305.645 2059.73L331.633 2012.39C312.668 1995.15 289.722 1985.3 262.797 1982.84ZM248.348 2031.49C237.867 2032.04 229.585 2035.49 223.502 2041.86C217.005 2048.67 213.756 2057.25 213.756 2067.62C213.756 2075.51 215.69 2082.54 219.557 2088.73C223.579 2094.76 228.761 2100.18 235.104 2104.97C235.824 2105.51 236.571 2106.05 237.345 2106.6C239.189 2081 242.902 2055.92 248.348 2031.49ZM237.99 2176.44C239.862 2206.72 244.355 2236.3 251.243 2264.95C258.134 2263.41 264.201 2260.52 269.446 2256.27C277.8 2249.46 281.976 2239.95 281.976 2227.72C281.976 2219.84 280.043 2213.03 276.175 2207.3C272.463 2201.43 267.435 2196.24 261.093 2191.76C255.842 2187.82 248.141 2182.71 237.99 2176.44ZM861.507 1987.79V2311.26H856.867L701.863 2140.94L687.476 2122.38L689.797 2167.39V2311.26H632.714V1987.79H637.819L790.503 2160.43L806.746 2181.55L804.425 2137.23V1987.79H861.507ZM977.59 2311.26C990.429 2314.66 1004.04 2316.36 1018.43 2316.36C1038.85 2316.36 1056.56 2312.81 1071.57 2305.69C1086.57 2298.42 1098.1 2287.98 1106.14 2274.36C1114.18 2260.75 1118.21 2244.59 1118.21 2225.87C1118.21 2208.23 1114.65 2193.38 1107.53 2181.32C1100.57 2169.1 1091.91 2159.04 1081.54 2151.15C1071.18 2143.26 1056.17 2133.52 1036.53 2121.91C1025.7 2115.42 1017.04 2109.77 1010.54 2104.97C1004.2 2100.18 999.015 2094.76 994.993 2088.73C991.126 2082.54 989.192 2075.51 989.192 2067.62C989.192 2057.25 992.44 2048.67 998.938 2041.86C1005.59 2034.9 1014.87 2031.42 1026.78 2031.42C1034.98 2031.42 1042.79 2033.04 1050.22 2036.29C1057.64 2039.38 1063.99 2043.17 1069.25 2047.66C1074.51 2051.99 1078.45 2056.01 1081.08 2059.73L1107.07 2012.39C1084.95 1992.28 1057.41 1982.22 1024.46 1982.22C1004.2 1982.22 986.871 1985.94 972.485 1993.36C958.098 2000.79 947.192 2011.15 939.767 2024.46C932.496 2037.61 928.861 2052.77 928.861 2069.94C928.861 2087.57 932.496 2102.65 939.767 2115.18C947.192 2127.56 955.933 2137.61 965.988 2145.35C976.043 2152.93 989.965 2162.13 1007.76 2172.96C1020.75 2180.85 1030.34 2187.12 1036.53 2191.76C1042.87 2196.24 1047.9 2201.43 1051.61 2207.3C1055.48 2213.03 1057.41 2219.84 1057.41 2227.72C1057.41 2239.95 1053.24 2249.46 1044.88 2256.27C1036.68 2262.92 1026.47 2266.24 1014.25 2266.24C1004.97 2266.24 995.612 2264.39 986.175 2260.67C976.894 2256.96 968.618 2252.48 961.347 2247.22C954.076 2241.96 948.662 2237.01 945.104 2232.37L921.436 2281.09C927.005 2286.97 934.585 2292.62 944.176 2298.03C953.767 2303.45 964.905 2307.86 977.59 2311.26ZM589.198 1981.76H389.642V2051.37H589.198V1981.76ZM389.641 2107.06H528.866V2176.67H389.641V2107.06ZM389.641 2241.65H589.197V2311.26H389.641V2241.65ZM1373.5 2241.65H1173.95V2311.26H1373.5V2241.65ZM744.663 1891.26V1942.31H753.945V1891.26H744.663ZM740.025 1891.26H702.898V1900.55H740.025V1891.26ZM823.558 1891.26H791.072V1900.55H823.558V1891.26ZM814.276 1912.15H791.072V1921.43H814.276V1912.15ZM791.072 1933.03H823.558V1942.31H791.072V1933.03ZM716.815 1942.31V1905.19H726.096V1942.31H716.815ZM772.512 1942.31V1891.26H781.793V1942.31H772.512ZM767.874 1909.83H758.592V1919.11H767.874V1909.83ZM1271.4 2195.24C1271.4 2197.8 1269.33 2199.88 1266.76 2199.88C1264.2 2199.88 1262.12 2197.8 1262.12 2195.24C1262.12 2192.68 1264.2 2190.6 1266.76 2190.6C1269.33 2190.6 1271.4 2192.68 1271.4 2195.24ZM1262.12 2232.37C1264.68 2232.37 1266.76 2230.29 1266.76 2227.72C1266.76 2225.16 1264.68 2223.08 1262.12 2223.08C1259.56 2223.08 1257.48 2225.16 1257.48 2227.72C1257.48 2230.29 1259.56 2232.37 1262.12 2232.37ZM1234.28 2325.18C1234.28 2327.75 1232.2 2329.82 1229.64 2329.82C1227.08 2329.82 1225 2327.75 1225 2325.18C1225 2322.62 1227.08 2320.54 1229.64 2320.54C1232.2 2320.54 1234.28 2322.62 1234.28 2325.18ZM1215.71 2362.31C1218.28 2362.31 1220.35 2360.23 1220.35 2357.67C1220.35 2355.11 1218.28 2353.03 1215.71 2353.03C1213.15 2353.03 1211.07 2355.11 1211.07 2357.67C1211.07 2360.23 1213.15 2362.31 1215.71 2362.31ZM1164.66 2450.48C1167.22 2450.48 1169.3 2448.41 1169.3 2445.84C1169.3 2443.28 1167.22 2441.2 1164.66 2441.2C1162.09 2441.2 1160.02 2443.28 1160.02 2445.84C1160.02 2448.41 1162.09 2450.48 1164.66 2450.48ZM946.543 2622.2C949.106 2622.2 951.184 2620.12 951.184 2617.55C951.184 2614.99 949.106 2612.91 946.543 2612.91C943.98 2612.91 941.902 2614.99 941.902 2617.55C941.902 2620.12 943.98 2622.2 946.543 2622.2ZM1122.9 2501.53C1122.9 2504.1 1120.82 2506.17 1118.26 2506.17C1115.7 2506.17 1113.62 2504.1 1113.62 2501.53C1113.62 2498.97 1115.7 2496.89 1118.26 2496.89C1120.82 2496.89 1122.9 2498.97 1122.9 2501.53ZM1206.43 2390.15C1206.43 2392.72 1204.36 2394.79 1201.79 2394.79C1199.23 2394.79 1197.15 2392.72 1197.15 2390.15C1197.15 2387.59 1199.23 2385.51 1201.79 2385.51C1204.36 2385.51 1206.43 2387.59 1206.43 2390.15ZM1095.06 2529.38C1097.62 2529.38 1099.7 2527.3 1099.7 2524.74C1099.7 2522.17 1097.62 2520.1 1095.06 2520.1C1092.49 2520.1 1090.41 2522.17 1090.41 2524.74C1090.41 2527.3 1092.49 2529.38 1095.06 2529.38ZM1071.85 2547.94C1071.85 2550.5 1069.77 2552.58 1067.21 2552.58C1064.65 2552.58 1062.57 2550.5 1062.57 2547.94C1062.57 2545.38 1064.65 2543.3 1067.21 2543.3C1069.77 2543.3 1071.85 2545.38 1071.85 2547.94ZM1011.51 2589.71C1014.08 2589.71 1016.15 2587.63 1016.15 2585.07C1016.15 2582.51 1014.08 2580.43 1011.51 2580.43C1008.95 2580.43 1006.87 2582.51 1006.87 2585.07C1006.87 2587.63 1008.95 2589.71 1011.51 2589.71ZM872.295 2645.4C874.858 2645.4 876.936 2643.32 876.936 2640.76C876.936 2638.2 874.858 2636.12 872.295 2636.12C869.732 2636.12 867.655 2638.2 867.655 2640.76C867.655 2643.32 869.732 2645.4 872.295 2645.4ZM839.804 2650.04C839.804 2652.6 837.726 2654.68 835.163 2654.68C832.6 2654.68 830.522 2652.6 830.522 2650.04C830.522 2647.48 832.6 2645.4 835.163 2645.4C837.726 2645.4 839.804 2647.48 839.804 2650.04ZM798.04 2659.32C800.603 2659.32 802.681 2657.24 802.681 2654.68C802.681 2652.12 800.603 2650.04 798.04 2650.04C795.477 2650.04 793.4 2652.12 793.4 2654.68C793.4 2657.24 795.477 2659.32 798.04 2659.32ZM765.559 2659.32C765.559 2661.88 763.481 2663.96 760.918 2663.96C758.355 2663.96 756.277 2661.88 756.277 2659.32C756.277 2656.76 758.355 2654.68 760.918 2654.68C763.481 2654.68 765.559 2656.76 765.559 2659.32ZM723.783 2663.96C726.346 2663.96 728.424 2661.88 728.424 2659.32C728.424 2656.76 726.346 2654.68 723.783 2654.68C721.22 2654.68 719.142 2656.76 719.142 2659.32C719.142 2661.88 721.22 2663.96 723.783 2663.96ZM691.301 2654.68C691.301 2657.24 689.223 2659.32 686.66 2659.32C684.097 2659.32 682.02 2657.24 682.02 2654.68C682.02 2652.12 684.097 2650.04 686.66 2650.04C689.223 2650.04 691.301 2652.12 691.301 2654.68ZM649.538 2650.04C652.101 2650.04 654.178 2647.96 654.178 2645.4C654.178 2642.84 652.101 2640.76 649.538 2640.76C646.975 2640.76 644.897 2642.84 644.897 2645.4C644.897 2647.96 646.975 2650.04 649.538 2650.04ZM612.401 2636.12C612.401 2638.68 610.323 2640.76 607.76 2640.76C605.197 2640.76 603.119 2638.68 603.119 2636.12C603.119 2633.55 605.197 2631.48 607.76 2631.48C610.323 2631.48 612.401 2633.55 612.401 2636.12ZM570.637 2626.84C573.2 2626.84 575.278 2624.76 575.278 2622.19C575.278 2619.63 573.2 2617.55 570.637 2617.55C568.074 2617.55 565.996 2619.63 565.996 2622.19C565.996 2624.76 568.074 2626.84 570.637 2626.84ZM542.798 2608.27C542.798 2610.84 540.721 2612.91 538.158 2612.91C535.595 2612.91 533.517 2610.84 533.517 2608.27C533.517 2605.71 535.595 2603.63 538.158 2603.63C540.721 2603.63 542.798 2605.71 542.798 2608.27ZM505.666 2598.99C508.229 2598.99 510.307 2596.91 510.307 2594.35C510.307 2591.79 508.229 2589.71 505.666 2589.71C503.103 2589.71 501.025 2591.79 501.025 2594.35C501.025 2596.91 503.103 2598.99 505.666 2598.99ZM914.061 2631.48C914.061 2634.04 911.984 2636.12 909.42 2636.12C906.857 2636.12 904.78 2634.04 904.78 2631.48C904.78 2628.91 906.857 2626.84 909.42 2626.84C911.984 2626.84 914.061 2628.91 914.061 2631.48ZM1183.23 2422.64C1185.8 2422.64 1187.87 2420.56 1187.87 2418C1187.87 2415.44 1185.8 2413.36 1183.23 2413.36C1180.67 2413.36 1178.59 2415.44 1178.59 2418C1178.59 2420.56 1180.67 2422.64 1183.23 2422.64ZM983.673 2603.63C983.673 2606.2 981.595 2608.27 979.032 2608.27C976.469 2608.27 974.392 2606.2 974.392 2603.63C974.392 2601.07 976.469 2598.99 979.032 2598.99C981.595 2598.99 983.673 2601.07 983.673 2603.63ZM1039.36 2571.15C1041.92 2571.15 1044 2569.07 1044 2566.5C1044 2563.94 1041.92 2561.86 1039.36 2561.86C1036.8 2561.86 1034.72 2563.94 1034.72 2566.5C1034.72 2569.07 1036.8 2571.15 1039.36 2571.15ZM1146.11 2473.69C1146.11 2476.25 1144.03 2478.33 1141.47 2478.33C1138.9 2478.33 1136.83 2476.25 1136.83 2473.69C1136.83 2471.13 1138.9 2469.05 1141.47 2469.05C1144.03 2469.05 1146.11 2471.13 1146.11 2473.69Z" fill="#939393" fill-opacity="0.2"/>
<defs>
<linearGradient id="paint0_linear_488_1055" x1="760" y1="1900" x2="622.398" y2="933.592" gradientUnits="userSpaceOnUse">
<stop offset="0.0988495" stop-color="#0EE4BE"/>
<stop offset="1" stop-color="#3B4040"/>
</linearGradient>
<linearGradient id="paint1_linear_488_1055" x1="708" y1="4365" x2="845.602" y2="3398.59" gradientUnits="userSpaceOnUse">
<stop offset="0.0988495" stop-color="#0EE4BE"/>
<stop offset="1" stop-color="#3B4040"/>
</linearGradient>
<linearGradient id="paint2_linear_488_1055" x1="-339.999" y1="829.724" x2="1544.9" y2="-165.853" gradientUnits="userSpaceOnUse">
<stop offset="0.301757" stop-color="#00CB9A"/>
<stop offset="1"/>
</linearGradient>
</defs>
</svg>
