<svg width="1444" height="2164" viewBox="0 0 1444 2164" fill="none" xmlns="http://www.w3.org/2000/svg">
<path opacity="0.5" d="M1.94873 2100.5H545.687M1444 2100.5H1149.91M678.758 1678.65L814.525 1960.32M678.758 1678.65H949.953M678.758 1678.65L611.548 1539.45L747.146 1259.63L881.892 1538.03M912.221 2163L814.525 1960.32M111.606 2163L176.276 2030.9M192.965 1996.81L176.457 1962.57M192.965 1996.81L176.276 2030.9M192.965 1996.81L273.144 2163M192.965 1996.81L208.41 1958.46M1.94873 2040.85L108.069 1820.68L176.457 1962.57M79.77 2163L176.457 1962.57M1.94873 2030.9H176.276M213.009 2163L376.906 1819.26M376.906 1819.26H141.084L208.41 1958.46M376.906 1819.26H409.921M307.338 2163L208.41 1958.46M208.41 1958.46H478.309M478.309 1958.46L409.921 1819.26M478.309 1958.46L381.622 2163M478.309 1958.46L545.687 2100.5M409.921 1819.26L246.024 2163M574.996 2162.29L545.687 2100.5M512.503 1958.46L414.637 2163M512.503 1958.46L579.713 2100.5M512.503 1958.46H780.161M545.687 2100.5L514.861 2163M545.687 2100.5H579.713M579.713 2100.5L549.056 2163M579.713 2100.5L609.19 2163M579.713 2100.5H847.37M780.161 1958.46L684.653 2163M780.161 1958.46L906.931 1695.69M1444 1695.69H1310.17M717.668 2163L814.525 1960.32M924.013 1731.2L906.931 1695.69M924.013 1731.2L815.41 1958.46M924.013 1731.2L1041.12 1976.22M906.931 1695.69L1041.92 1415.87H906.419M906.931 1695.69H1175.75M906.931 1695.69H771.907M1058.43 2012.44H923.492M1058.43 2012.44H1444L1419.18 1960.59M1058.43 2012.44L1084.37 1958.46M1058.43 2012.44L1041.12 1976.22M655.211 2012.44L520.757 1731.2H789.594M655.211 2012.44L789.594 1731.2M655.211 2012.44H923.492M789.594 1731.2L906.326 1975.51M789.594 1731.2L771.907 1695.69M789.594 1731.2L881.892 1538.03M906.326 1975.51L1175.16 1415.87L1310.17 1695.69M906.326 1975.51L847.37 2100.5M817.893 2163L847.37 2100.5M1310.17 1695.69L1175.16 1974.09M1310.17 1695.69H1175.75M1175.16 1974.09L1057.54 1729.78M1175.16 1974.09L1265.36 2163M888.639 1378.94H755.4M888.639 1378.94L906.419 1415.87M888.639 1378.94L755.4 1657.34L620.981 1378.94M888.639 1099.12L755.4 1378.94M888.639 1099.12H754.221M888.639 1099.12L872.132 1065.03M755.4 1378.94L737.713 1344.85M755.4 1378.94H620.981M852.087 2163L923.492 2012.44M1057.54 1729.78L923.492 2012.44M1057.54 1729.78L906.419 1415.87M814.525 1960.32L815.41 1958.46M815.41 1958.46H1084.37M1084.37 1958.46L1191.67 1732.62L1343.56 2047.63M1399.19 2163L1343.56 2047.63M847.37 2100.5L878.027 2163M847.37 2100.5H1149.91M923.492 2012.44L940.162 2046.53M997.117 2163L940.162 2046.53M940.162 2046.53L882.744 2163M1444 1678.65H1284.23L1351.54 1819.26M1041.12 1976.22L1175.75 1695.69M1315.55 1818.55L1251.81 1678.65H982.55M1315.55 1818.55H1286M1315.55 1818.55L1317.16 1822.11M1050.18 1818.55L1184.6 1539.45L1117.39 1399.54M1050.18 1818.55L982.55 1678.65M1050.18 1818.55H1286M914.58 1538.03L1050.18 1259.63L1117.39 1399.54M914.58 1538.03L982.55 1678.65M914.58 1538.03L780.161 1259.63M1117.39 1399.54L982.55 1678.65M982.55 1678.65H949.953M1119.74 2163L1149.91 2100.5M1286 1818.55L1149.91 2100.5M1317.16 1822.11L1152.76 2163M1317.16 1822.11L1384.45 1958.46M1149.91 2100.5L1181.06 2163M1215.84 2163L1116.21 1958.46H1384.45M1384.45 1958.46L1444 2081.33M1351.54 1819.26H1444M1351.54 1819.26L1419.18 1960.59M1254.16 2163L1444 1768.13M1288.36 2163L1343.56 2047.63M1444 1837.73L1343.56 2047.63M1343.56 2047.63H1444L1387.4 2163M1422.78 2163L1444 2119.68M1324.32 2163L1419.18 1960.59M1419.18 1960.59H1444M949.953 1678.65L881.892 1538.03M771.907 1695.69H503.07L368.652 1415.87H906.419M771.907 1695.69L906.419 1415.87M780.161 1259.63L737.713 1344.85M780.161 1259.63L872.132 1065.03M737.713 1344.85L452.193 749.707M620.981 1378.94L754.221 1099.12M620.981 1378.94H486.563M754.221 1099.12H485.384L350.965 1378.94H486.563M872.132 1065.03L738.892 783.797M738.892 783.797L469.466 1343.41M738.892 783.797H603.103M1.94873 783.797H66.2102M486.563 1378.94L469.466 1343.41M49.1131 469.889H1.94873M49.1131 469.889H119.498M49.1131 469.889L317.735 1028.1M385.159 749.707L250.741 469.889H181.763M385.159 749.707H319.129M385.159 749.707H452.193M1.94873 749.707H49.7027M586.787 749.707L452.369 1026.68L335.528 783.797M586.787 749.707L603.103 783.797M586.787 749.707H452.193M319.129 749.707L335.528 783.797M319.129 749.707H253.099M256.636 4L501.456 513.922M939.341 869.02L804.922 1146L653.03 829.629M939.341 869.02L804.922 587.782M939.341 869.02H1074.94L938.162 587.782M939.341 869.02H803.654M804.922 587.782H938.162M804.922 587.782L536.085 1144.58L481.846 1033.79M804.922 587.782H669.317M938.162 587.782L803.654 869.02M131.651 869.02L317.95 469.889L452.193 749.707M131.651 869.02L1.94873 594.884M131.651 869.02H266.954M1.94873 587.782H401.573M481.846 1033.79L468.876 1065.03L604.474 1342.01L737.713 1065.03M481.846 1033.79L402.256 869.02M481.846 1033.79L603.103 783.797M737.713 1065.03H335.506M737.713 1065.03L603.103 783.797M350.965 623.292L249.725 832.8M350.965 623.292L486.659 904.53M350.965 623.292L596.307 111.95M648.101 4L596.307 111.95M350.965 904.53L486.563 627.553M350.965 904.53L619.802 903.586M350.965 904.53L486.563 1185.77L619.802 903.586M486.563 627.553L619.802 903.586M486.563 627.553L653.996 272.455M619.802 903.586L755.4 903.11L620.981 1182.93L486.659 904.53M402.256 869.02L536.917 587.782M402.256 869.02H266.954M402.256 869.02H536.721M536.917 587.782L653.03 829.629M536.917 587.782H401.573M536.917 587.782H669.317M536.917 587.782L501.456 513.922M335.506 1065.03L469.466 1343.41M335.506 1065.03H200.563M335.506 1065.03L469.316 783.797M335.506 1065.03L317.735 1028.1M1.94873 931.518L65.6207 1065.03H200.563M121.039 4L215.957 201.522M803.654 869.02L670.504 1147.42L536.721 869.02M803.654 869.02H536.721M803.654 869.02L669.317 587.782M390.465 4L652.355 552.272M653.03 829.629L788.415 552.272L653.996 272.455M653.996 272.455H385.159M653.996 272.455H787.825M116.322 272.455L233.054 513.922L477.13 4L528.964 113.37M116.322 272.455H250.044M116.322 272.455L99.2253 236.945M390.465 394.609H662.25L528.964 113.37M390.465 394.609L528.964 113.37M390.465 394.609L323.822 253.989M528.964 113.37H293.189M528.964 113.37L561.399 113.243M293.189 113.37L345.07 4M293.189 113.37L119.498 469.889M98.0462 513.922L1.94873 315.066M98.0462 513.922L119.498 469.889M98.0462 513.922L116.288 552.272M266.954 869.02L401.573 587.782M266.954 869.02L249.725 832.8M401.573 587.782L536.721 869.02M401.573 587.782L367.445 516.762M335.528 783.797L200.563 1065.03M335.528 783.797H66.2102M335.528 783.797H469.316M200.563 1065.03L66.2102 783.797M49.7027 749.707L1.94873 648.859M49.7027 749.707L181.763 469.889M49.7027 749.707H253.099M181.763 469.889H119.498M119.498 469.889L253.099 749.707M249.725 832.8L116.288 552.272M386.928 834.931L250.741 552.272L385.159 272.455M385.159 272.455H250.044M116.288 552.272H652.355M116.288 552.272L250.044 272.455M603.103 783.797H469.316M317.735 1028.1L452.193 749.707M486.659 904.53L652.355 552.272M652.355 552.272L669.317 587.782M652.355 552.272H921.654M652.355 552.272L787.825 272.455M536.721 869.02L669.317 587.782M669.317 587.782L804.922 307.964M804.922 307.964L787.825 272.455M804.922 307.964L921.654 552.272M787.825 272.455H1056.07M921.654 552.272H1056.07L1189.31 272.455H1056.07M921.654 552.272L998.075 393.188M1056.07 272.455L998.075 393.188M998.075 393.188H1266.54L1199.91 253.989M998.075 393.188L931.1 253.989M1080.24 4L1199.91 253.989M810.818 4L862.758 111.95M696.444 394.609H964.692L829.094 111.95M696.444 394.609L561.399 113.243M696.444 394.609L771.907 236.945M508.966 4L561.399 113.243M829.094 111.95H862.758M829.094 111.95H596.307M862.758 111.95L931.1 253.989M862.758 111.95L918.117 4M658.713 4L771.907 236.945M771.907 236.945L881.565 4M771.907 236.945H904.557L1014.8 4M771.907 236.945H635.549M1.94873 236.945H99.2253M1.94873 253.989H23.3178M1199.91 253.989H931.1M501.456 513.922L635.549 236.945M748.325 4L635.549 236.945M635.549 236.945L526.063 4M635.549 236.945H99.2253M613.907 4L561.399 113.243M367.445 516.762L561.399 113.243M367.445 516.762L250.044 272.455M445.884 4L323.822 253.989M323.822 253.989H23.3178M323.822 253.989L257.156 113.321M323.822 253.989H931.1M91.5611 394.609H359.809L224.8 113.321M91.5611 394.609L23.3178 253.989M91.5611 394.609L224.8 113.321M1.94873 209.957L23.3178 253.989M23.3178 253.989L142.852 4M224.8 113.321L172.33 4L82.1282 198.594L1.94873 32.4077M224.8 113.321H1.94873M224.8 113.321H257.156M257.156 113.321L205.345 4L99.2253 236.945M257.156 113.321L215.957 201.522M257.156 113.321L310.875 4M215.957 201.522L250.044 272.455M931.1 253.989L1050.18 4M1301.33 393.188H1444M1301.33 393.188L1436.93 114.791M1301.33 393.188L1234.27 253.989M1113.85 4L1165.85 111.95M1436.93 114.791L1383.28 4M1436.93 114.791L1444 133.256M1234.27 253.989H1444M1234.27 253.989L1354.39 4M1234.27 253.989L1165.85 111.95M1165.85 111.95L1218.79 4M1165.85 111.95H899.251L951.132 4M1.94873 157.403L76.2326 4M1.94873 89.2236L43.2176 4M1.94873 21.0447L10.2025 4M1444 60.8157L1435.86 43.771M1416.88 4L1435.86 43.771M1435.86 43.771H1444M1435.86 43.771L1444 25.3059" stroke="url(#paint0_linear_497_1132)" stroke-opacity="0.6" stroke-width="3"/>
<defs>
<linearGradient id="paint0_linear_497_1132" x1="723.45" y1="3.99988" x2="723.45" y2="2163" gradientUnits="userSpaceOnUse">
<stop offset="0.276127" stop-color="#DB0000"/>
<stop offset="1" stop-color="#ADADAD"/>
</linearGradient>
</defs>
</svg>
