<svg width="1520" height="1514" viewBox="0 0 1520 1514" fill="none" xmlns="http://www.w3.org/2000/svg">
<path opacity="0.5" d="M0 1469.29H573.129M1520 1469.29H1210.01M713.393 1174.24L856.5 1371.24M713.393 1174.24H999.248M713.393 1174.24L642.551 1076.89L785.478 881.184L927.508 1075.89M959.477 1513L856.5 1371.24M115.585 1513L183.75 1420.61M201.341 1396.77L183.941 1372.82M201.341 1396.77L183.75 1420.61M201.341 1396.77L285.854 1513M201.341 1396.77L217.621 1369.95M0 1427.57L111.856 1273.59L183.941 1372.82M82.0278 1513L183.941 1372.82M0 1420.61H183.75M222.469 1513L395.225 1272.59M395.225 1272.59H146.656L217.621 1369.95M395.225 1272.59H430.025M321.897 1513L217.621 1369.95M217.621 1369.95H502.11M502.11 1369.95L430.025 1272.59M502.11 1369.95L400.196 1513M502.11 1369.95L573.129 1469.29M430.025 1272.59L257.269 1513M604.023 1512.5L573.129 1469.29M538.152 1369.95L434.996 1513M538.152 1369.95L608.994 1469.29M538.152 1369.95H820.278M573.129 1469.29L540.638 1513M573.129 1469.29H608.994M608.994 1469.29L576.68 1513M608.994 1469.29L640.065 1513M608.994 1469.29H891.12M820.278 1369.95L719.607 1513M820.278 1369.95L953.9 1186.16M1520 1186.16H1378.94M754.407 1513L856.5 1371.24M971.905 1211L953.9 1186.16M971.905 1211L857.432 1369.95M971.905 1211L1095.34 1382.37M953.9 1186.16L1096.19 990.461H953.36M953.9 1186.16H1237.25M953.9 1186.16H811.578M1113.59 1407.7H971.356M1113.59 1407.7H1520L1493.84 1371.44M1113.59 1407.7L1140.93 1369.95M1113.59 1407.7L1095.34 1382.37M688.573 1407.7L546.852 1211H830.221M688.573 1407.7L830.221 1211M688.573 1407.7H971.356M830.221 1211L953.262 1381.87M830.221 1211L811.578 1186.16M830.221 1211L927.508 1075.89M953.262 1381.87L1236.63 990.461L1378.94 1186.16M953.262 1381.87L891.12 1469.29M860.049 1513L891.12 1469.29M1378.94 1186.16L1236.63 1380.87M1378.94 1186.16H1237.25M1236.63 1380.87L1112.66 1210.01M1236.63 1380.87L1331.71 1513M934.62 964.632L794.178 964.632M934.62 964.632L953.36 990.461M934.62 964.632L794.178 1159.34L652.494 964.632M934.62 768.928L794.178 964.632M934.62 768.928L792.935 768.928M934.62 768.928L917.22 745.086M794.178 964.632L775.536 940.789M794.178 964.632H652.494M896.092 1513L971.356 1407.7M1112.66 1210.01L971.356 1407.7M1112.66 1210.01L953.36 990.461M856.5 1371.24L857.432 1369.95M857.432 1369.95H1140.93M1140.93 1369.95L1254.03 1211.99L1414.13 1432.31M1472.77 1513L1414.13 1432.31M891.12 1469.29L923.434 1513M891.12 1469.29H1210.01M971.356 1407.7L988.927 1431.54M1048.96 1513L988.927 1431.54M988.927 1431.54L928.406 1513M1520 1174.24H1351.59L1422.54 1272.59M1095.34 1382.37L1237.25 1186.16M1384.6 1272.1L1317.42 1174.24H1033.61M1384.6 1272.1H1353.46M1384.6 1272.1L1386.31 1274.58M1104.89 1272.1L1246.57 1076.89L1175.73 979.036M1104.89 1272.1L1033.61 1174.24M1104.89 1272.1H1353.46M961.962 1075.89L1104.89 881.184L1175.73 979.036M961.962 1075.89L1033.61 1174.24M961.962 1075.89L820.278 881.184M1175.73 979.036L1033.61 1174.24M1033.61 1174.24H999.248M1178.22 1513L1210.01 1469.29M1353.46 1272.1L1210.01 1469.29M1386.31 1274.58L1213.02 1513M1386.31 1274.58L1457.24 1369.95M1210.01 1469.29L1242.85 1513M1279.51 1513L1174.49 1369.95H1457.24M1457.24 1369.95L1520 1455.88M1422.54 1272.59H1520M1422.54 1272.59L1493.84 1371.44M1319.9 1513L1520 1236.83M1355.94 1513L1414.13 1432.31M1520 1285.51L1414.13 1432.31M1414.13 1432.31H1520L1460.34 1513M1497.63 1513L1520 1482.7M1393.85 1513L1493.84 1371.44M1493.84 1371.44H1520M999.248 1174.24L927.508 1075.89M811.578 1186.16H528.209L386.525 990.461L953.36 990.461M811.578 1186.16L953.36 990.461M820.278 881.184L775.536 940.789M820.278 881.184L917.22 745.086M775.536 940.789L474.581 524.546M652.494 964.632L792.935 768.928M652.494 964.632H510.809M792.935 768.928H509.567L367.882 964.632H510.809M917.22 745.086L776.778 548.388M776.778 548.388L492.788 939.783M776.778 548.388H633.65M0 548.388H67.7351M510.809 964.632L492.788 939.783M49.7138 328.842H0M49.7138 328.842H123.903M49.7138 328.842L332.855 719.257M403.925 524.546L262.24 328.842H189.534M403.925 524.546H334.325M403.925 524.546H474.581M0 524.546H50.3352M616.451 524.546L474.767 718.263L351.611 548.388M616.451 524.546L633.65 548.388M616.451 524.546H474.581M334.325 524.546L351.611 548.388M334.325 524.546H264.726M268.455 2.99996L526.507 359.638M988.062 607.993L846.378 801.711L686.275 580.443M988.062 607.993L846.378 411.296M988.062 607.993H1130.99L986.819 411.296M988.062 607.993L845.04 607.993M846.378 411.296H986.819M846.378 411.296L563.009 800.717L505.838 723.23M846.378 411.296H703.442M986.819 411.296L845.04 607.993M136.713 607.993L333.083 328.842L474.581 524.546M136.713 607.993L0 416.263M136.713 607.993H279.33M0 411.296H421.226M505.838 723.23L492.167 745.086L635.094 938.803L775.536 745.086M505.838 723.23L421.946 607.993M505.838 723.23L633.65 548.388M775.536 745.086H351.587M775.536 745.086L633.65 548.388M367.882 436.132L261.17 582.661M367.882 436.132L510.91 632.829M367.882 436.132L626.485 78.5M681.079 2.99996L626.485 78.5M367.882 632.829L510.809 439.112M367.882 632.829L651.251 632.169M367.882 632.829L510.809 829.526L651.251 632.169M510.809 439.112L651.251 632.169M510.809 439.112L687.294 190.757M651.251 632.169L794.178 631.836L652.494 827.539L510.91 632.829M421.946 607.993L563.885 411.296M421.946 607.993H279.33M421.946 607.993H563.679M563.885 411.296L686.275 580.443M563.885 411.296H421.226M563.885 411.296H703.442M563.885 411.296L526.507 359.638M351.587 745.086L492.788 939.783M351.587 745.086H209.351M351.587 745.086L492.63 548.388M351.587 745.086L332.855 719.257M0 651.704L67.1137 745.086H209.351M125.527 2.99996L225.576 141.146M845.04 607.993L704.693 802.704L563.679 607.993M845.04 607.993H563.679M845.04 607.993L703.442 411.296M409.518 2.99996L685.563 386.46M686.275 580.443L828.978 386.46L687.294 190.757M687.294 190.757H403.925M687.294 190.757H828.356M120.556 190.757L243.598 359.638L500.867 2.99996L555.502 79.4934M120.556 190.757H261.505M120.556 190.757L102.535 165.921M409.518 276.191H695.993L555.502 79.4934M409.518 276.191L555.502 79.4934M409.518 276.191L339.272 177.842M555.502 79.4934H306.983M555.502 79.4934L589.69 79.4041M306.983 79.4934L361.668 2.99996M306.983 79.4934L123.903 328.842M101.292 359.638L0 220.559M101.292 359.638L123.903 328.842M101.292 359.638L120.52 386.46M279.33 607.993L421.226 411.296M279.33 607.993L261.17 582.661M421.226 411.296L563.679 607.993M421.226 411.296L385.253 361.625M351.611 548.388L209.351 745.086M351.611 548.388H67.7351M351.611 548.388H492.63M209.351 745.086L67.7351 548.388M50.3352 524.546L0 454.013M50.3352 524.546L189.534 328.842M50.3352 524.546H264.726M189.534 328.842H123.903M123.903 328.842L264.726 524.546M261.17 582.661L120.52 386.46M405.789 584.151L262.24 386.46L403.925 190.757M403.925 190.757H261.505M120.52 386.46H685.563M120.52 386.46L261.505 190.757M633.65 548.388H492.63M332.855 719.257L474.581 524.546M510.91 632.829L685.563 386.46M685.563 386.46L703.442 411.296M685.563 386.46H969.419M685.563 386.46L828.356 190.757M563.679 607.993L703.442 411.296M703.442 411.296L846.378 215.592M846.378 215.592L828.356 190.757M846.378 215.592L969.419 386.46M828.356 190.757H1111.1M969.419 386.46H1111.1L1251.55 190.757H1111.1M969.419 386.46L1049.97 275.197M1111.1 190.757L1049.97 275.197M1049.97 275.197H1332.95L1262.72 177.842M1049.97 275.197L979.376 177.842M1136.58 2.99996L1262.72 177.842M852.592 2.99996L907.339 78.5M732.036 276.191H1014.78L871.856 78.5M732.036 276.191L589.69 79.4041M732.036 276.191L811.578 165.921M534.424 2.99996L589.69 79.4041M871.856 78.5H907.339M871.856 78.5H626.485M907.339 78.5L979.376 177.842M907.339 78.5L965.691 2.99996M692.265 2.99996L811.578 165.921M811.578 165.921L927.163 2.99996M811.578 165.921H951.398L1067.6 2.99996M811.578 165.921H667.849M0 165.921H102.535M0 177.842H22.5242M1262.72 177.842H979.376M526.507 359.638L667.849 165.921M786.721 2.99996L667.849 165.921M667.849 165.921L552.445 2.99996M667.849 165.921H102.535M645.037 2.99996L589.69 79.4041M385.253 361.625L589.69 79.4041M385.253 361.625L261.505 190.757M467.931 2.99996L339.272 177.842M339.272 177.842H22.5242M339.272 177.842L269.002 79.4591M339.272 177.842H979.376M94.4563 276.191H377.204L234.898 79.4591M94.4563 276.191L22.5242 177.842M94.4563 276.191L234.898 79.4591M0 147.046L22.5242 177.842M22.5242 177.842L148.52 2.99996M234.898 79.4591L179.591 2.99996L84.5135 139.099L0 22.8684M234.898 79.4591H0M234.898 79.4591H269.002M269.002 79.4591L214.391 2.99996L102.535 165.921M269.002 79.4591L225.576 141.146M269.002 79.4591L325.625 2.99996M225.576 141.146L261.505 190.757M979.376 177.842L1104.89 2.99996M1369.62 275.197H1520M1369.62 275.197L1512.54 80.4868M1369.62 275.197L1298.94 177.842M1172 2.99996L1226.82 78.5M1512.54 80.4868L1455.99 2.99996M1512.54 80.4868L1520 93.4013M1298.94 177.842H1520M1298.94 177.842L1425.54 2.99996M1298.94 177.842L1226.82 78.5M1226.82 78.5L1282.62 2.99996M1226.82 78.5H945.805L1000.49 2.99996M0 110.289L78.2993 2.99996M0 62.6052L43.4996 2.99996M0 14.921L8.69992 2.99996M1520 42.7368L1511.42 30.8158M1491.41 2.99996L1511.42 30.8158M1511.42 30.8158H1520M1511.42 30.8158L1520 17.9013" stroke="url(#paint0_linear_1849_6260)" stroke-opacity="0.6" stroke-width="3"/>
<defs>
<linearGradient id="paint0_linear_1849_6260" x1="760.502" y1="2.99991" x2="760.502" y2="1513" gradientUnits="userSpaceOnUse">
<stop offset="0.276127" stop-color="#DB0000"/>
<stop offset="1" stop-color="#ADADAD"/>
</linearGradient>
</defs>
</svg>
