<svg width="191" height="52" viewBox="0 0 191 52" fill="none" xmlns="http://www.w3.org/2000/svg">
<path d="M143.055 1H95.7377H11.1025C5.57969 1 1.10254 5.47715 1.10254 11V41.5049C1.10254 47.0277 5.57968 51.5049 11.1025 51.5049H95.7377" stroke="white" stroke-linejoin="round"/>
<path d="M50.8399 35.8254L47.3149 29.0004H47.0649H43.0649V35.8254H40.8649V18.4254H46.7649C48.8482 18.4254 50.3982 18.8671 51.4149 19.7504C52.4316 20.6171 52.9399 21.8921 52.9399 23.5754C52.9399 24.8254 52.6649 25.8838 52.1149 26.7504C51.5649 27.6171 50.7566 28.2338 49.6899 28.6004L53.4899 35.8254H50.8399ZM46.7899 26.9254C48.0899 26.9254 49.0399 26.6754 49.6399 26.1754C50.2566 25.6588 50.5649 24.7921 50.5649 23.5754C50.5649 22.4588 50.2566 21.6754 49.6399 21.2254C49.0399 20.7588 48.0816 20.5254 46.7649 20.5254H43.0649V26.9254H46.7899ZM74.386 36.1254C73.4193 36.1254 72.411 36.0004 71.361 35.7504C70.311 35.5004 69.3193 35.1588 68.386 34.7254V32.3504C69.486 32.9504 70.5026 33.3921 71.436 33.6754C72.386 33.9588 73.3193 34.1004 74.236 34.1004C75.386 34.1004 76.2776 33.8421 76.911 33.3254C77.5443 32.8088 77.861 32.1004 77.861 31.2004C77.861 30.5838 77.686 30.0671 77.336 29.6504C76.986 29.2338 76.5443 28.9004 76.011 28.6504C75.4776 28.4004 74.761 28.1254 73.861 27.8254C72.7776 27.4588 71.9026 27.1088 71.236 26.7754C70.586 26.4421 70.0276 25.9671 69.561 25.3504C69.0943 24.7338 68.861 23.9338 68.861 22.9504C68.861 21.4838 69.3943 20.3171 70.461 19.4504C71.5276 18.5671 72.961 18.1254 74.761 18.1254C76.511 18.1254 78.1193 18.5004 79.586 19.2504V21.5504C77.936 20.6171 76.3276 20.1504 74.761 20.1504C73.611 20.1504 72.711 20.3838 72.061 20.8504C71.411 21.3004 71.086 21.9254 71.086 22.7254C71.086 23.2754 71.2526 23.7338 71.586 24.1004C71.9193 24.4671 72.3276 24.7671 72.811 25.0004C73.2943 25.2171 73.9776 25.4838 74.861 25.8004C75.961 26.1671 76.861 26.5254 77.561 26.8754C78.261 27.2254 78.8526 27.7338 79.336 28.4004C79.836 29.0671 80.086 29.9254 80.086 30.9754C80.086 32.0088 79.8526 32.9171 79.386 33.7004C78.9193 34.4671 78.2526 35.0671 77.386 35.5004C76.5193 35.9171 75.5193 36.1254 74.386 36.1254ZM106.318 35.8254L102.793 29.0004H102.543H98.5434V35.8254H96.3434V18.4254H102.243C104.327 18.4254 105.877 18.8671 106.893 19.7504C107.91 20.6171 108.418 21.8921 108.418 23.5754C108.418 24.8254 108.143 25.8838 107.593 26.7504C107.043 27.6171 106.235 28.2338 105.168 28.6004L108.968 35.8254H106.318ZM102.268 26.9254C103.568 26.9254 104.518 26.6754 105.118 26.1754C105.735 25.6588 106.043 24.7921 106.043 23.5754C106.043 22.4588 105.735 21.6754 105.118 21.2254C104.518 20.7588 103.56 20.5254 102.243 20.5254H98.5434V26.9254H102.268ZM124.235 18.4254L117.86 35.8254H115.11L108.735 18.4254H111.06L116.56 33.4004L122.035 18.4254H124.235ZM149.331 35.8254L145.806 29.0004H145.556H141.556V35.8254H139.356V18.4254H145.256C147.339 18.4254 148.889 18.8671 149.906 19.7504C150.923 20.6171 151.431 21.8921 151.431 23.5754C151.431 24.8254 151.156 25.8838 150.606 26.7504C150.056 27.6171 149.248 28.2338 148.181 28.6004L151.981 35.8254H149.331ZM145.281 26.9254C146.581 26.9254 147.531 26.6754 148.131 26.1754C148.748 25.6588 149.056 24.7921 149.056 23.5754C149.056 22.4588 148.748 21.6754 148.131 21.2254C147.531 20.7588 146.573 20.5254 145.256 20.5254H141.556V26.9254H145.281Z" fill="white"/>
<path fill-rule="evenodd" clip-rule="evenodd" d="M124.129 18.8254H134.539V21.7963H124.129V18.8254ZM124.129 32.6895H134.539V35.6604H124.129V32.6895ZM131.7 25.7575H124.129V28.7284H131.7V25.7575Z" fill="white"/>
<path fill-rule="evenodd" clip-rule="evenodd" d="M83.4355 18.8254H93.8454V21.7963H83.4355V18.8254ZM83.4355 32.6895H93.8454V35.6604H83.4355V32.6895ZM91.0064 25.7575H83.4355V28.7284H91.0064V25.7575Z" fill="white"/>
<path fill-rule="evenodd" clip-rule="evenodd" d="M57.8838 18.8254H68.2937V21.7963H57.8838V18.8254ZM57.8838 32.6895H68.2937V35.6604H57.8838V32.6895ZM64.5083 25.7575H57.8838V28.7284H64.5083V25.7575Z" fill="white"/>
<rect width="1.93714" height="4.38453" transform="matrix(0.690886 0.722964 -0.690886 0.722964 63.752 11.8933)" fill="white"/>
<ellipse cx="97.8675" cy="50.762" rx="1.18294" ry="1.23786" fill="white"/>
<ellipse cx="107.331" cy="50.762" rx="1.18294" ry="1.23786" fill="white"/>
<ellipse cx="116.794" cy="50.762" rx="1.18294" ry="1.23786" fill="white"/>
<ellipse cx="126.258" cy="50.762" rx="1.18294" ry="1.23786" fill="white"/>
<ellipse cx="189.663" cy="32.9368" rx="1.18294" ry="1.23786" fill="white"/>
<ellipse cx="189.663" cy="23.034" rx="1.18294" ry="1.23786" fill="white"/>
<ellipse cx="189.663" cy="13.1312" rx="1.18294" ry="1.23786" fill="white"/>
<ellipse cx="185.878" cy="4.21833" rx="1.18294" ry="1.23786" fill="white"/>
<ellipse cx="176.414" cy="2.23786" rx="1.18294" ry="1.23786" fill="white"/>
<ellipse cx="166.951" cy="2.23786" rx="1.18294" ry="1.23786" fill="white"/>
<ellipse cx="157.488" cy="2.23786" rx="1.18295" ry="1.23786" fill="white"/>
<ellipse cx="148.024" cy="2.23786" rx="1.18294" ry="1.23786" fill="white"/>
<ellipse cx="135.722" cy="50.762" rx="1.18295" ry="1.23786" fill="white"/>
<ellipse cx="145.185" cy="50.762" rx="1.18294" ry="1.23786" fill="white"/>
<ellipse cx="154.649" cy="50.762" rx="1.18294" ry="1.23786" fill="white"/>
<ellipse cx="164.113" cy="50.762" rx="1.18294" ry="1.23786" fill="white"/>
<ellipse cx="173.576" cy="50.762" rx="1.18295" ry="1.23786" fill="white"/>
<ellipse cx="183.039" cy="50.2669" rx="1.18294" ry="1.23787" fill="white"/>
<ellipse cx="189.663" cy="42.8399" rx="1.18294" ry="1.23787" fill="white"/>
</svg>
