<svg width="190" height="23" viewBox="0 0 190 23" fill="none" xmlns="http://www.w3.org/2000/svg">
<path d="M8.89 11.02C10.15 11.26 11.2 11.88 12.04 12.88C12.88 13.86 13.3 15.02 13.3 16.36C13.3 18.02 12.73 19.38 11.59 20.44C10.45 21.48 8.79 22 6.61 22H0.55V0.879998H6.61C8.71 0.879998 10.27 1.36 11.29 2.32C12.31 3.26 12.82 4.5 12.82 6.04C12.82 7.44 12.44 8.56 11.68 9.4C10.94 10.24 10.01 10.78 8.89 11.02ZM1.15 10.72H6.79C8.55 10.72 9.89 10.31 10.81 9.49C11.75 8.65 12.22 7.5 12.22 6.04C12.22 4.64 11.76 3.53 10.84 2.71C9.92 1.89 8.51 1.48 6.61 1.48H1.15V10.72ZM6.61 21.4C8.53 21.4 10.02 20.95 11.08 20.05C12.16 19.15 12.7 17.92 12.7 16.36C12.7 14.82 12.15 13.6 11.05 12.7C9.95 11.78 8.45 11.32 6.55 11.32H1.15V21.4H6.61ZM29.9371 16.18H19.4971L17.2771 22H16.5871L24.4171 1.51H25.0171L32.8171 22H32.1271L29.9371 16.18ZM29.7271 15.64L24.7171 2.47L19.7071 15.64H29.7271ZM48.1047 0.879998V1.42H41.9547V22H41.3547V1.42H35.2047V0.879998H48.1047ZM63.0965 0.879998V1.42H56.9465V22H56.3465V1.42H50.1965V0.879998H63.0965ZM67.7383 21.46H75.8383V22H67.1383V0.879998H67.7383V21.46ZM80.4742 1.42V11.17H89.2942V11.71H80.4742V21.46H90.1942V22H79.8742V0.879998H90.1942V1.42H80.4742ZM116.281 22L110.641 12.79H110.071H105.331V22H104.731V0.879998H110.011C112.331 0.879998 114.051 1.41 115.171 2.47C116.311 3.53 116.881 4.98 116.881 6.82C116.881 8.52 116.401 9.88 115.441 10.9C114.481 11.92 113.111 12.53 111.331 12.73L117.031 22H116.281ZM110.071 12.22C112.131 12.22 113.671 11.73 114.691 10.75C115.731 9.77 116.251 8.46 116.251 6.82C116.251 3.26 114.171 1.48 110.011 1.48H105.331V12.22H110.071ZM131.016 22.24C129.076 22.24 127.336 21.79 125.796 20.89C124.276 19.97 123.086 18.69 122.226 17.05C121.366 15.41 120.936 13.55 120.936 11.47C120.936 9.39 121.366 7.53 122.226 5.89C123.086 4.25 124.276 2.98 125.796 2.08C127.336 1.16 129.076 0.699999 131.016 0.699999C132.956 0.699999 134.686 1.16 136.206 2.08C137.746 2.98 138.946 4.25 139.806 5.89C140.666 7.53 141.096 9.39 141.096 11.47C141.096 13.55 140.666 15.41 139.806 17.05C138.946 18.69 137.746 19.97 136.206 20.89C134.686 21.79 132.956 22.24 131.016 22.24ZM131.016 21.7C132.776 21.7 134.376 21.29 135.816 20.47C137.256 19.63 138.386 18.44 139.206 16.9C140.046 15.34 140.466 13.53 140.466 11.47C140.466 9.41 140.046 7.61 139.206 6.07C138.386 4.51 137.256 3.32 135.816 2.5C134.376 1.66 132.776 1.24 131.016 1.24C129.256 1.24 127.656 1.66 126.216 2.5C124.776 3.32 123.636 4.51 122.796 6.07C121.976 7.61 121.566 9.41 121.566 11.47C121.566 13.53 121.976 15.34 122.796 16.9C123.636 18.44 124.776 19.63 126.216 20.47C127.656 21.29 129.256 21.7 131.016 21.7ZM155.675 22.24C153.735 22.24 151.995 21.79 150.455 20.89C148.935 19.97 147.745 18.69 146.885 17.05C146.025 15.41 145.595 13.55 145.595 11.47C145.595 9.39 146.025 7.53 146.885 5.89C147.745 4.25 148.935 2.98 150.455 2.08C151.995 1.16 153.735 0.699999 155.675 0.699999C157.615 0.699999 159.345 1.16 160.865 2.08C162.405 2.98 163.605 4.25 164.465 5.89C165.325 7.53 165.755 9.39 165.755 11.47C165.755 13.55 165.325 15.41 164.465 17.05C163.605 18.69 162.405 19.97 160.865 20.89C159.345 21.79 157.615 22.24 155.675 22.24ZM155.675 21.7C157.435 21.7 159.035 21.29 160.475 20.47C161.915 19.63 163.045 18.44 163.865 16.9C164.705 15.34 165.125 13.53 165.125 11.47C165.125 9.41 164.705 7.61 163.865 6.07C163.045 4.51 161.915 3.32 160.475 2.5C159.035 1.66 157.435 1.24 155.675 1.24C153.915 1.24 152.315 1.66 150.875 2.5C149.435 3.32 148.295 4.51 147.455 6.07C146.635 7.61 146.225 9.41 146.225 11.47C146.225 13.53 146.635 15.34 147.455 16.9C148.295 18.44 149.435 19.63 150.875 20.47C152.315 21.29 153.915 21.7 155.675 21.7ZM189.815 1.48V22H189.215V2.95L180.725 22H180.125L171.605 2.95V22H171.005V1.48H171.605L180.425 21.22L189.215 1.48H189.815Z" fill="#3B4040"/>
</svg>
