<svg width="21" height="24" viewBox="0 0 21 24" fill="none" xmlns="http://www.w3.org/2000/svg">
<path d="M9.54545 11.2139L19.1402 0.383962C19.326 0.204201 19.5649 0.110269 19.8093 0.120936C20.0537 0.131602 20.2856 0.246082 20.4585 0.441498C20.6315 0.636915 20.7328 0.898874 20.7423 1.17503C20.7517 1.45118 20.6686 1.72119 20.5095 1.9311L11.7111 11.8723L20.257 21.5282C20.4378 21.7338 20.5394 22.0119 20.5394 22.3018C20.5394 22.5916 20.4378 22.8698 20.257 23.0753C20.1667 23.1782 20.0593 23.2598 19.9409 23.3155C19.8226 23.3712 19.6957 23.3999 19.5675 23.3999C19.4393 23.3999 19.3123 23.3712 19.194 23.3155C19.0757 23.2598 18.9683 23.1782 18.878 23.0753L9.54545 12.5307C9.39126 12.3558 9.30469 12.1191 9.30469 11.8723C9.30469 11.6255 9.39126 11.3888 9.54545 11.2139Z" fill="#3B4040"/>
<path d="M0.240762 11.2134L9.83551 0.383538C9.92257 0.268675 10.0297 0.175386 10.1502 0.109526C10.2707 0.043665 10.4019 0.00665448 10.5356 0.00081765C10.6694 -0.00501918 10.8027 0.0204436 10.9274 0.0756075C11.052 0.130771 11.1652 0.214445 11.2598 0.321378C11.3545 0.428311 11.4285 0.556193 11.4773 0.696998C11.5262 0.837803 11.5487 0.988491 11.5435 1.1396C11.5384 1.29072 11.5056 1.43899 11.4473 1.57512C11.389 1.71125 11.3065 1.8323 11.2048 1.93066L2.40638 11.8718L10.9523 21.5276C11.1332 21.7332 11.2347 22.0113 11.2347 22.3012C11.2347 22.591 11.1332 22.8691 10.9523 23.0747C10.7704 23.2791 10.5242 23.3938 10.2677 23.3938C10.0111 23.3938 9.76497 23.2791 9.58302 23.0747L0.240762 12.5301C0.0865759 12.3553 0 12.1186 0 11.8718C0 11.625 0.0865759 11.3882 0.240762 11.2134Z" fill="#3B4040"/>
</svg>