<svg width="228" height="23" viewBox="0 0 228 23" fill="none" xmlns="http://www.w3.org/2000/svg">
<path d="M0.8 11.47C0.8 9.37 1.22 7.51 2.06 5.89C2.9 4.25 4.07 2.97 5.57 2.05C7.07 1.13 8.76 0.669999 10.64 0.669999C13.1 0.669999 15.13 1.24 16.73 2.38C18.35 3.52 19.53 5.1 20.27 7.12H19.67C19.03 5.34 17.94 3.91 16.4 2.83C14.86 1.75 12.94 1.21 10.64 1.21C8.92 1.21 7.36 1.63 5.96 2.47C4.56 3.29 3.45 4.48 2.63 6.04C1.83 7.58 1.43 9.39 1.43 11.47C1.43 13.53 1.83 15.33 2.63 16.87C3.45 18.41 4.56 19.6 5.96 20.44C7.38 21.26 8.94 21.67 10.64 21.67C12.94 21.67 14.86 21.14 16.4 20.08C17.94 19 19.03 17.57 19.67 15.79H20.27C19.53 17.81 18.35 19.39 16.73 20.53C15.13 21.65 13.1 22.21 10.64 22.21C8.76 22.21 7.07 21.76 5.57 20.86C4.07 19.94 2.9 18.67 2.06 17.05C1.22 15.41 0.8 13.55 0.8 11.47ZM37.0566 22L31.4166 12.79H30.8466H26.1066V22H25.5066V0.879998H30.7866C33.1066 0.879998 34.8266 1.41 35.9466 2.47C37.0866 3.53 37.6566 4.98 37.6566 6.82C37.6566 8.52 37.1766 9.88 36.2166 10.9C35.2566 11.92 33.8866 12.53 32.1066 12.73L37.8066 22H37.0566ZM30.8466 12.22C32.9066 12.22 34.4466 11.73 35.4666 10.75C36.5066 9.77 37.0266 8.46 37.0266 6.82C37.0266 3.26 34.9466 1.48 30.7866 1.48H26.1066V12.22H30.8466ZM43.0613 1.42V11.17H51.8813V11.71H43.0613V21.46H52.7813V22H42.4613V0.879998H52.7813V1.42H43.0613ZM69.4168 16.18H58.9768L56.7568 22H56.0668L63.8968 1.51H64.4968L72.2968 22H71.6068L69.4168 16.18ZM69.2068 15.64L64.1968 2.47L59.1868 15.64H69.2068ZM87.5844 0.879998V1.42H81.4344V22H80.8344V1.42H74.6844V0.879998H87.5844ZM92.2262 0.879998V22H91.6262V0.879998H92.2262ZM113.359 0.879998L105.259 22H104.659L96.5891 0.879998H97.2791L104.959 21.1L112.699 0.879998H113.359ZM118.313 1.42V11.17H127.133V11.71H118.313V21.46H128.033V22H117.713V0.879998H128.033V1.42H118.313ZM154.12 22L148.48 12.79H147.91H143.17V22H142.57V0.879998H147.85C150.17 0.879998 151.89 1.41 153.01 2.47C154.15 3.53 154.72 4.98 154.72 6.82C154.72 8.52 154.24 9.88 153.28 10.9C152.32 11.92 150.95 12.53 149.17 12.73L154.87 22H154.12ZM147.91 12.22C149.97 12.22 151.51 11.73 152.53 10.75C153.57 9.77 154.09 8.46 154.09 6.82C154.09 3.26 152.01 1.48 147.85 1.48H143.17V12.22H147.91ZM168.855 22.24C166.915 22.24 165.175 21.79 163.635 20.89C162.115 19.97 160.925 18.69 160.065 17.05C159.205 15.41 158.775 13.55 158.775 11.47C158.775 9.39 159.205 7.53 160.065 5.89C160.925 4.25 162.115 2.98 163.635 2.08C165.175 1.16 166.915 0.699999 168.855 0.699999C170.795 0.699999 172.525 1.16 174.045 2.08C175.585 2.98 176.785 4.25 177.645 5.89C178.505 7.53 178.935 9.39 178.935 11.47C178.935 13.55 178.505 15.41 177.645 17.05C176.785 18.69 175.585 19.97 174.045 20.89C172.525 21.79 170.795 22.24 168.855 22.24ZM168.855 21.7C170.615 21.7 172.215 21.29 173.655 20.47C175.095 19.63 176.225 18.44 177.045 16.9C177.885 15.34 178.305 13.53 178.305 11.47C178.305 9.41 177.885 7.61 177.045 6.07C176.225 4.51 175.095 3.32 173.655 2.5C172.215 1.66 170.615 1.24 168.855 1.24C167.095 1.24 165.495 1.66 164.055 2.5C162.615 3.32 161.475 4.51 160.635 6.07C159.815 7.61 159.405 9.41 159.405 11.47C159.405 13.53 159.815 15.34 160.635 16.9C161.475 18.44 162.615 19.63 164.055 20.47C165.495 21.29 167.095 21.7 168.855 21.7ZM193.514 22.24C191.574 22.24 189.834 21.79 188.294 20.89C186.774 19.97 185.584 18.69 184.724 17.05C183.864 15.41 183.434 13.55 183.434 11.47C183.434 9.39 183.864 7.53 184.724 5.89C185.584 4.25 186.774 2.98 188.294 2.08C189.834 1.16 191.574 0.699999 193.514 0.699999C195.454 0.699999 197.184 1.16 198.704 2.08C200.244 2.98 201.444 4.25 202.304 5.89C203.164 7.53 203.594 9.39 203.594 11.47C203.594 13.55 203.164 15.41 202.304 17.05C201.444 18.69 200.244 19.97 198.704 20.89C197.184 21.79 195.454 22.24 193.514 22.24ZM193.514 21.7C195.274 21.7 196.874 21.29 198.314 20.47C199.754 19.63 200.884 18.44 201.704 16.9C202.544 15.34 202.964 13.53 202.964 11.47C202.964 9.41 202.544 7.61 201.704 6.07C200.884 4.51 199.754 3.32 198.314 2.5C196.874 1.66 195.274 1.24 193.514 1.24C191.754 1.24 190.154 1.66 188.714 2.5C187.274 3.32 186.134 4.51 185.294 6.07C184.474 7.61 184.064 9.41 184.064 11.47C184.064 13.53 184.474 15.34 185.294 16.9C186.134 18.44 187.274 19.63 188.714 20.47C190.154 21.29 191.754 21.7 193.514 21.7ZM227.654 1.48V22H227.054V2.95L218.564 22H217.964L209.444 2.95V22H208.844V1.48H209.444L218.264 21.22L227.054 1.48H227.654Z" fill="#3B4040"/>
</svg>
