<svg width="33" height="34" viewBox="0 0 33 34" fill="none" xmlns="http://www.w3.org/2000/svg">
<path d="M21.6563 24.4375C21.3469 24.4375 21.1406 24.3313 20.9344 24.1188C20.5219 23.6938 20.5219 23.0562 20.9344 22.6312L26.4 17L20.9344 11.3687C20.5219 10.9437 20.5219 10.3063 20.9344 9.88125C21.3469 9.45625 21.9656 9.45625 22.3781 9.88125L28.5656 16.2563C28.9781 16.6813 28.9781 17.3188 28.5656 17.7438L22.3781 24.1188C22.1719 24.3313 21.9656 24.4375 21.6563 24.4375Z" fill="#3B4040"/>
<path d="M27.8438 18.0625H5.15625C4.5375 18.0625 4.125 17.6375 4.125 17C4.125 16.3625 4.5375 15.9375 5.15625 15.9375H27.8438C28.4625 15.9375 28.875 16.3625 28.875 17C28.875 17.6375 28.4625 18.0625 27.8438 18.0625Z" fill="#3B4040"/>
</svg>
