<svg width="175" height="23" viewBox="0 0 175 23" fill="none" xmlns="http://www.w3.org/2000/svg">
<path d="M1.14658 21.46H9.24658V22H0.546582V0.879998H1.14658V21.46ZM13.8825 0.879998V22H13.2825V0.879998H13.8825ZM38.0154 7.15C37.3754 5.39 36.2754 3.97 34.7154 2.89C33.1754 1.79 31.3454 1.24 29.2254 1.24C27.4654 1.24 25.8654 1.66 24.4254 2.5C22.9854 3.32 21.8454 4.51 21.0054 6.07C20.1854 7.61 19.7754 9.41 19.7754 11.47C19.7754 13.53 20.1854 15.34 21.0054 16.9C21.8454 18.44 22.9854 19.63 24.4254 20.47C25.8654 21.29 27.4654 21.7 29.2254 21.7C30.9454 21.7 32.5154 21.3 33.9354 20.5C35.3754 19.7 36.5254 18.55 37.3854 17.05C38.2454 15.53 38.6954 13.77 38.7354 11.77H28.7754V11.23H39.3054V11.47C39.3054 13.55 38.8754 15.41 38.0154 17.05C37.1554 18.69 35.9554 19.97 34.4154 20.89C32.8954 21.79 31.1654 22.24 29.2254 22.24C27.2854 22.24 25.5454 21.79 24.0054 20.89C22.4854 19.97 21.2954 18.69 20.4354 17.05C19.5754 15.41 19.1454 13.55 19.1454 11.47C19.1454 9.39 19.5754 7.53 20.4354 5.89C21.2954 4.25 22.4854 2.98 24.0054 2.08C25.5454 1.16 27.2854 0.699999 29.2254 0.699999C31.5054 0.699999 33.4554 1.28 35.0754 2.44C36.6954 3.6 37.8754 5.17 38.6154 7.15H38.0154ZM58.9252 0.879998V22H58.3252V11.41H45.1552V22H44.5552V0.879998H45.1552V10.87H58.3252V0.879998H58.9252ZM75.9169 0.879998V1.42H69.7669V22H69.1669V1.42H63.0169V0.879998H75.9169ZM101.11 22L95.4699 12.79H94.8999H90.1599V22H89.5599V0.879998H94.8399C97.1599 0.879998 98.8799 1.41 99.9999 2.47C101.14 3.53 101.71 4.98 101.71 6.82C101.71 8.52 101.23 9.88 100.27 10.9C99.3099 11.92 97.9399 12.53 96.1599 12.73L101.86 22H101.11ZM94.8999 12.22C96.9599 12.22 98.4999 11.73 99.5199 10.75C100.56 9.77 101.08 8.46 101.08 6.82C101.08 3.26 98.9999 1.48 94.8399 1.48H90.1599V12.22H94.8999ZM115.845 22.24C113.905 22.24 112.165 21.79 110.625 20.89C109.105 19.97 107.915 18.69 107.055 17.05C106.195 15.41 105.765 13.55 105.765 11.47C105.765 9.39 106.195 7.53 107.055 5.89C107.915 4.25 109.105 2.98 110.625 2.08C112.165 1.16 113.905 0.699999 115.845 0.699999C117.785 0.699999 119.515 1.16 121.035 2.08C122.575 2.98 123.775 4.25 124.635 5.89C125.495 7.53 125.925 9.39 125.925 11.47C125.925 13.55 125.495 15.41 124.635 17.05C123.775 18.69 122.575 19.97 121.035 20.89C119.515 21.79 117.785 22.24 115.845 22.24ZM115.845 21.7C117.605 21.7 119.205 21.29 120.645 20.47C122.085 19.63 123.215 18.44 124.035 16.9C124.875 15.34 125.295 13.53 125.295 11.47C125.295 9.41 124.875 7.61 124.035 6.07C123.215 4.51 122.085 3.32 120.645 2.5C119.205 1.66 117.605 1.24 115.845 1.24C114.085 1.24 112.485 1.66 111.045 2.5C109.605 3.32 108.465 4.51 107.625 6.07C106.805 7.61 106.395 9.41 106.395 11.47C106.395 13.53 106.805 15.34 107.625 16.9C108.465 18.44 109.605 19.63 111.045 20.47C112.485 21.29 114.085 21.7 115.845 21.7ZM140.504 22.24C138.564 22.24 136.824 21.79 135.284 20.89C133.764 19.97 132.574 18.69 131.714 17.05C130.854 15.41 130.424 13.55 130.424 11.47C130.424 9.39 130.854 7.53 131.714 5.89C132.574 4.25 133.764 2.98 135.284 2.08C136.824 1.16 138.564 0.699999 140.504 0.699999C142.444 0.699999 144.174 1.16 145.694 2.08C147.234 2.98 148.434 4.25 149.294 5.89C150.154 7.53 150.584 9.39 150.584 11.47C150.584 13.55 150.154 15.41 149.294 17.05C148.434 18.69 147.234 19.97 145.694 20.89C144.174 21.79 142.444 22.24 140.504 22.24ZM140.504 21.7C142.264 21.7 143.864 21.29 145.304 20.47C146.744 19.63 147.874 18.44 148.694 16.9C149.534 15.34 149.954 13.53 149.954 11.47C149.954 9.41 149.534 7.61 148.694 6.07C147.874 4.51 146.744 3.32 145.304 2.5C143.864 1.66 142.264 1.24 140.504 1.24C138.744 1.24 137.144 1.66 135.704 2.5C134.264 3.32 133.124 4.51 132.284 6.07C131.464 7.61 131.054 9.41 131.054 11.47C131.054 13.53 131.464 15.34 132.284 16.9C133.124 18.44 134.264 19.63 135.704 20.47C137.144 21.29 138.744 21.7 140.504 21.7ZM174.644 1.48V22H174.044V2.95L165.554 22H164.954L156.434 2.95V22H155.834V1.48H156.434L165.254 21.22L174.044 1.48H174.644Z" fill="#3B4040"/>
</svg>
