<svg width="327" height="28" viewBox="0 0 327 28" fill="none" xmlns="http://www.w3.org/2000/svg">
<rect y="3" width="25" height="25" rx="5" fill="#9C0000"/>
<rect x="210" y="3" width="25" height="25" rx="5" fill="#00BA8D"/>
<path d="M46.167 25L38.8672 12.2559L38.7207 11.499V25H37.146V7.49512H37.9639L45.2637 20.2515L45.4224 20.9961V7.49512H46.9971V25H46.167ZM59.3579 20.9473C59.3579 21.5413 59.244 22.0988 59.0161 22.6196C58.7964 23.1405 58.4912 23.5962 58.1006 23.9868C57.71 24.3774 57.2542 24.6867 56.7334 24.9146C56.2126 25.1343 55.6551 25.2441 55.061 25.2441H53.8159C53.2218 25.2441 52.6603 25.1343 52.1313 24.9146C51.6105 24.6867 51.1548 24.3774 50.7642 23.9868C50.3735 23.5962 50.0643 23.1405 49.8364 22.6196C49.6167 22.0988 49.5068 21.5413 49.5068 20.9473V11.5479C49.5068 10.9538 49.6167 10.3963 49.8364 9.87549C50.0643 9.35465 50.3735 8.89893 50.7642 8.5083C51.1548 8.11768 51.6105 7.8125 52.1313 7.59277C52.6603 7.36491 53.2218 7.25098 53.8159 7.25098H55.061C55.6551 7.25098 56.2126 7.36491 56.7334 7.59277C57.2542 7.8125 57.71 8.11768 58.1006 8.5083C58.4912 8.89893 58.7964 9.35465 59.0161 9.87549C59.244 10.3963 59.3579 10.9538 59.3579 11.5479V20.9473ZM57.7832 11.5479C57.7832 11.1572 57.71 10.7951 57.5635 10.4614C57.417 10.1196 57.2176 9.82259 56.9653 9.57031C56.7131 9.31803 56.416 9.11865 56.0742 8.97217C55.7406 8.82568 55.3784 8.75244 54.9878 8.75244H53.8892C53.4985 8.75244 53.1323 8.82568 52.7905 8.97217C52.4569 9.11865 52.1598 9.31803 51.8994 9.57031C51.6471 9.82259 51.4478 10.1196 51.3013 10.4614C51.1548 10.7951 51.0815 11.1572 51.0815 11.5479V20.9473C51.0815 21.3379 51.1548 21.7041 51.3013 22.0459C51.4478 22.3796 51.6471 22.6766 51.8994 22.937C52.1598 23.1893 52.4569 23.3887 52.7905 23.5352C53.1323 23.6816 53.4985 23.7549 53.8892 23.7549H54.9878C55.3784 23.7549 55.7406 23.6816 56.0742 23.5352C56.416 23.3887 56.7131 23.1893 56.9653 22.937C57.2176 22.6766 57.417 22.3796 57.5635 22.0459C57.71 21.7041 57.7832 21.3379 57.7832 20.9473V11.5479ZM70.8887 25L63.5889 12.2559L63.4424 11.499V25H61.8677V7.49512H62.6855L69.9854 20.2515L70.144 20.9961V7.49512H71.7188V25H70.8887ZM88.8477 20.7031C88.8477 21.2972 88.7337 21.8547 88.5059 22.3755C88.2861 22.8963 87.981 23.3521 87.5903 23.7427C87.1997 24.1333 86.7399 24.4425 86.2109 24.6704C85.6901 24.8901 85.1326 25 84.5386 25H78.9966V7.49512H84.5386C85.1326 7.49512 85.6901 7.60905 86.2109 7.83691C86.7399 8.05664 87.1997 8.36182 87.5903 8.75244C87.981 9.14307 88.2861 9.60286 88.5059 10.1318C88.7337 10.6527 88.8477 11.2101 88.8477 11.8042V20.7031ZM87.2729 11.8042C87.2729 11.4136 87.1997 11.0514 87.0532 10.7178C86.9067 10.376 86.7033 10.0789 86.4429 9.82666C86.1906 9.56624 85.8936 9.36279 85.5518 9.21631C85.2181 9.06982 84.856 8.99658 84.4653 8.99658H80.5713V23.4985H84.4653C84.856 23.4985 85.2181 23.4253 85.5518 23.2788C85.8936 23.1323 86.1906 22.9329 86.4429 22.6807C86.7033 22.4284 86.9067 22.1354 87.0532 21.8018C87.1997 21.46 87.2729 21.0938 87.2729 20.7031V11.8042ZM91.3452 25V7.49512H92.9199V25H91.3452ZM105.281 20.9473C105.281 21.5413 105.159 22.0988 104.915 22.6196C104.679 23.1405 104.357 23.5962 103.95 23.9868C103.551 24.3774 103.083 24.6867 102.546 24.9146C102.017 25.1343 101.456 25.2441 100.862 25.2441H99.6045C99.0104 25.2441 98.4448 25.1343 97.9077 24.9146C97.3787 24.6867 96.9108 24.3774 96.5039 23.9868C96.1051 23.5962 95.7837 23.1405 95.5396 22.6196C95.3035 22.0988 95.1855 21.5413 95.1855 20.9473V20.2515L96.7603 19.9951V20.9473C96.7603 21.3379 96.8376 21.7041 96.9922 22.0459C97.1549 22.3796 97.3706 22.6766 97.6392 22.937C97.9077 23.1893 98.217 23.3887 98.5669 23.5352C98.925 23.6816 99.2993 23.7549 99.6899 23.7549H100.789C101.179 23.7549 101.549 23.6816 101.899 23.5352C102.249 23.3887 102.559 23.1893 102.827 22.937C103.096 22.6766 103.307 22.3796 103.462 22.0459C103.625 21.7041 103.706 21.3379 103.706 20.9473V20.4224C103.706 19.8201 103.588 19.3197 103.352 18.9209C103.116 18.5221 102.803 18.1844 102.412 17.9077C102.021 17.6229 101.578 17.3828 101.082 17.1875C100.593 16.9922 100.089 16.7969 99.5679 16.6016C99.047 16.4062 98.5384 16.1906 98.042 15.9546C97.5537 15.7186 97.1143 15.4256 96.7236 15.0757C96.333 14.7176 96.0197 14.2822 95.7837 13.7695C95.5477 13.2568 95.4297 12.6261 95.4297 11.8774V11.5479C95.4297 10.9538 95.5396 10.3963 95.7593 9.87549C95.9871 9.35465 96.2964 8.89893 96.687 8.5083C97.0776 8.11768 97.5334 7.8125 98.0542 7.59277C98.5832 7.36491 99.1447 7.25098 99.7388 7.25098H100.862C101.456 7.25098 102.013 7.36491 102.534 7.59277C103.055 7.8125 103.511 8.11768 103.901 8.5083C104.292 8.89893 104.597 9.35465 104.817 9.87549C105.045 10.3963 105.159 10.9538 105.159 11.5479V11.9995L103.584 12.2559V11.5479C103.584 11.1572 103.511 10.7951 103.364 10.4614C103.218 10.1196 103.018 9.82259 102.766 9.57031C102.514 9.31803 102.217 9.11865 101.875 8.97217C101.541 8.82568 101.179 8.75244 100.789 8.75244H99.812C99.4214 8.75244 99.0552 8.82568 98.7134 8.97217C98.3797 9.11865 98.0827 9.31803 97.8223 9.57031C97.57 9.82259 97.3706 10.1196 97.2241 10.4614C97.0776 10.7951 97.0044 11.1572 97.0044 11.5479V11.8774C97.0044 12.439 97.1224 12.911 97.3584 13.2935C97.5944 13.6759 97.9077 14.0055 98.2983 14.2822C98.689 14.5508 99.1284 14.7868 99.6167 14.9902C100.113 15.1855 100.622 15.389 101.143 15.6006C101.663 15.804 102.168 16.0319 102.656 16.2842C103.153 16.5283 103.596 16.8335 103.987 17.1997C104.377 17.5578 104.691 17.9972 104.927 18.5181C105.163 19.0389 105.281 19.6737 105.281 20.4224V20.9473ZM117.275 13.9771C117.275 14.5711 117.161 15.1286 116.934 15.6494C116.714 16.1702 116.409 16.626 116.018 17.0166C115.627 17.4072 115.168 17.7165 114.639 17.9443C114.118 18.1641 113.56 18.2739 112.966 18.2739H108.999V25H107.424V7.49512H112.966C113.56 7.49512 114.118 7.60905 114.639 7.83691C115.168 8.05664 115.627 8.36182 116.018 8.75244C116.409 9.14307 116.714 9.60286 116.934 10.1318C117.161 10.6527 117.275 11.2101 117.275 11.8042V13.9771ZM115.701 11.8042C115.701 11.4136 115.627 11.0514 115.481 10.7178C115.334 10.376 115.131 10.0789 114.871 9.82666C114.618 9.56624 114.321 9.36279 113.979 9.21631C113.646 9.06982 113.284 8.99658 112.893 8.99658H108.999V16.7725H112.893C113.284 16.7725 113.646 16.6992 113.979 16.5527C114.321 16.4062 114.618 16.2069 114.871 15.9546C115.131 15.7023 115.334 15.4093 115.481 15.0757C115.627 14.7339 115.701 14.3677 115.701 13.9771V11.8042ZM128.635 20.9473C128.635 21.5413 128.521 22.0988 128.293 22.6196C128.074 23.1405 127.769 23.5962 127.378 23.9868C126.987 24.3774 126.532 24.6867 126.011 24.9146C125.49 25.1343 124.932 25.2441 124.338 25.2441H123.093C122.499 25.2441 121.938 25.1343 121.409 24.9146C120.888 24.6867 120.432 24.3774 120.042 23.9868C119.651 23.5962 119.342 23.1405 119.114 22.6196C118.894 22.0988 118.784 21.5413 118.784 20.9473V11.5479C118.784 10.9538 118.894 10.3963 119.114 9.87549C119.342 9.35465 119.651 8.89893 120.042 8.5083C120.432 8.11768 120.888 7.8125 121.409 7.59277C121.938 7.36491 122.499 7.25098 123.093 7.25098H124.338C124.932 7.25098 125.49 7.36491 126.011 7.59277C126.532 7.8125 126.987 8.11768 127.378 8.5083C127.769 8.89893 128.074 9.35465 128.293 9.87549C128.521 10.3963 128.635 10.9538 128.635 11.5479V20.9473ZM127.061 11.5479C127.061 11.1572 126.987 10.7951 126.841 10.4614C126.694 10.1196 126.495 9.82259 126.243 9.57031C125.99 9.31803 125.693 9.11865 125.352 8.97217C125.018 8.82568 124.656 8.75244 124.265 8.75244H123.167C122.776 8.75244 122.41 8.82568 122.068 8.97217C121.734 9.11865 121.437 9.31803 121.177 9.57031C120.924 9.82259 120.725 10.1196 120.579 10.4614C120.432 10.7951 120.359 11.1572 120.359 11.5479V20.9473C120.359 21.3379 120.432 21.7041 120.579 22.0459C120.725 22.3796 120.924 22.6766 121.177 22.937C121.437 23.1893 121.734 23.3887 122.068 23.5352C122.41 23.6816 122.776 23.7549 123.167 23.7549H124.265C124.656 23.7549 125.018 23.6816 125.352 23.5352C125.693 23.3887 125.99 23.1893 126.243 22.937C126.495 22.6766 126.694 22.3796 126.841 22.0459C126.987 21.7041 127.061 21.3379 127.061 20.9473V11.5479ZM140.166 25L132.866 12.2559L132.72 11.499V25H131.145V7.49512H131.963L139.263 20.2515L139.421 20.9961V7.49512H140.996V25H140.166ZM143.762 25V7.49512H145.337V25H143.762ZM157.954 20.7031C157.954 21.2972 157.84 21.8547 157.612 22.3755C157.393 22.8963 157.087 23.3521 156.697 23.7427C156.306 24.1333 155.846 24.4425 155.317 24.6704C154.797 24.8901 154.239 25 153.645 25H148.103V7.49512H153.645C154.239 7.49512 154.797 7.60905 155.317 7.83691C155.846 8.05664 156.306 8.36182 156.697 8.75244C157.087 9.14307 157.393 9.60286 157.612 10.1318C157.84 10.6527 157.954 11.2101 157.954 11.8042V11.9751C157.954 12.3901 157.897 12.7889 157.783 13.1714C157.677 13.5457 157.523 13.8957 157.319 14.2212C157.116 14.5467 156.876 14.8438 156.599 15.1123C156.322 15.3727 156.013 15.5924 155.671 15.7715C156.013 15.9505 156.322 16.1743 156.599 16.4429C156.876 16.7033 157.116 17.0003 157.319 17.334C157.523 17.6595 157.677 18.0135 157.783 18.396C157.897 18.7703 157.954 19.165 157.954 19.5801V20.7031ZM156.379 19.3237C156.379 18.9331 156.306 18.571 156.16 18.2373C156.013 17.8955 155.81 17.5985 155.549 17.3462C155.297 17.0939 155 16.8945 154.658 16.748C154.325 16.6016 153.962 16.5283 153.572 16.5283H149.678V23.4985H153.572C153.962 23.4985 154.325 23.4253 154.658 23.2788C155 23.1323 155.297 22.9329 155.549 22.6807C155.81 22.4284 156.013 22.1354 156.16 21.8018C156.306 21.46 156.379 21.0938 156.379 20.7031V19.3237ZM156.379 11.8042C156.379 11.4136 156.306 11.0514 156.16 10.7178C156.013 10.376 155.81 10.0789 155.549 9.82666C155.297 9.56624 155 9.36279 154.658 9.21631C154.325 9.06982 153.962 8.99658 153.572 8.99658H149.678V15.0269H153.572C153.962 15.0269 154.325 14.9536 154.658 14.8071C155 14.6606 155.297 14.4613 155.549 14.209C155.81 13.9486 156.013 13.6515 156.16 13.3179C156.306 12.9761 156.379 12.6099 156.379 12.2192V11.8042ZM159.463 25V7.49512H161.038V23.4985H167.739V25H159.463ZM168.992 25V7.49512H178.843V8.99658H170.566V15.5029H177.268V17.0044H170.566V23.4985H178.843V25H168.992Z" fill="white"/>
<path d="M255.326 23L250.578 15.5293H248.417V23H246.842V5.49512H252.396C252.991 5.49512 253.548 5.60905 254.069 5.83691C254.59 6.05664 255.045 6.36182 255.436 6.75244C255.827 7.14307 256.132 7.60286 256.352 8.13184C256.579 8.65267 256.693 9.21012 256.693 9.8042V11.2202C256.693 11.8143 256.579 12.3758 256.352 12.9048C256.132 13.4256 255.827 13.8813 255.436 14.272C255.045 14.6626 254.59 14.9718 254.069 15.1997C253.548 15.4194 252.991 15.5293 252.396 15.5293L257.145 23H255.326ZM255.119 9.8042C255.119 9.41357 255.045 9.05143 254.899 8.71777C254.752 8.37598 254.553 8.07894 254.301 7.82666C254.049 7.56624 253.751 7.36279 253.41 7.21631C253.076 7.06982 252.714 6.99658 252.323 6.99658H248.417V14.0278H252.323C252.714 14.0278 253.076 13.9546 253.41 13.8081C253.751 13.6616 254.049 13.4622 254.301 13.21C254.553 12.9495 254.752 12.6525 254.899 12.3188C255.045 11.9771 255.119 11.6108 255.119 11.2202V9.8042ZM258.91 23V5.49512H268.761V6.99658H260.485V13.5029H267.187V15.0044H260.485V21.4985H268.761V23H258.91ZM280.121 18.9473C280.121 19.5413 279.999 20.0988 279.755 20.6196C279.519 21.1405 279.197 21.5962 278.791 21.9868C278.392 22.3774 277.924 22.6867 277.387 22.9146C276.858 23.1343 276.296 23.2441 275.702 23.2441H274.445C273.851 23.2441 273.285 23.1343 272.748 22.9146C272.219 22.6867 271.751 22.3774 271.344 21.9868C270.945 21.5962 270.624 21.1405 270.38 20.6196C270.144 20.0988 270.026 19.5413 270.026 18.9473V18.2515L271.601 17.9951V18.9473C271.601 19.3379 271.678 19.7041 271.833 20.0459C271.995 20.3796 272.211 20.6766 272.479 20.937C272.748 21.1893 273.057 21.3887 273.407 21.5352C273.765 21.6816 274.14 21.7549 274.53 21.7549H275.629C276.02 21.7549 276.39 21.6816 276.74 21.5352C277.09 21.3887 277.399 21.1893 277.667 20.937C277.936 20.6766 278.148 20.3796 278.302 20.0459C278.465 19.7041 278.546 19.3379 278.546 18.9473V18.4224C278.546 17.8201 278.428 17.3197 278.192 16.9209C277.956 16.5221 277.643 16.1844 277.252 15.9077C276.862 15.6229 276.418 15.3828 275.922 15.1875C275.434 14.9922 274.929 14.7969 274.408 14.6016C273.887 14.4062 273.379 14.1906 272.882 13.9546C272.394 13.7186 271.955 13.4256 271.564 13.0757C271.173 12.7176 270.86 12.2822 270.624 11.7695C270.388 11.2568 270.27 10.6261 270.27 9.87744V9.54785C270.27 8.95378 270.38 8.39632 270.6 7.87549C270.827 7.35465 271.137 6.89893 271.527 6.5083C271.918 6.11768 272.374 5.8125 272.895 5.59277C273.424 5.36491 273.985 5.25098 274.579 5.25098H275.702C276.296 5.25098 276.854 5.36491 277.375 5.59277C277.895 5.8125 278.351 6.11768 278.742 6.5083C279.132 6.89893 279.438 7.35465 279.657 7.87549C279.885 8.39632 279.999 8.95378 279.999 9.54785V9.99951L278.424 10.2559V9.54785C278.424 9.15723 278.351 8.79508 278.205 8.46143C278.058 8.11963 277.859 7.82259 277.606 7.57031C277.354 7.31803 277.057 7.11865 276.715 6.97217C276.382 6.82568 276.02 6.75244 275.629 6.75244H274.652C274.262 6.75244 273.896 6.82568 273.554 6.97217C273.22 7.11865 272.923 7.31803 272.663 7.57031C272.41 7.82259 272.211 8.11963 272.064 8.46143C271.918 8.79508 271.845 9.15723 271.845 9.54785V9.87744C271.845 10.439 271.963 10.911 272.199 11.2935C272.435 11.6759 272.748 12.0055 273.139 12.2822C273.529 12.5508 273.969 12.7868 274.457 12.9902C274.953 13.1855 275.462 13.389 275.983 13.6006C276.504 13.804 277.008 14.0319 277.497 14.2842C277.993 14.5283 278.437 14.8335 278.827 15.1997C279.218 15.5578 279.531 15.9972 279.767 16.5181C280.003 17.0389 280.121 17.6737 280.121 18.4224V18.9473ZM282.265 23V5.49512H292.116V6.99658H283.839V13.5029H290.541V15.0044H283.839V21.4985H292.116V23H282.265ZM302.108 23L297.36 15.5293H295.199V23H293.625V5.49512H299.179C299.773 5.49512 300.33 5.60905 300.851 5.83691C301.372 6.05664 301.828 6.36182 302.218 6.75244C302.609 7.14307 302.914 7.60286 303.134 8.13184C303.362 8.65267 303.476 9.21012 303.476 9.8042V11.2202C303.476 11.8143 303.362 12.3758 303.134 12.9048C302.914 13.4256 302.609 13.8813 302.218 14.272C301.828 14.6626 301.372 14.9718 300.851 15.1997C300.33 15.4194 299.773 15.5293 299.179 15.5293L303.927 23H302.108ZM301.901 9.8042C301.901 9.41357 301.828 9.05143 301.681 8.71777C301.535 8.37598 301.335 8.07894 301.083 7.82666C300.831 7.56624 300.534 7.36279 300.192 7.21631C299.858 7.06982 299.496 6.99658 299.105 6.99658H295.199V14.0278H299.105C299.496 14.0278 299.858 13.9546 300.192 13.8081C300.534 13.6616 300.831 13.4622 301.083 13.21C301.335 12.9495 301.535 12.6525 301.681 12.3188C301.828 11.9771 301.901 11.6108 301.901 11.2202V9.8042ZM309.44 19.1548L309.489 19.8018L309.538 19.1548L313.419 5.49512H315.043L309.892 23H309.062L303.935 5.49512H305.57L309.44 19.1548ZM316.039 23V5.49512H325.89V6.99658H317.614V13.5029H324.315V15.0044H317.614V21.4985H325.89V23H316.039ZM320.336 3.50537H319.213L321.215 0.502441H323.717L320.336 3.50537Z" fill="white"/>
</svg>
